<?xml version="1.0" standalone="no"?>
<!DOCTYPE svg PUBLIC "-//W3C//DTD SVG 20010904//EN"
 "http://www.w3.org/TR/2001/REC-SVG-20010904/DTD/svg10.dtd">
<svg version="1.0" xmlns="http://www.w3.org/2000/svg"
 width="1600.000000pt" height="1689.000000pt" viewBox="0 0 1600.000000 1689.000000"
 preserveAspectRatio="xMidYMid meet">
<metadata>
Created by potrace 1.16, written by Peter Selinger 2001-2019
</metadata>
<g transform="translate(0.000000,1689.000000) scale(0.100000,-0.100000)"
fill="#000000" stroke="none">
<path d="M4989 16138 c-295 -18 -543 -156 -696 -387 -77 -116 -143 -310 -143
-421 0 -107 80 -213 183 -241 52 -14 133 -6 178 16 80 40 114 93 148 222 54
212 184 307 416 307 121 -1 217 -25 354 -90 97 -45 216 -127 251 -171 11 -14
20 -22 20 -18 0 10 63 -62 118 -134 58 -76 136 -239 161 -336 129 -500 -98
-1104 -657 -1745 -41 -47 -201 -211 -356 -365 -292 -290 -423 -428 -568 -600
-137 -162 -344 -433 -431 -563 -9 -15 -22 -26 -28 -24 -6 1 -8 -2 -5 -7 4 -5
-23 -56 -60 -112 -215 -332 -421 -737 -560 -1104 -42 -112 -45 -185 -10 -261
57 -122 216 -177 336 -117 73 36 101 79 179 273 151 376 350 748 579 1080 119
172 274 370 285 363 6 -3 7 -1 3 5 -9 14 92 136 264 321 69 74 149 160 179
192 l54 59 534 0 533 0 0 -657 c1 -3742 -1 -4838 -7 -4844 -5 -3 -55 -12 -113
-18 -277 -32 -787 -113 -1110 -177 -285 -57 -702 -151 -801 -180 -10 -3 -33
20 -71 73 -68 97 -182 283 -232 383 -21 41 -42 80 -46 85 -17 23 -121 269
-164 390 -66 183 -67 185 -100 223 -49 55 -100 77 -186 77 -112 0 -184 -46
-229 -145 -41 -91 -24 -179 91 -472 52 -134 208 -451 266 -542 18 -28 32 -55
32 -62 0 -7 3 -14 8 -16 8 -3 102 -144 102 -153 0 -3 7 -13 16 -22 8 -10 35
-45 59 -78 154 -210 193 -255 435 -495 91 -91 222 -210 290 -265 69 -55 129
-104 135 -108 46 -38 237 -164 355 -237 658 -401 1404 -635 2310 -727 224 -23
1141 -26 1365 -5 648 61 1157 176 1670 379 142 56 539 248 630 305 28 17 91
56 140 87 306 189 619 451 858 716 50 55 94 99 99 97 4 -1 7 2 6 6 -2 4 22 39
52 76 225 281 433 628 570 951 228 537 339 1089 340 1686 0 501 -73 965 -233
1474 -200 635 -582 1338 -1031 1900 -245 306 -354 426 -717 785 -351 347 -488
503 -650 740 -399 581 -506 1120 -306 1540 145 306 421 521 739 576 127 22
244 8 339 -41 86 -45 152 -142 183 -269 20 -83 39 -121 79 -164 36 -37 121
-72 177 -72 56 0 141 35 177 72 73 76 89 171 53 313 -84 330 -299 550 -631
646 -105 30 -338 37 -469 15 -402 -70 -772 -318 -1006 -677 -104 -157 -170
-320 -216 -526 -19 -85 -22 -129 -23 -328 0 -201 3 -244 23 -342 87 -429 288
-830 634 -1263 69 -85 132 -161 141 -169 9 -7 17 -17 17 -22 0 -5 -987 -9
-2300 -9 -1313 0 -2300 4 -2300 9 0 5 7 14 16 22 43 36 264 322 355 459 244
372 383 711 435 1061 22 154 15 452 -15 586 -106 479 -404 861 -836 1073 -222
108 -436 153 -666 138z m2751 -6561 l0 -2704 -252 -6 c-234 -7 -441 -17 -645
-33 l-83 -6 0 2726 0 2726 490 0 489 0 1 -2703z m1540 -27 l0 -2730 -22 4
c-49 10 -550 41 -835 52 l-183 7 0 1911 c0 1682 2 1916 15 1955 17 46 16 115
-5 356 -5 66 -10 357 -10 648 l0 527 520 0 520 0 0 -2730z m1637 2618 c162
-164 334 -361 328 -376 -3 -7 -1 -10 4 -7 21 13 332 -403 482 -645 249 -403
453 -836 573 -1220 145 -464 205 -849 206 -1306 0 -561 -98 -1035 -317 -1534
-31 -69 -67 -145 -80 -170 -14 -25 -41 -74 -61 -110 -96 -176 -258 -414 -274
-404 -7 4 -8 2 -4 -4 18 -30 -327 -404 -529 -572 -600 -501 -1366 -830 -2235
-959 -329 -49 -534 -61 -1015 -61 -522 0 -757 17 -1135 81 -751 127 -1400 397
-1955 814 -149 112 -287 234 -279 247 4 6 2 8 -3 5 -6 -4 -16 0 -23 8 -16 19
-35 13 275 79 792 166 1454 259 2180 306 94 6 197 13 230 16 33 2 278 7 545
11 697 8 1158 -14 1825 -88 301 -33 747 -100 1004 -149 112 -21 180 -6 253 59
84 73 105 209 48 309 -37 63 -94 107 -158 121 -91 19 -399 70 -577 95 -184 26
-413 56 -427 56 -4 0 -8 1240 -8 2755 l0 2755 508 0 508 0 111 -112z"/>
<path d="M2783 12526 c-85 -28 -131 -80 -308 -346 -417 -630 -720 -1358 -863
-2075 -76 -378 -102 -626 -109 -1040 -7 -420 13 -709 78 -1090 127 -753 427
-1515 855 -2177 34 -53 60 -99 58 -102 -2 -3 -1 -4 2 -2 4 3 27 -25 52 -62
125 -183 297 -400 478 -602 145 -162 452 -465 564 -557 8 -6 65 -53 125 -104
605 -508 1414 -947 2197 -1193 258 -81 622 -176 676 -176 36 0 26 -13 -40 -50
-35 -19 -71 -39 -81 -45 -87 -48 -333 -219 -477 -330 -226 -175 -580 -510
-611 -579 -23 -50 -25 -152 -5 -201 42 -100 126 -155 235 -154 39 0 81 7 103
17 20 9 86 64 145 122 549 534 1053 852 1565 989 552 147 1085 83 1639 -195
112 -56 330 -186 414 -246 218 -156 448 -351 637 -537 128 -126 169 -150 254
-151 108 0 179 40 227 129 39 72 44 132 17 205 -27 71 -52 99 -250 284 -167
155 -374 326 -535 440 -55 39 -108 78 -117 86 -10 9 -18 13 -18 9 0 -3 -8 1
-18 10 -9 8 -81 54 -160 100 l-143 85 58 12 c78 16 407 97 463 114 355 110
550 180 804 288 551 232 1130 584 1586 962 638 530 1158 1158 1525 1841 330
616 543 1259 639 1935 45 312 51 410 51 775 0 366 -6 447 -56 735 -144 831
-531 1842 -1016 2658 -94 157 -130 194 -211 218 -172 51 -336 -87 -319 -267 4
-51 16 -78 80 -187 534 -914 899 -1919 1003 -2762 20 -163 23 -559 5 -760 -82
-926 -364 -1744 -866 -2508 -364 -553 -852 -1071 -1370 -1452 -55 -40 -116
-85 -135 -100 -257 -191 -780 -482 -1150 -637 -615 -259 -1230 -409 -1950
-475 -209 -19 -863 -16 -1080 5 -704 70 -1297 219 -1925 485 -340 143 -870
439 -1115 622 -19 15 -80 60 -135 100 -212 156 -450 364 -664 580 -113 114
-342 372 -409 460 -23 30 -54 69 -67 87 -95 118 -283 396 -346 509 -18 32 -40
70 -49 84 -9 14 -36 61 -60 105 -23 44 -58 107 -76 140 -46 84 -147 307 -205
454 -113 282 -227 673 -283 971 -100 530 -118 1109 -50 1640 103 812 396 1593
856 2284 33 49 66 95 74 103 8 8 14 19 14 24 0 5 8 17 18 27 18 20 26 31 68
99 48 80 43 194 -14 277 -55 79 -185 123 -279 92z"/>
</g>
</svg>
