<svg xmlns="http://www.w3.org/2000/svg" viewBox="0 0 64 80" x="0px" y="0px"><title>Artboard 21</title><g data-name="Layer 22"><path d="M35.87,35.13l-11,1.48a1,1,0,0,0-.87,1v6.74a3.49,3.49,0,0,0-4.3,1.06A3.5,3.5,0,1,0,26,47.5c0-.12,0-.24,0-.36A.7.7,0,0,0,26,47V38.48l9-1.22v5.09A3.45,3.45,0,0,0,33.5,42,3.5,3.5,0,0,0,30,45.5a4.26,4.26,0,0,0,.07.7A3.51,3.51,0,0,0,33.5,49a4.07,4.07,0,0,0,.61,0,3.52,3.52,0,0,0,2.82-2.75v0A3.82,3.82,0,0,0,37,45.5c0-.11,0-.22,0-.33A1,1,0,0,0,37,45V36.12a1,1,0,0,0-1.13-1ZM22.5,49A1.5,1.5,0,0,1,21,47.5a1.54,1.54,0,0,1,.3-.9,1.5,1.5,0,0,1,2.4,0,1.54,1.54,0,0,1,.3.9A1.5,1.5,0,0,1,22.5,49ZM32,45.82a1.66,1.66,0,0,1,0-.32,1.5,1.5,0,0,1,3,0,1.45,1.45,0,0,1,0,.3,1.34,1.34,0,0,1-.12.3c0,.06,0,.13-.07.18a1.73,1.73,0,0,1-.21.25l-.12.13a1.69,1.69,0,0,1-.29.17l-.15.08a1.44,1.44,0,0,1-.51.09A1.5,1.5,0,0,1,32,45.82ZM54,22a1,1,0,0,0-1-1H11a1,1,0,0,0-1,1v5H5a1,1,0,0,0-1,1.23l6,25A1,1,0,0,0,11,54H53.12a1,1,0,0,0,.25-.07l.08,0a1.11,1.11,0,0,0,.32-.25l0,0s0,0,0-.07a1,1,0,0,0,.13-.28l0-.14s0-.08,0-.13ZM12,23H52V44.55L48,27.77A1,1,0,0,0,47,27H12Zm-.21,29L6.27,29H46.21l5.52,23Z"/></g></svg>