<svg xmlns="http://www.w3.org/2000/svg" xmlns:xlink="http://www.w3.org/1999/xlink" version="1.1" x="0px" y="0px" viewBox="0 0 100 125" enable-background="new 0 0 100 100" xml:space="preserve"><g display="none"><rect x="50" y="22.5" display="inline" width="5" height="5"/><rect x="55" y="22.5" display="inline" width="5" height="5"/><rect x="60" y="22.5" display="inline" width="5" height="5"/><rect x="65" y="22.5" display="inline" width="5" height="5"/><rect x="70" y="22.5" display="inline" width="5" height="5"/><rect x="75" y="22.5" display="inline" width="5" height="5"/><rect x="80" y="22.5" display="inline" width="5" height="5"/><rect x="85" y="27.5" display="inline" width="5" height="22.5"/><rect x="85" y="50" display="inline" width="5" height="5"/><rect x="85" y="55" display="inline" width="5" height="5"/><rect x="85" y="60" display="inline" width="5" height="5"/><rect x="85" y="65" display="inline" width="5" height="12.5"/><rect x="80" y="77.5" display="inline" width="5" height="5"/><rect x="75" y="77.5" display="inline" width="5" height="5"/><rect x="70" y="77.5" display="inline" width="5" height="5"/><rect x="65" y="77.5" display="inline" width="5" height="5"/><rect x="60" y="77.5" display="inline" width="5" height="5"/><rect x="55" y="77.5" display="inline" width="5" height="5"/><rect x="50" y="77.5" display="inline" width="5" height="5"/><rect x="45" y="65" display="inline" width="5" height="12.5"/><rect x="45" y="60" display="inline" width="5" height="5"/><rect x="45" y="55" display="inline" width="5" height="5"/><rect x="45" y="50" display="inline" width="5" height="5"/><rect x="40" y="27.5" display="inline" width="5" height="5"/><rect x="40" y="72.5" display="inline" width="5" height="5"/><rect x="35" y="27.5" display="inline" width="5" height="5"/><rect x="35" y="67.5" display="inline" width="5" height="5"/><rect x="30" y="32.5" display="inline" width="5" height="35"/><rect x="45" y="27.5" display="inline" width="5" height="22.5"/></g><g><path d="M74.364,16.184h-48.1c-5.001,0-9.068,4.067-9.068,9.067v48.1c0,5.001,4.067,9.069,9.068,9.069h48.1   c5.001,0,9.068-4.068,9.068-9.069v-48.1C83.433,20.251,79.365,16.184,74.364,16.184z"/></g></svg>