<svg xmlns="http://www.w3.org/2000/svg" width="24" height="24" fill="currentColor" viewBox="0 0 24 24">
  <rect width="20" height="20" x="2" y="2" opacity=".12" rx="6"/>
  <path fill="#0000ff" fill-rule="evenodd" d="M11.6 1.25h-.034c-1.651 0-2.937 0-3.968.084-1.047.086-1.897.262-2.662.652a6.75 6.75 0 00-2.95 2.95c-.39.765-.566 1.615-.652 2.662-.084 1.031-.084 2.317-.084 3.968V12.434c0 1.651 0 2.937.084 3.968.086 1.047.262 1.897.652 2.662a6.75 6.75 0 002.95 2.95c.765.39 1.615.566 2.662.652 1.031.084 2.317.084 3.968.084H12.434c1.651 0 2.937 0 3.968-.084 1.047-.086 1.897-.262 2.662-.652a6.75 6.75 0 002.95-2.95c.39-.765.566-1.615.652-2.662.084-1.031.084-2.317.084-3.968V11.566c0-1.651 0-2.937-.084-3.968-.086-1.047-.262-1.897-.652-2.662a6.75 6.75 0 00-2.95-2.95c-.765-.39-1.615-.566-2.662-.652-1.031-.084-2.317-.084-3.968-.084H11.6zM5.617 3.322c.518-.264 1.15-.415 2.103-.493.963-.078 2.187-.079 3.88-.079h.8c1.692 0 2.917 0 3.88.08.954.077 1.585.228 2.103.492a5.25 5.25 0 012.295 2.295c.264.518.415 1.15.493 2.103.078.963.079 2.187.079 3.88v.8c0 1.692 0 2.917-.08 3.88-.077.954-.228 1.585-.492 2.104a5.25 5.25 0 01-2.295 2.294c-.518.264-1.15.415-2.103.493-.963.078-2.188.079-3.88.079h-.8c-1.693 0-2.917 0-3.88-.08-.954-.077-1.585-.228-2.103-.492a5.25 5.25 0 01-2.295-2.294c-.264-.519-.415-1.15-.493-2.104-.078-.963-.079-2.188-.079-3.88v-.8c0-1.693 0-2.917.08-3.88.077-.954.228-1.585.492-2.103a5.25 5.25 0 012.295-2.295zm9.007 5.262a.75.75 0 00-1.248 0L10 13.648l-1.376-2.064A.75.75 0 008 11.25H6a.75.75 0 000 1.5h1.599l1.777 2.666a.75.75 0 001.248 0L14 10.352l1.376 2.064a.75.75 0 00.624.334h2a.75.75 0 000-1.5h-1.599l-1.777-2.666z"/>
</svg>
