<svg xmlns="http://www.w3.org/2000/svg" width="24" height="24" fill="currentColor" viewBox="0 0 24 24">
  <path fill="#0000ff" fill-rule="evenodd" d="M13.749 3.36a4.25 4.25 0 00-3.498 0c-.558.252-1.122.789-1.859 1.861-.734 1.068-1.57 2.56-2.718 4.61l-.35.627c-1.104 1.97-1.906 3.404-2.414 4.544-.51 1.143-.67 1.883-.602 2.481a4.25 4.25 0 001.738 2.965c.489.352 1.212.573 2.459.687 1.243.114 2.885.115 5.144.115h.702c2.259 0 3.9 0 5.144-.115 1.247-.114 1.97-.335 2.459-.687a4.25 4.25 0 001.738-2.965c.068-.598-.093-1.338-.602-2.48-.508-1.141-1.31-2.575-2.413-4.545l-.351-.627c-1.148-2.05-1.984-3.542-2.718-4.61-.737-1.072-1.3-1.61-1.86-1.861zM9.634 1.993a5.75 5.75 0 014.732 0c.943.425 1.7 1.245 2.478 2.379.777 1.131 1.647 2.683 2.77 4.69l.02.036.351.627.02.035c1.08 1.928 1.916 3.421 2.455 4.632.541 1.215.837 2.257.722 3.262a5.75 5.75 0 01-2.351 4.011c-.82.591-1.874.842-3.199.964-1.32.121-3.03.121-5.24.121h-.784c-2.21 0-3.92 0-5.24-.121-1.325-.122-2.378-.373-3.199-.964a5.75 5.75 0 01-2.351-4.011c-.115-1.005.18-2.047.722-3.262.539-1.211 1.375-2.704 2.455-4.632l.02-.035.35-.627.02-.036c1.124-2.007 1.993-3.558 2.77-4.69.78-1.134 1.536-1.954 2.479-2.38zM12 8.25a.75.75 0 01.75.75v4a.75.75 0 01-1.5 0V9a.75.75 0 01.75-.75zM12 17a1 1 0 100-2 1 1 0 000 2z"/>
</svg>
