<svg xmlns="http://www.w3.org/2000/svg" width="24" height="24" fill="currentColor" viewBox="0 0 24 24">
  <path fill="#0000ff" d="M5.02 9.464l-.351.627c-2.193 3.916-3.29 5.874-3.106 7.477a5 5 0 002.045 3.489C4.917 22 7.16 22 11.649 22h.702c4.488 0 6.732 0 8.041-.943a5 5 0 002.045-3.489c.183-1.603-.913-3.561-3.106-7.477l-.351-.627c-2.281-4.073-3.422-6.11-4.922-6.788a5 5 0 00-4.116 0c-1.5.678-2.64 2.715-4.922 6.788z" opacity=".12"/>
  <path fill="#0000ff" fill-rule="evenodd" d="M13.749 3.36a4.25 4.25 0 00-3.498 0c-.558.252-1.122.789-1.859 1.861-.734 1.068-1.57 2.56-2.718 4.61l-.35.627c-1.104 1.97-1.906 3.403-2.414 4.544-.51 1.143-.67 1.882-.602 2.48a4.25 4.25 0 001.738 2.966c.489.352 1.212.573 2.459.687 1.243.114 2.885.115 5.144.115h.702c2.259 0 3.9 0 5.144-.115 1.247-.114 1.97-.335 2.459-.687a4.25 4.25 0 001.738-2.965c.068-.599-.093-1.338-.602-2.481-.508-1.14-1.31-2.574-2.413-4.545l-.351-.626c-1.148-2.05-1.984-3.542-2.718-4.61-.737-1.072-1.3-1.61-1.86-1.861zM9.634 1.993a5.75 5.75 0 014.732 0c.943.425 1.7 1.245 2.478 2.379.777 1.131 1.647 2.683 2.77 4.69l.02.036.351.627.02.035c1.08 1.928 1.916 3.42 2.455 4.632.541 1.215.837 2.256.722 3.261a5.75 5.75 0 01-2.351 4.012c-.82.591-1.874.842-3.199.964-1.32.12-3.03.12-5.24.12h-.784c-2.21 0-3.92 0-5.24-.12-1.325-.122-2.378-.373-3.199-.964a5.75 5.75 0 01-2.351-4.012c-.115-1.005.18-2.046.722-3.261.539-1.211 1.375-2.704 2.455-4.632l.02-.035.35-.627.02-.036c1.124-2.007 1.993-3.559 2.77-4.69.78-1.134 1.536-1.954 2.479-2.38zM12 8.25a.75.75 0 01.75.75v4a.75.75 0 01-1.5 0V9a.75.75 0 01.75-.75zM12 17a1 1 0 100-2 1 1 0 000 2z"/>
</svg>
