<svg xmlns="http://www.w3.org/2000/svg" width="24" height="24" fill="currentColor" viewBox="0 0 24 24">
  <path fill="#0000ff" fill-rule="evenodd" d="M14.136 1.894a5.75 5.75 0 00-4.271 0c-1.03.412-1.85 1.273-2.69 2.477C6.34 5.573 5.41 7.233 4.209 9.38l-.022.038-.021.039c-1.155 2.062-2.05 3.659-2.617 4.954-.57 1.3-.866 2.415-.697 3.486a5.75 5.75 0 002.122 3.62c.852.671 1.97.957 3.382 1.095 1.407.138 3.238.138 5.601.138h.088c2.364 0 4.194 0 5.6-.138 1.414-.138 2.531-.424 3.384-1.095a5.75 5.75 0 002.12-3.62c.17-1.071-.126-2.186-.696-3.486-.568-1.295-1.462-2.892-2.617-4.954l-.021-.039-.022-.038c-1.202-2.147-2.131-3.807-2.968-5.009-.838-1.204-1.658-2.065-2.689-2.477zM12.75 9a.75.75 0 00-1.5 0v4a.75.75 0 001.5 0V9zm.25 7a1 1 0 11-2 0 1 1 0 012 0z"/>
</svg>
