<svg xmlns="http://www.w3.org/2000/svg" width="24" height="24" fill="currentColor" viewBox="0 0 24 24">
  <path fill="#0000ff" d="M4.823 7.883l-1.253 6.27a3.65 3.65 0 002.102 4.035 15.68 15.68 0 0012.656 0c.195-.087.38-.19.554-.306L6.052 5.052a7.3 7.3 0 00-1.229 2.831z" opacity=".12"/>
  <path fill="#0000ff" fill-rule="evenodd" d="M3.53 1.47a.75.75 0 00-1.06 1.06l2.62 2.62c-.47.781-.815 1.652-1.002 2.586l-1.254 6.27c-.403 2.013.666 4.037 2.534 4.867a16.1 16.1 0 002.093.761l.104.234a4.853 4.853 0 008.87 0l.104-.234a16.097 16.097 0 002.216-.818l2.715 2.714a.75.75 0 101.06-1.06l-3.118-3.119L6.582 4.522 3.53 1.47zm12.36 16.788a.753.753 0 00-.159.042c-2.44.628-5.022.628-7.463 0a.75.75 0 00-.157-.042 14.61 14.61 0 01-2.134-.756A2.9 2.9 0 014.305 14.3l1.254-6.27a6.563 6.563 0 01.631-1.779l11.425 11.425c-.564.23-1.14.424-1.726.582zm-6.441 1.815c1.688.264 3.414.264 5.102 0a3.353 3.353 0 01-5.102 0zM12 1.25c-1.473 0-2.87.399-4.072 1.103a.75.75 0 00.757 1.294 6.569 6.569 0 019.756 4.383l1.254 6.27c.045.224.062.449.053.67a.75.75 0 001.499.06 4.331 4.331 0 00-.081-1.025l-1.254-6.269A8.069 8.069 0 0012 1.25z"/>
</svg>
