<svg xmlns="http://www.w3.org/2000/svg" width="24" height="24" fill="currentColor" viewBox="0 0 24 24">
  <path fill="#0000ff" fill-rule="evenodd" d="M12 1.25c-1.473 0-2.87.399-4.072 1.103a.75.75 0 10.757 1.294 6.569 6.569 0 019.756 4.383l1.254 6.27c.045.224.062.449.053.67a.75.75 0 001.499.06 4.331 4.331 0 00-.081-1.025l-1.254-6.269A8.069 8.069 0 0012 1.25zm4.685 18.055a.75.75 0 00-1.37-.61l-.25.564a3.353 3.353 0 01-6.13 0l-.25-.564a.75.75 0 00-1.37.61l.25.563a4.853 4.853 0 008.87 0l.25-.563z" opacity=".4"/>
  <path fill="#0000ff" fill-rule="evenodd" d="M2.47 1.47a.75.75 0 011.06 0l3.053 3.052 12.829 12.83 3.118 3.118a.75.75 0 11-1.06 1.06l-2.715-2.714a16.43 16.43 0 01-13.388.057c-1.867-.83-2.936-2.854-2.533-4.868l1.254-6.269A8.055 8.055 0 015.09 5.151L2.47 2.53a.75.75 0 010-1.061zM6.19 6.25a6.563 6.563 0 00-.631 1.78l-1.254 6.268a2.9 2.9 0 001.672 3.203 14.937 14.937 0 0011.638.174L6.19 6.251z"/>
</svg>
