<svg xmlns="http://www.w3.org/2000/svg" width="24" height="24" fill="currentColor" viewBox="0 0 24 24">
  <path fill="#0000ff" fill-rule="evenodd" d="M2.47 1.47a.75.75 0 011.06 0l3.053 3.052 12.829 12.83 3.118 3.118a.75.75 0 11-1.06 1.06l-2.715-2.714a16.097 16.097 0 01-2.217.818l-.103.234a4.853 4.853 0 01-8.87 0l-.104-.234a16.1 16.1 0 01-2.093-.761c-1.868-.83-2.937-2.854-2.534-4.868l1.254-6.269A8.055 8.055 0 015.09 5.151L2.47 2.53a.75.75 0 010-1.061zm6.979 18.603a3.354 3.354 0 005.102 0 16.529 16.529 0 01-5.102 0zM7.928 2.353a8.069 8.069 0 0111.984 5.384l1.254 6.268c.069.343.094.687.08 1.025a.75.75 0 01-1.498-.06 2.835 2.835 0 00-.053-.67l-1.254-6.27a6.569 6.569 0 00-9.756-4.383.75.75 0 11-.757-1.294z"/>
</svg>
