<svg xmlns="http://www.w3.org/2000/svg" width="24" height="24" fill="currentColor" viewBox="0 0 24 24">
  <path fill="#0000ff" fill-rule="evenodd" d="M15.185 2.796c-.666-.046-1.51-.046-2.685-.046H12a.75.75 0 010-1.5h.528c1.141 0 2.036 0 2.759.05.735.05 1.347.153 1.913.388A5.75 5.75 0 0120.312 4.8c.235.566.338 1.178.389 1.913.049.723.049 1.618.049 2.76V14a.75.75 0 01-1.5 0V9.5c0-1.175 0-2.019-.046-2.685-.045-.659-.131-1.089-.277-1.441a4.25 4.25 0 00-2.3-2.3c-.353-.147-.783-.233-1.442-.278z" opacity=".4"/>
  <path fill="#0000ff" fill-rule="evenodd" d="M11.472 1.25H12a.75.75 0 010 1.5h-.5c-1.175 0-2.019 0-2.685.046-.659.045-1.089.131-1.441.278a4.25 4.25 0 00-2.3 2.3c-.147.352-.233.782-.278 1.441-.046.666-.046 1.51-.046 2.685v11.287l1.19-.596.118-.058c1.987-.994 3.124-1.563 4.329-1.789 1.066-.2 2.16-.2 3.226 0 1.205.226 2.342.795 4.33 1.789l.117.058 1.19.596v-6.662a.75.75 0 011.5 0V22a.75.75 0 01-1.085.67l-2.276-1.137c-2.138-1.069-3.079-1.532-4.052-1.714a7.249 7.249 0 00-2.674 0c-.973.182-1.914.645-4.052 1.714l-2.276 1.138A.75.75 0 013.25 22V9.472c0-1.141 0-2.036.05-2.759.05-.735.153-1.347.388-1.913A5.75 5.75 0 016.8 1.688c.566-.235 1.178-.339 1.913-.389.723-.049 1.618-.049 2.76-.049z"/>
</svg>
