<svg xmlns="http://www.w3.org/2000/svg" width="24" height="24" fill="currentColor" viewBox="0 0 24 24">
  <path fill="#0000ff" fill-rule="evenodd" d="M22 1.25h-.054c-2.177 0-3.9 0-5.492.28-.118.02-.235.042-.352.066-1.333.272-2 .408-2.676 1.236-.676.828-.676 1.746-.676 3.58V10a.75.75 0 01-1.5 0V6.413c0-1.835 0-2.753-.676-3.58-.676-.829-1.343-.965-2.676-1.237a12.799 12.799 0 00-.352-.067C5.954 1.25 4.231 1.25 2.054 1.25H2a.75.75 0 00-.75.75v10.687c0 .525 0 .963.028 1.32.03.372.092.721.255 1.052.254.516.636.916 1.141 1.194.327.18.686.258 1.068.304.372.045.834.066 1.395.091l.03.002c2.428.11 4.132.505 6.427 1.98a.75.75 0 00.812 0c2.295-1.475 3.999-1.87 6.428-1.98l.029-.002c.56-.025 1.023-.046 1.395-.091.382-.046.74-.124 1.068-.304a2.693 2.693 0 001.141-1.194c.163-.331.226-.68.255-1.052.028-.357.028-.795.028-1.32V2a.75.75 0 00-.75-.75zM3 18.75a.75.75 0 000 1.5c1.974 0 3.397.124 4.678.474 1.273.347 2.448.928 3.906 1.9a.75.75 0 00.832 0c1.458-.972 2.633-1.553 3.906-1.9 1.281-.35 2.704-.474 4.678-.474a.75.75 0 000-1.5c-2.026 0-3.603.126-5.072.526-1.343.367-2.56.952-3.928 1.828-1.369-.876-2.585-1.461-3.928-1.828-1.469-.4-3.046-.526-5.072-.526z"/>
</svg>
