<svg xmlns="http://www.w3.org/2000/svg" width="24" height="24" fill="currentColor" viewBox="0 0 24 24">
  <path fill="#0000ff" d="M22 2v10.657c0 1.102 0 1.652-.206 2.07-.186.379-.46.665-.83.869-.408.224-.993.25-2.164.304-2.535.116-4.373.54-6.8 2.1-2.427-1.56-4.265-1.984-6.8-2.1-1.17-.053-1.756-.08-2.164-.304a1.944 1.944 0 01-.83-.869C2 14.31 2 13.76 2 12.657V2c4.444 0 6.667 0 10 2.143C15.333 2 17.556 2 22 2z" opacity=".12"/>
  <path fill="#0000ff" fill-rule="evenodd" d="M22 1.25h-.054c-2.177 0-3.9 0-5.492.28-1.509.264-2.885.774-4.454 1.728-1.569-.954-2.945-1.464-4.454-1.729-1.592-.279-3.315-.279-5.492-.279H2a.75.75 0 00-.75.75v10.687c0 .525 0 .963.028 1.32.03.372.092.721.255 1.052.254.516.636.916 1.141 1.194.327.18.686.258 1.068.304.372.045.834.066 1.395.091l.03.002c2.428.11 4.132.505 6.427 1.98a.75.75 0 00.812 0c2.295-1.475 3.999-1.87 6.428-1.98l.029-.002c.56-.025 1.023-.046 1.395-.091.382-.046.74-.124 1.068-.304a2.693 2.693 0 001.141-1.194c.163-.331.226-.68.255-1.052.028-.357.028-.795.028-1.32V2a.75.75 0 00-.75-.75zM7.287 3.007c1.315.23 2.525.672 3.963 1.55v12.128c-2.032-1.093-3.785-1.432-6.016-1.534a19.772 19.772 0 01-1.312-.083c-.306-.037-.444-.085-.525-.13-.235-.129-.4-.301-.518-.542-.043-.088-.083-.222-.106-.506-.022-.292-.023-.67-.023-1.233V2.75c1.857.004 3.254.032 4.537.257zM18.766 15.15c-2.23.102-3.984.44-6.016 1.534V4.558c1.438-.879 2.648-1.32 3.963-1.551 1.283-.225 2.68-.253 4.537-.257v9.907c0 .563 0 .941-.023 1.233-.023.284-.063.418-.106.506a1.195 1.195 0 01-.518.543c-.081.044-.219.092-.525.129-.31.037-.715.056-1.312.083zM3 18.75a.75.75 0 000 1.5c1.974 0 3.397.124 4.678.474 1.273.347 2.448.928 3.906 1.9a.75.75 0 00.832 0c1.458-.972 2.633-1.553 3.906-1.9 1.281-.35 2.704-.474 4.678-.474a.75.75 0 000-1.5c-2.026 0-3.603.126-5.072.526-1.343.367-2.56.952-3.928 1.828-1.369-.876-2.585-1.461-3.928-1.828-1.469-.4-3.046-.526-5.072-.526z"/>
</svg>
