<svg xmlns="http://www.w3.org/2000/svg" width="24" height="24" fill="currentColor" viewBox="0 0 24 24">
  <path fill="#0000ff" fill-rule="evenodd" d="M16.891 4.64a.75.75 0 10-.782-1.28L7.295 8.746 3.391 6.36a.75.75 0 00-.782 1.28l8.641 5.28v9.58a.75.75 0 001.5 0v-9.58l8.641-5.28a.75.75 0 00-.782-1.28L12 11.621 8.734 9.625 16.89 4.64z" opacity=".4"/>
  <path fill="#0000ff" fill-rule="evenodd" d="M11.196.836a3.75 3.75 0 011.608 0c.601.132 1.15.462 1.945.939l.106.064 5.2 3.12.1.06c.754.451 1.274.763 1.661 1.203.342.389.599.843.756 1.336.179.558.178 1.165.178 2.042V14.4c0 .878 0 1.485-.178 2.043a3.748 3.748 0 01-.756 1.336c-.387.44-.907.752-1.66 1.203l-.1.06-5.2 3.12-.107.064c-.795.477-1.344.807-1.945.94a3.749 3.749 0 01-1.608 0c-.601-.133-1.15-.463-1.945-.94l-.106-.064-5.2-3.12-.1-.06c-.754-.451-1.274-.763-1.661-1.203a3.75 3.75 0 01-.756-1.336c-.179-.558-.178-1.165-.178-2.043V9.718 9.6c0-.877 0-1.484.178-2.042a3.75 3.75 0 01.756-1.336c.387-.44.907-.752 1.66-1.203l.1-.06 5.2-3.12.107-.064c.795-.477 1.344-.807 1.945-.94zM12.483 2.3a2.25 2.25 0 00-.966 0c-.33.073-.658.258-1.6.824l-5.2 3.12c-.893.535-1.193.725-1.407.968a2.25 2.25 0 00-.453.801c-.099.308-.107.663-.107 1.704v4.564c0 1.04.008 1.396.107 1.704.094.295.248.568.453.801.213.243.514.433 1.406.968l5.2 3.12c.943.566 1.27.751 1.601.824.318.07.648.07.966 0 .33-.073.658-.258 1.6-.824l5.2-3.12c.893-.535 1.194-.725 1.407-.968a2.25 2.25 0 00.453-.801c.099-.308.107-.663.107-1.704V9.718c0-1.04-.008-1.396-.107-1.704a2.251 2.251 0 00-.453-.801c-.213-.243-.514-.433-1.406-.968l-5.2-3.12c-.943-.566-1.27-.751-1.601-.824z"/>
</svg>
