<svg xmlns="http://www.w3.org/2000/svg" width="24" height="24" fill="currentColor" viewBox="0 0 24 24">
  <path fill="#0000ff" fill-rule="evenodd" d="M12.804.836a3.75 3.75 0 00-1.608 0c-.601.132-1.15.462-1.945.939l-.106.064-5.2 3.12-.1.06c-.754.451-1.274.763-1.661 1.203a3.75 3.75 0 00-.319.418l4.42 2.612L16.675 2.93l-1.819-1.09-.106-.064c-.795-.477-1.344-.807-1.945-.94zM7.75 10.117L12 12.63 22.135 6.64a3.743 3.743 0 00-.319-.418c-.387-.44-.907-.752-1.66-1.203l-.1-.06-1.93-1.158L7.75 10.117zm14.936-2.06l-9.936 5.87v9.249a3.28 3.28 0 00.054-.012c.601-.132 1.15-.462 1.945-.939l.106-.064 5.2-3.12.101-.06c.753-.451 1.273-.763 1.66-1.203a3.75 3.75 0 00.756-1.336c.179-.558.178-1.165.178-2.043V9.6c0-.625 0-1.113-.064-1.543zM11.25 23.176v-9.248L1.314 8.057c-.064.43-.064.918-.064 1.543V14.4c0 .878 0 1.485.178 2.043.157.493.415.947.756 1.336.387.44.907.752 1.66 1.203l.1.06 5.2 3.12.107.064c.795.477 1.344.807 1.945.94l.054.01z"/>
</svg>
