<svg xmlns="http://www.w3.org/2000/svg" width="24" height="24" fill="currentColor" viewBox="0 0 24 24">
  <path fill="#0000ff" fill-rule="evenodd" d="M7.309 5.25H4.975c-.445 0-.816 0-1.12.02a2.823 2.823 0 00-.907.19 2.75 2.75 0 00-1.489 1.488c-.12.29-.167.59-.188.907-.021.304-.021.675-.021 1.12v.05c0 .445 0 .816.02 1.12.022.318.07.617.19.907a2.75 2.75 0 001.488 1.489c.29.12.59.167.907.188.304.021.675.021 1.12.021H7.25V12a.75.75 0 011.5 0v.75h6.5V12a.75.75 0 011.5 0v.75h2.275c.445 0 .816 0 1.12-.02.317-.022.617-.069.907-.19a2.75 2.75 0 001.489-1.488c.12-.29.167-.59.188-.907.021-.304.021-.675.021-1.12v-.05c0-.445 0-.816-.02-1.12a2.822 2.822 0 00-.19-.907 2.75 2.75 0 00-1.488-1.489c-.29-.12-.59-.167-.907-.188-.304-.021-.675-.021-1.12-.021h-2.334a4.751 4.751 0 00-9.382 0zm-.059 9V15a.75.75 0 001.5 0v-.75h6.5V15a.75.75 0 001.5 0v-.75H21a.75.75 0 01.75.75v.633c0 1.092 0 1.958-.057 2.655-.058.714-.18 1.317-.46 1.869a4.75 4.75 0 01-2.076 2.075c-.552.281-1.155.403-1.869.461-.697.057-1.563.057-2.655.057H9.367c-1.092 0-1.958 0-2.655-.057-.714-.058-1.317-.18-1.868-.46a4.75 4.75 0 01-2.076-2.076c-.281-.552-.403-1.155-.461-1.869-.057-.697-.057-1.563-.057-2.655V15a.75.75 0 01.75-.75h4.25zm1.587-9a3.251 3.251 0 016.326 0H8.837z"/>
</svg>
