<svg xmlns="http://www.w3.org/2000/svg" width="24" height="24" fill="currentColor" viewBox="0 0 24 24">
  <path fill="#0000ff" fill-rule="evenodd" d="M7.309 5.25H4.975c-.445 0-.816 0-1.12.02a2.823 2.823 0 00-.907.19 2.75 2.75 0 00-1.489 1.488c-.12.29-.167.59-.188.907-.021.304-.021.675-.021 1.12v.05c0 .445 0 .816.02 1.12.022.318.07.617.19.907.173.42.446.786.79 1.07v3.511c0 1.092 0 1.958.057 2.655.058.714.18 1.317.46 1.869a4.75 4.75 0 002.077 2.075c.55.281 1.154.403 1.868.461.697.057 1.563.057 2.655.057H14.633c1.092 0 1.958 0 2.655-.057.714-.058 1.317-.18 1.869-.46a4.75 4.75 0 002.075-2.076c.281-.552.403-1.155.461-1.869.057-.697.057-1.563.057-2.655V15a.75.75 0 00-1.5 0v.6c0 1.133 0 1.937-.052 2.566-.05.62-.147 1.005-.302 1.31a3.25 3.25 0 01-1.42 1.42c-.305.155-.69.251-1.31.302-.63.051-1.434.052-2.566.052H9.4c-1.132 0-1.937 0-2.566-.052-.62-.05-1.005-.147-1.31-.302a3.25 3.25 0 01-1.42-1.42c-.155-.305-.251-.69-.302-1.31-.051-.63-.052-1.433-.052-2.566v-2.879l.105.008c.304.021.675.021 1.12.021H7.25v.75a.75.75 0 001.5 0v-3a.75.75 0 00-1.5 0v.75H5c-.476 0-.796 0-1.043-.017-.241-.017-.358-.046-.435-.078a1.25 1.25 0 01-.677-.677c-.032-.077-.061-.194-.078-.435A17.091 17.091 0 012.75 9c0-.476 0-.796.017-1.043.017-.241.046-.358.078-.435.127-.307.37-.55.677-.677.077-.032.194-.061.435-.078A17.09 17.09 0 015 6.75h14c.476 0 .796 0 1.043.017.241.017.358.046.435.078.307.127.55.37.677.677.032.077.061.194.078.435.017.247.017.567.017 1.043s0 .796-.017 1.043c-.017.241-.046.358-.078.435a1.25 1.25 0 01-.677.677c-.077.032-.194.061-.435.078-.247.017-.567.017-1.043.017h-2.25v-.75a.75.75 0 00-1.5 0v.75H11a.75.75 0 000 1.5h4.25v.75a.75.75 0 001.5 0v-.75h2.275c.445 0 .816 0 1.12-.02.317-.022.617-.069.907-.19a2.75 2.75 0 001.489-1.488c.12-.29.167-.59.188-.907.021-.304.021-.675.021-1.12v-.05c0-.445 0-.816-.02-1.12a2.822 2.822 0 00-.19-.907 2.75 2.75 0 00-1.488-1.489c-.29-.12-.59-.167-.907-.188-.304-.021-.675-.021-1.12-.021h-2.334a4.751 4.751 0 00-9.382 0zm1.528 0h6.326a3.251 3.251 0 00-6.326 0z"/>
</svg>
