<svg xmlns="http://www.w3.org/2000/svg" width="24" height="24" fill="currentColor" viewBox="0 0 24 24">
  <path fill="#0000ff" fill-rule="evenodd" d="M5.714 13.07l1.755-2.086.075-.088c.7-.832 1.15-1.367 1.424-1.988A4.75 4.75 0 009.37 7.17c.026-.678-.143-1.357-.407-2.411l-.028-.112-.123-.49-.03-.12c-.166-.667-.295-1.188-.583-1.603a2.75 2.75 0 00-1.29-1.007c-.472-.178-1.01-.178-1.696-.177h-.155c-.471 0-.871 0-1.205.029-.354.03-.685.097-1.009.258a2.895 2.895 0 00-1.371 1.55c-.216.61-.141 1.214-.048 1.964l.015.121c.375 3.06 1.3 5.824 2.707 8.21a18.2 18.2 0 006.115 6.255c2.464 1.53 5.352 2.529 8.565 2.923l.122.015c.75.093 1.353.168 1.965-.048a2.894 2.894 0 001.55-1.371c.16-.326.227-.66.257-1.018.029-.338.029-.745.029-1.227v-.15c0-.671.001-1.198-.177-1.67a2.75 2.75 0 00-1.007-1.29c-.415-.288-.936-.418-1.603-.584l-.12-.03-.709-.177-.104-.026c-.985-.246-1.619-.405-2.256-.391a4.752 4.752 0 00-1.645.331c-.593.235-1.116.627-1.928 1.235l-.087.065-2.49 1.864a16.67 16.67 0 01-4.91-5.018zM20.47 2.47a.75.75 0 111.06 1.06l-4.72 4.72H20a.75.75 0 010 1.5h-5a.75.75 0 01-.75-.75V4a.75.75 0 011.5 0v3.19l4.72-4.72z"/>
</svg>
