<svg xmlns="http://www.w3.org/2000/svg" width="24" height="24" fill="currentColor" viewBox="0 0 24 24">
  <path fill="#0000ff" d="M22 13.208v-3.82c0-1.97-1.39-3.666-3.322-4.053-1.038-.207-1.956-.752-2.55-1.644A3.798 3.798 0 0012.968 2h-1.935c-1.27 0-2.456.634-3.16 1.69-.56.839-1.552 1.446-2.54 1.643l4.383 4.383a4 4 0 015.568 5.568l5.252 5.251c.223-.223.425-.467.603-.73.861-1.27.861-3.046.861-6.597z" opacity=".12"/>
  <path fill="#0000ff" fill-rule="evenodd" d="M2.53 1.47a.75.75 0 10-1.06 1.06l3.333 3.333 4.37 4.371a.718.718 0 00.026.025l5.542 5.542a.86.86 0 00.025.025l5.24 5.24 1.964 1.964a.75.75 0 101.06-1.06l-1.469-1.47c.07-.089.135-.18.199-.274.528-.78.765-1.68.878-2.788.112-1.085.112-2.448.112-4.188V9.388A4.882 4.882 0 0018.825 4.6c-.873-.175-1.605-.622-2.073-1.325a4.548 4.548 0 00-3.784-2.025h-1.935c-1.521 0-2.941.76-3.784 2.025-.369.552-1.006 1-1.689 1.224L2.53 1.47zm13.698 13.697l4.26 4.26.03-.043c.332-.49.527-1.113.628-2.1.103-.998.104-2.285.104-4.076v-3.82c0-1.613-1.138-3.001-2.719-3.317-1.204-.24-2.307-.883-3.028-1.964a3.048 3.048 0 00-2.536-1.357h-1.934c-1.02 0-1.971.509-2.536 1.357-.439.658-1.08 1.184-1.79 1.538l3.126 3.127a4.75 4.75 0 016.395 6.395zm-5.253-5.253l4.11 4.11a3.25 3.25 0 00-4.11-4.11zm-7.603-2.48a.75.75 0 00-1.225-.868 4.872 4.872 0 00-.897 2.821v3.863c0 1.74 0 3.103.112 4.188.113 1.107.35 2.008.878 2.788a5.75 5.75 0 001.534 1.533c.78.53 1.68.765 2.787.88 1.085.11 2.449.11 4.188.11h2.489c1.552 0 2.803 0 3.82-.077a.75.75 0 00-.115-1.495c-.953.072-2.147.073-3.735.073h-2.416c-1.791 0-3.078-.001-4.077-.104-.987-.101-1.609-.296-2.1-.628a4.25 4.25 0 01-1.133-1.134c-.333-.49-.527-1.113-.628-2.1-.103-.998-.104-2.285-.104-4.076v-3.82c0-.723.228-1.399.622-1.955zm5.48 4.753a.75.75 0 00-1.452-.374 4.75 4.75 0 005.787 5.787.75.75 0 10-.374-1.453 3.25 3.25 0 01-3.96-3.96z"/>
</svg>
