<svg xmlns="http://www.w3.org/2000/svg" width="24" height="24" fill="currentColor" viewBox="0 0 24 24">
  <path fill="#0000ff" fill-rule="evenodd" d="M7.249 3.275a4.548 4.548 0 013.784-2.025h1.934c1.521 0 2.941.76 3.784 2.025a3.047 3.047 0 001.939 1.298l.135.027a4.882 4.882 0 013.925 4.787v3.864c0 1.74 0 3.103-.112 4.188-.113 1.106-.35 2.007-.878 2.787a5.749 5.749 0 01-1.534 1.534c-.78.528-1.68.765-2.787.878-1.085.112-2.449.112-4.188.112H10.749c-1.74 0-3.103 0-4.188-.112-1.106-.113-2.007-.35-2.787-.878a5.75 5.75 0 01-1.534-1.534c-.528-.78-.765-1.68-.878-2.787-.112-1.085-.112-2.449-.112-4.188V9.388A4.882 4.882 0 015.175 4.6l.135-.027A3.048 3.048 0 007.25 3.275zM12 17a4 4 0 100-8 4 4 0 000 8z"/>
</svg>
