<svg xmlns="http://www.w3.org/2000/svg" width="24" height="24" fill="currentColor" viewBox="0 0 24 24">
  <path fill="#0000ff" fill-rule="evenodd" d="M12 9.75a3.25 3.25 0 100 6.5 3.25 3.25 0 000-6.5zM7.25 13a4.75 4.75 0 119.5 0 4.75 4.75 0 01-9.5 0z" opacity=".4"/>
  <path fill="#0000ff" fill-rule="evenodd" d="M11.033 2.75c-1.02 0-1.971.51-2.536 1.357a4.548 4.548 0 01-2.892 1.937l-.136.027A3.382 3.382 0 002.75 9.387V14c0 1.412 0 2.427.066 3.223.064.787.188 1.295.397 1.707a4.25 4.25 0 001.858 1.857c.411.21.919.333 1.706.397.796.065 1.81.066 3.223.066h4c1.412 0 2.427 0 3.223-.066.787-.064 1.295-.188 1.707-.397a4.25 4.25 0 001.857-1.857c.21-.412.333-.92.397-1.707.065-.796.066-1.81.066-3.223V9.387c0-1.612-1.138-3-2.719-3.316l-.136-.027a4.547 4.547 0 01-2.892-1.937 3.048 3.048 0 00-2.536-1.357h-1.934zm-3.784.525a4.548 4.548 0 013.784-2.025h1.934c1.521 0 2.941.76 3.784 2.025a3.047 3.047 0 001.939 1.298l.135.027a4.882 4.882 0 013.925 4.787v4.647c0 1.371 0 2.447-.07 3.311-.072.88-.221 1.607-.557 2.265a5.75 5.75 0 01-2.513 2.513c-.658.336-1.385.485-2.265.556-.864.071-1.94.071-3.311.071H9.966c-1.371 0-2.447 0-3.311-.07-.88-.072-1.607-.221-2.265-.557a5.75 5.75 0 01-2.513-2.513c-.336-.658-.484-1.385-.556-2.265-.071-.864-.071-1.94-.071-3.311V9.387A4.882 4.882 0 015.175 4.6l.135-.027A3.048 3.048 0 007.25 3.275z"/>
</svg>
