<svg xmlns="http://www.w3.org/2000/svg" width="24" height="24" fill="currentColor" viewBox="0 0 24 24">
  <path fill="#0000ff" fill-rule="evenodd" d="M13.712 1.386l-.084-.014c-.38-.062-.804-.132-1.245.034a1.843 1.843 0 00-.903.77 1.724 1.724 0 00-.21.705c-.02.203-.02.441-.02.69V8.83c0 .535 0 .98.03 1.345.03.38.098.736.27 1.073.263.518.684.939 1.201 1.202.338.172.694.24 1.074.27.365.03.81.03 1.345.03H20.43c.248 0 .486 0 .689-.02.229-.023.467-.075.705-.21.335-.192.634-.542.77-.903.166-.44.096-.865.034-1.245l-.014-.084a10.758 10.758 0 00-8.902-8.902zm-.8 1.424h.001c.007-.003.024-.01.091-.007.096.005.223.024.471.064a9.258 9.258 0 017.722 8.129c.003.067-.004.084-.006.09v.002c-.002.001-.005.008-.012.02a.395.395 0 01-.08.095c-.012.01-.02.014-.02.014l-.001.001a.578.578 0 01-.107.019c-.12.012-.283.013-.571.013h-5.2c-.572 0-.957 0-1.252-.025-.288-.023-.425-.065-.516-.111a1.25 1.25 0 01-.546-.546c-.046-.091-.088-.228-.111-.515-.024-.296-.025-.68-.025-1.253V3.6c0-.288 0-.45.013-.57a.581.581 0 01.019-.108V2.92l.015-.019a.412.412 0 01.115-.091zm-3.687.364a.75.75 0 00-.45-1.432C4.415 3.112 1.25 7.186 1.25 12c0 5.937 4.813 10.75 10.75 10.75 4.815 0 8.888-3.164 10.258-7.525a.75.75 0 10-1.431-.45A9.254 9.254 0 0112 21.25 9.25 9.25 0 012.75 12a9.254 9.254 0 016.475-8.826z"/>
</svg>
