<svg xmlns="http://www.w3.org/2000/svg" width="24" height="24" fill="currentColor" viewBox="0 0 24 24">
  <path fill="#0000ff" d="M21.874 10.406a10.008 10.008 0 00-8.28-8.28c-.465-.074-.698-.111-.946-.018a1.097 1.097 0 00-.516.44C12 2.778 12 3.052 12 3.6v5.2c0 1.12 0 1.68.218 2.108a2 2 0 00.874.874C13.52 12 14.08 12 15.2 12h5.2c.548 0 .822 0 1.052-.132.183-.104.365-.318.44-.516.093-.248.056-.48-.018-.946z" opacity=".12"/>
  <path fill="#0000ff" fill-rule="evenodd" d="M13.712 1.386l-.084-.014c-.38-.062-.804-.132-1.245.034a1.843 1.843 0 00-.903.77 1.724 1.724 0 00-.21.705c-.02.203-.02.441-.02.69V8.83c0 .534 0 .98.03 1.345.03.38.098.736.27 1.073.263.518.684.939 1.201 1.202.338.172.694.24 1.074.27.365.03.81.03 1.345.03H20.43c.248 0 .486 0 .689-.02.229-.023.467-.075.705-.21.335-.192.634-.542.77-.903.166-.44.096-.865.034-1.245l-.014-.084a10.758 10.758 0 00-8.902-8.902zm-.8 1.424h.001c.007-.003.024-.01.091-.007.096.005.223.024.471.064a9.258 9.258 0 017.722 8.129c.003.067-.004.083-.006.09v.002c-.002.001-.005.008-.012.02a.395.395 0 01-.08.095c-.011.009-.018.013-.02.014l-.001.001a.578.578 0 01-.107.019 6.56 6.56 0 01-.571.013h-5.2c-.572 0-.957 0-1.252-.025-.288-.023-.425-.065-.516-.111a1.25 1.25 0 01-.546-.547c-.046-.09-.088-.228-.111-.515-.024-.295-.025-.68-.025-1.252V3.6c0-.289 0-.45.013-.57a.581.581 0 01.019-.108V2.92l.015-.019a.411.411 0 01.115-.091zm-3.687.363a.75.75 0 00-.45-1.43C4.415 3.111 1.25 7.185 1.25 12c0 5.937 4.813 10.75 10.75 10.75 4.815 0 8.888-3.164 10.258-7.525a.75.75 0 10-1.431-.45A9.254 9.254 0 0112 21.25 9.25 9.25 0 012.75 12a9.254 9.254 0 016.475-8.827z"/>
</svg>
