<svg width="20" height="20" version="1.1" viewBox="0 0 5.2917 5.2917" xmlns="http://www.w3.org/2000/svg">
 <g transform="translate(0 -291.71)" fill="#0000ff" stroke-width="0">
  <path d="m1.3219 292.5c-0.29267 0-0.52813 0.23546-0.52813 0.52813v2.6479c0 0.29268 0.23546 0.52814 0.52813 0.52814h2.6479c0.29267 0 0.52813-0.23546 0.52813-0.52814v-2.6479c0-0.29267-0.23546-0.52813-0.52813-0.52813zm1e-3 0.26458h2.6458c0.14657 0 0.26458 0.11801 0.26458 0.26459v2.6458c0 0.14657-0.11801 0.26458-0.26458 0.26458h-2.6458c-0.14657 0-0.26458-0.11801-0.26458-0.26458v-2.6458c0-0.14658 0.11801-0.26459 0.26458-0.26459z" style="paint-order:stroke fill markers"/>
  <rect x="1.5875" y="293.3" width="2.1167" height="2.1167" ry="0" style="paint-order:stroke fill markers"/>
 </g>
</svg>
