<svg width="20" height="20" version="1.1" viewBox="0 0 5.2917 5.2917" xmlns="http://www.w3.org/2000/svg">
 <g transform="translate(0 -291.71)">
  <path transform="matrix(.26458 0 0 .26458 0 291.71)" d="m4.9961 3c-1.1062 0-1.9961 0.88993-1.9961 1.9961v10.008c0 1.1062 0.88993 1.9961 1.9961 1.9961h10.008c1.1062 0 1.9961-0.88993 1.9961-1.9961v-10.008c0-1.1062-0.88993-1.9961-1.9961-1.9961zm0.0039062 1h10c0.55398 0 1 0.44602 1 1v10c0 0.55398-0.44602 1-1 1h-10c-0.55398 0-1-0.44602-1-1v-10c0-0.55398 0.44602-1 1-1z" fill="#0000ff" stroke-width="0" style="paint-order:stroke fill markers"/>
 </g>
</svg>
