<svg xmlns="http://www.w3.org/2000/svg" width="24" height="24" fill="currentColor" viewBox="0 0 24 24">
  <path fill="#0000ff" fill-rule="evenodd" d="M4.53.47a.75.75 0 010 1.06l-3 3A.75.75 0 01.47 3.47l3-3a.75.75 0 011.06 0zM2.75 12a9.25 9.25 0 1118.5 0 9.25 9.25 0 01-18.5 0zM12 1.25C6.063 1.25 1.25 6.063 1.25 12S6.063 22.75 12 22.75 22.75 17.937 22.75 12 17.937 1.25 12 1.25zM12.75 8a.75.75 0 00-1.5 0v4c0 .25.125.485.334.624l3 2a.75.75 0 10.832-1.248l-2.666-1.777V8zm6.72-6.47A.75.75 0 0120.53.47l3 3a.75.75 0 01-1.06 1.06l-3-3z"/>
</svg>
