<svg xmlns="http://www.w3.org/2000/svg" width="24" height="24" fill="currentColor" viewBox="0 0 24 24">
  <path fill="#0000ff" fill-rule="evenodd" d="M10.5 2.75a7.75 7.75 0 00-7.036 11.002l.072.156c.363.773.807 1.721.464 2.917-.071.248-.19.501-.276.687l-.05.109c-.102.226-.146.359-.154.46a.1.1 0 00.116.108c.307-.052.521-.161.826-.317.11-.056.234-.12.377-.187.52-.247 1.158-.458 2.03-.253.182.043.57.182 1.192.404l.121.044c.298.107.606.19.932.25a.75.75 0 11-.274 1.475 7.514 7.514 0 01-1.163-.313l.253-.706-.253.706c-.366-.13-.635-.227-.83-.295a10.668 10.668 0 00-.297-.098l-.019-.005-.006-.002c-.418-.098-.694-.018-1.042.147-.064.03-.136.068-.217.11-.34.176-.823.426-1.384.52l-.123-.74.123.74a1.6 1.6 0 01-1.857-1.71c.031-.38.174-.718.282-.956l.08-.176c.08-.173.135-.291.171-.416l.72.207-.72-.207c.185-.645-.03-1.11-.447-2.01l-.008-.018.679-.315-.68.315a9.25 9.25 0 0116.246-8.78.75.75 0 11-1.271.795A7.744 7.744 0 0010.5 2.75z" opacity=".4"/>
  <path fill="#0000ff" fill-rule="evenodd" d="M10.25 15a6.75 6.75 0 1112.878 2.834c-.306.66-.415.911-.31 1.277.02.071.05.136.104.252l.062.137c.077.17.193.437.218.747a1.35 1.35 0 01-1.567 1.442l.123-.74-.123.74c-.435-.072-.82-.272-1.056-.395a4.225 4.225 0 00-.132-.067c-.221-.105-.362-.142-.59-.088a6.987 6.987 0 00-.205.068 76.89 76.89 0 00-.585.207l-.253-.706.253.706c-.636.227-1.309.336-2.067.336A6.75 6.75 0 0110.25 15zM17 9.75a5.25 5.25 0 100 10.5c.609 0 1.108-.086 1.562-.248a30 30 0 00.103-.037c.422-.151.707-.253.848-.286.682-.16 1.185.007 1.577.193.12.057.214.105.295.146.093.048.168.086.24.117l-.008-.018a3.736 3.736 0 01-.241-.592c-.266-.926.083-1.666.337-2.207l.054-.115A5.25 5.25 0 0017 9.75z"/>
</svg>
