<svg xmlns="http://www.w3.org/2000/svg" width="24" height="24" fill="currentColor" viewBox="0 0 24 24">
  <path fill="#0000ff" fill-rule="evenodd" d="M2.921 16.197l-.68.316.023.05c.478 1.032.751 1.621.52 2.428a3.677 3.677 0 01-.21.515c-.029.06-.06.127-.092.2-.126.278-.286.657-.32 1.08a1.75 1.75 0 002.03 1.87l-.122-.74.123.74c.635-.106 1.18-.387 1.58-.594.098-.05.188-.097.268-.135.425-.202.78-.308 1.313-.183.11.026.476.156 1.37.475l.252-.706-.252.706c.998.357 2.062.531 3.276.531 5.937 0 10.75-4.813 10.75-10.75S17.937 1.25 12 1.25 1.25 6.063 1.25 12c0 1.61.355 3.14.99 4.512l.681-.315zM8 9.25a.75.75 0 000 1.5h8a.75.75 0 000-1.5H8zM7.25 14a.75.75 0 01.75-.75h4a.75.75 0 010 1.5H8a.75.75 0 01-.75-.75z"/>
</svg>
