<svg xmlns="http://www.w3.org/2000/svg" width="24" height="24" fill="currentColor" viewBox="0 0 24 24">
  <path fill="#0000ff" d="M17 21a6 6 0 115.447-3.482c-.28.605-.545 1.12-.35 1.8.094.328.33.65.358.99a.6.6 0 01-.697.641c-.785-.13-1.163-.755-2.073-.54-.099.023-.356.115-.87.299-.545.195-1.131.292-1.815.292z" opacity=".12"/>
  <path fill="#0000ff" fill-rule="evenodd" d="M2.75 10.5a7.75 7.75 0 0114.326-4.102.75.75 0 001.272-.796 9.25 9.25 0 00-16.246 8.78l.68-.314-.68.315.01.019c.416.9.631 1.364.446 2.009l.72.207-.72-.207c-.036.125-.09.243-.17.416-.025.053-.052.111-.08.176-.109.238-.252.575-.283.956a1.6 1.6 0 001.857 1.71l-.123-.74.123.74c.56-.094 1.044-.344 1.384-.52.08-.042.154-.08.217-.11.348-.165.624-.245 1.042-.147l.006.002.019.005.067.02.23.078c.195.068.464.165.83.295l.253-.706-.253.706c.374.134.76.238 1.163.313a.75.75 0 10.274-1.474 6.02 6.02 0 01-.932-.251l-.121-.044c-.622-.222-1.01-.361-1.193-.404-.871-.205-1.51.006-2.029.253-.143.068-.266.13-.377.187-.305.156-.52.265-.826.317a.1.1 0 01-.116-.107c.008-.102.052-.235.154-.461l.05-.11c.087-.185.205-.438.276-.686.343-1.196-.101-2.144-.464-2.917l-.072-.156A7.715 7.715 0 012.75 10.5zM17 8.25a6.75 6.75 0 000 13.5c.758 0 1.431-.109 2.067-.336a76.89 76.89 0 01.741-.26c.042-.014.053-.017.049-.015.228-.054.369-.017.59.088.036.017.08.04.132.067.236.123.62.323 1.056.395l.123-.74-.123.74a1.35 1.35 0 001.567-1.442 2.273 2.273 0 00-.218-.747 17.908 17.908 0 00-.062-.137 1.781 1.781 0 01-.104-.252c-.105-.366.004-.617.31-1.277A6.75 6.75 0 0017 8.25zM11.75 15a5.25 5.25 0 119.963 2.318c-.255.54-.603 1.281-.337 2.208.056.193.15.393.21.523l.031.068.008.018a3.83 3.83 0 01-.24-.117 10.93 10.93 0 00-.295-.146c-.392-.186-.895-.354-1.577-.193-.142.033-.426.135-.848.286l-.103.037c-.454.162-.953.248-1.562.248A5.25 5.25 0 0111.75 15z"/>
</svg>
