<svg xmlns="http://www.w3.org/2000/svg" width="24" height="24" fill="currentColor" viewBox="0 0 24 24">
  <path fill="#0000ff" fill-rule="evenodd" d="M2.75 12a9.25 9.25 0 1118.5 0 9.25 9.25 0 01-18.5 0zM12 1.25C6.063 1.25 1.25 6.063 1.25 12S6.063 22.75 12 22.75 22.75 17.937 22.75 12 17.937 1.25 12 1.25zm4.683 7.06a.75.75 0 00-.993-.993l-4.408 2.004-.06.027c-.346.157-.619.28-.858.46a2.75 2.75 0 00-.556.556c-.18.24-.303.512-.46.858l-.027.06-2.004 4.408a.75.75 0 00.993.993l4.408-2.004.06-.027c.346-.157.619-.28.858-.46a2.75 2.75 0 00.556-.556c.18-.24.303-.512.46-.858l.027-.06 2.004-4.408zm-4.78 2.376L14.49 9.51l-1.176 2.587c-.197.434-.254.548-.323.641a1.246 1.246 0 01-.253.253c-.093.07-.207.126-.64.323L9.51 14.49l1.176-2.587c.197-.434.254-.548.323-.641.072-.096.157-.181.253-.253.093-.07.207-.126.64-.323z"/>
</svg>
