<svg xmlns="http://www.w3.org/2000/svg" width="24" height="24" fill="currentColor" viewBox="0 0 24 24">
  <path fill="#0000ff" fill-rule="evenodd" d="M21.25 12A9.25 9.25 0 0012 2.75a9.216 9.216 0 00-3.7.77.75.75 0 11-.6-1.375A10.716 10.716 0 0112 1.25c5.937 0 10.75 4.813 10.75 10.75S17.937 22.75 12 22.75 1.25 17.937 1.25 12c0-2.42.8-4.655 2.15-6.451a.75.75 0 011.2.9A9.206 9.206 0 002.75 12a9.25 9.25 0 0018.5 0zm-4.567-3.69a.75.75 0 00-.993-.993l-4.408 2.004-.06.027c-.346.157-.619.28-.858.46a2.75 2.75 0 00-.556.556c-.18.24-.303.512-.46.858l-.027.06-2.004 4.408a.75.75 0 00.993.993l4.408-2.004.06-.027c.346-.157.619-.28.858-.46a2.75 2.75 0 00.556-.556c.18-.24.303-.512.46-.858l.027-.06 2.004-4.408zm-4.78 2.376L14.49 9.51l-1.176 2.587c-.197.434-.254.548-.323.641a1.246 1.246 0 01-.253.253c-.093.07-.207.126-.64.323L9.51 14.49l1.176-2.587c.197-.434.254-.548.323-.641.072-.096.157-.181.253-.253.093-.07.207-.126.64-.323z"/>
</svg>
