<svg xmlns="http://www.w3.org/2000/svg" width="24" height="24" fill="currentColor" viewBox="0 0 24 24">
  <path fill="#0000ff" fill-rule="evenodd" d="M2.436 4.184C2 5.04 2 6.16 2 8.4v1.2c0 2.24 0 3.36.436 4.216a4 4 0 001.748 1.748C5.04 16 6.16 16 8.4 16h1.2c2.24 0 3.36 0 4.216-.436a4 4 0 001.748-1.748C16 12.96 16 11.84 16 9.6V8.4c0-2.24 0-3.36-.436-4.216a4 4 0 00-1.748-1.748C12.96 2 11.84 2 9.6 2H8.4c-2.24 0-3.36 0-4.216.436a4 4 0 00-1.748 1.748zM22 12.444V15.6c0 2.24 0 3.36-.436 4.216a4 4 0 01-1.748 1.748C18.96 22 17.84 22 15.6 22h-3.295c-.283 0-.425 0-.544-.007a4 4 0 01-3.754-3.753C8 18.12 8 17.977 8 17.694l.001-.067a.5.5 0 01.527-.471l.62-.012c2.753-.05 4.13-.076 5.18-.628a5 5 0 002.14-2.18C17 13.277 17 11.9 17 9.147v-.591c0-.052 0-.078.002-.1a.5.5 0 01.454-.454c.022-.002.048-.002.1-.002.412 0 .619 0 .793.015a4 4 0 013.636 3.636c.015.174.015.38.015.794z"/>
</svg>
