<svg xmlns="http://www.w3.org/2000/svg" width="24" height="24" fill="currentColor" viewBox="0 0 24 24">
  <path fill="#0000ff" fill-rule="evenodd" d="M18.126 8.78c-.483-.03-1.096-.03-1.96-.03v-1.5h.026c.832 0 1.492 0 2.028.034.547.034 1.014.105 1.453.27a4.75 4.75 0 012.773 2.773c.165.44.236.907.27 1.454.034.535.034 1.195.034 2.027V15.633c0 1.092 0 1.958-.057 2.655-.058.714-.18 1.317-.46 1.869a4.75 4.75 0 01-2.076 2.075c-.552.281-1.155.403-1.869.461-.697.057-1.563.057-2.655.057h-1.825c-.832 0-1.492 0-2.027-.034-.547-.034-1.014-.105-1.454-.27a4.75 4.75 0 01-2.772-2.773c-.166-.44-.237-.907-.271-1.453-.034-.536-.034-1.196-.034-2.028v-.025h1.5c0 .863 0 1.476.03 1.959.03.477.088.777.178 1.019a3.25 3.25 0 001.897 1.897c.242.09.542.148 1.02.177.482.03 1.095.031 1.959.031H15.6c1.133 0 1.937 0 2.566-.052.62-.05 1.005-.147 1.31-.302a3.25 3.25 0 001.42-1.42c.155-.305.251-.69.302-1.31.052-.63.052-1.433.052-2.566v-1.767c0-.863 0-1.476-.03-1.959-.03-.477-.087-.777-.178-1.019a3.25 3.25 0 00-1.897-1.897c-.242-.09-.542-.148-1.019-.177z" opacity=".4"/>
  <path fill="#0000ff" fill-rule="evenodd" d="M8.367 1.25H9.633c1.092 0 1.958 0 2.655.057.714.058 1.317.18 1.869.46a4.75 4.75 0 012.075 2.077c.281.55.403 1.154.461 1.868.057.697.057 1.563.057 2.655V9.633c0 1.092 0 1.958-.057 2.655-.058.714-.18 1.317-.46 1.868a4.75 4.75 0 01-2.076 2.076c-.552.281-1.155.403-1.869.461-.697.057-1.563.057-2.655.057H8.367c-1.092 0-1.958 0-2.655-.057-.714-.058-1.317-.18-1.868-.46a4.75 4.75 0 01-2.076-2.077c-.281-.55-.403-1.154-.46-1.868-.058-.697-.058-1.563-.058-2.655V8.367c0-1.092 0-1.958.057-2.655.058-.714.18-1.317.46-1.868a4.75 4.75 0 012.077-2.076c.55-.281 1.154-.403 1.868-.461.697-.057 1.563-.057 2.655-.057zM5.834 2.802c-.62.05-1.005.147-1.31.302a3.25 3.25 0 00-1.42 1.42c-.155.305-.251.69-.302 1.31-.051.63-.052 1.434-.052 2.566v1.2c0 1.133 0 1.937.052 2.566.05.62.147 1.005.302 1.31a3.25 3.25 0 001.42 1.42c.305.155.69.251 1.31.302.63.051 1.434.052 2.566.052h1.2c1.133 0 1.937 0 2.566-.052.62-.05 1.005-.147 1.31-.302a3.25 3.25 0 001.42-1.42c.155-.305.251-.69.302-1.31.051-.63.052-1.434.052-2.566V8.4c0-1.132 0-1.937-.052-2.566-.05-.62-.147-1.005-.302-1.31a3.25 3.25 0 00-1.42-1.42c-.305-.155-.69-.251-1.31-.302-.63-.051-1.433-.052-2.566-.052H8.4c-1.132 0-1.937 0-2.566.052z"/>
</svg>
