<svg xmlns="http://www.w3.org/2000/svg" width="24" height="24" fill="currentColor" viewBox="0 0 24 24">
  <path fill="#0000ff" fill-rule="evenodd" d="M8.4 1.25h-.033c-1.092 0-1.958 0-2.655.057-.714.058-1.317.18-1.868.46a4.75 4.75 0 00-2.076 2.077c-.281.55-.403 1.154-.46 1.868-.058.697-.058 1.563-.058 2.655V9.633c0 1.092 0 1.958.057 2.655.058.714.18 1.317.46 1.868a4.75 4.75 0 002.077 2.076c.55.281 1.154.403 1.868.461.44.036.949.05 1.539.054 0 .579.007 1.062.033 1.473.034.546.105 1.014.27 1.453a4.75 4.75 0 002.773 2.773c.44.165.907.236 1.454.27.535.034 1.195.034 2.027.034h1.825c1.092 0 1.958 0 2.655-.057.714-.058 1.317-.18 1.869-.46a4.75 4.75 0 002.075-2.076c.281-.552.403-1.155.461-1.869.057-.697.057-1.563.057-2.655V13.808c0-.832 0-1.492-.033-2.027-.035-.547-.106-1.015-.271-1.454a4.75 4.75 0 00-2.773-2.773c-.44-.165-.906-.236-1.453-.27a25.59 25.59 0 00-1.473-.034 21.588 21.588 0 00-.054-1.538c-.058-.714-.18-1.317-.46-1.868a4.75 4.75 0 00-2.076-2.076c-.552-.281-1.155-.403-1.869-.461-.697-.057-1.563-.057-2.655-.057H8.4zm8.35 7.5v.883c0 1.092 0 1.958-.057 2.655-.058.714-.18 1.317-.46 1.868a4.75 4.75 0 01-2.076 2.076c-.552.281-1.155.403-1.869.461-.697.057-1.563.057-2.655.057H8.75c.002.568.008 1.01.03 1.376.03.477.088.777.178 1.019a3.25 3.25 0 001.897 1.897c.242.09.542.148 1.02.177.482.03 1.095.031 1.959.031H15.6c1.133 0 1.937 0 2.566-.052.62-.05 1.005-.147 1.31-.302a3.25 3.25 0 001.42-1.42c.155-.305.251-.69.302-1.31.052-.63.052-1.433.052-2.566v-1.767c0-.863 0-1.476-.03-1.959-.03-.477-.087-.777-.178-1.019a3.25 3.25 0 00-1.897-1.897c-.242-.09-.542-.148-1.019-.177a24.08 24.08 0 00-1.376-.03zM4.525 3.104c.304-.155.688-.251 1.309-.302.63-.051 1.434-.052 2.566-.052h1.2c1.133 0 1.937 0 2.566.052.62.05 1.005.147 1.31.302a3.25 3.25 0 011.42 1.42c.155.305.251.69.302 1.31.051.63.052 1.434.052 2.566v1.2c0 1.133 0 1.937-.052 2.566-.05.62-.147 1.005-.302 1.31a3.25 3.25 0 01-1.42 1.42c-.305.155-.69.251-1.31.302-.63.051-1.433.052-2.566.052H8.4c-1.132 0-1.937 0-2.566-.052-.62-.05-1.005-.147-1.31-.302a3.25 3.25 0 01-1.42-1.42c-.155-.305-.251-.69-.302-1.31-.051-.63-.052-1.434-.052-2.566V8.4c0-1.132 0-1.937.052-2.566.05-.62.147-1.005.302-1.31a3.25 3.25 0 011.42-1.42z"/>
</svg>
