<svg xmlns="http://www.w3.org/2000/svg" width="24" height="24" fill="currentColor" viewBox="0 0 24 24">
  <path fill="#0000ff" fill-rule="evenodd" d="M8.4 2.25h-.033c-1.092 0-1.958 0-2.655.057-.714.058-1.317.18-1.868.46a4.75 4.75 0 00-2.076 2.077c-.281.55-.403 1.154-.461 1.868-.037.451-.055.677.021.884.088.237.288.455.517.56.2.094.45.094.947.094h18.416c.498 0 .747 0 .947-.093.229-.106.43-.324.517-.56.076-.208.058-.434.021-.885-.058-.714-.18-1.317-.46-1.868a4.75 4.75 0 00-2.076-2.076c-.552-.281-1.155-.403-1.869-.461-.697-.057-1.563-.057-2.655-.057H8.4zM1.25 14.6v-3.25c0-.56 0-.84.109-1.054a1 1 0 01.437-.437c.214-.109.494-.109 1.054-.109h18.3c.56 0 .84 0 1.054.109a1 1 0 01.437.437c.109.214.109.494.109 1.054v3.283c0 1.092 0 1.958-.057 2.655-.058.714-.18 1.317-.46 1.869a4.75 4.75 0 01-2.076 2.075c-.552.281-1.155.403-1.869.461-.697.057-1.563.057-2.655.057H8.367c-1.092 0-1.958 0-2.655-.057-.714-.058-1.317-.18-1.868-.46a4.75 4.75 0 01-2.076-2.076c-.281-.552-.403-1.155-.461-1.869-.057-.697-.057-1.563-.057-2.655V14.6zM6 12.25a.75.75 0 000 1.5h4a.75.75 0 000-1.5H6z"/>
</svg>
