<svg xmlns="http://www.w3.org/2000/svg" width="24" height="24" fill="currentColor" viewBox="0 0 24 24">
  <path fill="#0000ff" fill-rule="evenodd" d="M12 1.25C6.063 1.25 1.25 6.063 1.25 12S6.063 22.75 12 22.75 22.75 17.937 22.75 12 17.937 1.25 12 1.25zm0 1a.75.75 0 01.75.75v1.5a.75.75 0 01-1.5 0V3a.75.75 0 01.75-.75zm-9 9a.75.75 0 000 1.5h1.5a.75.75 0 000-1.5H3zm18 1.5h-1.5a.75.75 0 010-1.5H21a.75.75 0 010 1.5zm-2.47-6.22a.75.75 0 00-1.06-1.06l-1 1a.75.75 0 001.06 1.06l1-1zm-2.06 9.94a.75.75 0 011.06 0l1 1a.75.75 0 11-1.06 1.06l-1-1a.75.75 0 010-1.06zm-8.94 1.06a.75.75 0 10-1.06-1.06l-1 1a.75.75 0 101.06 1.06l1-1zM5.47 5.47a.75.75 0 011.06 0l1 1a.75.75 0 01-1.06 1.06l-1-1a.75.75 0 010-1.06zM12 9s-2 1.482-2 3.556c0 3.259 4 3.259 4 0C14 10.482 12 9 12 9z"/>
</svg>
