<svg xmlns="http://www.w3.org/2000/svg" width="24" height="24" fill="currentColor" viewBox="0 0 24 24">
  <path fill="#0000ff" fill-rule="evenodd" d="M1.25 12C1.25 6.063 6.063 1.25 12 1.25a.75.75 0 01.75.75v2a.75.75 0 01-1.5 0V2.78a9.21 9.21 0 00-5.239 2.17l.52.52A.75.75 0 015.47 6.53l-.52-.519a9.21 9.21 0 00-2.17 5.239H4a.75.75 0 010 1.5H2.78a9.21 9.21 0 002.17 5.24l.52-.52a.75.75 0 111.06 1.06l-.519.52A9.213 9.213 0 0012 21.25a9.214 9.214 0 005.99-2.2l-.52-.52a.75.75 0 111.06-1.06l.52.519a9.21 9.21 0 002.17-5.239H20a.75.75 0 010-1.5h1.22a9.21 9.21 0 00-2.17-5.239l-.52.52a.75.75 0 11-1.06-1.061l.52-.52a9.254 9.254 0 00-2.29-1.43.75.75 0 01.6-1.375A10.752 10.752 0 0122.75 12c0 5.937-4.813 10.75-10.75 10.75S1.25 17.937 1.25 12zM12 9l.446-.603a.75.75 0 00-.893 0L12 9zm.413 1.466a5.605 5.605 0 00-.413-.463c-.128.129-.27.284-.413.463-.45.566-.837 1.293-.837 2.09 0 .658.199 1.078.427 1.325.23.25.529.369.823.369.294 0 .593-.119.823-.369.228-.248.427-.667.427-1.325 0-.797-.388-1.524-.837-2.09zm2.337 2.09c0-1.278-.612-2.33-1.163-3.022a7.14 7.14 0 00-1.105-1.11l-.023-.018-.008-.005-.003-.002v-.001h-.001L12 9a97.42 97.42 0 00-.447-.602h-.002l-.002.003-.008.005-.023.018-.078.062a7.15 7.15 0 00-1.028 1.047c-.55.694-1.162 1.745-1.162 3.022 0 .972.3 1.774.823 2.342.52.564 1.221.853 1.927.853s1.407-.289 1.927-.853c.522-.568.823-1.37.823-2.341z"/>
</svg>
