<svg xmlns="http://www.w3.org/2000/svg" width="24" height="24" fill="currentColor" viewBox="0 0 24 24">
  <path fill="#0000ff" fill-rule="evenodd" d="M15.63 1.343c-.555-.093-1.13-.093-2.093-.093h-1.971c-1.651 0-2.937 0-3.968.084-1.047.086-1.897.262-2.662.652a6.75 6.75 0 00-2.95 2.95c-.39.765-.566 1.615-.652 2.662-.084 1.031-.084 2.317-.084 3.968V12.434c0 1.651 0 2.937.084 3.968.086 1.047.262 1.897.652 2.662a6.75 6.75 0 002.95 2.95c.765.39 1.615.566 2.662.652 1.031.084 2.317.084 3.968.084H12.434c1.652 0 2.937 0 3.968-.084 1.047-.086 1.897-.262 2.662-.652a6.75 6.75 0 002.95-2.95c.39-.765.566-1.615.652-2.662.084-1.031.084-2.317.084-3.968v-1.971c0-.964 0-1.539-.093-2.093a6.75 6.75 0 00-1.161-2.804c-.326-.457-.733-.864-1.414-1.545l-.052-.051-.05-.052h-.001c-.681-.681-1.088-1.088-1.545-1.414a6.75 6.75 0 00-2.804-1.161zM8.25 8A.75.75 0 019 7.25h6a.75.75 0 010 1.5H9A.75.75 0 018.25 8zm2.95 5h1.6c1.12 0 1.68 0 2.108.218a2 2 0 01.874.874C16 14.52 16 15.08 16 16.2V18c0 .943 0 1.414-.293 1.707C15.414 20 14.943 20 14 20h-4c-.943 0-1.414 0-1.707-.293C8 19.414 8 18.943 8 18v-1.8c0-1.12 0-1.68.218-2.108a2 2 0 01.874-.874C9.52 13 10.08 13 11.2 13z"/>
</svg>
