<svg xmlns="http://www.w3.org/2000/svg" width="24" height="24" fill="currentColor" viewBox="0 0 24 24">
  <path fill="#0000ff" fill-rule="evenodd" d="M8 7.25a.75.75 0 000 1.5h8a.75.75 0 000-1.5H8zm3.2 5h-.03c-.535 0-.98 0-1.345.03-.38.03-.736.098-1.073.27A2.75 2.75 0 007.55 13.75c-.172.338-.24.694-.27 1.074-.03.365-.03.81-.03 1.345v5.33a.75.75 0 001.5 0v-5.3c0-.572 0-.957.025-1.252.023-.288.065-.425.111-.516a1.25 1.25 0 01.547-.546c.09-.046.227-.088.514-.111.296-.024.68-.025 1.253-.025h1.6c.572 0 .957 0 1.252.025.288.023.425.065.516.111.235.12.426.311.546.546.046.091.088.228.111.515.024.296.025.68.025 1.253v5.3a.75.75 0 001.5 0v-5.33c0-.535 0-.98-.03-1.345-.03-.38-.098-.736-.27-1.073a2.751 2.751 0 00-1.201-1.202c-.338-.172-.694-.24-1.074-.27-.365-.03-.81-.03-1.345-.03H11.2z" opacity=".4"/>
  <path fill="#0000ff" fill-rule="evenodd" d="M15.382 2.822c-.416-.07-.86-.072-1.918-.072H11.6c-1.693 0-2.917 0-3.88.08-.954.077-1.585.228-2.103.492a5.25 5.25 0 00-2.295 2.295c-.264.518-.415 1.15-.493 2.103-.078.963-.079 2.187-.079 3.88v.8c0 1.692 0 2.917.08 3.88.077.954.228 1.585.492 2.104a5.25 5.25 0 002.295 2.294c.518.264 1.15.415 2.103.493.963.078 2.187.079 3.88.079h.8c1.692 0 2.917 0 3.88-.08.954-.077 1.585-.228 2.103-.492a5.25 5.25 0 002.295-2.294c.264-.519.415-1.15.493-2.104.078-.963.079-2.188.079-3.88v-1.864c0-1.058-.002-1.502-.072-1.918a5.25 5.25 0 00-.904-2.18c-.245-.344-.556-.66-1.304-1.408-.748-.748-1.063-1.06-1.407-1.305a5.25 5.25 0 00-2.181-.903zM13.537 1.25c.964 0 1.538 0 2.093.093a6.75 6.75 0 012.804 1.161c.457.326.863.733 1.545 1.414l.051.052.052.05c.681.683 1.088 1.089 1.414 1.546a6.75 6.75 0 011.161 2.804c.093.554.093 1.13.093 2.093v1.971c0 1.651 0 2.937-.084 3.968-.086 1.047-.262 1.897-.652 2.662a6.75 6.75 0 01-2.95 2.95c-.765.39-1.615.566-2.662.652-1.031.084-2.317.084-3.968.084H11.566c-1.651 0-2.937 0-3.968-.084-1.047-.086-1.897-.262-2.662-.652a6.75 6.75 0 01-2.95-2.95c-.39-.765-.566-1.615-.652-2.662-.084-1.031-.084-2.317-.084-3.968V11.566c0-1.651 0-2.937.084-3.968.086-1.047.262-1.897.652-2.662a6.75 6.75 0 012.95-2.95c.765-.39 1.615-.566 2.662-.652 1.031-.084 2.317-.084 3.968-.084h1.971z"/>
</svg>
