<svg xmlns="http://www.w3.org/2000/svg" width="24" height="24" fill="currentColor" viewBox="0 0 24 24">
  <path fill="#0000ff" fill-rule="evenodd" d="M15.382 2.822c-.416-.07-.86-.072-1.918-.072H11.6c-1.693 0-2.917 0-3.88.08-.954.077-1.585.228-2.103.492a5.25 5.25 0 00-2.295 2.295c-.264.518-.415 1.15-.493 2.103-.078.963-.079 2.187-.079 3.88v.8c0 1.692 0 2.917.08 3.88.077.954.228 1.585.492 2.104a5.25 5.25 0 002.295 2.294c.428.218.933.359 1.633.445V16.17c0-.535 0-.98.03-1.345.03-.38.098-.736.27-1.073a2.75 2.75 0 011.202-1.202c.337-.172.693-.24 1.073-.27.365-.03.81-.03 1.345-.03H12.83c.535 0 .98 0 1.345.03.38.03.736.098 1.073.27.518.263.939.684 1.202 1.201.172.338.24.694.27 1.074.03.365.03.81.03 1.345v4.953c.7-.086 1.205-.227 1.633-.445a5.25 5.25 0 002.295-2.294c.264-.519.415-1.15.493-2.104.078-.963.079-2.188.079-3.88v-1.864c0-1.058-.002-1.502-.072-1.918a5.25 5.25 0 00-.904-2.18c-.245-.344-.556-.66-1.304-1.408-.748-.748-1.063-1.06-1.407-1.305a5.25 5.25 0 00-2.181-.903zm-.132 18.403V16.2c0-.572 0-.957-.025-1.252-.023-.288-.065-.425-.111-.516a1.25 1.25 0 00-.546-.546c-.091-.046-.228-.088-.515-.111-.296-.024-.68-.025-1.253-.025h-1.6c-.572 0-.957 0-1.253.025-.287.023-.424.065-.514.111a1.25 1.25 0 00-.547.546c-.046.091-.088.228-.111.515-.024.296-.025.68-.025 1.253v5.025c.78.025 1.708.025 2.85.025h.8c1.142 0 2.07 0 2.85-.025zM13.537 1.25c.964 0 1.538 0 2.093.093a6.75 6.75 0 012.804 1.161c.457.326.863.733 1.545 1.414l.051.052.052.05c.681.683 1.088 1.089 1.414 1.546a6.75 6.75 0 011.161 2.804c.093.554.093 1.13.093 2.093v1.971c0 1.651 0 2.937-.084 3.968-.086 1.047-.262 1.897-.652 2.662a6.75 6.75 0 01-2.95 2.95c-.765.39-1.615.566-2.662.652-1.031.084-2.317.084-3.968.084H11.566c-1.651 0-2.937 0-3.968-.084-1.047-.086-1.897-.262-2.662-.652a6.75 6.75 0 01-2.95-2.95c-.39-.765-.566-1.615-.652-2.662-.084-1.031-.084-2.317-.084-3.968V11.566c0-1.651 0-2.937.084-3.968.086-1.047.262-1.897.652-2.662a6.75 6.75 0 012.95-2.95c.765-.39 1.615-.566 2.662-.652 1.031-.084 2.317-.084 3.968-.084h1.971zM7.25 8A.75.75 0 018 7.25h8a.75.75 0 010 1.5H8A.75.75 0 017.25 8z"/>
</svg>
