<svg xmlns="http://www.w3.org/2000/svg" width="24" height="24" fill="currentColor" viewBox="0 0 24 24">
  <path fill="#0000ff" fill-rule="evenodd" d="M2.218 15.092C2 15.52 2 16.08 2 17.2v1.6c0 1.12 0 1.68.218 2.108a2 2 0 00.874.874C3.52 22 4.08 22 5.2 22h1.6c1.12 0 1.68 0 2.108-.218a2 2 0 00.874-.874C10 20.48 10 19.92 10 18.8v-1.6c0-1.12 0-1.68-.218-2.108a2 2 0 00-.874-.874C8.48 14 7.92 14 6.8 14H5.2c-1.12 0-1.68 0-2.108.218a2 2 0 00-.874.874zm12 0C14 15.52 14 16.08 14 17.2v1.6c0 1.12 0 1.68.218 2.108a2 2 0 00.874.874C15.52 22 16.08 22 17.2 22h1.6c1.12 0 1.68 0 2.108-.218a2 2 0 00.874-.874C22 20.48 22 19.92 22 18.8v-1.6c0-1.12 0-1.68-.218-2.108a2 2 0 00-.874-.874C20.48 14 19.92 14 18.8 14h-1.6c-1.12 0-1.68 0-2.108.218a2 2 0 00-.874.874z" opacity=".12"/>
  <path fill="#0000ff" fill-rule="evenodd" d="M5.2 1.25h-.03c-.535 0-.98 0-1.345.03-.38.03-.736.098-1.073.27A2.75 2.75 0 001.55 2.752c-.172.337-.24.693-.27 1.073-.03.365-.03.81-.03 1.345V6.83c0 .535 0 .98.03 1.345.03.38.098.736.27 1.073a2.75 2.75 0 001.202 1.202c.337.172.693.24 1.073.27.365.03.81.03 1.345.03H6.83c.535 0 .98 0 1.345-.03.38-.03.736-.098 1.073-.27a2.75 2.75 0 001.202-1.202c.172-.337.24-.693.27-1.073.03-.365.03-.81.03-1.345V5.17c0-.535 0-.98-.03-1.345-.03-.38-.098-.736-.27-1.073A2.75 2.75 0 009.248 1.55c-.337-.172-.693-.24-1.073-.27-.365-.03-.81-.03-1.345-.03H5.2zM3.433 2.886c.09-.046.227-.088.514-.111.296-.024.68-.025 1.253-.025h1.6c.572 0 .957 0 1.253.025.287.023.424.065.514.111.236.12.427.311.547.547.046.09.088.227.111.514.024.296.025.68.025 1.253v1.6c0 .572 0 .957-.025 1.253-.023.287-.065.424-.111.514a1.25 1.25 0 01-.547.547c-.09.046-.227.088-.514.111-.296.024-.68.025-1.253.025H5.2c-.572 0-.957 0-1.253-.025-.287-.023-.424-.065-.514-.111a1.25 1.25 0 01-.547-.547c-.046-.09-.088-.227-.111-.514-.024-.296-.025-.68-.025-1.253V5.2c0-.572 0-.957.025-1.253.023-.287.065-.424.111-.514a1.25 1.25 0 01.547-.547zM5.2 13.25h-.03c-.535 0-.98 0-1.345.03-.38.03-.736.098-1.073.27A2.75 2.75 0 001.55 14.75c-.172.338-.24.694-.27 1.074-.03.365-.03.81-.03 1.345V18.83c0 .535 0 .98.03 1.345.03.38.098.736.27 1.073a2.75 2.75 0 001.202 1.202c.337.172.693.24 1.073.27.365.03.81.03 1.344.03H6.83c.535 0 .98 0 1.345-.03.38-.03.736-.098 1.073-.27a2.75 2.75 0 001.202-1.201c.172-.338.24-.694.27-1.074.03-.364.03-.81.03-1.345V17.17c0-.535 0-.98-.03-1.345-.03-.38-.098-.736-.27-1.073a2.75 2.75 0 00-1.202-1.202c-.337-.172-.693-.24-1.073-.27-.365-.03-.81-.03-1.345-.03H5.2zm-1.767 1.636c.09-.046.227-.088.514-.111.296-.024.68-.025 1.253-.025h1.6c.572 0 .957 0 1.253.025.287.023.424.065.514.111.236.12.427.311.547.546.046.091.088.228.111.515.024.296.025.68.025 1.253v1.6c0 .572 0 .957-.025 1.252-.023.288-.065.425-.111.515a1.25 1.25 0 01-.547.547c-.09.046-.227.088-.514.111-.296.024-.68.025-1.253.025H5.2c-.572 0-.957 0-1.253-.025-.287-.023-.424-.065-.514-.111a1.25 1.25 0 01-.547-.547c-.046-.09-.088-.227-.111-.515-.024-.295-.025-.68-.025-1.252v-1.6c0-.572 0-.957.025-1.252.023-.288.065-.425.111-.516a1.25 1.25 0 01.547-.546zM17.17 13.25H18.83c.535 0 .98 0 1.345.03.38.03.736.098 1.073.27.518.263.939.684 1.202 1.201.172.338.24.694.27 1.074.03.364.03.81.03 1.344v1.661c0 .535 0 .98-.03 1.345-.03.38-.098.736-.27 1.073a2.751 2.751 0 01-1.201 1.202c-.338.172-.694.24-1.074.27-.364.03-.81.03-1.344.03H17.17c-.535 0-.98 0-1.345-.03-.38-.03-.736-.098-1.073-.27a2.751 2.751 0 01-1.202-1.201c-.172-.338-.24-.694-.27-1.074-.03-.365-.03-.81-.03-1.345V17.17c0-.535 0-.98.03-1.345.03-.38.098-.736.27-1.073a2.751 2.751 0 011.201-1.202c.338-.172.694-.24 1.074-.27.365-.03.81-.03 1.345-.03zm-1.223 1.525c-.287.023-.424.065-.514.111a1.25 1.25 0 00-.547.546c-.046.091-.088.228-.111.515-.024.296-.025.68-.025 1.253v1.6c0 .572 0 .957.025 1.252.023.288.065.425.111.515.12.236.311.427.546.547.091.046.228.088.515.111.296.024.68.025 1.253.025h1.6c.572 0 .957 0 1.252-.025.288-.023.425-.065.515-.111a1.25 1.25 0 00.547-.547c.046-.09.088-.227.111-.515.024-.295.025-.68.025-1.252v-1.6c0-.572 0-.957-.025-1.252-.023-.288-.065-.425-.111-.516a1.25 1.25 0 00-.547-.546c-.09-.046-.227-.088-.515-.111-.295-.024-.68-.025-1.252-.025h-1.6c-.572 0-.957 0-1.252.025zM18.75 2a.75.75 0 00-1.5 0v3.25H14a.75.75 0 000 1.5h3.25V10a.75.75 0 001.5 0V6.75H22a.75.75 0 000-1.5h-3.25V2z"/>
</svg>
