<svg xmlns="http://www.w3.org/2000/svg" width="24" height="24" fill="currentColor" viewBox="0 0 24 24">
  <path fill="#0000ff" fill-rule="evenodd" d="M16 3.75c.958 0 1.35.002 1.665.052a4.25 4.25 0 013.533 3.533c.05.316.052.707.052 1.665v.5a.75.75 0 001.5 0v-.58c0-.853 0-1.372-.07-1.82a5.75 5.75 0 00-4.78-4.78c-.448-.07-.967-.07-1.82-.07H9.967c-1.371 0-2.447 0-3.311.07-.88.073-1.607.221-2.265.557A5.75 5.75 0 001.877 5.39c-.336.658-.484 1.385-.556 2.265-.071.864-.071 1.94-.071 3.311V13.034c0 1.371 0 2.447.07 3.311.073.88.221 1.607.557 2.265a5.75 5.75 0 002.513 2.513c.658.336 1.385.485 2.265.556.864.071 1.94.071 3.311.071h6.114c.853 0 1.372 0 1.82-.07a5.75 5.75 0 004.78-4.78c.07-.448.07-.967.07-1.82v-.58a.75.75 0 00-1.5 0v.5c0 .958-.002 1.35-.052 1.665a4.25 4.25 0 01-3.533 3.533c-.316.05-.707.052-1.665.052h-6c-1.413 0-2.427 0-3.223-.066-.787-.064-1.295-.188-1.706-.397a4.25 4.25 0 01-1.858-1.857c-.21-.412-.333-.92-.397-1.707-.065-.796-.066-1.81-.066-3.223v-2c0-1.412 0-2.427.066-3.223.064-.787.188-1.295.397-1.706a4.25 4.25 0 011.858-1.858c.411-.21.919-.333 1.706-.397.796-.065 1.81-.066 3.223-.066h6zM6.416 7.376a.75.75 0 00-.832 1.248l1 .667.116.077c1.499 1 2.39 1.594 3.353 1.884a6.75 6.75 0 003.894 0c.963-.29 1.854-.885 3.353-1.884l.116-.077 1-.667a.75.75 0 10-.832-1.248l-1 .667c-1.65 1.1-2.347 1.555-3.07 1.773a5.25 5.25 0 01-3.028 0c-.723-.218-1.42-.673-3.07-1.773l-1-.667z"/>
</svg>
