<svg xmlns="http://www.w3.org/2000/svg" width="24" height="24" fill="currentColor" viewBox="0 0 24 24">
  <path fill="#0000ff" fill-rule="evenodd" d="M8 9.25h-.027c-.91 0-1.63 0-2.213.04-.596.04-1.104.125-1.578.322a4.75 4.75 0 00-2.57 2.57c-.197.474-.282.982-.322 1.578-.04.584-.04 1.304-.04 2.213v.054c0 .91 0 1.63.04 2.213.04.596.125 1.104.322 1.578a4.75 4.75 0 002.57 2.57c.474.197.982.281 1.578.322.584.04 1.304.04 2.213.04H16.027c.91 0 1.63 0 2.213-.04.596-.04 1.104-.125 1.578-.322a4.75 4.75 0 002.57-2.57c.197-.474.281-.982.322-1.578.04-.584.04-1.304.04-2.213v-.054c0-.91 0-1.63-.04-2.213-.04-.596-.125-1.104-.322-1.578a4.75 4.75 0 00-2.57-2.57c-.474-.197-.982-.282-1.578-.322-.584-.04-1.304-.04-2.213-.04H8zm3.47-7.78a.75.75 0 011.06 0l4 4a.75.75 0 01-1.06 1.06l-2.72-2.72V16a.75.75 0 01-1.5 0V3.81L8.53 6.53a.75.75 0 01-1.06-1.06l4-4z"/>
</svg>
