<svg xmlns="http://www.w3.org/2000/svg" width="24" height="24" fill="currentColor" viewBox="0 0 24 24">
  <rect width="20" height="12" x="2" y="10" opacity=".12" rx="4"/>
  <path fill="#0000ff" fill-rule="evenodd" d="M12.53 1.47a.75.75 0 00-1.06 0l-4 4a.75.75 0 001.06 1.06l2.72-2.72V15a.75.75 0 001.5 0V3.81l2.72 2.72a.75.75 0 001.06-1.06l-4-4zM7.5 9.25h-.143c-1.258 0-2.06 0-2.736.205a4.75 4.75 0 00-3.166 3.166c-.205.676-.205 1.478-.205 2.736v.67c0 .91 0 1.63.04 2.213.04.596.125 1.104.322 1.578a4.75 4.75 0 002.57 2.57c.474.197.982.281 1.578.322.584.04 1.304.04 2.213.04H16.027c.91 0 1.63 0 2.213-.04.596-.04 1.104-.125 1.578-.322a4.75 4.75 0 002.57-2.57c.197-.474.282-.982.322-1.578.04-.584.04-1.304.04-2.213v-.67c0-1.258 0-2.06-.204-2.736a4.75 4.75 0 00-3.167-3.166c-.676-.205-1.478-.205-2.736-.205H16a.75.75 0 000 1.5h.5c1.45 0 2.009.008 2.444.14a3.25 3.25 0 012.166 2.167c.132.434.14.993.14 2.443v.5c0 .942 0 1.611-.036 2.138-.036.52-.103.845-.211 1.106a3.25 3.25 0 01-1.76 1.759c-.26.108-.586.175-1.105.21-.527.037-1.196.037-2.138.037H8c-.942 0-1.611 0-2.138-.036-.52-.036-.845-.103-1.106-.211a3.25 3.25 0 01-1.759-1.76c-.108-.26-.175-.586-.21-1.105C2.75 17.61 2.75 16.942 2.75 16v-.5c0-1.45.008-2.009.14-2.443a3.25 3.25 0 012.167-2.167c.434-.132.993-.14 2.443-.14H8a.75.75 0 000-1.5h-.5z"/>
</svg>
