<svg xmlns="http://www.w3.org/2000/svg" width="24" height="24" fill="currentColor" viewBox="0 0 24 24">
  <path fill="#0000ff" fill-rule="evenodd" d="M11.47 1.47a.75.75 0 011.06 0l4 4a.75.75 0 01-1.06 1.06l-2.72-2.72V15a.75.75 0 01-1.5 0V3.81L8.53 6.53a.75.75 0 01-1.06-1.06l4-4z" opacity=".4"/>
  <path fill="#0000ff" fill-rule="evenodd" d="M7.357 9.25H8a.75.75 0 110 1.5h-.5c-1.45 0-2.009.008-2.443.14a3.25 3.25 0 00-2.167 2.167c-.132.434-.14.993-.14 2.443v.5c0 .942 0 1.611.036 2.138.036.52.103.845.211 1.106a3.25 3.25 0 001.76 1.759c.26.108.586.175 1.105.21.527.037 1.196.037 2.138.037h8c.942 0 1.611 0 2.138-.036.52-.036.845-.103 1.106-.211a3.25 3.25 0 001.759-1.76c.108-.26.175-.586.21-1.105.037-.527.037-1.196.037-2.138v-.5c0-1.45-.008-2.009-.14-2.443a3.25 3.25 0 00-2.166-2.167c-.435-.132-.994-.14-2.444-.14H16a.75.75 0 110-1.5h.643c1.258 0 2.06 0 2.736.205a4.75 4.75 0 013.166 3.166c.205.676.205 1.478.205 2.736v.67c0 .91 0 1.63-.04 2.213-.04.596-.125 1.104-.322 1.578a4.75 4.75 0 01-2.57 2.57c-.474.197-.982.282-1.578.322-.584.04-1.304.04-2.213.04H7.973c-.909 0-1.63 0-2.213-.04-.596-.04-1.104-.125-1.578-.322a4.75 4.75 0 01-2.57-2.57c-.197-.474-.281-.982-.322-1.578-.04-.584-.04-1.304-.04-2.213V15.5v-.143c0-1.258 0-2.06.205-2.736A4.75 4.75 0 014.62 9.455C5.297 9.25 6.1 9.25 7.357 9.25z"/>
</svg>
