<svg xmlns="http://www.w3.org/2000/svg" width="24" height="24" fill="currentColor" viewBox="0 0 24 24">
  <path fill="#0000ff" fill-rule="evenodd" d="M2.47 2.47a.75.75 0 011.06 0l2.826 2.825 4.053 4.053 4.243 4.243 4.053 4.053 2.825 2.826a.75.75 0 11-1.06 1.06l-2.396-2.396c-1.596.972-3.613 1.616-6.074 1.616-3.716 0-6.407-1.467-8.165-3.292C2.107 15.663 1.25 13.485 1.25 12c0-1.69 1.114-4.32 3.439-6.25l-2.22-2.22a.75.75 0 010-1.06zm3.284 4.345C3.651 8.505 2.75 10.794 2.75 12c0 1.015.643 2.837 2.165 4.417 1.492 1.55 3.8 2.833 7.085 2.833 2.019 0 3.664-.485 4.977-1.213l-2.91-2.908A3.75 3.75 0 018.87 9.932L5.755 6.815zM9.97 11.03a2.25 2.25 0 003.001 3.001l-3-3.001zM12 4.75c-1.035 0-1.97.127-2.81.348a9.761 9.761 0 00-.464.134.75.75 0 01-.452-1.43c.175-.055.354-.107.535-.155A12.525 12.525 0 0112 3.25c3.716 0 6.407 1.467 8.165 3.292C21.894 8.337 22.75 10.515 22.75 12c0 1.09-.46 2.532-1.353 3.908-.117.18-.242.36-.375.54a.75.75 0 11-1.204-.896c.114-.153.22-.306.32-.46.783-1.206 1.112-2.368 1.112-3.092 0-1.015-.643-2.837-2.165-4.417-1.492-1.55-3.8-2.833-7.085-2.833z"/>
</svg>
