<svg xmlns="http://www.w3.org/2000/svg" width="24" height="24" fill="currentColor" viewBox="0 0 24 24">
  <path fill="#0000ff" fill-rule="evenodd" d="M3.53 2.47a.75.75 0 00-1.06 1.06l2.219 2.22C2.364 7.68 1.25 10.31 1.25 12c0 1.485.857 3.663 2.585 5.458C5.593 19.283 8.285 20.75 12 20.75c2.461 0 4.478-.644 6.074-1.616l2.396 2.396a.75.75 0 101.06-1.06l-2.825-2.826L6.356 5.295 3.53 2.47zm10.538 12.659L12.97 14.03a2.25 2.25 0 01-3-3L8.87 9.93a3.75 3.75 0 005.197 5.197zM9.19 5.098c.84-.22 1.775-.348 2.81-.348 3.284 0 5.593 1.283 7.085 2.833 1.521 1.58 2.165 3.402 2.165 4.417 0 .724-.33 1.886-1.112 3.092-.1.154-.206.307-.32.46a.75.75 0 101.203.896c.133-.18.258-.36.376-.54.893-1.376 1.353-2.818 1.353-3.908 0-1.485-.857-3.663-2.585-5.458C18.407 4.717 15.715 3.25 12 3.25c-1.16 0-2.222.143-3.19.397-.182.048-.361.1-.536.155a.75.75 0 10.452 1.43c.152-.048.306-.093.464-.134z"/>
</svg>
