<svg xmlns="http://www.w3.org/2000/svg" width="24" height="24" fill="currentColor" viewBox="0 0 24 24">
  <path fill="#0000ff" fill-rule="evenodd" d="M2.75 12c0-1.015.643-2.837 2.165-4.417C6.407 6.033 8.715 4.75 12 4.75c3.284 0 5.593 1.283 7.085 2.833 1.521 1.58 2.165 3.402 2.165 4.417 0 1.015-.643 2.837-2.165 4.417-1.492 1.55-3.8 2.833-7.085 2.833-1.864 0-3.407-.413-4.662-1.046a.75.75 0 10-.676 1.34c1.47.74 3.245 1.206 5.338 1.206 3.716 0 6.407-1.467 8.165-3.292 1.729-1.795 2.585-3.973 2.585-5.458 0-1.485-.857-3.663-2.585-5.458C18.407 4.717 15.715 3.25 12 3.25c-3.716 0-6.407 1.467-8.165 3.292C2.107 8.337 1.25 10.515 1.25 12c0 1.226.583 2.908 1.729 4.448a.75.75 0 101.203-.896C3.175 14.198 2.75 12.823 2.75 12zm7 0a2.25 2.25 0 114.5 0 2.25 2.25 0 01-4.5 0zM12 8.25a3.75 3.75 0 100 7.5 3.75 3.75 0 000-7.5z"/>
</svg>
