<svg xmlns="http://www.w3.org/2000/svg" width="24" height="24" fill="currentColor" viewBox="0 0 24 24">
  <path fill="#0000ff" fill-rule="evenodd" d="M14.75 2.5a.75.75 0 00-1.5 0V4.83c0 .535 0 .98.03 1.345.03.38.098.736.27 1.074A2.75 2.75 0 0014.75 8.45c.338.172.694.24 1.074.27.365.03.81.03 1.345.03H19.5a.75.75 0 000-1.5h-2.3c-.572 0-.957 0-1.252-.025-.288-.023-.425-.065-.516-.111a1.25 1.25 0 01-.546-.546c-.046-.091-.088-.228-.111-.515-.024-.296-.025-.68-.025-1.253V2.5zm-2 8.5a.75.75 0 00-1.5 0v4.19l-1.22-1.22a.75.75 0 10-1.06 1.06l2.5 2.5a.75.75 0 001.06 0l2.5-2.5a.75.75 0 10-1.06-1.06l-1.22 1.22V11z" opacity=".4"/>
  <path fill="#0000ff" fill-rule="evenodd" d="M13.849 2.85c-.436-.096-.906-.1-2.07-.1-1.308 0-2.246 0-2.985.056-.73.056-1.204.162-1.59.342a4.25 4.25 0 00-2.056 2.056c-.18.386-.286.86-.342 1.59-.056.739-.056 1.677-.056 2.984V14c0 1.412 0 2.427.066 3.223.064.787.188 1.295.397 1.707a4.25 4.25 0 001.858 1.857c.411.21.919.333 1.706.397.796.065 1.81.066 3.223.066 1.412 0 2.427 0 3.223-.066.787-.064 1.295-.188 1.707-.397a4.25 4.25 0 001.857-1.857c.21-.412.333-.92.397-1.707.065-.796.066-1.81.066-3.223v-3.686c0-1.259-.005-1.766-.117-2.235a4.25 4.25 0 00-.51-1.229c-.251-.41-.607-.773-1.497-1.663l-.378-.378c-.824-.824-1.16-1.154-1.536-1.393a4.249 4.249 0 00-1.363-.565zm-1.98-1.6c1.046 0 1.689 0 2.305.136a5.75 5.75 0 011.844.764c.532.34.987.794 1.726 1.533l.064.065.38.379.07.07c.797.797 1.289 1.289 1.645 1.87a5.75 5.75 0 01.688 1.662c.16.662.16 1.357.159 2.486v3.819c0 1.371 0 2.447-.07 3.311-.072.88-.221 1.607-.557 2.265a5.75 5.75 0 01-2.513 2.513c-.658.336-1.385.485-2.265.556-.864.071-1.94.071-3.311.071h-.068c-1.371 0-2.447 0-3.311-.07-.88-.072-1.607-.221-2.265-.557a5.75 5.75 0 01-2.513-2.513c-.336-.658-.484-1.385-.556-2.265-.071-.864-.071-1.94-.071-3.311V9.748c0-1.27 0-2.265.06-3.067.063-.816.19-1.493.479-2.111a5.75 5.75 0 012.78-2.781c.62-.289 1.296-.416 2.112-.478.802-.061 1.797-.061 3.066-.061h.123z"/>
</svg>
