<svg xmlns="http://www.w3.org/2000/svg" width="24" height="24" fill="currentColor" viewBox="0 0 24 24">
  <path fill="#0000ff" fill-rule="evenodd" d="M10.065 1.364c-.454-.114-.943-.114-1.653-.114h-.896c-1.163 0-2.101 0-2.848.086-.773.09-1.435.28-2 .727a3.75 3.75 0 00-.605.606c-.448.564-.638 1.226-.727 1.999-.086.747-.086 1.685-.086 2.848v6.54c0 1.838 0 3.294.153 4.433.158 1.172.49 2.121 1.238 2.87.749.748 1.698 1.08 2.87 1.238 1.14.153 2.595.153 4.433.153h4.112c1.838 0 3.294 0 4.433-.153 1.172-.158 2.121-.49 2.87-1.238.748-.749 1.08-1.698 1.238-2.87.153-1.14.153-2.595.153-4.433v-1.221c0-1.31 0-2.35-.081-3.182-.083-.851-.257-1.564-.656-2.195a4.75 4.75 0 00-1.472-1.47c-.63-.4-1.343-.574-2.194-.657-.832-.081-1.871-.081-3.183-.081h-.375c-.575 0-.73-.005-.86-.038a1.25 1.25 0 01-.64-.396c-.087-.101-.161-.238-.418-.751l-.043-.086c-.317-.634-.536-1.072-.841-1.427a3.75 3.75 0 00-1.922-1.188z"/>
</svg>
