<svg xmlns="http://www.w3.org/2000/svg" width="24" height="24" fill="currentColor" viewBox="0 0 24 24">
  <path fill="#0000ff" fill-rule="evenodd" d="M9.697 2.819c-.25-.064-.539-.07-1.38-.07H6.8c-.852 0-1.447.002-1.91.04-.453.036-.714.106-.911.206a2.25 2.25 0 00-.984.983c-.1.198-.17.459-.207.913-.037.462-.038 1.056-.038 1.909V9a.75.75 0 01-1.5 0V6.768c0-.813 0-1.469.043-2 .045-.546.14-1.026.366-1.47a3.75 3.75 0 011.639-1.64c.444-.226.924-.32 1.47-.365.531-.043 1.187-.043 2-.043h1.644c.71 0 1.199 0 1.653.114a3.75 3.75 0 011.922 1.188c.305.355.524.792.841 1.427l.043.086c.257.513.331.65.418.75.168.196.392.334.64.397.13.032.285.038.86.038H16.643c1.258 0 2.06 0 2.736.204a4.75 4.75 0 013.166 3.167c.205.676.205 1.478.205 2.736V12a.75.75 0 01-1.5 0v-.5c0-1.45-.008-2.01-.14-2.444a3.25 3.25 0 00-2.166-2.166c-.435-.132-.994-.14-2.444-.14H14.709c-.456 0-.813 0-1.147-.084a2.75 2.75 0 01-1.41-.871c-.224-.26-.383-.58-.587-.987l-.036-.073c-.376-.752-.51-1.009-.679-1.204a2.25 2.25 0 00-1.153-.712zM2 12.25a.75.75 0 01.75.75v2.6c0 1.132 0 1.937.052 2.566.05.62.147 1.005.302 1.31a3.25 3.25 0 001.42 1.42c.305.155.69.251 1.31.302.63.051 1.434.052 2.566.052h8.1c1.45 0 2.009-.008 2.443-.14a3.25 3.25 0 002.167-2.167c.132-.434.14-.993.14-2.443V16a.75.75 0 011.5 0v.643c0 1.258 0 2.06-.204 2.736a4.75 4.75 0 01-3.167 3.166c-.676.205-1.478.205-2.736.205H8.367c-1.092 0-1.958 0-2.655-.057-.714-.058-1.317-.18-1.868-.46a4.75 4.75 0 01-2.076-2.077c-.281-.55-.403-1.154-.461-1.868-.057-.697-.057-1.563-.057-2.655V13a.75.75 0 01.75-.75z"/>
</svg>
