<svg xmlns="http://www.w3.org/2000/svg" width="24" height="24" fill="currentColor" viewBox="0 0 24 24">
  <path fill="#0000ff" fill-rule="evenodd" d="M12 9.75a2.25 2.25 0 100 4.5 2.25 2.25 0 000-4.5zM8.25 12a3.75 3.75 0 117.5 0 3.75 3.75 0 01-7.5 0z" opacity=".4"/>
  <path fill="#0000ff" d="M18.86 21.864l.266.7-.267-.7zm-1.107.091l-.148.735.148-.735zm-1.595-.924l-.468.586c.01.008.021.017.032.024l.436-.61zm0 0l.469-.586a.713.713 0 00-.033-.024l-.436.61zm-1.897-1.355l.436-.61a.75.75 0 00-.647-.11l.211.72zm-4.522 0l.212-.72a.75.75 0 00-.648.11l.436.61zm-1.897 1.355l-.436-.61a.754.754 0 00-.062.05l.498.56zm0 0l.436.61a.732.732 0 00.062-.05l-.498-.56zm-1.595.924l-.148-.735.148.735zm-1.106-.091l.267-.701-.267.7zM3.719 20.69l.53-.53-.53.53zm-.409-.41l-.53.531.53-.53zm-1.174-1.42l-.7.266.7-.267zm-.091-1.107l.735.148-.735-.148zm.924-1.595l-.61-.436.61.436zm1.355-1.897l.61.436a.75.75 0 00.11-.647l-.72.211zm0-4.522l.72.212a.75.75 0 00-.11-.648l-.61.436zM2.969 7.842l-.61.436.61-.436zm-.924-1.595l-.735.148.735-.148zm.091-1.106l-.7-.267.7.267zM3.72 3.31l.53.53-.53-.53zm1.422-1.174l-.267-.701.267.7zm1.106-.092l.148-.735-.148.735zm1.595.924l-.436.61.436-.61zm1.897 1.355l-.436.61a.75.75 0 00.647.11l-.211-.72zm4.522 0l-.211.72a.75.75 0 00.647-.11l-.436-.61zm1.897-1.355l-.436-.61.436.61zm1.595-.924l.148.735-.148-.735zm1.106.092l.267-.701-.267.7zm1.422 1.173l.53-.53-.53.53zm.409.41l-.53.53.53-.53zm1.173 1.42l-.7.268.7-.267zm.092 1.107l-.735-.148.735.148zm-.924 1.595l.61.436-.61-.436zM19.676 9.74l-.61-.436a.75.75 0 00-.11.648l.72-.212zm0 4.522l-.72-.211a.75.75 0 00.11.647l.61-.436zm1.355 1.897l-.61.436a.713.713 0 00.024.033l.586-.469zm0 0l.61-.436a.715.715 0 00-.024-.032l-.586.468zm.924 1.595l-.735.148.735-.148zm-.091 1.106l-.701-.267.7.267zm-2.738 3.706c.313-.12.574-.303.827-.521.247-.212.526-.491.858-.824l-1.06-1.06c-.349.348-.581.58-.775.746-.187.16-.297.224-.384.257l.534 1.402zm-1.52.125a2.75 2.75 0 001.52-.125l-.534-1.402a1.25 1.25 0 01-.69.057l-.297 1.47zm-1.884-1.049c.383.274.703.503.981.672.287.173.574.311.902.377l.296-1.47c-.091-.018-.21-.063-.42-.19a15.963 15.963 0 01-.887-.61l-.872 1.221zm-.032-.024l.937-1.172-.937 1.172zm-1.865-1.33l1.897 1.354.872-1.22-1.897-1.355-.872 1.22zm.225-1.33a7.255 7.255 0 01-2.05.293v1.5c.858 0 1.688-.123 2.473-.354l-.424-1.44zM12 19.25c-.713 0-1.4-.103-2.05-.293l-.423 1.439A8.75 8.75 0 0012 20.75v-1.5zm-3.722 2.391l1.897-1.355-.872-1.22-1.897 1.355.872 1.22zm.062-.05l-.996-1.12.996 1.12zm-1.945 1.1c.328-.067.615-.205.901-.378.279-.169.6-.398.982-.672l-.872-1.22a15.85 15.85 0 01-.887.609c-.21.127-.329.172-.42.19l.296 1.47zm-1.521-.126a2.75 2.75 0 001.52.125L6.1 21.22a1.25 1.25 0 01-.691-.057l-.534 1.402zM3.189 21.22c.332.333.61.612.857.824.254.218.515.401.828.52l.534-1.401c-.087-.033-.197-.096-.384-.257a15.903 15.903 0 01-.774-.746l-1.061 1.06zm-.41-.409l.41.41 1.06-1.061-.408-.41-1.061 1.061zm-1.343-1.685c.119.313.302.574.52.828.212.246.491.525.824.857l1.06-1.06c-.348-.349-.58-.581-.746-.775-.16-.187-.223-.296-.257-.383l-1.401.533zm-.126-1.52a2.75 2.75 0 00.126 1.52l1.401-.533a1.25 1.25 0 01-.057-.692l-1.47-.296zm1.049-1.884c-.274.383-.503.703-.672.982-.173.286-.311.573-.377.901l1.47.296c.019-.09.063-.21.19-.42.133-.219.323-.486.61-.887l-1.221-.872zm1.355-1.897l-1.355 1.897 1.22.872 1.355-1.897-1.22-.872zm1.33.225A7.252 7.252 0 014.75 12h-1.5c0 .858.124 1.688.354 2.473l1.44-.423zM4.75 12c0-.713.103-1.4.294-2.05l-1.44-.423A8.752 8.752 0 003.25 12h1.5zM2.359 8.278l1.355 1.897 1.22-.872L3.58 7.406l-1.22.872zm-1.05-1.883c.067.328.205.615.378.902.169.278.398.598.672.981l1.22-.872a15.885 15.885 0 01-.609-.887c-.127-.21-.171-.329-.19-.42l-1.47.296zm.127-1.52a2.75 2.75 0 00-.126 1.52l1.47-.296a1.25 1.25 0 01.057-.691l-1.401-.534zM2.78 3.188c-.333.333-.612.61-.824.858-.218.254-.401.514-.52.827l1.401.534c.033-.087.096-.197.257-.384.166-.194.398-.426.747-.774L2.78 3.189zm.409-.409l-.41.409 1.062 1.06.409-.408L3.189 2.78zm1.685-1.344c-.313.119-.574.302-.827.52-.247.212-.526.491-.858.824l1.06 1.06c.349-.348.581-.58.775-.746.187-.16.297-.223.384-.256l-.534-1.402zm1.52-.126a2.75 2.75 0 00-1.52.126l.534 1.402c.22-.084.46-.104.69-.058l.297-1.47zm1.884 1.049c-.383-.273-.703-.503-.982-.672-.286-.173-.573-.311-.901-.377l-.296 1.47c.091.019.21.063.42.19.219.133.486.323.887.61l.872-1.221zm1.897 1.355L8.278 2.359l-.872 1.22 1.897 1.355.872-1.22zm-.225 1.33A7.253 7.253 0 0112 4.75v-1.5c-.858 0-1.688.124-2.473.355l.423 1.439zM12 4.75c.713 0 1.4.103 2.05.294l.423-1.44A8.753 8.753 0 0012 3.25v1.5zm3.722-2.391l-1.897 1.355.872 1.22 1.897-1.355-.872-1.22zm1.883-1.05c-.328.067-.615.205-.902.378-.278.169-.598.399-.98.672l.871 1.22c.401-.286.668-.476.887-.609.21-.127.329-.171.42-.19l-.296-1.47zm1.521.127a2.75 2.75 0 00-1.52-.126l.295 1.47a1.25 1.25 0 01.691.058l.534-1.402zm1.685 1.344c-.332-.332-.61-.612-.858-.824-.253-.218-.514-.401-.827-.52l-.534 1.402c.087.033.197.096.384.256.194.167.426.398.774.747l1.061-1.061zm.41.409l-.41-.409-1.06 1.06.408.41 1.061-1.061zm1.343 1.685c-.119-.313-.302-.573-.52-.827-.212-.247-.491-.525-.824-.858l-1.06 1.06c.348.35.58.582.746.775.16.187.224.297.257.384l1.401-.534zm.126 1.52a2.75 2.75 0 00-.126-1.52l-1.401.534c.084.22.103.46.057.691l1.47.296zm-1.049 1.884c.274-.383.503-.703.672-.981.173-.287.311-.574.377-.902l-1.47-.296c-.019.091-.063.21-.19.42-.133.219-.323.486-.61.887l1.221.872zm-1.355 1.897l1.355-1.897-1.22-.872-1.355 1.897 1.22.872zm-1.33-.224c.191.649.294 1.336.294 2.05h1.5a8.75 8.75 0 00-.355-2.474l-1.439.424zM19.25 12c0 .712-.103 1.4-.294 2.049l1.44.423c.23-.785.354-1.615.354-2.473h-1.5zm2.391 3.721l-1.355-1.897-1.22.872 1.355 1.897 1.22-.872zm-.024-.032l-1.172.937 1.172-.937zm1.073 1.915c-.066-.328-.204-.615-.377-.901-.169-.279-.398-.6-.672-.982l-1.22.872c.286.401.476.668.609.887.127.21.171.329.19.42l1.47-.296zm-.126 1.521a2.75 2.75 0 00.126-1.52l-1.47.295c.046.232.027.471-.057.692l1.401.533zm-1.344 1.685c.333-.332.612-.61.824-.857.218-.254.401-.515.52-.828l-1.401-.534c-.034.088-.096.197-.257.384-.166.194-.398.426-.747.775l1.061 1.06zm-.409.41l.41-.41-1.062-1.06-.409.409 1.061 1.06z"/>
</svg>
