<svg xmlns="http://www.w3.org/2000/svg" width="24" height="24" fill="currentColor" viewBox="0 0 24 24">
  <path fill="#0000ff" fill-rule="evenodd" d="M2.972 14.864c.34-.475.441-1.075.36-1.654a8.826 8.826 0 010-2.42c.081-.579-.02-1.178-.36-1.654l-.613-.858-.016-.022c-.267-.373-.49-.686-.656-.96-.173-.286-.311-.573-.377-.901a2.75 2.75 0 01.125-1.52c.12-.314.303-.574.521-.828.208-.242.48-.514.804-.838l.02-.02.409-.409.02-.02c.323-.323.596-.596.837-.804.254-.218.515-.401.828-.52a2.75 2.75 0 011.52-.126c.329.066.616.204.902.378.273.165.587.389.96.655l.022.016.858.613c.476.34 1.075.441 1.654.361a8.828 8.828 0 012.42 0c.58.08 1.178-.021 1.654-.361l.858-.613.023-.016c.372-.266.686-.49.959-.655.286-.174.573-.312.901-.378a2.75 2.75 0 011.521.126c.313.119.574.302.827.52.242.208.515.48.838.804l.02.02.41.41.019.019c.324.324.596.596.804.838.218.254.401.514.52.827a2.75 2.75 0 01.126 1.52c-.066.33-.204.616-.377.903-.166.273-.39.586-.656.959l-.016.022-.613.858c-.34.476-.441 1.075-.361 1.654a8.825 8.825 0 010 2.42c-.08.58.021 1.178.361 1.654l.613.858.016.023c.267.373.49.686.656.959.173.286.311.573.377.901a2.75 2.75 0 01-.126 1.521c-.119.313-.302.574-.52.828-.208.242-.48.514-.805.838l-.019.02-.409.408-.02.02c-.323.324-.596.596-.838.804-.253.218-.514.402-.827.52a2.75 2.75 0 01-1.52.127c-.33-.066-.616-.205-.903-.378-.272-.165-.586-.39-.958-.655l-.023-.017-.858-.612c-.476-.34-1.075-.442-1.654-.362a8.828 8.828 0 01-2.42 0c-.58-.08-1.178.022-1.654.362l-.858.613-.023.015c-.372.267-.686.49-.959.656-.286.173-.573.312-.901.378a2.75 2.75 0 01-1.521-.126c-.313-.12-.574-.303-.827-.521a16.54 16.54 0 01-.839-.804l-.02-.02-.408-.409-.02-.019a16.536 16.536 0 01-.804-.838c-.218-.254-.401-.515-.52-.828a2.75 2.75 0 01-.126-1.52c.066-.329.204-.616.377-.902.166-.273.39-.586.656-.96l.016-.022.613-.857zM12 15a3 3 0 100-6 3 3 0 000 6z"/>
</svg>
