<svg xmlns="http://www.w3.org/2000/svg" width="24" height="24" fill="currentColor" viewBox="0 0 24 24">
  <path fill="#0000ff" fill-rule="evenodd" d="M18.86 21.864c.4-.152.74-.493 1.42-1.174l.41-.409c.68-.681 1.021-1.021 1.173-1.421a2 2 0 00.092-1.107c-.084-.42-.364-.811-.924-1.595l-.789-1.104c-.357-.5-.45-1.135-.35-1.742a8.062 8.062 0 000-2.624c-.1-.607-.007-1.241.35-1.741l.789-1.105c.56-.783.84-1.175.924-1.595a2 2 0 00-.091-1.106c-.153-.4-.493-.74-1.174-1.422l-.41-.408c-.68-.681-1.02-1.022-1.42-1.174a2 2 0 00-1.107-.092c-.42.085-.811.365-1.595.924l-1.104.79c-.5.357-1.135.448-1.742.348a8.056 8.056 0 00-2.624 0c-.607.1-1.241.008-1.742-.349L7.842 2.97c-.784-.56-1.176-.84-1.595-.924a2 2 0 00-1.106.092c-.4.152-.74.492-1.422 1.173l-.409.41C2.63 4.4 2.29 4.74 2.136 5.14a2 2 0 00-.091 1.106c.084.42.364.811.924 1.595l.789 1.105c.357.5.45 1.134.35 1.74a8.056 8.056 0 000 2.626c.1.606.007 1.24-.35 1.74l-.789 1.105c-.56.784-.84 1.176-.924 1.595a2 2 0 00.091 1.107c.153.4.493.74 1.174 1.421l.41.409c.68.681 1.02 1.021 1.42 1.174a2 2 0 001.107.091c.42-.084.811-.364 1.595-.924l1.104-.789c.5-.357 1.135-.449 1.742-.349a8.05 8.05 0 002.624 0c.607-.1 1.241-.008 1.742.35l1.104.788c.784.56 1.176.84 1.595.924a2 2 0 001.106-.091zM12 15a3 3 0 100-6 3 3 0 000 6z" opacity=".12"/>
  <path fill="#0000ff" d="M18.86 21.864l.266.7-.267-.7zm3.003-3.005l-.7-.266.7.267zm.092-1.106l-.735.148.735-.148zm-.924-1.595l.61-.436a.715.715 0 00-.024-.032l-.586.468zm0 0l-.61.436a.713.713 0 00.024.033l.586-.469zm-.789-1.104l-.61.436.61-.436zm-.35-1.742l-.74-.122.74.123zm0-2.624l-.74.122.74-.122zm.35-1.741l.61.436-.61-.436zm.789-1.105l-.61-.436.61.436zm.924-1.595l-.735-.148.735.148zm-.091-1.106l-.701.267.7-.267zM20.69 3.719l-.53.53.53-.53zm-.41-.408l.531-.53-.53.53zm-1.42-1.174l.266-.701-.267.7zm-1.107-.092l.148.735-.148-.735zm-1.595.924l-.436-.61.436.61zm-1.104.79l-.436-.611.436.61zm-1.742.348l-.122.74.122-.74zm-2.624 0l-.123-.74.123.74zm-1.742-.349l-.436.61.436-.61zM7.842 2.97l.436-.61-.436.61zm-1.595-.924l.148-.735-.148.735zm-1.106.092l-.267-.701.267.7zM3.719 3.31l.53.53-.53-.53zm-.409.41l.53.53-.53-.53zM2.136 5.14l-.7-.267.7.267zm-.091 1.106l-.735.148.735-.148zm.924 1.595l-.61.436.61-.436zm.789 1.105l.61-.436-.61.436zm.35 1.74l-.74-.121.74.122zm0 2.626l-.74.122.74-.122zm-.35 1.74l-.61-.435.61.436zm-.789 1.105l-.61-.436.61.436zm-.924 1.595l.735.148-.735-.148zm.091 1.107l-.7.266.7-.267zM3.31 20.28l-.53.53.53-.53zm.41.409l.53-.53-.53.53zm1.42 1.174l.268-.701-.267.7zm1.107.091l-.148-.735.148.735zm1.595-.924l.436.61a.754.754 0 00.062-.05l-.498-.56zm0 0l-.436-.61a.754.754 0 00-.062.05l.498.56zm1.104-.789l.436.61-.436-.61zm1.742-.349l.122-.74-.122.74zm2.624 0l-.122-.74.122.74zm1.742.35l-.436.61.435-.61zm1.104.788l.469-.585a.649.649 0 00-.033-.025l-.436.61zm0 0l-.468.586c.01.008.021.017.032.024l.436-.61zm1.595.924l.148-.735-.148.735zm1.997-1.795c-.348.348-.58.58-.774.746-.187.16-.297.224-.384.257l.534 1.402c.313-.12.574-.303.827-.521.247-.212.526-.491.858-.824l-1.06-1.06zm.41-.41l-.41.41 1.061 1.06.41-.409-1.062-1.06zm1.003-1.157c-.034.087-.096.196-.257.383-.166.194-.398.426-.747.775l1.061 1.06c.333-.332.612-.61.824-.857.218-.254.401-.515.52-.828l-1.401-.533zm.057-.692c.046.232.027.471-.057.692l1.401.533a2.75 2.75 0 00.126-1.52l-1.47.295zm-.8-1.307c.287.401.477.669.61.887.127.21.171.33.19.42l1.47-.295c-.066-.329-.204-.616-.377-.902-.169-.279-.398-.599-.672-.982l-1.22.872zm.025.033l1.172-.937-1.172.937zm-.813-1.137l.789 1.104 1.22-.872-.789-1.104-1.22.872zm-.48-2.3c-.123.752-.02 1.6.48 2.3l1.22-.872c-.215-.302-.295-.722-.22-1.183l-1.48-.245zM19.25 12c0 .406-.033.804-.097 1.19l1.48.245c.077-.468.117-.947.117-1.435h-1.5zm-.097-1.19c.064.387.097.784.097 1.19h1.5c0-.488-.04-.967-.117-1.434l-1.48.244zm.479-2.3c-.5.7-.603 1.548-.48 2.3l1.48-.244c-.075-.461.005-.882.22-1.183l-1.22-.872zm.789-1.104l-.79 1.105 1.221.872.79-1.105-1.221-.872zM21.22 6.1c-.019.091-.063.21-.19.42-.133.219-.323.486-.61.887l1.221.872c.274-.383.503-.703.672-.981.173-.287.311-.574.377-.902l-1.47-.296zm-.057-.691c.084.22.103.46.057.691l1.47.296a2.75 2.75 0 00-.126-1.52l-1.401.533zM20.159 4.25c.349.348.58.58.747.774.16.187.224.297.257.384l1.401-.534c-.119-.313-.302-.573-.52-.827-.212-.247-.491-.525-.824-.858l-1.06 1.06zm-.409-.41l.41.41 1.06-1.06-.409-.41-1.06 1.06zm-1.158-1.002c.087.033.197.096.384.256.194.167.426.398.774.747l1.061-1.06c-.332-.333-.61-.612-.858-.824-.253-.219-.514-.402-.827-.521l-.534 1.402zm-.69-.058a1.25 1.25 0 01.69.058l.534-1.402a2.75 2.75 0 00-1.52-.126l.295 1.47zm-1.308.8c.401-.287.668-.477.887-.61.21-.127.329-.171.42-.19l-.296-1.47c-.328.066-.615.204-.902.378-.278.168-.598.398-.98.671l.871 1.22zm-1.104.788l1.104-.788-.872-1.221-1.104.789.872 1.22zm-2.3.48c.752.123 1.6.02 2.3-.48l-.872-1.22c-.302.215-.723.295-1.184.22l-.244 1.48zM12 4.75c.406 0 .803.033 1.19.097l.245-1.48A8.805 8.805 0 0012 3.25v1.5zm-1.19.097A7.304 7.304 0 0112 4.75v-1.5c-.488 0-.967.04-1.434.117l.244 1.48zm-2.3-.479c.7.5 1.548.603 2.3.48l-.245-1.48c-.46.075-.881-.005-1.183-.22l-.872 1.22zM7.406 3.58l1.104.788.872-1.22-1.104-.789-.872 1.22zm-1.307-.8c.091.019.21.063.42.19.219.133.486.323.887.61l.872-1.221c-.383-.273-.703-.503-.982-.671-.286-.174-.573-.312-.901-.378l-.296 1.47zm-.691.058c.22-.084.46-.104.69-.058l.297-1.47a2.75 2.75 0 00-1.521.126l.534 1.402zM4.25 3.84c.348-.349.58-.58.774-.747.187-.16.297-.223.384-.256l-.534-1.402c-.313.119-.574.302-.827.52-.247.213-.526.492-.858.824l1.06 1.06zm-.41.409l.41-.41-1.061-1.06-.41.41 1.062 1.06zM2.838 5.408c.033-.087.096-.197.257-.384.166-.193.398-.426.747-.774L2.78 3.19c-.333.332-.612.61-.824.857-.218.254-.401.514-.52.827l1.401.534zm-.057.691a1.25 1.25 0 01.057-.691l-1.401-.534a2.75 2.75 0 00-.126 1.52L2.78 6.1zm.8 1.307a15.88 15.88 0 01-.61-.887c-.127-.21-.171-.329-.19-.42l-1.47.296c.066.328.204.615.377.902.169.278.398.598.672.981l1.22-.872zm.788 1.105L3.58 7.406l-1.22.872.789 1.105 1.22-.872zm.48 2.299c.123-.752.02-1.6-.48-2.3l-1.22.873c.215.301.295.722.22 1.183l1.48.244zM4.75 12c0-.406.033-.803.097-1.19l-1.48-.244A8.805 8.805 0 003.25 12h1.5zm.097 1.19A7.306 7.306 0 014.75 12h-1.5c0 .488.04.967.117 1.435l1.48-.245zm-.479 2.3c.5-.7.603-1.547.48-2.3l-1.48.245c.075.46-.005.881-.22 1.183l1.22.872zm-.789 1.104l.79-1.104-1.221-.872-.79 1.104 1.221.872zm-.799 1.307c.019-.09.063-.21.19-.42.133-.218.323-.486.61-.887l-1.221-.872c-.274.383-.503.704-.672.982-.173.286-.311.573-.377.902l1.47.295zm.057.692a1.25 1.25 0 01-.057-.692l-1.47-.295a2.75 2.75 0 00.126 1.52l1.401-.533zm1.004 1.158a15.84 15.84 0 01-.747-.775c-.16-.186-.223-.296-.257-.383l-1.401.533c.119.313.302.574.52.828.212.247.491.525.824.857l1.06-1.06zm.409.409l-.41-.41-1.06 1.061.409.41 1.06-1.061zm1.158 1.003c-.087-.033-.197-.096-.384-.257a15.903 15.903 0 01-.774-.746l-1.061 1.06c.332.333.61.612.857.824.254.218.515.402.828.52l.534-1.401zm.69.057a1.25 1.25 0 01-.69-.057l-.534 1.402a2.75 2.75 0 001.52.126L6.1 21.22zm1.308-.799c-.401.286-.668.477-.887.61-.21.127-.329.17-.42.19l.296 1.47c.328-.066.615-.204.901-.378.279-.169.6-.398.982-.671l-.872-1.221zm-.062.05l.996 1.12-.996-1.12zm1.167-.839l-1.105.789.872 1.22 1.104-.788-.871-1.221zm2.299-.479c-.752-.124-1.6-.02-2.3.479l.872 1.22c.302-.215.723-.295 1.184-.219l.244-1.48zm1.19.097c-.406 0-.803-.033-1.19-.097l-.244 1.48c.467.077.946.117 1.434.117v-1.5zm1.19-.097a7.31 7.31 0 01-1.19.097v1.5c.488 0 .967-.04 1.434-.117l-.244-1.48zm2.3.479c-.7-.5-1.548-.603-2.3-.479l.244 1.48c.462-.076.882.004 1.184.22l.871-1.221zm1.104.789l-1.105-.789-.871 1.22 1.104.79.872-1.221zm.033.025l-.937 1.17.937-1.17zm1.274.774c-.091-.018-.21-.062-.42-.19a15.852 15.852 0 01-.887-.61l-.872 1.221c.383.274.703.503.981.672.287.173.574.312.902.378l.296-1.471zm.691-.057c-.22.084-.46.104-.69.057l-.297 1.47a2.75 2.75 0 001.521-.125l-.534-1.402zM14.25 12A2.25 2.25 0 0112 14.25v1.5A3.75 3.75 0 0015.75 12h-1.5zM12 9.75A2.25 2.25 0 0114.25 12h1.5A3.75 3.75 0 0012 8.25v1.5zM9.75 12A2.25 2.25 0 0112 9.75v-1.5A3.75 3.75 0 008.25 12h1.5zM12 14.25A2.25 2.25 0 019.75 12h-1.5A3.75 3.75 0 0012 15.75v-1.5z"/>
</svg>
