<svg xmlns="http://www.w3.org/2000/svg" width="24" height="24" fill="currentColor" viewBox="0 0 24 24">
  <path fill="#0000ff" fill-rule="evenodd" d="M12 .25a.75.75 0 01.75.75v1.278a9.754 9.754 0 017.986 5.388.75.75 0 11-1.343.668A8.25 8.25 0 0012 3.75a8.213 8.213 0 00-3.666.857.75.75 0 01-.668-1.343 9.695 9.695 0 013.584-.986V1A.75.75 0 0112 .25zM1.47 1.47a.75.75 0 011.06 0l3.636 3.636 4.242 4.241.001.001 4.25 4.234.001.002 4.234 4.25h.001l3.635 3.636a.75.75 0 11-1.06 1.06l-3.126-3.126a9.712 9.712 0 01-5.594 2.318V23a.75.75 0 01-1.5 0v-1.278a9.752 9.752 0 01-8.972-8.972H1a.75.75 0 010-1.5h1.278a9.711 9.711 0 012.318-5.594L1.47 2.53a.75.75 0 010-1.06zM12 20.25c2.009 0 3.85-.717 5.28-1.91l-3.204-3.217a3.75 3.75 0 01-5.205-5.191L5.66 6.721A8.25 8.25 0 0012 20.25zm-2.03-9.222a2.25 2.25 0 003.01 2.998l-3.01-2.998zM21.72 12.75H23a.75.75 0 000-1.5h-2a.75.75 0 00-.75.75 8.212 8.212 0 01-.857 3.666.75.75 0 001.343.668 9.694 9.694 0 00.985-3.584z"/>
</svg>
