<svg xmlns="http://www.w3.org/2000/svg" width="24" height="24" fill="currentColor" viewBox="0 0 24 24">
  <path fill="#0000ff" fill-rule="evenodd" d="M12 21a9 9 0 100-18 9 9 0 000 18zm0-6a3 3 0 100-6 3 3 0 000 6z" opacity=".12"/>
  <path fill="#0000ff" fill-rule="evenodd" d="M12 .25a.75.75 0 01.75.75v1.278a9.752 9.752 0 018.972 8.972H23a.75.75 0 010 1.5h-1.278a9.752 9.752 0 01-8.972 8.972V23a.75.75 0 01-1.5 0v-1.278a9.752 9.752 0 01-8.972-8.972H1a.75.75 0 010-1.5h1.278a9.752 9.752 0 018.972-8.972V1A.75.75 0 0112 .25zm0 20a8.25 8.25 0 100-16.5 8.25 8.25 0 000 16.5zM9.75 12a2.25 2.25 0 114.5 0 2.25 2.25 0 01-4.5 0zM12 8.25a3.75 3.75 0 100 7.5 3.75 3.75 0 000-7.5z"/>
</svg>
