<svg xmlns="http://www.w3.org/2000/svg" width="24" height="24" fill="currentColor" viewBox="0 0 24 24">
  <path fill="#0000ff" fill-rule="evenodd" d="M15.99 3.75c-1.311-.018-2.54.427-3.366 1.667a.75.75 0 01-1.248-.832C12.55 2.824 14.32 2.226 16.01 2.25c3.355.048 6.739 2.787 6.739 6.75 0 3.463-2.01 6.405-4.182 8.534a.75.75 0 11-1.05-1.07C19.57 14.452 21.25 11.874 21.25 9c0-3.037-2.616-5.211-5.26-5.25z" opacity=".4"/>
  <path fill="#0000ff" fill-rule="evenodd" d="M8 3.75C5.373 3.75 2.75 5.956 2.75 9c0 3.178 2.055 5.99 4.375 8.066a20.928 20.928 0 003.27 2.397c.474.278.881.486 1.19.622a3.798 3.798 0 00.415.157c.029-.008.08-.023.158-.052.157-.058.37-.15.628-.28a17 17 0 001.92-1.148c1.478-1.008 3.188-2.453 4.49-4.209a.75.75 0 011.204.894c-1.43 1.93-3.28 3.484-4.848 4.554-.786.537-1.512.96-2.095 1.25-.291.146-.555.263-.778.346-.192.07-.447.153-.679.153a1.72 1.72 0 01-.504-.093 5.237 5.237 0 01-.515-.2 13.403 13.403 0 01-1.345-.7 22.416 22.416 0 01-3.511-2.573C3.695 16.01 1.25 12.822 1.25 9c0-3.954 3.377-6.75 6.75-6.75 1.645 0 3.446.567 4.624 2.335a.75.75 0 11-1.248.832C10.554 4.184 9.303 3.75 8 3.75z"/>
</svg>
