<svg xmlns="http://www.w3.org/2000/svg" width="24" height="24" fill="currentColor" viewBox="0 0 24 24">
  <path fill="#0000ff" fill-rule="evenodd" d="M16.01 2.25c-1.412-.02-2.882.395-4.012 1.56C10.86 2.647 9.375 2.25 8 2.25 4.627 2.25 1.25 5.048 1.25 9c0 3.822 2.445 7.01 4.875 9.184a22.421 22.421 0 003.51 2.572c.512.3.972.537 1.346.702.187.082.36.15.515.199.136.043.32.093.504.093.183 0 .368-.05.504-.093.154-.049.328-.117.515-.199.374-.165.834-.402 1.345-.702a22.423 22.423 0 003.511-2.572C20.305 16.01 22.75 12.822 22.75 9c0-3.962-3.384-6.7-6.74-6.75z"/>
</svg>
