<svg xmlns="http://www.w3.org/2000/svg" width="24" height="24" fill="currentColor" viewBox="0 0 24 24">
  <path fill="#0000ff" d="M12 21c1 0 10-5 10-12 0-3.5-3-5.956-6-6-1.5-.021-3 .5-4 2-1-1.5-2.526-2-4-2-3 0-6 2.5-6 6 0 7 9 12 10 12z" opacity=".12"/>
  <path fill="#0000ff" fill-rule="evenodd" d="M15.99 3.75c-1.311-.018-2.54.427-3.366 1.667a.75.75 0 01-1.248 0C10.554 4.184 9.303 3.75 8 3.75 5.373 3.75 2.75 5.955 2.75 9c0 3.178 2.055 5.99 4.375 8.065a20.928 20.928 0 003.27 2.397c.474.278.881.486 1.19.622a3.788 3.788 0 00.415.157l.05-.015c.088-.027.21-.074.365-.142.309-.136.716-.344 1.19-.622a20.927 20.927 0 003.27-2.397C19.195 14.99 21.25 12.18 21.25 9c0-3.037-2.616-5.211-5.26-5.25zm-3.992.06c1.13-1.165 2.6-1.58 4.013-1.56C19.366 2.3 22.75 5.039 22.75 9c0 3.822-2.445 7.01-4.875 9.184a22.423 22.423 0 01-3.51 2.572c-.512.3-.972.537-1.346.702-.187.082-.36.15-.515.199a1.72 1.72 0 01-.504.093 1.72 1.72 0 01-.504-.093 5.234 5.234 0 01-.515-.199 13.385 13.385 0 01-1.345-.702 22.421 22.421 0 01-3.511-2.572C3.695 16.01 1.25 12.822 1.25 9c0-3.953 3.377-6.75 6.75-6.75 1.375 0 2.86.397 3.998 1.56z"/>
</svg>
