<svg xmlns="http://www.w3.org/2000/svg" width="24" height="24" fill="currentColor" viewBox="0 0 24 24">
  <path fill="#0000ff" d="M22 17v-5.155c0-1.412 0-2.118-.18-2.77a5.001 5.001 0 00-.772-1.606c-.397-.548-.948-.989-2.05-1.871l-2-1.6c-1.784-1.427-2.676-2.14-3.665-2.414a5 5 0 00-2.666 0c-.99.274-1.881.987-3.665 2.414l-2 1.6C3.9 6.48 3.35 6.921 2.952 7.468a5 5 0 00-.772 1.607C2 9.727 2 10.433 2 11.845V17a5 5 0 005 5 2 2 0 002-2v-4a3 3 0 016 0v4a2 2 0 002 2 5 5 0 005-5z" opacity=".12"/>
  <path fill="#0000ff" fill-rule="evenodd" d="M13.133 2.307a4.25 4.25 0 00-2.266 0c-.384.106-.776.304-1.31.67-.542.372-1.186.886-2.086 1.607l-2 1.6c-1.135.908-1.589 1.279-1.912 1.725a4.25 4.25 0 00-.656 1.365c-.147.531-.153 1.117-.153 2.571V17A4.25 4.25 0 007 21.25c.69 0 1.25-.56 1.25-1.25v-4a3.75 3.75 0 117.5 0v4c0 .69.56 1.25 1.25 1.25A4.25 4.25 0 0021.25 17v-5.155c0-1.454-.006-2.04-.153-2.57a4.25 4.25 0 00-.656-1.366c-.323-.446-.777-.817-1.912-1.725l-2-1.6c-.9-.72-1.544-1.235-2.086-1.607-.534-.366-.926-.564-1.31-.67zM10.467.86a5.75 5.75 0 013.066 0c.606.168 1.154.464 1.759.88.592.406 1.279.955 2.151 1.653l.023.018 2 1.6.09.072c1.017.813 1.642 1.314 2.1 1.944a5.75 5.75 0 01.888 1.848c.206.75.206 1.552.206 2.854V17A5.75 5.75 0 0117 22.75 2.75 2.75 0 0114.25 20v-4a2.25 2.25 0 00-4.5 0v4A2.75 2.75 0 017 22.75 5.75 5.75 0 011.25 17v-5.155-.115c0-1.302 0-2.103.206-2.854a5.75 5.75 0 01.888-1.848c.457-.63 1.083-1.13 2.1-1.944l.09-.072 2-1.6.023-.018c.872-.698 1.559-1.247 2.151-1.654.605-.415 1.153-.711 1.759-.879z"/>
</svg>
