<svg xmlns="http://www.w3.org/2000/svg" width="24" height="24" fill="currentColor" viewBox="0 0 24 24">
  <path fill="#0000ff" fill-rule="evenodd" d="M16 6.75a1.25 1.25 0 100 2.5 1.25 1.25 0 000-2.5zM13.25 8a2.75 2.75 0 115.5 0 2.75 2.75 0 01-5.5 0z" opacity=".4"/>
  <path fill="#0000ff" fill-rule="evenodd" d="M11.6 1.25h-.034c-1.651 0-2.937 0-3.968.084-1.047.086-1.897.262-2.662.652a6.75 6.75 0 00-2.95 2.95c-.39.765-.566 1.615-.652 2.662-.084 1.031-.084 2.317-.084 3.968V12.434c0 1.651 0 2.937.084 3.968.086 1.047.262 1.897.652 2.662a6.75 6.75 0 002.95 2.95c.765.39 1.615.566 2.662.652 1.031.084 2.317.084 3.968.084H12.434c1.651 0 2.937 0 3.968-.084 1.047-.086 1.897-.262 2.662-.652a6.75 6.75 0 002.95-2.95c.39-.765.566-1.615.652-2.662.084-1.031.084-2.317.084-3.968V11.566c0-1.651 0-2.937-.084-3.968-.086-1.047-.262-1.897-.652-2.662a6.75 6.75 0 00-2.95-2.95c-.765-.39-1.615-.566-2.662-.652-1.031-.084-2.317-.084-3.968-.084H11.6zM5.617 3.322c.518-.264 1.15-.415 2.103-.493.963-.078 2.187-.079 3.88-.079h.8c1.692 0 2.917 0 3.88.08.954.077 1.585.228 2.103.492a5.25 5.25 0 012.295 2.295c.264.518.415 1.15.493 2.103.078.963.079 2.187.079 3.88v.8c0 1.692 0 2.917-.08 3.88v.016l-.564-.564-.022-.021c-.378-.378-.693-.693-.971-.93-.291-.246-.59-.451-.95-.568a2.75 2.75 0 00-1.7 0c-.36.117-.66.322-.95.569-.28.236-.595.552-.973.93l-.021.02-.54.541-2.694-2.615-.022-.02a17.72 17.72 0 00-.972-.904c-.291-.24-.59-.438-.948-.55a2.75 2.75 0 00-1.684.012c-.355.117-.651.32-.939.564-.275.234-.586.545-.959.918l-.02.021-3.326 3.325a10.221 10.221 0 01-.086-.744c-.078-.963-.079-2.188-.079-3.88v-.8c0-1.693 0-2.917.08-3.88.077-.954.228-1.585.492-2.103a5.25 5.25 0 012.295-2.295zM3.442 18.606a5.25 5.25 0 002.175 2.072c.518.264 1.15.415 2.103.493.963.078 2.187.079 3.88.079h.8c1.692 0 2.917 0 3.88-.08.33-.026.62-.062.881-.108l-3.201-3.201-3.22-3.127a17.038 17.038 0 00-.904-.843c-.219-.18-.345-.246-.441-.276a1.25 1.25 0 00-.766.006c-.096.031-.22.098-.437.282-.223.19-.492.457-.891.857l-3.77 3.77a.753.753 0 01-.089.076zm15.272 1.888a5.25 5.25 0 001.964-2.11c.051-.101.098-.206.141-.317l-1.274-1.274c-.405-.405-.677-.676-.903-.868-.22-.187-.347-.254-.443-.285a1.25 1.25 0 00-.773 0c-.096.031-.223.098-.443.285-.226.192-.498.464-.903.869l-.533.532 3.167 3.168z"/>
</svg>
