<svg xmlns="http://www.w3.org/2000/svg" width="24" height="24" fill="currentColor" viewBox="0 0 24 24">
  <path fill="#0000ff" fill-rule="evenodd" d="M12 1.25h-.038c-1.837 0-3.267 0-4.41.104-1.16.105-2.098.322-2.927.8a6.75 6.75 0 00-2.47 2.471c-.48.83-.696 1.767-.801 2.927-.104 1.143-.104 2.573-.104 4.41v.076c0 1.837 0 3.267.104 4.41.105 1.16.322 2.098.8 2.927a6.75 6.75 0 002.471 2.47c.83.48 1.767.696 2.927.802 1.143.103 2.573.103 4.41.103h.076c1.837 0 3.267 0 4.41-.104 1.16-.105 2.098-.322 2.927-.8a6.752 6.752 0 002.47-2.471c.48-.83.696-1.767.802-2.927.103-1.143.103-2.573.103-4.41v-.076c0-1.837 0-3.267-.104-4.41-.105-1.16-.322-2.098-.8-2.927a6.75 6.75 0 00-2.471-2.47c-.83-.48-1.767-.696-2.927-.801-1.143-.104-2.573-.104-4.41-.104H12zM18 8a2 2 0 11-4 0 2 2 0 014 0zm2.64 8.828c.11.11.162.267.132.419-.103.52-.247.915-.442 1.253a5 5 0 01-1.83 1.83c-.519.3-1.171.48-2.21.574-1.053.095-2.402.096-4.29.096s-3.237-.001-4.29-.096c-1.039-.095-1.691-.274-2.21-.574a5 5 0 01-1.83-1.83c-.089-.153-.133-.23-.163-.403a1.228 1.228 0 01.078-.597c.075-.16.176-.261.379-.464l2.249-2.249c1.315-1.315 1.973-1.973 2.793-1.98.82-.005 1.487.643 2.822 1.938l2.154 2.092a.713.713 0 001.001-.008c1.334-1.334 2.001-2 2.83-2 .828 0 1.495.666 2.828 2z"/>
</svg>
