<svg xmlns="http://www.w3.org/2000/svg" width="24" height="24" fill="currentColor" viewBox="0 0 24 24">
  <path fill="#0000ff" fill-rule="evenodd" d="M9 6.25a.75.75 0 000 1.5h6a.75.75 0 000-1.5H9zm1 4a.75.75 0 000 1.5h4a.75.75 0 000-1.5h-4z" opacity=".4"/>
  <path fill="#0000ff" fill-rule="evenodd" d="M11.246 1.25h-.189c-2.051 0-3.31 0-4.38.449A5.75 5.75 0 004.3 3.554c-.695.929-1 2.15-1.498 4.14l-.046.184-.616 2.464-.005.021c-.135.542-.21.84-.27 1.137a12.75 12.75 0 000 5c.06.298.135.595.27 1.137l.005.021.015.06c.16.643.26 1.036.395 1.382a5.75 5.75 0 004.614 3.602c.368.048.774.048 1.437.048H15.398c.663 0 1.069 0 1.437-.048A5.75 5.75 0 0021.45 19.1c.135-.346.234-.74.395-1.383l.014-.059.006-.021c.135-.542.21-.84.27-1.137.329-1.65.33-3.35 0-5-.06-.298-.135-.595-.27-1.136l-.006-.022-.616-2.464-.045-.183c-.497-1.99-.803-3.212-1.498-4.141a5.75 5.75 0 00-2.376-1.855c-1.07-.45-2.329-.45-4.38-.449H11.246zM7.258 3.082c.755-.318 1.685-.332 3.988-.332h1.508c2.303 0 3.233.014 3.988.332a4.25 4.25 0 011.756 1.37c.491.657.73 1.555 1.29 3.79l.615 2.464c.142.568.207.83.26 1.088.096.482.16.968.192 1.456H18.62c-.535 0-.955 0-1.348.119a2.748 2.748 0 00-.947.507c-.317.26-.55.61-.846 1.055l-.052.078-.1.15c-.373.56-.48.705-.603.807a1.252 1.252 0 01-.43.23c-.153.046-.333.054-1.006.054h-2.575c-.672 0-.853-.008-1.005-.054a1.252 1.252 0 01-.43-.23c-.124-.101-.23-.247-.603-.807l-.1-.15-.052-.078c-.296-.445-.529-.795-.846-1.055a2.748 2.748 0 00-.947-.507c-.394-.12-.814-.12-1.348-.119H3.144c.033-.488.097-.974.194-1.456.051-.259.116-.52.259-1.088l.616-2.464c.558-2.235.798-3.133 1.289-3.79a4.25 4.25 0 011.756-1.37zM3.144 14.75c.033.488.097.974.194 1.456.051.259.116.52.259 1.088.18.721.254 1.014.35 1.258a4.25 4.25 0 003.41 2.663c.26.034.563.035 1.306.035h6.674c.743 0 1.045-.002 1.305-.035a4.25 4.25 0 003.41-2.663c.096-.244.171-.537.351-1.258.142-.568.207-.83.26-1.088.096-.482.16-.968.192-1.456h-2.143c-.672 0-.853.008-1.005.054a1.252 1.252 0 00-.43.23c-.124.101-.23.247-.603.807l-.1.15-.052.078c-.296.445-.529.795-.846 1.056-.28.23-.601.401-.947.506-.394.12-.814.12-1.348.119h-2.762c-.535 0-.955 0-1.348-.119a2.748 2.748 0 01-.947-.506c-.317-.261-.55-.611-.846-1.056l-.052-.078-.1-.15c-.373-.56-.48-.705-.603-.807a1.252 1.252 0 00-.43-.23c-.153-.046-.333-.054-1.006-.054H3.144z"/>
</svg>
