<svg xmlns="http://www.w3.org/2000/svg" width="24" height="24" fill="currentColor" viewBox="0 0 24 24">
  <path fill="#0000ff" fill-rule="evenodd" d="M11.057 1.25h1.886c2.051 0 3.31 0 4.38.449A5.75 5.75 0 0119.7 3.554c.695.929 1 2.15 1.498 4.14l.046.184.616 2.464.005.021c.135.542.21.84.27 1.137.33 1.65.329 3.35 0 5-.06.298-.135.595-.27 1.137l-.006.021-.014.06c-.161.643-.26 1.036-.395 1.382a5.75 5.75 0 01-4.614 3.602c-.368.048-.774.048-1.437.048H8.602c-.663 0-1.069 0-1.437-.048A5.75 5.75 0 012.55 19.1c-.136-.346-.234-.74-.395-1.382l-.015-.06-.005-.021c-.135-.542-.21-.84-.27-1.137a12.75 12.75 0 010-5c.06-.298.135-.595.27-1.137l.005-.021.616-2.464.046-.183c.497-1.99.803-3.212 1.498-4.141a5.75 5.75 0 012.376-1.855c1.07-.45 2.329-.45 4.38-.449zm.19 1.5c-2.304 0-3.234.014-3.99.332a4.25 4.25 0 00-1.755 1.37c-.491.657-.73 1.555-1.29 3.79l-.615 2.464c-.143.568-.208.83-.26 1.088-.096.482-.16.968-.193 1.456H5.381c.534 0 .954 0 1.348.119.345.105.667.277.947.507.317.26.55.61.846 1.055l.052.078.1.15c.373.56.48.706.603.807.126.104.273.182.43.23.152.046.333.054 1.005.054h2.575c.673 0 .853-.008 1.006-.054a1.25 1.25 0 00.43-.23c.123-.101.23-.247.603-.807l.1-.15.052-.078c.296-.445.529-.794.846-1.055.28-.23.601-.402.947-.507.393-.12.813-.12 1.348-.119H20.855a11.229 11.229 0 00-.193-1.456c-.052-.258-.117-.52-.259-1.088l-.616-2.464c-.558-2.235-.798-3.133-1.289-3.79a4.25 4.25 0 00-1.756-1.37c-.755-.318-1.685-.332-3.988-.332h-1.508zm9.608 12h-2.143c-.672 0-.853.008-1.005.054a1.248 1.248 0 00-.43.23c-.124.101-.23.247-.603.807l-.1.15-.052.078c-.296.445-.529.795-.846 1.056a2.75 2.75 0 01-.947.506c-.394.12-.814.12-1.348.12l-.094-.001H10.62c-.535 0-.955 0-1.348-.119a2.75 2.75 0 01-.947-.506c-.317-.261-.55-.611-.846-1.056l-.052-.078-.1-.15c-.373-.56-.48-.705-.603-.807a1.248 1.248 0 00-.43-.23c-.153-.046-.333-.054-1.006-.054H3.144c.033.488.097.974.194 1.456.051.259.116.52.259 1.088.18.721.254 1.014.35 1.258a4.25 4.25 0 003.41 2.663c.26.034.563.035 1.306.035h6.674c.743 0 1.045-.002 1.305-.035a4.25 4.25 0 003.41-2.663c.096-.244.171-.537.351-1.258.142-.568.207-.83.26-1.088.096-.482.16-.968.192-1.456zM9 6.25a.75.75 0 100 1.5h6a.75.75 0 000-1.5H9zm1 4a.75.75 0 000 1.5h4a.75.75 0 100-1.5h-4z"/>
</svg>
