<svg xmlns="http://www.w3.org/2000/svg" width="24" height="24" fill="currentColor" viewBox="0 0 24 24">
  <path fill="#0000ff" fill-rule="evenodd" d="M12 1.25a10.719 10.719 0 00-7.601 3.149A10.719 10.719 0 001.25 12c0 2.968 1.204 5.657 3.149 7.601A10.719 10.719 0 0012 22.75c2.968 0 5.657-1.204 7.601-3.149A10.719 10.719 0 0022.75 12c0-2.968-1.204-5.657-3.149-7.601A10.719 10.719 0 0012 1.25zM5.47 5.47a.75.75 0 011.06 0l2.636 2.636c.261.26.392.39.54.42.148.03.357-.055.773-.227C10.95 8.106 11.462 8 12 8c.538 0 1.052.106 1.52.3.417.17.626.256.774.227.149-.03.279-.16.54-.421L17.47 5.47a.75.75 0 111.06 1.06l-2.636 2.636c-.26.261-.39.392-.42.54-.03.148.055.357.227.773.193.47.299.983.299 1.521 0 .538-.106 1.052-.3 1.52-.17.417-.256.626-.227.774.03.149.16.279.421.54l2.636 2.636a.75.75 0 11-1.06 1.06l-2.636-2.636c-.261-.26-.391-.39-.54-.42-.148-.03-.357.055-.773.227-.47.193-.983.299-1.521.299a3.987 3.987 0 01-1.52-.3c-.417-.17-.626-.256-.774-.227-.148.03-.279.16-.54.421L6.53 18.53a.75.75 0 01-1.06-1.06l2.636-2.636c.26-.261.39-.391.42-.54.03-.148-.055-.357-.227-.773A3.988 3.988 0 018 12c0-.538.106-1.052.3-1.52.17-.417.256-.626.227-.774-.03-.148-.16-.279-.421-.54L5.47 6.53a.75.75 0 010-1.06z"/>
</svg>
