<svg xmlns="http://www.w3.org/2000/svg" width="24" height="24" fill="currentColor" viewBox="0 0 24 24">
  <path fill="#0000ff" fill-rule="evenodd" d="M9.213 8.153L6.011 4.95A9.21 9.21 0 0112 2.75a9.21 9.21 0 015.989 2.2l-3.203 3.203A4.728 4.728 0 0012 7.25a4.729 4.729 0 00-2.787.903zm-1.06 1.06L4.95 6.011A9.21 9.21 0 002.75 12a9.21 9.21 0 002.2 5.989l3.203-3.203A4.728 4.728 0 017.25 12c0-1.041.335-2.004.903-2.787zm1.06 6.634L6.011 19.05A9.211 9.211 0 0012 21.25a9.211 9.211 0 005.989-2.2l-3.203-3.203A4.728 4.728 0 0112 16.75a4.729 4.729 0 01-2.787-.903zm6.634-1.06l3.203 3.202a9.232 9.232 0 001.909-3.676.75.75 0 011.452.374 10.747 10.747 0 01-2.81 4.915A10.719 10.719 0 0112 22.75a10.719 10.719 0 01-7.601-3.149A10.719 10.719 0 011.25 12c0-2.968 1.204-5.657 3.149-7.601A10.719 10.719 0 0112 1.25c2.968 0 5.657 1.204 7.601 3.149a10.748 10.748 0 012.81 4.914.75.75 0 01-1.452.374A9.233 9.233 0 0019.05 6.01l-3.203 3.202c.568.783.903 1.746.903 2.787a4.728 4.728 0 01-.903 2.787zM8.75 12a3.25 3.25 0 116.5 0 3.25 3.25 0 01-6.5 0z"/>
</svg>
