<svg xmlns="http://www.w3.org/2000/svg" width="24" height="24" fill="currentColor" viewBox="0 0 24 24">
  <path fill="#0000ff" fill-rule="evenodd" d="M12.15 1.053a2.25 2.25 0 012.011.706c.384.42.488 1.027.537 1.605.052.61.052 1.423.052 2.44V7.6c0 .432 0 .712.018.924.017.204.045.28.064.316a.75.75 0 00.328.328c.037.02.112.047.316.064.212.017.492.018.924.018h.644c.767 0 1.395 0 1.88.044.48.044.972.139 1.359.448a2.25 2.25 0 01.846 1.76c0 .495-.234.94-.5 1.34-.268.407-.66.897-1.139 1.496l-.024.03-.88 1.1a.75.75 0 11-1.172-.937l.881-1.1c.509-.636.857-1.073 1.083-1.415.235-.354.251-.485.251-.515a.75.75 0 00-.282-.587c-.024-.02-.136-.088-.559-.126-.409-.037-.967-.038-1.781-.038h-.636c-.395 0-.736 0-1.017-.023-.297-.024-.592-.078-.875-.222a2.25 2.25 0 01-.984-.984c-.144-.283-.198-.578-.222-.875-.023-.28-.023-.622-.023-1.017V5.842c0-1.064 0-1.812-.046-2.351a3.105 3.105 0 00-.09-.574.467.467 0 00-.06-.147.75.75 0 00-.67-.235s-.042.009-.14.078a3.105 3.105 0 00-.428.391c-.372.393-.84.977-1.504 1.807L8.986 6.47a.75.75 0 01-1.172-.938L9.14 3.874l.024-.03c.635-.794 1.143-1.428 1.565-1.872.399-.42.86-.83 1.421-.919z" opacity=".4"/>
  <path fill="#0000ff" fill-rule="evenodd" d="M8.869 5.414a.75.75 0 01.117 1.055l-3.28 4.1c-.51.636-.858 1.073-1.084 1.415-.235.354-.251.485-.251.515a.75.75 0 00.282.587c.024.02.136.088.559.126.409.037.967.038 1.782.038h.635c.395 0 .736 0 1.017.023.297.024.592.078.876.222.423.216.767.56.983.984.144.283.198.578.222.875.023.28.023.622.023 1.017v1.787c0 1.064 0 1.812.046 2.351.023.267.054.449.09.574.032.11.059.145.06.147a.75.75 0 00.67.235c.003 0 .046-.012.14-.078a3.11 3.11 0 00.428-.391c.372-.392.84-.976 1.505-1.807l3.725-4.658a.75.75 0 011.172.938l-3.726 4.657-.024.03c-.635.794-1.143 1.428-1.565 1.872-.399.421-.86.83-1.421.919a2.25 2.25 0 01-2.011-.706c-.384-.42-.488-1.027-.537-1.605-.052-.61-.052-1.423-.052-2.44V16.4c0-.432 0-.712-.018-.924-.017-.204-.045-.28-.064-.317a.75.75 0 00-.327-.327c-.038-.02-.113-.047-.317-.064a12.724 12.724 0 00-.924-.018h-.644c-.767 0-1.395 0-1.88-.044-.48-.043-.972-.139-1.359-.447a2.25 2.25 0 01-.846-1.761c0-.495.234-.94.5-1.34.268-.407.66-.897 1.14-1.496l.023-.03 3.28-4.1a.75.75 0 011.055-.118z"/>
</svg>
