<svg xmlns="http://www.w3.org/2000/svg" width="24" height="24" fill="currentColor" viewBox="0 0 24 24">
  <path fill="#0000ff" d="M5.12 10.1l4.606-5.757c1.31-1.639 1.966-2.458 2.54-2.549a1.5 1.5 0 011.341.47c.393.43.393 1.48.393 3.578V7.6c0 .84 0 1.26.163 1.581a1.5 1.5 0 00.656.656c.32.163.74.163 1.58.163h.607c1.599 0 2.398 0 2.809.328a1.5 1.5 0 01.564 1.174c0 .525-.5 1.149-1.498 2.397l-4.607 5.758c-1.31 1.639-1.966 2.458-2.541 2.549a1.5 1.5 0 01-1.34-.47C10 21.305 10 20.255 10 18.157V16.4c0-.84 0-1.26-.164-1.581a1.5 1.5 0 00-.655-.655C8.86 14 8.44 14 7.6 14h-.607c-1.598 0-2.397 0-2.808-.328a1.5 1.5 0 01-.564-1.174c0-.525.5-1.149 1.498-2.397z" opacity=".12"/>
  <path fill="#0000ff" fill-rule="evenodd" d="M13.053 2.77a.75.75 0 00-.67-.235h.001s-.042.009-.14.078a3.105 3.105 0 00-.428.391c-.372.393-.84.977-1.504 1.807L5.705 10.57c-.509.636-.857 1.073-1.083 1.415-.235.354-.251.485-.251.515a.75.75 0 00.282.587c.024.02.136.088.559.126.409.037.967.038 1.782.038h.635c.395 0 .736 0 1.017.023.297.024.592.078.876.222.423.216.767.56.983.984.144.283.198.578.222.875.023.28.023.622.023 1.017v1.787c0 1.064 0 1.812.046 2.351.023.267.054.449.09.574.032.11.059.145.06.147a.75.75 0 00.67.235c-.007 0 .034-.003.14-.078.105-.075.243-.197.428-.391.372-.392.84-.977 1.505-1.807l4.606-5.758c.509-.636.857-1.073 1.083-1.415.235-.354.251-.485.251-.515a.75.75 0 00-.282-.587c-.024-.02-.136-.088-.559-.126-.409-.037-.967-.038-1.782-.038h-.635c-.395 0-.736 0-1.017-.023-.297-.024-.592-.078-.875-.222a2.25 2.25 0 01-.984-.984c-.144-.283-.198-.578-.222-.875-.023-.28-.023-.622-.023-1.017V5.842c0-1.064 0-1.812-.046-2.351a3.105 3.105 0 00-.09-.574.472.472 0 00-.06-.147zm-.903-1.717a2.25 2.25 0 012.011.706c.384.42.488 1.027.537 1.605.052.61.052 1.423.052 2.44V7.6c0 .432 0 .712.018.924.017.204.045.28.064.316a.75.75 0 00.327.328c.038.02.113.047.317.064.212.017.492.018.924.018h.644c.767 0 1.395 0 1.88.044.48.044.972.139 1.359.448a2.25 2.25 0 01.846 1.76c0 .495-.234.94-.5 1.34-.268.407-.66.897-1.14 1.496l-.023.03-4.606 5.758-.024.03c-.635.794-1.143 1.428-1.565 1.872-.399.42-.86.83-1.421.919a2.25 2.25 0 01-2.011-.706c-.384-.42-.488-1.027-.537-1.605-.052-.61-.052-1.423-.052-2.44V16.4c0-.432 0-.712-.018-.924-.017-.204-.045-.28-.064-.317a.75.75 0 00-.327-.327c-.038-.02-.113-.047-.317-.064a12.796 12.796 0 00-.924-.018h-.644c-.767 0-1.395 0-1.88-.044-.48-.044-.972-.139-1.359-.447a2.25 2.25 0 01-.846-1.761c0-.495.234-.94.5-1.341.268-.406.66-.896 1.14-1.495l.023-.03L9.14 3.874l.024-.03c.635-.794 1.143-1.428 1.565-1.872.399-.42.86-.83 1.421-.919z"/>
</svg>
