<svg xmlns="http://www.w3.org/2000/svg" width="24" height="24" fill="currentColor" viewBox="0 0 24 24">
  <path fill="#0000ff" fill-rule="evenodd" d="M12.15 1.053a2.25 2.25 0 012.011.706c.384.42.488 1.027.537 1.605.052.61.052 1.423.052 2.44V7.6c0 .432 0 .712.018.924.017.204.045.28.064.316a.75.75 0 00.327.328c.038.02.113.047.317.064.212.017.492.018.924.018H17.232c.687 0 1.25 0 1.687.036.431.035.876.112 1.24.363a2.25 2.25 0 01.965 2.008c-.031.44-.25.836-.49 1.195-.246.364-.598.803-1.027 1.34l-.021.027-.2.25a.75.75 0 01-1.172-.938l.2-.25c.456-.57.769-.96.975-1.267.214-.318.236-.436.238-.462a.75.75 0 00-.321-.669c-.022-.015-.128-.071-.51-.102-.368-.03-.869-.031-1.598-.031H16.37c-.395 0-.736 0-1.017-.023-.297-.024-.592-.078-.875-.222a2.25 2.25 0 01-.984-.984c-.144-.283-.198-.578-.222-.875-.023-.28-.023-.622-.023-1.017V5.842c0-1.064 0-1.812-.046-2.351a3.107 3.107 0 00-.09-.574.467.467 0 00-.06-.147.75.75 0 00-.67-.235s-.042.009-.14.078a3.104 3.104 0 00-.428.391c-.372.393-.84.977-1.504 1.807l-.126.158-.4.5a.75.75 0 01-1.172-.938l.4-.5.126-.157.024-.03c.635-.794 1.143-1.428 1.565-1.872.399-.42.86-.83 1.421-.919zM2.47 2.47a.75.75 0 011.06 0l4.334 4.333 9.333 9.333 4.333 4.334a.75.75 0 11-1.06 1.06l-3.741-3.74-1.87 2.336-.023.03c-.635.794-1.143 1.428-1.565 1.872-.399.42-.86.83-1.421.919a2.25 2.25 0 01-2.011-.706c-.384-.42-.488-1.027-.537-1.605-.052-.61-.052-1.423-.052-2.44V16.4c0-.432 0-.712-.018-.924-.017-.204-.045-.28-.064-.317a.75.75 0 00-.328-.327c-.037-.02-.112-.047-.316-.064a12.796 12.796 0 00-.924-.018h-.644c-.767 0-1.395 0-1.88-.044-.48-.044-.972-.139-1.359-.447a2.25 2.25 0 01-.846-1.761c0-.495.234-.94.5-1.341.268-.406.66-.896 1.14-1.495l.023-.03L6.328 7.39 2.47 3.53a.75.75 0 010-1.06zm4.926 5.986l-1.69 2.113c-.51.636-.858 1.073-1.084 1.415-.235.354-.251.485-.251.515a.75.75 0 00.282.587c.024.02.136.088.559.126.409.037.967.038 1.782.038h.635c.395 0 .736 0 1.017.023.297.024.592.078.875.222.424.216.768.56.984.984.144.283.198.578.222.875.023.28.023.622.023 1.017v1.787c0 1.064 0 1.812.046 2.351.023.267.054.449.09.574.032.11.059.145.06.147a.75.75 0 00.67.235c-.007 0 .034-.003.14-.078.105-.075.243-.197.428-.391.372-.392.84-.977 1.504-1.807l1.974-2.467-8.266-8.266z"/>
</svg>
