<svg xmlns="http://www.w3.org/2000/svg" width="24" height="24" fill="currentColor" viewBox="0 0 24 24">
  <path fill="#0000ff" fill-rule="evenodd" d="M12.99 1.08c-.877-.195-1.621.354-2.237.955-.647.632-1.42 1.598-2.39 2.81l-.036.046L4.79 9.312l-.03.037c-.586.733-1.065 1.332-1.381 1.83-.313.493-.573 1.045-.484 1.65.066.45.268.87.58 1.204.415.447 1.008.59 1.59.653.585.064 1.353.064 2.292.064h.046c.529 0 .87.001 1.127.027.246.024.333.065.377.093a.75.75 0 01.223.223c.028.044.07.131.094.377.025.257.026.598.026 1.127v.318c0 1.552 0 2.79.11 3.687.106.854.344 1.748 1.15 2.143.16.078.327.136.5.175.877.195 1.621-.354 2.237-.955.647-.632 1.42-1.598 2.39-2.81l.036-.045 3.537-4.422.03-.037c.586-.733 1.065-1.332 1.381-1.83.313-.493.573-1.044.484-1.649a2.25 2.25 0 00-.58-1.205c-.416-.447-1.009-.589-1.59-.653-.585-.064-1.353-.064-2.292-.064h-.046c-.529 0-.87 0-1.128-.026-.245-.025-.332-.065-.377-.094a.75.75 0 01-.222-.222c-.028-.045-.07-.132-.094-.377-.025-.258-.026-.6-.026-1.128v-.318c0-1.551 0-2.789-.11-3.687-.106-.853-.344-1.748-1.15-2.142a2.25 2.25 0 00-.5-.176z"/>
</svg>
