<svg xmlns="http://www.w3.org/2000/svg" width="24" height="24" fill="currentColor" viewBox="0 0 24 24">
  <path fill="#0000ff" fill-rule="evenodd" d="M8 1.25h-.027c-.91 0-1.63 0-2.213.04-.596.04-1.104.125-1.578.322a4.75 4.75 0 00-2.57 2.57c-.197.474-.282.982-.322 1.578-.04.584-.04 1.304-.04 2.213V16.027c0 .91 0 1.63.04 2.213.04.596.125 1.104.322 1.578a4.75 4.75 0 002.57 2.57c.474.197.982.281 1.578.322.584.04 1.304.04 2.213.04h.054c.91 0 1.63 0 2.213-.04.596-.04 1.104-.125 1.578-.322a4.75 4.75 0 002.57-2.57c.197-.474.281-.982.322-1.578.04-.584.04-1.304.04-2.213V7.973c0-.91 0-1.63-.04-2.213-.04-.596-.125-1.104-.322-1.578a4.75 4.75 0 00-2.57-2.57c-.474-.197-.982-.282-1.578-.322-.584-.04-1.304-.04-2.213-.04H8zm9.47 6.22a.75.75 0 011.06 0l4 4a.75.75 0 010 1.06l-4 4a.75.75 0 01-1.06-1.06l2.72-2.72H8a.75.75 0 110-1.5h12.19l-2.72-2.72a.75.75 0 010-1.06z"/>
</svg>
