<svg xmlns="http://www.w3.org/2000/svg" width="24" height="24" fill="currentColor" viewBox="0 0 24 24">
  <path fill="#0000ff" fill-rule="evenodd" d="M17.47 7.47a.75.75 0 011.06 0l4 4a.75.75 0 010 1.06l-4 4a.75.75 0 01-1.06-1.06l2.72-2.72H9a.75.75 0 010-1.5h11.19l-2.72-2.72a.75.75 0 010-1.06z" opacity=".4"/>
  <path fill="#0000ff" fill-rule="evenodd" d="M10.943 2.89c-.434-.131-.993-.14-2.442-.14H8c-.943 0-1.612 0-2.138.037-.52.035-.846.103-1.107.21a3.25 3.25 0 00-1.758 1.76c-.109.26-.176.586-.212 1.106-.035.526-.036 1.195-.036 2.138v8c0 .942 0 1.61.036 2.137.036.52.103.845.212 1.106a3.25 3.25 0 001.758 1.76c.261.107.587.175 1.107.21.526.036 1.195.037 2.137.037h.5c1.45 0 2.01-.009 2.444-.14a3.25 3.25 0 002.166-2.167c.132-.434.14-.993.14-2.444H14h-.75V16a.75.75 0 011.5 0v.643c0 1.259 0 2.06-.205 2.737a4.75 4.75 0 01-3.166 3.166c-.676.205-1.478.205-2.736.205h-.67c-.909 0-1.63 0-2.213-.04-.596-.04-1.103-.126-1.578-.322a4.75 4.75 0 01-2.57-2.57c-.197-.475-.281-.983-.322-1.579-.04-.583-.04-1.303-.04-2.212V7.973c0-.909 0-1.629.04-2.212.04-.596.125-1.104.322-1.578a4.75 4.75 0 012.57-2.57c.475-.197.982-.282 1.578-.323.584-.04 1.304-.04 2.213-.04h.671c1.257 0 2.059 0 2.735.205a4.75 4.75 0 013.167 3.167c.205.676.204 1.477.204 2.735V8a.75.75 0 01-1.5 0v-.5c0-1.45-.008-2.008-.14-2.443a3.25 3.25 0 00-2.167-2.167z"/>
</svg>
