<svg xmlns="http://www.w3.org/2000/svg" width="24" height="24" fill="currentColor" viewBox="0 0 24 24">
  <path fill="#0000ff" fill-rule="evenodd" d="M12.47 7.47a.75.75 0 011.06 0l4 4a.75.75 0 010 1.06l-4 4a.75.75 0 11-1.06-1.06l2.72-2.72H2a.75.75 0 010-1.5h13.19l-2.72-2.72a.75.75 0 010-1.06z" opacity=".4"/>
  <path fill="#0000ff" fill-rule="evenodd" d="M13.357 1.25h2.276c1.092 0 1.958 0 2.655.057.714.058 1.317.18 1.869.46a4.75 4.75 0 012.075 2.077c.281.55.403 1.154.461 1.868.057.697.057 1.563.057 2.655V15.633c0 1.092 0 1.958-.057 2.655-.058.714-.18 1.317-.46 1.869a4.75 4.75 0 01-2.076 2.075c-.552.281-1.155.403-1.869.461-.697.057-1.563.057-2.655.057h-2.276c-1.258 0-2.06 0-2.736-.204a4.75 4.75 0 01-3.166-3.167c-.205-.676-.205-1.478-.205-2.736V16a.75.75 0 011.5 0v.5c0 1.45.008 2.009.14 2.443a3.25 3.25 0 002.167 2.167c.434.132.993.14 2.443.14h2.1c1.133 0 1.937 0 2.566-.052.62-.05 1.005-.147 1.31-.302a3.25 3.25 0 001.42-1.42c.155-.305.251-.69.302-1.31.052-.63.052-1.433.052-2.566V8.4c0-1.132 0-1.937-.052-2.566-.05-.62-.147-1.005-.302-1.31a3.25 3.25 0 00-1.42-1.42c-.305-.155-.69-.251-1.31-.302-.63-.051-1.433-.052-2.566-.052h-2.1c-1.45 0-2.009.008-2.443.14A3.25 3.25 0 008.89 5.057c-.132.434-.14.993-.14 2.443V8a.75.75 0 11-1.5 0v-.5-.143c0-1.258 0-2.06.205-2.736a4.75 4.75 0 013.166-3.166c.676-.205 1.478-.205 2.736-.205z"/>
</svg>
