<svg xmlns="http://www.w3.org/2000/svg" width="24" height="24" fill="currentColor" viewBox="0 0 24 24">
  <path fill="#0000ff" fill-rule="evenodd" d="M20.75 13.122V8.878a2.25 2.25 0 010 4.244zM20 14.75V14h-.75V8H20v-.75a3.75 3.75 0 110 7.5zm-14-.5a.75.75 0 00-.75.75v4.5a2.25 2.25 0 104.5 0V15a.75.75 0 00-.75-.75H6zm.75 5.25v-3.75h1.5v3.75a.75.75 0 01-1.5 0z" opacity=".4"/>
  <path fill="#0000ff" fill-rule="evenodd" d="M15.395 4.139c.827-.58 1.405-.983 1.86-1.243.463-.265.681-.309.8-.304.369.016.712.195.937.488.072.094.16.298.21.83.047.521.048 1.226.048 2.236v9.708c0 1.01 0 1.714-.049 2.236-.048.532-.137.735-.21.83a1.25 1.25 0 01-.936.487c-.119.006-.337-.038-.8-.303-.455-.26-1.033-.664-1.86-1.243l-4.645-3.252V7.39l4.645-3.251zM9.763 6.25l4.772-3.34.032-.022c.787-.552 1.421-.996 1.944-1.294.52-.298 1.05-.525 1.61-.5a2.75 2.75 0 012.06 1.073c.342.445.46 1.008.514 1.606.055.598.055 1.372.055 2.334v9.786c0 .961 0 1.735-.055 2.334-.055.598-.172 1.161-.513 1.605a2.75 2.75 0 01-2.062 1.074c-.56.024-1.088-.202-1.61-.5-.521-.299-1.156-.743-1.943-1.294l-.032-.022-4.771-3.34H6a4.75 4.75 0 110-9.5h3.763zm-.513 1.5H6a3.25 3.25 0 100 6.5h3.25v-6.5z"/>
</svg>
