<svg xmlns="http://www.w3.org/2000/svg" width="24" height="24" fill="currentColor" viewBox="0 0 24 24">
  <path fill="#0000ff" fill-rule="evenodd" d="M8.957 6.543c.293.293.293.764.293 1.707V19.5a2.25 2.25 0 11-4.5 0v-3.916A4.752 4.752 0 016 6.25h1.25c.943 0 1.414 0 1.707.293zm1.906 9.839c-.113-.218-.113-.473-.113-.983V6.601c0-.51 0-.766.113-.983.113-.217.322-.363.74-.656l2.932-2.052.032-.022c.787-.552 1.421-.996 1.944-1.294.52-.298 1.05-.525 1.61-.5a2.75 2.75 0 012.06 1.073c.342.445.46 1.008.514 1.606.055.599.055 1.373.055 2.334v1.218a3.751 3.751 0 010 7.35v1.218c0 .961 0 1.735-.055 2.334-.055.598-.172 1.161-.513 1.606a2.75 2.75 0 01-2.062 1.073c-.56.024-1.088-.202-1.61-.5-.521-.299-1.156-.742-1.943-1.294l-.032-.022-2.932-2.052c-.418-.293-.627-.44-.74-.656zm9.887-3.26a2.251 2.251 0 000-4.244v4.244z"/>
</svg>
