<svg xmlns="http://www.w3.org/2000/svg" width="24" height="24" fill="currentColor" viewBox="0 0 24 24">
  <path fill="#0000ff" fill-rule="evenodd" d="M15 2.75c.953 0 1.356.002 1.685.045a5.25 5.25 0 014.52 4.52c.043.329.045.732.045 1.685v.5a.75.75 0 001.5 0V8.93c0-.862 0-1.372-.058-1.811a6.75 6.75 0 00-5.81-5.811c-.44-.058-.95-.058-1.812-.058H11.566c-1.651 0-2.937 0-3.968.084-1.047.086-1.897.262-2.662.652a6.75 6.75 0 00-2.95 2.95c-.39.765-.566 1.615-.652 2.662-.084 1.031-.084 2.317-.084 3.968V12.434c0 1.651 0 2.937.084 3.968.086 1.047.262 1.897.652 2.662a6.75 6.75 0 002.95 2.95c.765.39 1.615.566 2.662.652 1.031.084 2.317.084 3.968.084H15.07c.862 0 1.372 0 1.811-.058a6.75 6.75 0 005.811-5.81c.058-.44.058-.95.058-1.812V14.5a.75.75 0 00-1.5 0v.5c0 .953-.002 1.356-.045 1.685a5.25 5.25 0 01-4.52 4.52c-.329.043-.732.045-1.685.045h-3.4c-1.693 0-2.917 0-3.88-.08-.954-.077-1.585-.228-2.103-.492a5.25 5.25 0 01-2.295-2.294c-.264-.519-.415-1.15-.493-2.104-.078-.963-.079-2.188-.079-3.88v-.8c0-1.693 0-2.917.08-3.88.077-.954.228-1.585.492-2.103a5.25 5.25 0 012.295-2.295c.518-.264 1.15-.415 2.103-.493.963-.078 2.187-.079 3.88-.079H15zm-7 8.5a.75.75 0 000 1.5h8a.75.75 0 000-1.5H8z"/>
</svg>
