<svg xmlns="http://www.w3.org/2000/svg" width="24" height="24" fill="currentColor" viewBox="0 0 24 24">
  <path fill="#0000ff" fill-rule="evenodd" d="M19 1.25a3.75 3.75 0 00-.75 7.425V12a.75.75 0 001.5 0V8.675A3.751 3.751 0 0019 1.25zm0 6a2.25 2.25 0 100-4.5 2.25 2.25 0 000 4.5z" opacity=".4"/>
  <path fill="#0000ff" fill-rule="evenodd" d="M5 1.25a3.75 3.75 0 103.675 4.5H12a.75.75 0 000-1.5H8.675A3.751 3.751 0 005 1.25zM7.25 5a2.25 2.25 0 10-4.5 0 2.25 2.25 0 004.5 0zm-1.5 7a.75.75 0 00-1.5 0v3.325A3.751 3.751 0 005 22.75a3.75 3.75 0 00.75-7.425V12zM5 16.75a2.25 2.25 0 100 4.5 2.25 2.25 0 000-4.5zm10.325 3H12a.75.75 0 010-1.5h3.325a3.751 3.751 0 017.425.75 3.75 3.75 0 01-7.425.75zM16.75 19a2.25 2.25 0 104.5 0 2.25 2.25 0 00-4.5 0z"/>
</svg>
