<svg xmlns="http://www.w3.org/2000/svg" width="24" height="24" fill="currentColor" viewBox="0 0 24 24">
  <path fill="#0000ff" fill-rule="evenodd" d="M11.59 1.617a.75.75 0 01-.047.836 7.843 7.843 0 00-1.585 4.751c0 4.293 3.388 7.74 7.527 7.74 1.141 0 2.221-.26 3.19-.727a.75.75 0 011.027.94c-1.45 3.847-5.1 6.593-9.39 6.593-5.575 0-10.062-4.63-10.062-10.301 0-.91.115-1.794.333-2.636a.75.75 0 111.452.374 9.047 9.047 0 00-.285 2.262c0 4.879 3.851 8.801 8.562 8.801 3.015 0 5.676-1.604 7.203-4.04a8.856 8.856 0 01-2.03.234c-5.003 0-9.027-4.155-9.027-9.24 0-1.438.321-2.801.895-4.017A8.565 8.565 0 006.003 5.5a.75.75 0 01-1.12-1 9.975 9.975 0 015.95-3.242.75.75 0 01.756.359z"/>
</svg>
