<svg xmlns="http://www.w3.org/2000/svg" width="24" height="24" fill="currentColor" viewBox="0 0 24 24">
  <path fill="#0000ff" fill-rule="evenodd" d="M11.5 7C12.875 7 14 5.875 14 4.5S12.875 2 11.5 2A2.507 2.507 0 009 4.5C9 5.875 10.125 7 11.5 7zm0 2.5A2.507 2.507 0 009 12c0 1.375 1.125 2.5 2.5 2.5S14 13.375 14 12s-1.125-2.5-2.5-2.5zM9 19.5c0-1.375 1.125-2.5 2.5-2.5s2.5 1.125 2.5 2.5-1.125 2.5-2.5 2.5A2.507 2.507 0 019 19.5z" opacity=".12"/>
  <path fill="#0000ff" fill-rule="evenodd" d="M8.25 4.5c0-1.79 1.46-3.25 3.25-3.25s3.25 1.46 3.25 3.25-1.46 3.25-3.25 3.25S8.25 6.29 8.25 4.5zm3.25-1.75c-.96 0-1.75.79-1.75 1.75s.79 1.75 1.75 1.75 1.75-.79 1.75-1.75-.79-1.75-1.75-1.75zM8.25 12c0-1.79 1.46-3.25 3.25-3.25s3.25 1.46 3.25 3.25-1.46 3.25-3.25 3.25S8.25 13.79 8.25 12zm3.25-1.75c-.96 0-1.75.79-1.75 1.75s.79 1.75 1.75 1.75 1.75-.79 1.75-1.75-.79-1.75-1.75-1.75zm0 6c-1.79 0-3.25 1.46-3.25 3.25s1.46 3.25 3.25 3.25 3.25-1.46 3.25-3.25-1.46-3.25-3.25-3.25zM9.75 19.5c0-.96.79-1.75 1.75-1.75s1.75.79 1.75 1.75-.79 1.75-1.75 1.75-1.75-.79-1.75-1.75z"/>
</svg>
