<svg xmlns="http://www.w3.org/2000/svg" width="24" height="24" fill="currentColor" viewBox="0 0 24 24">
  <path fill="#0000ff" fill-rule="evenodd" d="M18.75 3.332c-.352.051-.806.157-1.472.314l-5.64 1.327c-.45.106-.75.177-.979.249-.22.07-.326.125-.399.178a1.25 1.25 0 00-.41.519c-.035.082-.065.198-.082.428-.018.24-.018.548-.018 1.011v.681l10.499-2.624c-.002-.382-.01-.677-.03-.92-.03-.348-.084-.504-.138-.598a1.25 1.25 0 00-.718-.568c-.103-.031-.267-.048-.614.003zM20.25 16a2.25 2.25 0 10-4.5 0 2.25 2.25 0 004.5 0zm0-9.04V13a3.75 3.75 0 101.5 3V5.967c0-.643 0-1.173-.037-1.6-.037-.438-.119-.85-.335-1.223a2.75 2.75 0 00-1.578-1.25c-.412-.125-.832-.11-1.268-.046-.423.062-.94.183-1.565.33l-.032.008-5.64 1.327-.025.006c-.42.099-.772.182-1.06.272-.302.095-.58.211-.837.4a2.75 2.75 0 00-.904 1.14c-.124.293-.174.591-.197.907-.022.3-.022.663-.022 1.094V16a3.75 3.75 0 101.5 3V9.586l10.5-2.625zM6 16.75a2.25 2.25 0 110 4.5 2.25 2.25 0 010-4.5z"/>
</svg>
