<svg xmlns="http://www.w3.org/2000/svg" width="24" height="24" fill="currentColor" viewBox="0 0 24 24">
  <path fill="#0000ff" fill-rule="evenodd" d="M18.75 3.332c-.352.051-.806.157-1.472.314l-5.64 1.327c-.45.106-.75.177-.979.25-.22.068-.326.124-.399.177a1.25 1.25 0 00-.41.519c-.035.082-.065.198-.082.428-.018.24-.018.548-.018 1.011v.681l4.068-1.017a.75.75 0 01.364 1.456L9.75 9.586V19A3.75 3.75 0 116 15.25a.75.75 0 010 1.5A2.25 2.25 0 108.25 19V7.332c0-.43 0-.793.022-1.094.023-.316.073-.614.197-.906a2.75 2.75 0 01.904-1.142c.257-.188.535-.304.837-.4.288-.09.64-.172 1.06-.271l.025-.006 5.64-1.327.032-.008c.626-.147 1.142-.268 1.565-.33.436-.064.856-.08 1.268.046a2.75 2.75 0 011.578 1.25c.216.372.298.785.335 1.224.037.426.037.956.037 1.599V16a3.75 3.75 0 11-1.5-3V6.96l-2.068.518a.75.75 0 01-.364-1.456l2.43-.607c-.001-.382-.008-.677-.03-.92-.029-.348-.083-.504-.137-.598a1.25 1.25 0 00-.718-.568c-.103-.031-.267-.048-.614.003zM20.25 16a2.25 2.25 0 10-4.5 0 2.25 2.25 0 004.5 0z"/>
</svg>
