<svg xmlns="http://www.w3.org/2000/svg" width="24" height="24" fill="currentColor" viewBox="0 0 24 24">
  <path fill="#0000ff" fill-rule="evenodd" d="M9.395 1.25H12.434c1.651 0 2.937 0 3.968.084 1.047.086 1.897.262 2.662.652a6.75 6.75 0 012.95 2.95c.39.765.566 1.615.652 2.662.084 1.031.084 2.317.084 3.968v3.629c0 .315 0 .503-.01.685a6.75 6.75 0 01-1.715 4.142c-.123.136-.255.27-.478.492l-.017.016-.016.017c-.223.223-.356.355-.492.478a6.75 6.75 0 01-4.141 1.715c-.183.01-.37.01-.686.01h-5.8c-1.294 0-2.059 0-2.712-.13a6.75 6.75 0 01-5.303-5.303c-.13-.653-.13-1.418-.13-2.712V14a.75.75 0 011.5 0v.5c0 1.43.004 2.035.1 2.524a5.25 5.25 0 004.126 4.125c.489.097 1.094.101 2.524.101h5.75v-2.275c0-.445 0-.816.02-1.12.022-.317.07-.617.19-.907a2.75 2.75 0 011.488-1.489c.29-.12.59-.167.907-.188.304-.021.675-.021 1.12-.021h.525a.75.75 0 010 1.5H19c-.476 0-.796 0-1.043.017-.241.017-.358.046-.435.078a1.25 1.25 0 00-.677.677c-.032.077-.061.194-.078.435-.017.247-.017.567-.017 1.043v2.103a5.249 5.249 0 002.27-1.195c.103-.092.206-.194.45-.438.244-.244.346-.347.438-.45a5.25 5.25 0 001.334-3.22c.008-.138.008-.283.008-.628V11.6c0-1.693 0-2.917-.08-3.88-.077-.954-.228-1.585-.492-2.103a5.25 5.25 0 00-2.294-2.295c-.519-.264-1.15-.415-2.104-.493-.963-.078-2.188-.079-3.88-.079H9.5c-1.43 0-2.035.004-2.524.1A5.25 5.25 0 002.85 6.977C2.754 7.465 2.75 8.07 2.75 9.5v.5a.75.75 0 01-1.5 0v-.605c0-1.294 0-2.059.13-2.712A6.75 6.75 0 016.683 1.38c.653-.13 1.418-.13 2.712-.13zM6.25 7A.75.75 0 017 6.25h8a.75.75 0 010 1.5H7A.75.75 0 016.25 7zM7 10.25a.75.75 0 000 1.5h6a.75.75 0 000-1.5H7zM6.25 15a.75.75 0 01.75-.75h2a.75.75 0 010 1.5H7a.75.75 0 01-.75-.75z"/>
</svg>
