<svg xmlns="http://www.w3.org/2000/svg" width="24" height="24" fill="currentColor" viewBox="0 0 24 24">
  <path fill="#0000ff" fill-rule="evenodd" d="M12 2c-5 0-9 3.5-9 8.5C3 18.352 10 22 12 22s9-3.648 9-11.5c0-5-4-8.5-9-8.5zm0 12a3 3 0 100-6 3 3 0 000 6z" opacity=".12"/>
  <path fill="#0000ff" fill-rule="evenodd" d="M3.75 10.5c0-4.53 3.607-7.75 8.25-7.75s8.25 3.22 8.25 7.75c0 3.68-1.634 6.369-3.516 8.15a11.796 11.796 0 01-2.817 1.985c-.899.445-1.588.615-1.917.615-.33 0-1.018-.17-1.917-.615a11.795 11.795 0 01-2.817-1.985C5.384 16.869 3.75 14.18 3.75 10.5zM12 1.25c-5.357 0-9.75 3.78-9.75 9.25 0 4.17 1.866 7.233 3.984 9.239a13.29 13.29 0 003.183 2.24c.976.484 1.912.77 2.583.77.67 0 1.607-.286 2.583-.77a13.29 13.29 0 003.183-2.24c2.118-2.006 3.984-5.068 3.984-9.239 0-5.47-4.393-9.25-9.75-9.25zM9.75 11a2.25 2.25 0 114.5 0 2.25 2.25 0 01-4.5 0zM12 7.25a3.75 3.75 0 100 7.5 3.75 3.75 0 000-7.5z"/>
</svg>
