<svg width="20" height="20" version="1.1" viewBox="0 0 5.2917 5.2917" xmlns="http://www.w3.org/2000/svg">
 <g transform="translate(0 -291.71)">
  <path transform="matrix(.26458 0 0 .26458 0 291.71)" d="m10.098 3.0078a6.9931 6.9931 0 0 0-6.9922 6.9922 6.9931 6.9931 0 0 0 6.9922 6.9941 6.9931 6.9931 0 0 0 6.9941-6.9941 6.9931 6.9931 0 0 0-6.9941-6.9922zm-0.097656 0.99219a6 6 0 0 1 6 6 6 6 0 0 1-6 6 6 6 0 0 1-6-6 6 6 0 0 1 6-6z" fill="#0000ff" style="paint-order:stroke fill markers"/>
 </g>
</svg>
