<svg width="20" height="20" version="1.1" viewBox="0 0 5.2917 5.2917" xmlns="http://www.w3.org/2000/svg">
 <g transform="translate(0 -291.71)" fill="#0000ff">
  <path transform="matrix(.26458 0 0 .26458 0 291.71)" d="m10 3.0137a6.9931 6.9931 0 0 0-6.9941 6.9922 6.9931 6.9931 0 0 0 6.9941 6.9941 6.9931 6.9931 0 0 0 6.9922-6.9941 6.9931 6.9931 0 0 0-6.9922-6.9922zm0 0.98633a6 6 0 0 1 6 6 6 6 0 0 1-6 6 6 6 0 0 1-6-6 6 6 0 0 1 6-6z" style="paint-order:stroke fill markers"/>
  <circle cx="2.6458" cy="294.35" r="1.0583" style="paint-order:stroke fill markers"/>
 </g>
</svg>
