<svg xmlns="http://www.w3.org/2000/svg" width="24" height="24" fill="currentColor" viewBox="0 0 24 24">
  <path fill="#0000ff" fill-rule="evenodd" d="M9.134 1.024a2.75 2.75 0 011.732 0c.292.097.543.25.79.435.237.176.507.407.828.682l.019.017c.546.468.7.588.853.653.196.083.41.114.623.09.165-.017.346-.088 1.004-.38l2.712-1.206A.75.75 0 0118.75 2v9.25h.08c.535 0 .98 0 1.345.03.38.03.736.098 1.073.27.518.263.939.684 1.202 1.201.172.338.24.694.27 1.074.03.365.03.81.03 1.345V20a2.75 2.75 0 11-5.5 0V3.154l-1.658.737-.093.041c-.52.232-.928.414-1.356.46a2.75 2.75 0 01-1.371-.2c-.397-.167-.736-.458-1.168-.83l-.077-.065a15.96 15.96 0 00-.765-.634c-.183-.136-.288-.189-.369-.215a1.25 1.25 0 00-.787 0c-.08.026-.185.08-.368.215-.19.14-.42.338-.765.634l-.077.065c-.432.372-.771.663-1.168.83a2.75 2.75 0 01-1.37.2c-.429-.046-.837-.228-1.357-.46l-.093-.041-1.658-.737V15.6c0 1.133 0 1.937.052 2.566.05.62.147 1.005.302 1.31a3.25 3.25 0 001.42 1.42c.305.155.69.251 1.31.302.63.051 1.434.052 2.566.052H15a.75.75 0 010 1.5H8.367c-1.092 0-1.958 0-2.655-.057-.714-.058-1.317-.18-1.868-.46a4.75 4.75 0 01-2.076-2.076c-.281-.552-.403-1.155-.461-1.869-.057-.697-.057-1.563-.057-2.655V2a.75.75 0 011.055-.685L5.017 2.52c.658.293.839.364 1.004.382a1.25 1.25 0 00.623-.091c.154-.065.306-.185.853-.653l.02-.017c.32-.275.59-.506.826-.682.248-.184.499-.338.791-.435zM6.25 9A.75.75 0 017 8.25h4a.75.75 0 010 1.5H7A.75.75 0 016.25 9zm3 4a.75.75 0 01.75-.75h3a.75.75 0 010 1.5h-3a.75.75 0 01-.75-.75zm.75 3.25a.75.75 0 000 1.5h3a.75.75 0 000-1.5h-3zM8 13a1 1 0 11-2 0 1 1 0 012 0zm-1 5a1 1 0 100-2 1 1 0 000 2zm11.8-5.25c.572 0 .957 0 1.252.025.288.023.425.065.515.111.236.12.427.311.547.546.046.091.088.228.111.515.024.296.025.68.025 1.253V20a1.25 1.25 0 11-2.5 0v-7.25h.05z"/>
</svg>
