<svg xmlns="http://www.w3.org/2000/svg" width="24" height="24" fill="currentColor" viewBox="0 0 24 24">
  <path fill="#0000ff" fill-rule="evenodd" d="M10.866 1.024a2.75 2.75 0 00-1.732 0 2.792 2.792 0 00-.79.435 16.6 16.6 0 00-.828.682l-.019.017c-.546.468-.7.588-.853.653a1.25 1.25 0 01-.623.09c-.165-.017-.346-.088-1.004-.38L2.305 1.314A.75.75 0 001.25 2v13.633c0 1.092 0 1.958.057 2.655.058.714.18 1.317.46 1.869a4.75 4.75 0 002.077 2.075c.55.281 1.154.403 1.868.461.697.057 1.563.057 2.655.057H20A2.75 2.75 0 0022.75 20v-4.83c0-.534 0-.98-.03-1.345-.03-.38-.098-.736-.27-1.073a2.75 2.75 0 00-1.201-1.202c-.338-.172-.694-.24-1.074-.27-.365-.03-.81-.03-1.345-.03h-.08V2a.75.75 0 00-1.055-.685L14.983 2.52c-.658.293-.839.364-1.004.382a1.25 1.25 0 01-.623-.091c-.154-.065-.306-.185-.853-.653l-.02-.017c-.32-.275-.59-.506-.826-.682a2.792 2.792 0 00-.791-.435zM21.25 20a1.25 1.25 0 11-2.5 0v-7.25h.05c.572 0 .957 0 1.252.025.288.023.425.065.515.111.236.12.427.311.547.547.046.09.088.228.111.515.024.295.025.68.025 1.252V20zM7 8.25a.75.75 0 000 1.5h4a.75.75 0 000-1.5H7zM9.25 13a.75.75 0 01.75-.75h3a.75.75 0 010 1.5h-3a.75.75 0 01-.75-.75zm.75 3.25a.75.75 0 000 1.5h3a.75.75 0 000-1.5h-3zM8 13a1 1 0 11-2 0 1 1 0 012 0zm-1 5a1 1 0 100-2 1 1 0 000 2z"/>
</svg>
