<svg xmlns="http://www.w3.org/2000/svg" width="24" height="24" fill="currentColor" viewBox="0 0 24 24">
  <path fill="#0000ff" fill-rule="evenodd" d="M11 2.75a8.25 8.25 0 104.71 15.024l.018-.012c.256-.179.474-.33.654-.441.175-.108.392-.228.637-.275.345-.066.632-.041.96.085.22.085.398.221.545.35.141.124.303.286.486.468l.016.016 2.504 2.505a.75.75 0 11-1.06 1.06l-2.505-2.504c-.203-.204-.33-.33-.43-.417a.823.823 0 00-.102-.08.468.468 0 00-.06-.018h-.014a.413.413 0 00-.043.006c-.009.004-.052.022-.148.081-.139.086-.322.213-.6.407A9.708 9.708 0 0111 20.75c-5.385 0-9.75-4.365-9.75-9.75S5.615 1.25 11 1.25s9.75 4.365 9.75 9.75a9.723 9.723 0 01-.765 3.792.75.75 0 01-1.382-.584A8.25 8.25 0 0011 2.75z"/>
</svg>
