<svg xmlns="http://www.w3.org/2000/svg" width="24" height="24" fill="currentColor" viewBox="0 0 24 24">
  <path fill="#0000ff" fill-rule="evenodd" d="M19.75 2.736c-.483.089-1.116.265-2.026.52L7.498 6.12c-1.429.4-2.453.688-3.175.957-.766.284-.985.48-1.041.573a1.25 1.25 0 00-.057 1.197c.048.098.247.313.983.669.693.335 1.686.718 3.071 1.25l2.05.788c.755.291.962.36 1.15.363.192.005.383-.036.558-.118.169-.08.33-.226.903-.799l1.03-1.03.5-.5a.75.75 0 011.06 1.061l-.5.5L13 12.06l-.08.08c-.452.454-.807.81-1.245 1.015-.384.18-.805.27-1.229.261-.483-.01-.952-.191-1.55-.421l-.106-.041-2.05-.789-.036-.014c-1.34-.515-2.392-.92-3.15-1.286-.721-.349-1.38-.751-1.677-1.362A2.75 2.75 0 012 6.868c.353-.58 1.047-.919 1.799-1.198.788-.293 1.873-.597 3.256-.985l.038-.01L17.32 1.812l.036-.01c.865-.243 1.564-.438 2.123-.541.561-.103 1.106-.139 1.61.052a2.75 2.75 0 011.598 1.598c.19.504.155 1.049.052 1.61-.103.559-.298 1.258-.54 2.123l-.01.036-2.864 10.226-.01.038c-.388 1.383-.692 2.468-.985 3.256-.28.752-.618 1.445-1.198 1.799a2.75 2.75 0 01-2.636.124c-.61-.297-1.013-.956-1.362-1.678-.365-.757-.77-1.809-1.286-3.15l-.014-.036-.188-.49-.192-.5a.75.75 0 011.4-.538l.192.5.189.49c.532 1.384.915 2.377 1.25 3.071.355.735.57.935.668.983a1.25 1.25 0 001.198-.057c.093-.056.289-.275.573-1.04.269-.723.556-1.748.957-3.176l2.863-10.226c.255-.91.431-1.543.52-2.025.09-.488.062-.698.02-.81a1.25 1.25 0 00-.726-.725c-.11-.042-.32-.07-.809.02z"/>
</svg>
