<svg xmlns="http://www.w3.org/2000/svg" width="24" height="24" fill="currentColor" viewBox="0 0 24 24">
  <path fill="#0000ff" fill-rule="evenodd" d="M14.53 10.53a.75.75 0 10-1.06-1.06l-2.68 2.68c-.224-.12-.477-.218-.776-.333l-.072-.028L6.069 10.3a.75.75 0 00-.538 1.4l3.872 1.49c.525.201.663.26.774.339.114.08.213.18.294.294.079.11.138.249.34.774l1.412 3.672a.75.75 0 101.4-.538l-1.412-3.673-.028-.072c-.115-.3-.212-.552-.332-.776l2.68-2.68z" opacity=".4"/>
  <path fill="#0000ff" fill-rule="evenodd" d="M19.75 2.736c-.483.089-1.116.265-2.026.52L5.424 6.7c-.574.16-.986.276-1.287.372-.32.101-.436.158-.47.18a1.25 1.25 0 00-.095 2.026c.031.025.142.092.45.223.291.123.69.277 1.247.491l1 .385a.75.75 0 11-.538 1.4l-1-.385-.015-.005a44.48 44.48 0 01-1.28-.506c-.303-.128-.589-.263-.797-.428a2.75 2.75 0 01.21-4.459c.223-.145.52-.252.834-.352.329-.104.766-.226 1.322-.382l.015-.004 12.3-3.444.036-.01c.865-.243 1.564-.438 2.123-.541.561-.103 1.106-.139 1.61.052a2.75 2.75 0 011.598 1.598c.19.504.155 1.049.052 1.61-.103.559-.298 1.258-.54 2.123l-.01.036-3.445 12.3-.004.015c-.156.556-.278.993-.383 1.322-.1.314-.206.61-.352.834a2.75 2.75 0 01-4.458.21c-.165-.209-.3-.494-.429-.797-.135-.317-.297-.74-.505-1.28l-.005-.015-.385-1a.75.75 0 011.4-.538l.385 1c.214.557.367.956.49 1.247.132.308.199.419.224.45.53.669 1.56.62 2.026-.095.022-.034.078-.15.18-.47.095-.301.21-.713.372-1.287l3.444-12.3c.255-.91.431-1.543.52-2.025.09-.488.062-.698.02-.81a1.25 1.25 0 00-.726-.725c-.11-.042-.32-.07-.809.02z"/>
</svg>
