<svg xmlns="http://www.w3.org/2000/svg" width="24" height="24" fill="currentColor" viewBox="0 0 24 24">
  <path fill="#0000ff" fill-rule="evenodd" d="M3.75 5c0-.086.052-.287.421-.579.362-.285.932-.574 1.702-.83 1.534-.512 3.7-.841 6.127-.841 2.427 0 4.593.329 6.127.84.77.257 1.34.546 1.701.831.37.292.422.493.422.579 0 .086-.052.287-.422.579-.361.285-.93.574-1.701.83-1.534.512-3.7.841-6.127.841-2.427 0-4.593-.329-6.127-.84-.77-.257-1.34-.546-1.702-.831-.37-.292-.421-.493-.421-.579zm16.5 2.103a8.448 8.448 0 01-1.649.73c-1.724.574-4.057.917-6.601.917-2.543 0-4.877-.343-6.601-.917a8.449 8.449 0 01-1.649-.73V12c0 .086.052.287.421.579.362.285.932.574 1.702.83 1.534.512 3.7.841 6.127.841 2.427 0 4.593-.329 6.127-.84.77-.257 1.34-.546 1.701-.831.37-.292.422-.493.422-.579V7.103zM21.75 12V5c0-.743-.452-1.33-.993-1.757-.55-.433-1.298-.79-2.156-1.076-1.724-.574-4.057-.917-6.601-.917-2.543 0-4.877.343-6.601.917-.858.286-1.607.643-2.156 1.076C2.703 3.67 2.25 4.257 2.25 5v14c0 .742.452 1.33.993 1.757.55.433 1.298.79 2.156 1.076 1.724.575 4.058.917 6.601.917s4.877-.343 6.601-.917c.858-.286 1.607-.643 2.156-1.076.54-.427.993-1.015.993-1.757v-7zm-1.5 2.103a8.443 8.443 0 01-1.649.73c-1.724.575-4.057.917-6.601.917-2.543 0-4.877-.342-6.601-.917a8.444 8.444 0 01-1.649-.73V19c0 .086.052.287.421.579.362.285.932.574 1.702.83 1.534.512 3.7.841 6.127.841 2.427 0 4.593-.329 6.127-.84.77-.257 1.34-.546 1.701-.831.37-.292.422-.493.422-.579v-4.897z"/>
</svg>
