<svg xmlns="http://www.w3.org/2000/svg" width="24" height="24" fill="currentColor" viewBox="0 0 24 24">
  <path fill="#0000ff" d="M2.602 13.439c.122-1.742.184-2.612.421-3.328a6 6 0 014.21-3.924C7.963 6 8.837 6 10.583 6h2.835c1.745 0 2.618 0 3.35.187a6 6 0 014.209 3.924c.237.716.299 1.586.421 3.328.139 1.976.208 2.964.042 3.772a6 6 0 01-4.256 4.566c-.795.223-1.785.223-3.766.223h-2.836c-1.98 0-2.971 0-3.766-.223a6 6 0 01-4.256-4.566c-.166-.808-.097-1.796.042-3.772z" opacity=".12"/>
  <path fill="#0000ff" fill-rule="evenodd" d="M8.834 5.262a3.251 3.251 0 016.332 0c-.46-.012-.99-.012-1.618-.012H10.452c-.629 0-1.158 0-1.618.012zM7.25 6.96V8a.75.75 0 101.5 0V6.766a63.925 63.925 0 011.832-.016h2.836c.784 0 1.37.001 1.832.016V8a.75.75 0 001.5 0V6.96a5.25 5.25 0 013.515 3.387c.2.604.26 1.358.385 3.145.143 2.027.196 2.886.055 3.568a5.25 5.25 0 01-3.724 3.995c-.67.188-1.53.195-3.563.195h-2.836c-2.032 0-2.893-.007-3.563-.195a5.25 5.25 0 01-3.724-3.995c-.14-.682-.087-1.54.055-3.568.126-1.787.185-2.54.385-3.145A5.25 5.25 0 017.25 6.959zm.037-1.554a4.75 4.75 0 019.426 0 6.75 6.75 0 014.976 4.47c.267.806.334 1.764.448 3.38v.001l.01.13.01.15c.129 1.833.205 2.916.017 3.827a6.75 6.75 0 01-4.787 5.136c-.896.251-1.981.251-3.818.251H10.432c-1.838 0-2.923 0-3.819-.25a6.75 6.75 0 01-4.787-5.137c-.188-.91-.112-1.994.017-3.826l.01-.15.01-.131c.114-1.617.18-2.575.448-3.381a6.75 6.75 0 014.976-4.47z"/>
</svg>
