<svg xmlns="http://www.w3.org/2000/svg" width="24" height="24" fill="currentColor" viewBox="0 0 24 24">
  <path fill="#0000ff" fill-rule="evenodd" d="M7.287 5.405a6.75 6.75 0 00-4.976 4.47c-.267.806-.334 1.764-.448 3.381l-.01.13-.01.15c-.129 1.833-.205 2.916-.017 3.827a6.75 6.75 0 004.787 5.136c.896.251 1.981.251 3.818.251H13.568c1.838 0 2.923 0 3.819-.25a6.75 6.75 0 004.787-5.137c.188-.91.112-1.994-.017-3.826l-.01-.15-.01-.131c-.114-1.617-.18-2.575-.448-3.381a6.75 6.75 0 00-4.976-4.47 4.75 4.75 0 00-9.426 0zm1.547-.143a3.251 3.251 0 016.332 0c-.46-.012-.99-.012-1.618-.012H10.452c-.629 0-1.158 0-1.618.012z"/>
</svg>
