<svg xmlns="http://www.w3.org/2000/svg" width="24" height="24" fill="currentColor" viewBox="0 0 24 24">
  <path fill="#0000ff" fill-rule="evenodd" d="M12 2.75A3.25 3.25 0 008.75 6v2a.75.75 0 01-1.5 0V6a4.75 4.75 0 019.5 0v2a.75.75 0 01-1.5 0V6A3.25 3.25 0 0012 2.75z" opacity=".4"/>
  <path fill="#0000ff" fill-rule="evenodd" d="M10.452 5.25H13.548c1.622 0 2.582 0 3.405.21a6.75 6.75 0 014.736 4.415c.267.806.334 1.764.448 3.381l.01.13.01.15c.129 1.833.205 2.916.017 3.827a6.75 6.75 0 01-4.787 5.136c-.896.251-1.981.251-3.818.251H10.432c-1.838 0-2.923 0-3.819-.25a6.75 6.75 0 01-4.787-5.137c-.188-.91-.112-1.994.017-3.826l.01-.15.01-.131c.114-1.617.18-2.575.448-3.381A6.75 6.75 0 017.047 5.46c.823-.21 1.783-.21 3.405-.21zm.13 1.5c-1.79 0-2.547.006-3.163.163a5.25 5.25 0 00-3.684 3.434c-.2.604-.26 1.358-.385 3.145-.142 2.027-.196 2.886-.055 3.568a5.25 5.25 0 003.724 3.995c.67.188 1.53.195 3.563.195h2.836c2.032 0 2.893-.007 3.563-.195a5.25 5.25 0 003.724-3.995c.14-.682.088-1.54-.055-3.568-.126-1.787-.185-2.54-.385-3.145a5.25 5.25 0 00-3.684-3.434c-.616-.157-1.372-.163-3.163-.163h-2.836z"/>
</svg>
