<?xml version="1.0" encoding="UTF-8" standalone="no"?>
<svg
   height="48"
   width="48"
   viewbox="0 0 48 48">
  <path
     fill="#0000ff"
     d="m 2,14.592937 c 0.023255,0.405911 0.1627867,0.764068 0.4185946,1.074472 0.2558078,0.310403 0.593009,0.465605 1.0116037,0.465605 H 40.894415 l -3.348756,3.43831 c -0.302319,0.310403 -0.453478,0.668561 -0.453478,1.074473 0,0.405911 0.151159,0.764069 0.453478,1.074472 0.302318,0.310403 0.651147,0.465604 1.046486,0.465604 0.39534,0 0.744168,-0.155201 1.046487,-0.465604 l 5.895207,-6.052861 c 0.302318,-0.310403 0.453478,-0.66856 0.453478,-1.074472 0,-0.405911 -0.15116,-0.764068 -0.453478,-1.074471 L 39.638632,7.4656052 C 39.336313,7.1552021 38.987485,7 38.592145,7 c -0.395339,0 -0.744168,0.1552021 -1.046486,0.4656052 -0.302319,0.3104031 -0.453478,0.6685601 -0.453478,1.074472 0,0.4059119 0.151159,0.7640689 0.453478,1.074472 l 3.38364,3.4741268 H 3.4650811 c -0.4185946,0 -0.7674235,0.143262 -1.0464865,0.429789 C 2.1395315,13.804991 2,14.163148 2,14.592937 Z"
     id="path2"
     sodipodi:nodetypes="csscssssssssssssscssc"
     style="stroke-width:0.999743" />
  <path
     fill="#0000ff"
     d="m 2.0126833,33.407063 c 0.023255,0.405912 0.1627872,0.764069 0.4185946,1.074472 0.2558083,0.310403 0.5930092,0.465605 1.0116038,0.465605 H 40.907098 l -3.348756,3.438311 c -0.302318,0.310403 -0.453478,0.668561 -0.453478,1.074473 0,0.405911 0.15116,0.764069 0.453478,1.074472 C 37.86066,40.844799 38.209489,41 38.604828,41 c 0.39534,0 0.744168,-0.155201 1.046487,-0.465604 l 5.895207,-6.052861 C 45.84884,34.171132 46,33.812975 46,33.407063 46,33.001151 45.84884,32.642994 45.546522,32.332591 l -5.895207,-6.052859 c -0.302319,-0.310403 -0.651147,-0.465605 -1.046487,-0.465605 -0.395339,0 -0.744168,0.155202 -1.046486,0.465605 -0.302318,0.310403 -0.453478,0.66856 -0.453478,1.074472 0,0.405912 0.15116,0.764069 0.453478,1.074472 l 3.38364,3.474126 H 3.4777642 c -0.4185945,0 -0.767423,0.143263 -1.0464863,0.429789 -0.2790634,0.286526 -0.4185946,0.644683 -0.4185946,1.074472 z"
     id="path2-5"
     sodipodi:nodetypes="csscssssssssssssscssc"
     style="stroke-width:0.999743" />
</svg>
