<svg xmlns="http://www.w3.org/2000/svg" width="24" height="24" fill="currentColor" viewBox="0 0 24 24">
  <path fill="#0000ff" fill-rule="evenodd" d="M15 1.25h-.052c-.899 0-1.648 0-2.243.08-.628.085-1.195.27-1.65.727-.455.456-.64 1.024-.725 1.653-.08.596-.08 1.346-.08 2.247v.104c0 .9 0 1.65.08 2.247.084.628.27 1.196.725 1.652.625.626 1.468.75 2.414.79a.75.75 0 00.062-1.5c-.927-.038-1.23-.166-1.414-.35-.13-.13-.238-.329-.3-.792-.065-.484-.067-1.133-.067-2.1 0-.965.002-1.615.067-2.099.062-.463.17-.661.3-.792.13-.13.327-.238.789-.3.482-.065 1.13-.067 2.094-.067s1.611.002 2.094.067c.462.062.659.17.79.3.13.13.237.33.3.792.064.484.066 1.134.066 2.1 0 .966-.002 1.615-.067 2.1-.062.462-.17.66-.3.792-.183.183-.487.311-1.414.35a.75.75 0 00.062 1.498c.946-.04 1.79-.163 2.414-.789.455-.456.64-1.024.725-1.652.059-.437.074-.957.078-1.558H22a.75.75 0 000-1.5h-2.252c-.004-.594-.02-1.108-.078-1.54-.084-.63-.27-1.197-.725-1.653-.455-.456-1.022-.642-1.65-.727-.595-.08-1.345-.08-2.243-.08H15zm-13 16a.75.75 0 000 1.5h2.252c.004.594.02 1.108.078 1.54.084.629.27 1.197.725 1.653.455.456 1.022.642 1.65.727.595.08 1.344.08 2.243.08h.104c.899 0 1.648 0 2.243-.08.628-.085 1.195-.27 1.65-.727.455-.457.64-1.024.725-1.653.08-.596.08-1.346.08-2.247v-.104c0-.9 0-1.651-.08-2.247-.084-.629-.27-1.196-.725-1.652-.625-.626-1.468-.75-2.414-.79a.75.75 0 10-.062 1.5c.927.038 1.23.165 1.414.35.13.13.238.329.3.792.065.484.067 1.133.067 2.1 0 .965-.002 1.614-.067 2.099-.062.463-.17.661-.3.792-.13.13-.327.238-.789.3-.482.065-1.13.067-2.094.067s-1.611-.002-2.094-.067c-.462-.062-.659-.17-.79-.3-.13-.13-.237-.33-.3-.792-.064-.485-.066-1.134-.066-2.1 0-.966.002-1.615.067-2.1.062-.462.17-.66.3-.792.183-.184.487-.311 1.414-.35a.75.75 0 10-.062-1.498c-.946.039-1.79.163-2.414.789-.455.456-.64 1.024-.725 1.652-.059.437-.074.957-.079 1.558H2zm13.25.75a.75.75 0 01.75-.75h6a.75.75 0 010 1.5h-6a.75.75 0 01-.75-.75zM2 5.25a.75.75 0 000 1.5h6a.75.75 0 100-1.5H2z"/>
</svg>
