<svg xmlns="http://www.w3.org/2000/svg" width="24" height="24" fill="currentColor" viewBox="0 0 24 24">
  <path fill="#0000ff" fill-rule="evenodd" d="M14.2 1.25h-.03c-.535 0-.98 0-1.345.03-.38.03-.736.098-1.073.27a2.75 2.75 0 00-1.202 1.202c-.172.337-.24.693-.27 1.073-.03.365-.03.81-.03 1.345V6.83c0 .535 0 .98.03 1.345.03.38.098.736.27 1.073a2.75 2.75 0 001.201 1.202c.338.172.694.24 1.074.27.365.03.81.03 1.345.03H15.83c.535 0 .98 0 1.345-.03.38-.03.736-.098 1.073-.27a2.75 2.75 0 001.202-1.202c.172-.337.24-.693.27-1.073.03-.365.03-.81.03-1.345v-.08H22a.75.75 0 000-1.5h-2.25v-.08c0-.535 0-.98-.03-1.345-.03-.38-.098-.736-.27-1.073A2.75 2.75 0 0018.25 1.55c-.338-.172-.694-.24-1.074-.27-.365-.03-.81-.03-1.345-.03H14.2zM2 17.25a.75.75 0 000 1.5h2.25v.08c0 .535 0 .98.03 1.345.03.38.098.736.27 1.073a2.75 2.75 0 001.202 1.202c.337.172.693.24 1.073.27.365.03.81.03 1.344.03H9.83c.535 0 .98 0 1.345-.03.38-.03.736-.098 1.073-.27a2.751 2.751 0 001.202-1.201c.172-.338.24-.694.27-1.074.03-.364.03-.81.03-1.345V17.17c0-.535 0-.98-.03-1.345-.03-.38-.098-.736-.27-1.073a2.751 2.751 0 00-1.201-1.202c-.338-.172-.694-.24-1.074-.27-.365-.03-.81-.03-1.345-.03H8.17c-.535 0-.98 0-1.345.03-.38.03-.736.098-1.073.27A2.75 2.75 0 004.55 14.75c-.172.338-.24.694-.27 1.074-.03.365-.03.81-.03 1.345v.08H2zm13.25.75a.75.75 0 01.75-.75h6a.75.75 0 010 1.5h-6a.75.75 0 01-.75-.75zM2 5.25a.75.75 0 000 1.5h6a.75.75 0 100-1.5H2z"/>
</svg>
