<svg xmlns="http://www.w3.org/2000/svg" width="24" height="24" fill="currentColor" viewBox="0 0 24 24">
  <path fill="#0000ff" fill-rule="evenodd" d="M13.178.987a2.75 2.75 0 00-2.356 0c-.517.245-.883.709-1.207 1.233-.327.526-.685 1.242-1.13 2.134l-.018.035-.36.719c-.305.61-.394.771-.505.888a1.25 1.25 0 01-.406.283c-.149.064-.33.092-1.009.168l-.326.036-.04.004c-1.07.12-1.926.214-2.573.346-.64.13-1.235.322-1.651.748a2.75 2.75 0 00-.76 2.302c.081.59.445 1.099.881 1.583.442.492 1.073 1.078 1.862 1.81l.03.027.344.32c.598.556.751.713.837.88.089.173.136.364.138.558.002.188-.062.402-.336 1.183l-.013.037c-.404 1.152-.724 2.064-.906 2.774-.176.69-.275 1.367-.045 1.953a2.75 2.75 0 001.885 1.66c.609.155 1.262-.024 1.918-.283.674-.266 1.526-.692 2.601-1.23l.036-.017.835-.418c.564-.282.718-.351.866-.38a1.25 1.25 0 01.46 0c.148.029.302.098.866.38l.836.418.035.017c1.075.538 1.928.964 2.6 1.23.657.258 1.31.438 1.92.284a2.75 2.75 0 001.884-1.661c.23-.586.131-1.264-.045-1.953-.182-.71-.502-1.622-.906-2.774l-.013-.037c-.274-.78-.338-.995-.336-1.183a1.25 1.25 0 01.138-.558c.086-.167.24-.324.838-.88l.344-.32.029-.026c.79-.733 1.42-1.32 1.862-1.81.436-.485.8-.994.881-1.584a2.75 2.75 0 00-.76-2.302c-.416-.426-1.012-.618-1.65-.748-.648-.132-1.504-.227-2.575-.346l-.039-.004-.326-.036c-.68-.076-.86-.104-1.008-.168a1.25 1.25 0 01-.407-.283c-.111-.117-.2-.277-.506-.888l-.359-.719-.017-.035c-.446-.892-.804-1.608-1.13-2.134-.325-.524-.691-.988-1.207-1.233z"/>
</svg>
