<svg xmlns="http://www.w3.org/2000/svg" width="24" height="24" fill="currentColor" viewBox="0 0 24 24">
  <path fill="#0000ff" fill-rule="evenodd" d="M10.822.987a2.75 2.75 0 012.357 0c.516.245.882.709 1.207 1.233.326.526.684 1.242 1.13 2.134l.017.035.36.719c.305.61.394.771.505.888.116.12.254.217.407.283.148.064.329.092 1.008.168l1.845.205.016.002c.443.049.798.088 1.074.13.27.04.529.091.752.185a2.75 2.75 0 011.302 3.943 3.21 3.21 0 01-.494.597c-.198.198-.459.44-.786.744l-.012.01-1 .93a.75.75 0 01-1.02-1.1l1-.928c.341-.317.581-.54.756-.715.18-.18.244-.266.268-.305a1.25 1.25 0 00-.592-1.793 1.92 1.92 0 00-.397-.085c-.244-.037-.57-.073-1.033-.124l-1.845-.205-.094-.01c-.54-.06-.964-.107-1.346-.273a2.751 2.751 0 01-.893-.623c-.288-.301-.478-.683-.72-1.168l-.043-.086-.36-.718c-.467-.935-.795-1.589-1.08-2.05-.293-.472-.468-.616-.575-.667a1.25 1.25 0 00-1.072 0c-.107.05-.282.195-.574.667-.286.461-.614 1.115-1.081 2.05l-.138.275-.25.5a.75.75 0 11-1.342-.67l.25-.5.138-.276.018-.035c.445-.892.803-1.608 1.13-2.134.324-.524.69-.988 1.207-1.233z" opacity=".4"/>
  <path fill="#0000ff" fill-rule="evenodd" d="M10.335 2.33a.75.75 0 01.336 1.005l-.5 1-.722 1.443-.042.086c-.243.485-.433.867-.72 1.168a2.75 2.75 0 01-.894.623c-.382.166-.806.213-1.346.272l-.094.01-.327.037c-1.119.124-1.906.213-2.48.33-.59.12-.796.243-.878.327a1.25 1.25 0 00-.346 1.046c.017.117.109.339.511.786.391.435.972.975 1.797 1.741l.344.32.084.078c.474.439.845.783 1.067 1.216.195.38.3.8.304 1.227.005.487-.165.97-.381 1.585l-.04.11c-.42 1.198-.717 2.048-.88 2.687-.171.667-.144.927-.103 1.033.147.375.466.656.857.755.111.028.37.023 1-.226.604-.238 1.397-.634 2.516-1.193l.835-.418.079-.04c.448-.224.8-.4 1.18-.471a2.75 2.75 0 011.015 0c.38.071.733.247 1.181.472l.079.04.835.417c1.118.56 1.912.955 2.516 1.193.63.248.888.254 1 .226.39-.1.71-.38.857-.755.041-.106.068-.366-.102-1.033-.164-.639-.462-1.49-.882-2.686a95.499 95.499 0 00-.039-.111c-.216-.616-.386-1.098-.38-1.585a2.75 2.75 0 01.303-1.227c.222-.433.593-.777 1.067-1.216l.084-.078.464-.43 1-.93a.75.75 0 011.02 1.1l-1 .929-.464.43c-.598.556-.751.713-.837.88a1.25 1.25 0 00-.138.558c-.002.188.062.402.336 1.183l.013.037c.404 1.152.724 2.064.906 2.774.176.69.275 1.367.045 1.953a2.75 2.75 0 01-1.885 1.66c-.609.155-1.262-.024-1.918-.283-.674-.266-1.526-.692-2.601-1.23l-.035-.017-.836-.418c-.564-.282-.718-.351-.866-.38a1.25 1.25 0 00-.46 0c-.148.029-.302.098-.866.38l-.836.418-.035.017c-1.075.538-1.928.964-2.6 1.23-.657.258-1.31.438-1.92.284a2.75 2.75 0 01-1.884-1.661c-.23-.586-.131-1.264.045-1.953.182-.71.502-1.622.906-2.774l.013-.037c.274-.78.338-.995.336-1.183a1.25 1.25 0 00-.138-.558c-.086-.167-.24-.324-.838-.88l-.344-.32-.029-.026c-.79-.733-1.42-1.32-1.862-1.81-.436-.485-.8-.994-.881-1.584a2.75 2.75 0 01.76-2.302c.416-.425 1.012-.618 1.65-.748.648-.131 1.504-.227 2.575-.346l.039-.004.326-.036c.68-.076.86-.104 1.009-.168a1.25 1.25 0 00.405-.283c.112-.117.201-.277.507-.888l.721-1.443.5-1a.75.75 0 011.006-.336z"/>
</svg>
