<svg xmlns="http://www.w3.org/2000/svg" width="24" height="24" fill="currentColor" viewBox="0 0 24 24">
  <path fill="#0000ff" fill-rule="evenodd" d="M10.822.987a2.75 2.75 0 012.356 0c.517.245.883.709 1.207 1.233.327.526.685 1.242 1.13 2.134l.018.035.36.718c.305.612.394.772.505.889.116.12.254.217.406.283.149.064.33.092 1.009.168l.326.036.04.004c1.07.12 1.926.214 2.574.346.638.13 1.234.322 1.65.748a2.75 2.75 0 01.76 2.302c-.081.59-.445 1.099-.881 1.583-.442.492-1.073 1.077-1.862 1.81l-.03.027-.344.32c-.598.556-.751.713-.837.88a1.25 1.25 0 00-.138.558c-.002.188.062.402.336 1.183l.013.037c.404 1.152.724 2.064.906 2.774.176.69.275 1.367.045 1.953a2.75 2.75 0 01-1.885 1.66c-.609.155-1.262-.025-1.918-.283-.674-.266-1.526-.692-2.601-1.23l-.035-.017-.836-.418c-.564-.282-.718-.351-.866-.38a1.254 1.254 0 00-.46 0c-.148.029-.302.098-.866.38l-.836.418-.035.017c-1.075.538-1.928.964-2.6 1.23-.657.258-1.31.438-1.92.284a2.75 2.75 0 01-1.884-1.661c-.23-.586-.131-1.264.045-1.953.182-.71.502-1.622.906-2.774l.013-.037c.274-.78.338-.995.336-1.183a1.25 1.25 0 00-.138-.558c-.086-.167-.24-.324-.838-.88l-.344-.32-.029-.026c-.79-.733-1.42-1.32-1.862-1.81-.436-.485-.8-.994-.881-1.584a2.75 2.75 0 01.76-2.302c.416-.426 1.012-.618 1.65-.748.648-.132 1.504-.227 2.575-.346l.039-.004.326-.036c.68-.076.86-.104 1.009-.168a1.25 1.25 0 00.405-.283c.112-.117.201-.277.507-.889l.359-.718.017-.035c.446-.892.804-1.608 1.13-2.134.325-.524.691-.988 1.207-1.233zm1.714 1.356a1.25 1.25 0 00-1.072 0c-.107.05-.282.195-.574.667-.286.461-.614 1.115-1.081 2.05l-.36.718-.042.086c-.243.485-.433.867-.72 1.168a2.75 2.75 0 01-.894.623c-.382.166-.806.213-1.346.272l-.094.01-.327.037c-1.119.124-1.906.213-2.48.33-.59.12-.796.243-.878.327a1.25 1.25 0 00-.346 1.046c.017.117.109.338.511.786.391.435.972.975 1.797 1.741l.344.32.084.078c.474.439.845.783 1.067 1.216.195.38.3.8.304 1.227.005.487-.165.97-.381 1.585l-.04.11c-.42 1.198-.717 2.048-.88 2.687-.171.667-.144.927-.103 1.033.147.375.466.656.857.755.111.028.37.023 1-.226.604-.238 1.397-.634 2.516-1.193l.835-.418.079-.04c.448-.224.8-.4 1.18-.471a2.75 2.75 0 011.015 0c.38.071.733.247 1.181.472l.079.04.835.417c1.118.56 1.912.955 2.516 1.193.63.248.888.254 1 .226.39-.1.71-.38.857-.755.041-.106.068-.366-.102-1.033-.164-.639-.462-1.49-.882-2.687l-.039-.11c-.216-.616-.386-1.098-.38-1.585a2.75 2.75 0 01.303-1.227c.222-.433.593-.777 1.067-1.216l.084-.078.344-.32c.825-.766 1.405-1.306 1.797-1.74.402-.449.494-.67.51-.787a1.25 1.25 0 00-.345-1.046c-.082-.084-.288-.208-.879-.328-.573-.117-1.36-.205-2.48-.33l-.326-.035-.094-.01c-.54-.06-.964-.107-1.346-.273a2.751 2.751 0 01-.893-.623c-.288-.301-.479-.683-.72-1.168a67.233 67.233 0 00-.043-.086l-.36-.718c-.467-.935-.795-1.589-1.08-2.05-.293-.472-.468-.617-.575-.667z"/>
</svg>
