<svg xmlns="http://www.w3.org/2000/svg" width="24" height="24" fill="currentColor" viewBox="0 0 24 24">
  <path fill="#0000ff" fill-rule="evenodd" d="M14.188 3.96a3.75 3.75 0 013.623 0c.466.256.89.68 1.512 1.302l.088.088.08.08c.57.57.962.961 1.21 1.395a3.75 3.75 0 01.163 3.418c-.207.455-.559.881-1.073 1.504l-.072.087-.367.444c.226.018.429.049.619.1a3.75 3.75 0 012.651 2.651c.128.479.128 1.037.128 1.855v.643c0 .676 0 1.221-.03 1.665-.031.457-.097.86-.255 1.243a3.75 3.75 0 01-2.03 2.03c-.382.158-.786.224-1.242.255-.445.03-.99.03-1.666.03H8a.75.75 0 110-1.5h9.5c.71 0 1.203 0 1.59-.027.38-.026.602-.074.771-.144a2.25 2.25 0 001.218-1.218c.07-.17.118-.39.144-.77.027-.388.027-.882.027-1.591V17c0-.978-.006-1.32-.077-1.582a2.25 2.25 0 00-1.59-1.591c-.25-.067-.572-.076-1.447-.077l-5.558 6.728a.75.75 0 11-1.156-.956l7.14-8.643c.614-.744.823-1.007.936-1.256a2.25 2.25 0 00-.097-2.05c-.137-.239-.37-.48-1.051-1.162-.743-.743-1.008-.998-1.264-1.138a2.25 2.25 0 00-2.173 0c-.256.14-.52.395-1.264 1.138L12.53 7.53a.75.75 0 11-1.06-1.06l1.118-1.12.088-.088c.621-.621 1.045-1.045 1.512-1.303zM8 17a1 1 0 11-2 0 1 1 0 012 0z" opacity=".4"/>
  <path fill="#0000ff" fill-rule="evenodd" d="M6.768 1.25H7.232c.813 0 1.469 0 2 .043.546.045 1.026.14 1.47.366a3.75 3.75 0 011.64 1.639c.226.444.32.924.365 1.47.043.531.043 1.187.043 2V22a.75.75 0 01-.75.75H6.768c-.813 0-1.469 0-2-.043-.546-.045-1.026-.14-1.47-.366a3.75 3.75 0 01-1.64-1.639c-.226-.444-.32-.924-.365-1.47-.043-.531-.043-1.187-.043-2V6.768c0-.813 0-1.469.043-2 .045-.546.14-1.026.366-1.47a3.75 3.75 0 011.639-1.64c.444-.226.924-.32 1.47-.365.531-.043 1.187-.043 2-.043zM4.89 2.788c-.454.037-.715.107-.912.207a2.25 2.25 0 00-.984.984c-.1.197-.17.458-.207.912-.037.462-.038 1.057-.038 1.909v10.4c0 .852 0 1.447.038 1.91.037.453.107.714.207.912.216.423.56.767.984.983.197.1.458.17.912.207.462.037 1.057.038 1.909.038h4.45V6.8c0-.852 0-1.447-.038-1.91-.037-.453-.107-.714-.207-.911a2.25 2.25 0 00-.984-.984c-.197-.1-.458-.17-.912-.207-.462-.037-1.057-.038-1.909-.038h-.4c-.852 0-1.447 0-1.91.038z"/>
</svg>
