<svg xmlns="http://www.w3.org/2000/svg" width="24" height="24" fill="currentColor" viewBox="0 0 24 24">
  <path fill="#0000ff" fill-rule="evenodd" d="M6.8 1.25h-.032c-.813 0-1.469 0-2 .043-.546.045-1.026.14-1.47.366a3.75 3.75 0 00-1.64 1.639c-.226.444-.32.924-.365 1.47-.043.531-.043 1.187-.043 2v10.464c0 .813 0 1.469.043 2 .045.546.14 1.026.366 1.47a3.75 3.75 0 001.639 1.64c.444.226.924.32 1.47.365.531.043 1.187.043 2 .043H17.527c.676 0 1.221 0 1.665-.03.457-.031.86-.097 1.243-.255a3.751 3.751 0 002.03-2.03c.158-.382.224-.786.255-1.242.03-.445.03-.99.03-1.666v-.643c0-.818 0-1.376-.128-1.855a3.75 3.75 0 00-2.651-2.651 3.458 3.458 0 00-.619-.1l.367-.444.072-.087c.514-.623.866-1.049 1.073-1.504a3.75 3.75 0 00-.162-3.418c-.25-.434-.64-.824-1.212-1.395l-.08-.08-.087-.088c-.622-.621-1.046-1.045-1.512-1.303a3.75 3.75 0 00-3.623 0c-.453.25-.865.656-1.456 1.247-.006-.154-.014-.3-.025-.437-.045-.547-.14-1.027-.366-1.471a3.75 3.75 0 00-1.638-1.64c-.445-.226-.925-.32-1.472-.365-.53-.043-1.186-.043-1.999-.043H6.8zM11.25 7v-.2c0-.852 0-1.447-.038-1.91-.037-.453-.107-.714-.207-.911a2.25 2.25 0 00-.984-.984c-.197-.1-.458-.17-.912-.207-.462-.037-1.057-.038-1.909-.038h-.4c-.852 0-1.447 0-1.91.038-.453.037-.714.107-.911.207a2.25 2.25 0 00-.984.984c-.1.197-.17.458-.207.912-.037.462-.038 1.057-.038 1.909v10.4c0 .852 0 1.447.038 1.91.037.453.107.714.207.912.216.423.56.767.984.983.197.1.458.17.912.207.462.037 1.057.038 1.909.038h4.45v-1.245V7zm1.5 10.915V7.31l.9-.899c.742-.743 1.007-.997 1.262-1.138a2.25 2.25 0 012.175 0c.255.14.52.395 1.263 1.138.682.682.914.923 1.05 1.161a2.25 2.25 0 01.098 2.05c-.113.25-.322.513-.936 1.257l-5.812 7.036zm0 2.355v.98h4.75c.71 0 1.203 0 1.59-.027.38-.026.602-.074.771-.144a2.25 2.25 0 001.218-1.218c.07-.169.118-.39.144-.77.027-.388.027-.882.027-1.591V17c0-.978-.006-1.32-.077-1.582a2.25 2.25 0 00-1.59-1.591c-.25-.067-.572-.076-1.447-.077l-5.386 6.52zM8 17a1 1 0 11-2 0 1 1 0 012 0z"/>
</svg>
