<svg xmlns="http://www.w3.org/2000/svg" width="24" height="24" fill="currentColor" viewBox="0 0 24 24">
  <path fill="#0000ff" fill-rule="evenodd" d="M2 7.25a.75.75 0 01.75.75v12a.75.75 0 01-1.5 0V8A.75.75 0 012 7.25z" opacity=".4"/>
  <path fill="#0000ff" fill-rule="evenodd" d="M13.644 1.75a.804.804 0 00-.569.235L8.342 6.72C7.28 7.782 6.838 8.23 6.524 8.742c-.288.47-.5.982-.629 1.518-.14.584-.145 1.213-.145 2.716V16.2c0 .852 0 1.447.038 1.91.037.453.107.714.207.912.216.423.56.767.984.983.197.1.458.17.912.207.462.037 1.057.038 1.909.038h7.082c.742 0 1.257 0 1.661-.031.395-.03.628-.086.812-.17a2.25 2.25 0 00.956-.82c.11-.168.2-.39.29-.776.092-.395.171-.904.284-1.637l.523-3.4c.149-.966.252-1.643.287-2.172.035-.522-.004-.821-.09-1.046a2.25 2.25 0 00-.99-1.154c-.209-.119-.498-.203-1.02-.248-.528-.045-1.213-.046-2.19-.046H16.24c-.418 0-.768 0-1.05-.019-.286-.019-.578-.06-.851-.185a2.25 2.25 0 01-1.313-1.99c-.007-.3.07-.586.165-.857.094-.266.232-.588.396-.971l.01-.023.786-1.835a.804.804 0 00-.738-1.12zm-1.63-.825a2.304 2.304 0 013.747 2.537l-.786 1.833a16.63 16.63 0 00-.37.902c-.075.214-.08.294-.08.321a.75.75 0 00.438.664c.024.011.1.038.326.053s.526.015.975.015h1.176c.934 0 1.684 0 2.284.052.615.053 1.152.165 1.633.438a3.75 3.75 0 011.65 1.924c.197.516.226 1.064.185 1.68-.04.601-.154 1.342-.296 2.266l-.006.034-.523 3.4-.004.03c-.107.697-.194 1.262-.3 1.719-.11.472-.252.882-.496 1.256a3.75 3.75 0 01-1.593 1.367c-.406.184-.834.262-1.317.298-.468.036-1.04.036-1.746.036H9.768c-.813 0-1.469 0-2-.043-.546-.045-1.026-.14-1.47-.366a3.75 3.75 0 01-1.64-1.639c-.226-.444-.32-.924-.365-1.47-.043-.531-.043-1.187-.043-2V12.976v-.103c0-1.369 0-2.186.187-2.963a6.75 6.75 0 01.808-1.952c.418-.681.995-1.259 1.964-2.227l.072-.073L12.015.925z"/>
</svg>
