<svg xmlns="http://www.w3.org/2000/svg" width="24" height="24" fill="currentColor" viewBox="0 0 24 24">
  <path fill="#0000ff" fill-rule="evenodd" d="M12.015.925A2.304 2.304 0 0115.76 3.46l-.786 1.834c-.177.413-.295.689-.37.902-.075.214-.08.294-.08.321a.75.75 0 00.438.664c.024.011.1.038.326.053s.526.015.975.015h1.176c.934 0 1.684 0 2.284.052.615.053 1.152.165 1.633.438a3.75 3.75 0 011.65 1.924c.197.516.226 1.064.185 1.68-.04.601-.154 1.342-.296 2.266l-.006.034-.523 3.4-.004.03c-.107.697-.194 1.262-.3 1.719-.11.472-.252.882-.496 1.256a3.75 3.75 0 01-1.593 1.367c-.407.184-.834.262-1.317.298-.468.036-1.04.036-1.746.036H9.768c-.813 0-1.469 0-2-.043-.546-.045-1.026-.14-1.47-.366a3.75 3.75 0 01-1.64-1.639c-.226-.444-.32-.924-.365-1.47-.043-.531-.043-1.187-.043-2V12.873c0-1.369 0-2.186.186-2.963a6.75 6.75 0 01.809-1.952c.418-.681.995-1.259 1.964-2.227l.072-.073L12.015.925zM2.75 8a.75.75 0 00-1.5 0v12a.75.75 0 001.5 0V8z"/>
</svg>
