<svg xmlns="http://www.w3.org/2000/svg" width="24" height="24" fill="currentColor" viewBox="0 0 24 24">
  <path fill="#0000ff" fill-rule="evenodd" d="M9 5.25a.75.75 0 01.75.75v2a.75.75 0 01-1.5 0V6A.75.75 0 019 5.25zm0 5a.75.75 0 01.75.75v2a.75.75 0 01-1.5 0v-2a.75.75 0 01.75-.75zM9.75 16a.75.75 0 00-1.5 0v2a.75.75 0 001.5 0v-2z" opacity=".4"/>
  <path fill="#0000ff" fill-rule="evenodd" d="M5.53 2.25H18.47c.49 0 .824 0 1.117.046a3.75 3.75 0 013.117 3.117c.046.293.046.627.046 1.118v2.293a.926.926 0 01-.927.926 2.074 2.074 0 00-2.073 2.073v.354c0 1.145.928 2.073 2.073 2.073.512 0 .927.415.927.927V17.47c0 .49 0 .824-.046 1.117a3.75 3.75 0 01-3.117 3.117c-.293.046-.627.046-1.118.046H5.53c-.49 0-.824 0-1.117-.046a3.75 3.75 0 01-3.117-3.117c-.046-.293-.046-.627-.046-1.117V15.177c0-.512.415-.927.926-.927a2.073 2.073 0 002.074-2.073v-.354A2.074 2.074 0 002.176 9.75a.926.926 0 01-.926-.926V6.6v-.07c0-.49 0-.824.046-1.117a3.75 3.75 0 013.117-3.117c.293-.046.627-.046 1.118-.046zm.07 1.5c-.586 0-.792.002-.952.028a2.25 2.25 0 00-1.87 1.87c-.026.16-.028.366-.028.952v1.696c1.701.274 3 1.75 3 3.527v.354c0 1.778-1.299 3.253-3 3.527V17.4c0 .586.002.792.028.952a2.25 2.25 0 001.87 1.87c.16.026.366.028.952.028h12.8c.586 0 .792-.002.952-.028a2.25 2.25 0 001.87-1.87c.026-.16.028-.366.028-.952v-1.696c-1.7-.274-3-1.75-3-3.527v-.354c0-1.778 1.3-3.253 3-3.527V6.6c0-.586-.002-.792-.028-.952a2.25 2.25 0 00-1.87-1.87c-.16-.026-.366-.028-.952-.028H5.6z"/>
</svg>
