<svg xmlns="http://www.w3.org/2000/svg" width="24" height="24" fill="currentColor" viewBox="0 0 24 24">
  <path fill="#0000ff" fill-rule="evenodd" d="M5.6 2.25h-.07c-.49 0-.824 0-1.117.046a3.75 3.75 0 00-3.117 3.117c-.046.293-.046.627-.046 1.118v2.293c0 .511.415.926.926.926 1.146 0 2.074.928 2.074 2.073v.354a2.073 2.073 0 01-2.074 2.073.926.926 0 00-.926.927V17.47c0 .49 0 .824.046 1.117a3.75 3.75 0 003.117 3.117c.293.046.627.046 1.118.046H18.47c.49 0 .824 0 1.117-.046a3.75 3.75 0 003.117-3.117c.046-.293.046-.627.046-1.118v-2.292a.926.926 0 00-.927-.927 2.074 2.074 0 01-2.073-2.073v-.354c0-1.145.928-2.073 2.073-2.073a.926.926 0 00.927-.926V6.53c0-.49 0-.824-.046-1.117a3.75 3.75 0 00-3.117-3.117c-.293-.046-.627-.046-1.117-.046H14a.75.75 0 000 1.5h4.4c.586 0 .792.002.952.028a2.25 2.25 0 011.87 1.87c.026.16.028.366.028.952v1.696c-1.7.274-3 1.75-3 3.527v.354c0 1.778 1.3 3.253 3 3.527V17.4c0 .586-.002.792-.028.952a2.25 2.25 0 01-1.87 1.87c-.16.026-.366.028-.952.028H5.6c-.586 0-.792-.002-.952-.028a2.25 2.25 0 01-1.87-1.87c-.026-.16-.028-.366-.028-.952v-1.696c1.701-.274 3-1.75 3-3.527v-.354c0-1.778-1.299-3.253-3-3.527V6.6c0-.586.002-.792.028-.952a2.25 2.25 0 011.87-1.87c.16-.026.366-.028.952-.028H10a.75.75 0 000-1.5H5.6zM9.75 11a.75.75 0 00-1.5 0v2a.75.75 0 001.5 0v-2zM9 5.25a.75.75 0 01.75.75v2a.75.75 0 01-1.5 0V6A.75.75 0 019 5.25zM9.75 16a.75.75 0 00-1.5 0v2a.75.75 0 001.5 0v-2z"/>
</svg>
