<svg xmlns="http://www.w3.org/2000/svg" width="24" height="24" fill="currentColor" viewBox="0 0 24 24">
  <path fill="#0000ff" fill-rule="evenodd" d="M10.73 1.25h-.109c-.513 0-.962-.002-1.363.156a2.25 2.25 0 00-.903.65c-.276.331-.418.758-.58 1.245l-.034.103-.282.846H2a.75.75 0 000 1.5h1.293l.604 10.27.002.032c.06 1.033.109 1.853.2 2.513.095.676.242 1.246.533 1.764a4.75 4.75 0 002.058 1.94c.534.26 1.111.374 1.792.428.664.053 1.486.053 2.52.053H12.998c1.035 0 1.857 0 2.521-.053.68-.054 1.258-.167 1.792-.427a4.75 4.75 0 002.058-1.941c.291-.518.438-1.088.532-1.764.092-.66.14-1.48.201-2.513l.002-.032.41-6.976a.75.75 0 00-1.497-.088l-.41 6.976c-.063 1.072-.109 1.832-.191 2.426-.082.586-.192.948-.354 1.235a3.25 3.25 0 01-1.408 1.328c-.297.145-.665.234-1.254.28-.598.049-1.36.049-2.434.049h-1.93c-1.074 0-1.836 0-2.434-.048-.59-.047-.957-.136-1.254-.28a3.25 3.25 0 01-1.408-1.329c-.162-.287-.272-.65-.354-1.235-.082-.594-.128-1.354-.19-2.426l-.6-10.182H22a.75.75 0 000-1.5h-5.46l-.281-.846-.035-.103c-.161-.487-.303-.914-.58-1.244a2.25 2.25 0 00-.902-.65c-.4-.159-.85-.158-1.363-.157H10.73zm4.23 3l-.125-.372c-.216-.65-.272-.776-.34-.86a.75.75 0 00-.302-.216c-.1-.04-.237-.052-.923-.052h-2.54c-.686 0-.823.013-.923.052a.75.75 0 00-.301.217c-.07.083-.125.208-.342.86l-.123.371h5.918zM10.75 10a.75.75 0 00-1.5 0v7a.75.75 0 001.5 0v-7zM14 9.25a.75.75 0 01.75.75v4a.75.75 0 01-1.5 0v-4a.75.75 0 01.75-.75z"/>
</svg>
