<svg xmlns="http://www.w3.org/2000/svg" width="24" height="24" fill="currentColor" viewBox="0 0 24 24">
  <path fill="#0000ff" fill-rule="evenodd" d="M15 1.25a.75.75 0 000 1.5 3.25 3.25 0 010 6.5.75.75 0 000 1.5 4.75 4.75 0 100-9.5zm2 12a.75.75 0 000 1.5h1.2a4.05 4.05 0 014.05 4.05 2.45 2.45 0 01-2.45 2.45H17a.75.75 0 000 1.5h2.8a3.95 3.95 0 003.95-3.95 5.55 5.55 0 00-5.55-5.55H17zM3.25 6a4.75 4.75 0 119.5 0 4.75 4.75 0 01-9.5 0zm2.55 7.25A5.55 5.55 0 00.25 18.8a3.95 3.95 0 003.95 3.95h7.6a3.95 3.95 0 003.95-3.95 5.55 5.55 0 00-5.55-5.55H5.8z"/>
</svg>
