<svg xmlns="http://www.w3.org/2000/svg" width="24" height="24" fill="currentColor" viewBox="0 0 24 24">
  <path fill="#0000ff" fill-rule="evenodd" d="M9 2.75a3.25 3.25 0 100 6.5 3.25 3.25 0 000-6.5zM4.25 6a4.75 4.75 0 119.5 0 4.75 4.75 0 01-9.5 0zm-3 12.8a5.55 5.55 0 015.55-5.55h4.4a5.55 5.55 0 015.55 5.55 3.95 3.95 0 01-3.95 3.95H5.2a3.95 3.95 0 01-3.95-3.95zm5.55-4.05a4.05 4.05 0 00-4.05 4.05 2.45 2.45 0 002.45 2.45h7.6a2.45 2.45 0 002.45-2.45 4.05 4.05 0 00-4.05-4.05H6.8zM20.75 7a.75.75 0 00-1.5 0v2.25H17a.75.75 0 000 1.5h2.25V13a.75.75 0 001.5 0v-2.25H23a.75.75 0 000-1.5h-2.25V7z"/>
</svg>
