<svg xmlns="http://www.w3.org/2000/svg" width="24" height="24" fill="currentColor" viewBox="0 0 24 24">
  <path fill="#0000ff" fill-rule="evenodd" d="M9 2.25h-.034c-1.371 0-2.447 0-3.311.07-.88.073-1.607.221-2.265.557A5.75 5.75 0 00.877 5.39C.54 6.048.393 6.775.32 7.655.25 8.519.25 9.595.25 10.966V13.034c0 1.371 0 2.447.07 3.311.073.88.221 1.607.557 2.265a5.75 5.75 0 002.513 2.513c.658.336 1.385.485 2.265.556.864.071 1.94.071 3.311.071H11.034c1.371 0 2.447 0 3.311-.07.88-.072 1.607-.221 2.265-.557a5.75 5.75 0 002.513-2.513c.323-.634.473-1.332.548-2.17.195.145.364.268.512.368.218.146.452.286.707.358a2.25 2.25 0 002.709-1.354c.095-.247.124-.519.137-.78.014-.266.014-.602.014-1.011V9.979c0-.409 0-.745-.014-1.01-.013-.262-.042-.534-.137-.78a2.25 2.25 0 00-2.709-1.355c-.255.072-.49.212-.707.358-.148.1-.317.223-.512.368-.075-.838-.224-1.536-.548-2.17a5.75 5.75 0 00-2.513-2.513c-.658-.336-1.385-.484-2.265-.556-.864-.071-1.94-.071-3.311-.071H9zM18.25 11V13c0 1.412 0 2.427-.066 3.223-.064.787-.188 1.295-.397 1.707a4.251 4.251 0 01-1.857 1.857c-.412.21-.92.333-1.707.397-.796.065-1.81.066-3.223.066H9c-1.413 0-2.427 0-3.223-.066-.787-.064-1.295-.188-1.706-.397a4.25 4.25 0 01-1.858-1.857c-.21-.412-.333-.92-.397-1.707-.065-.796-.066-1.81-.066-3.223v-2c0-1.413 0-2.427.066-3.223.064-.787.188-1.295.397-1.706a4.25 4.25 0 011.858-1.858c.411-.21.919-.333 1.706-.397C6.573 3.75 7.587 3.75 9 3.75h2c1.412 0 2.427 0 3.223.066.787.064 1.295.188 1.707.397a4.25 4.25 0 011.857 1.858c.21.411.333.919.397 1.706.065.796.066 1.81.066 3.223zm1.5 2.034V14c0 .267.002.32.009.365a.75.75 0 00.204.408c.031.032.073.065.287.226.348.261.586.44.77.563.191.129.262.155.277.159a.75.75 0 00.902-.451c.006-.014.028-.087.04-.317.01-.222.011-.519.011-.954v-4c0-.435 0-.732-.012-.954-.011-.23-.033-.302-.038-.316a.75.75 0 00-.903-.452c-.015.004-.086.03-.277.159-.184.124-.422.302-.77.563-.214.16-.256.195-.287.227a.75.75 0 00-.204.408 2.872 2.872 0 00-.009.365V10.914m0 2.12V10.966"/>
</svg>
