<svg xmlns="http://www.w3.org/2000/svg" width="24" height="24" fill="currentColor" viewBox="0 0 24 24">
  <path fill="#0000ff" fill-rule="evenodd" d="M14.302 3.865C13.25 3.751 11.892 3.75 10 3.75c-1.173 0-2.146 0-2.974.028a.75.75 0 01-.052-1.499C7.832 2.25 8.83 2.25 9.99 2.25H10.045c1.837 0 3.276 0 4.418.124 1.166.126 2.11.388 2.917.974.488.355.917.784 1.272 1.272.589.81.854 1.768.98 2.962.217-.155.415-.289.597-.4.4-.245.84-.456 1.323-.444a2.25 2.25 0 011.721.864c.298.381.392.86.434 1.327.043.47.043 1.075.043 1.813V13.192c0 .485 0 .876-.015 1.18-.015.294-.046.601-.156.868a2.25 2.25 0 01-2.94 1.217c-.266-.11-.505-.305-.723-.502a25.948 25.948 0 01-.846-.824l-.015-.015-.024-.024c-.12-.12-.226-.226-.316-.344a2.25 2.25 0 01-.446-1.076c-.02-.147-.02-.296-.019-.465V12c0-1.173 0-2.146-.029-2.974-.063-1.855-.27-2.819-.783-3.524a4.25 4.25 0 00-.94-.94c-.508-.37-1.158-.585-2.196-.697zm5.43 5.504c.018.765.018 1.633.018 2.62V13.172c0 .223.002.267.006.305a.75.75 0 00.149.358 25.67 25.67 0 001.017 1.007c.095.087.166.145.219.183.054.04.075.048.072.047a.75.75 0 00.98-.406c-.001.003.008-.018.018-.084.01-.065.02-.155.026-.284.013-.262.013-.616.013-1.126v-2.393c0-.784 0-1.32-.037-1.714-.037-.405-.102-.514-.122-.54a.75.75 0 00-.574-.288c-.032 0-.159.012-.505.224-.316.194-.714.486-1.28.908z" opacity=".4"/>
  <path fill="#0000ff" fill-rule="evenodd" d="M.47.47a.75.75 0 011.06 0l2.621 2.62L18.91 17.85l3.121 3.12a.75.75 0 01-1.06 1.061l-2.462-2.46c-.325.41-.704.774-1.128 1.082-.807.586-1.75.848-2.916.974-1.143.124-2.582.124-4.419.124h-.09c-1.837 0-3.276 0-4.419-.124-1.165-.126-2.11-.388-2.916-.974a5.752 5.752 0 01-1.272-1.272C.762 18.574.5 17.63.374 16.464.25 15.322.25 13.882.25 12.045v-.09c0-1.837 0-3.276.124-4.418.126-1.166.388-2.11.974-2.917a5.75 5.75 0 011.083-1.128L.47 1.53a.75.75 0 010-1.06zM3.5 4.562a4.25 4.25 0 00-.94.94c-.368.508-.584 1.158-.696 2.196C1.751 8.75 1.75 10.108 1.75 12c0 1.892.001 3.25.115 4.302.112 1.038.328 1.688.697 2.196.262.361.58.678.94.94.508.37 1.158.585 2.196.697 1.052.114 2.41.115 4.302.115 1.892 0 3.25 0 4.302-.115 1.038-.112 1.688-.328 2.196-.697.36-.262.678-.579.94-.94L3.5 4.563z"/>
</svg>
