<svg xmlns="http://www.w3.org/2000/svg" width="24" height="24" fill="currentColor" viewBox="0 0 24 24">
  <path fill="#0000ff" fill-rule="evenodd" d="M8.966 2.25H11.034c1.371 0 2.447 0 3.311.07.88.073 1.607.221 2.265.557a5.75 5.75 0 012.513 2.513c.112.219.203.445.277.683a8.386 8.386 0 00-.07.046c-.465.307-1.002.737-1.565 1.188l-.07.056-.2.16-.07.055c-.246.195-.653.517-.961.942-.264.364-.46.772-.58 1.205-.139.506-.136 1.025-.134 1.34V12.937c-.002.314-.005.832.135 1.338.119.433.315.841.579 1.205.308.425.715.747.961.942l.02.016.05.04.2.16.07.055c.563.451 1.1.881 1.565 1.188l.07.046a4.375 4.375 0 01-.277.683 5.75 5.75 0 01-2.513 2.513c-.658.336-1.385.485-2.265.556-.864.071-1.94.071-3.311.071H8.966c-1.371 0-2.447 0-3.311-.07-.88-.072-1.607-.221-2.265-.557A5.75 5.75 0 01.877 18.61C.54 17.952.393 17.225.32 16.345.25 15.481.25 14.405.25 13.034V10.966c0-1.371 0-2.447.07-3.311.073-.88.221-1.607.557-2.265A5.75 5.75 0 013.39 2.877c.658-.336 1.385-.484 2.265-.556.864-.071 1.94-.071 3.311-.071zM23.26 7.717a2.25 2.25 0 00-1.761-.846c-.495 0-.94.234-1.341.5-.406.268-.896.66-1.495 1.14l-.03.023-.2.16-.056.045c-.275.22-.518.413-.698.661a2.25 2.25 0 00-.347.723c-.082.296-.081.606-.081.958v1.838c0 .352 0 .662.08.958.072.26.19.505.348.723.18.248.423.442.698.661l.056.045.2.16.03.024c.599.48 1.089.871 1.495 1.14.401.265.846.499 1.34.5a2.25 2.25 0 001.762-.847c.308-.387.403-.88.447-1.359.044-.485.044-1.112.044-1.88V10.957c0-.767 0-1.395-.044-1.88-.044-.48-.139-.972-.447-1.359z"/>
</svg>
