<svg xmlns="http://www.w3.org/2000/svg" width="24" height="24" fill="currentColor" viewBox="0 0 24 24">
  <path fill="#0000ff" fill-rule="evenodd" d="M14.383 4.233a2.75 2.75 0 00-3.605-1.091c-.419.208-.783.634-1.134 1.103-.372.495-.83 1.183-1.417 2.063l-.014.021c-.254.381-.326.482-.403.558a1.25 1.25 0 01-.63.338c-.107.022-.23.025-.688.025h-.608c-.818 0-1.376 0-1.855.128a3.75 3.75 0 00-2.651 2.652c-.128.478-.128 1.036-.128 1.854v.232c0 .818 0 1.376.128 1.855a3.75 3.75 0 002.651 2.651c.48.129 1.037.128 1.855.128h.608c.458 0 .581.004.687.025.24.049.458.166.631.338.077.076.149.177.403.558l.014.022c.587.88 1.045 1.567 1.417 2.062.351.469.715.896 1.134 1.103a2.75 2.75 0 003.605-1.091c.234-.405.3-.962.333-1.547.034-.619.034-1.445.034-2.502V8.282c0-1.057 0-1.883-.034-2.501-.033-.585-.1-1.142-.333-1.548zm1.993 5.35a.75.75 0 011.04-.207c.824.55 1.334 1.54 1.334 2.624s-.51 2.074-1.333 2.624a.75.75 0 11-.834-1.248c.373-.248.667-.75.667-1.376 0-.626-.294-1.128-.666-1.376a.75.75 0 01-.208-1.04zm2.04-4.207a.75.75 0 00-.832 1.248C19.15 7.67 20.25 9.665 20.25 12c0 2.335-1.099 4.33-2.666 5.376a.75.75 0 00.833 1.248c2.019-1.349 3.333-3.831 3.333-6.624 0-2.792-1.314-5.275-3.333-6.624z"/>
</svg>
