<svg xmlns="http://www.w3.org/2000/svg" width="24" height="24" fill="currentColor" viewBox="0 0 24 24">
  <path fill="#0000ff" fill-rule="evenodd" d="M3.53 2.47a.75.75 0 00-1.06 1.06l3.72 3.72h-.306c-.818 0-1.376 0-1.855.128a3.75 3.75 0 00-2.651 2.651c-.128.48-.128 1.037-.128 1.855v.232c0 .818 0 1.376.128 1.855a3.75 3.75 0 002.651 2.651c.48.128 1.037.128 1.855.128h.608c.458 0 .581.004.687.025.24.049.458.166.631.338.077.076.149.177.403.558l.014.022c.586.88 1.045 1.567 1.417 2.062.351.469.715.895 1.134 1.103a2.75 2.75 0 003.605-1.091c.234-.406.3-.962.333-1.548.033-.6.034-1.396.034-2.408l5.72 5.72a.75.75 0 001.06-1.061l-7-7-6.2-6.2-4.8-4.8zM7.48 8.695l.126-.03 5.645 5.646v1.38c0 1.09 0 1.873-.032 2.445-.034.61-.101.824-.135.882a1.25 1.25 0 01-1.638.496c-.06-.03-.235-.17-.602-.66-.343-.457-.778-1.11-1.382-2.015l-.036-.053c-.202-.303-.36-.541-.558-.738a2.75 2.75 0 00-1.388-.743c-.274-.055-.56-.055-.923-.055H6c-.978 0-1.32-.006-1.582-.077a2.25 2.25 0 01-1.591-1.59c-.07-.263-.077-.605-.077-1.583s.006-1.32.077-1.582a2.25 2.25 0 011.59-1.591c.263-.07.605-.077 1.583-.077h.556c.364 0 .65 0 .923-.055zm6.904-4.462a2.75 2.75 0 00-3.605-1.091c-.321.16-.595.437-.842.731-.257.307-.546.711-.882 1.204a.75.75 0 101.238.846c.334-.488.588-.84.795-1.087.217-.26.327-.335.358-.35a1.25 1.25 0 011.638.496c.034.058.1.272.135.882.032.572.032 1.356.032 2.444V10a.75.75 0 001.5 0V8.282c0-1.057 0-1.883-.034-2.501-.033-.585-.1-1.142-.333-1.548zm2.993 1.35a.75.75 0 011.04-.207C20.437 6.725 21.75 9.207 21.75 12c0 1.173-.232 2.29-.648 3.289-.161.386-.35.755-.564 1.103a.75.75 0 11-1.278-.784c.173-.282.326-.581.457-.897.34-.816.533-1.735.533-2.711 0-2.335-1.099-4.33-2.666-5.376a.75.75 0 01-.208-1.04zm-1 4a.75.75 0 011.04-.207c.824.55 1.334 1.54 1.334 2.624 0 .457-.09.894-.255 1.289a.75.75 0 01-1.384-.578c.088-.21.139-.452.139-.711 0-.626-.294-1.128-.666-1.376a.75.75 0 01-.208-1.04z"/>
</svg>
