<svg xmlns="http://www.w3.org/2000/svg" width="24" height="24" fill="currentColor" viewBox="0 0 24 24">
  <path fill="#0000ff" d="M6.492 16H6c-.93 0-1.395 0-1.776-.102a3 3 0 01-2.122-2.122C2 13.395 2 12.93 2 12s0-1.395.102-1.777a3 3 0 012.122-2.121C4.605 8 5.07 8 6 8h.492c.426 0 .64 0 .837-.04a2 2 0 001.01-.54c.143-.143.261-.32.498-.675 1.197-1.796 1.796-2.694 2.274-2.931a2 2 0 012.622.793C14 5.071 14 6.15 14 8.308v7.383c0 2.159 0 3.238-.267 3.701a2 2 0 01-2.622.794c-.479-.238-1.077-1.135-2.274-2.931-.237-.355-.355-.532-.498-.675a2 2 0 00-1.01-.54C7.131 16 6.92 16 6.492 16z" opacity=".12"/>
  <path fill="#0000ff" fill-rule="evenodd" d="M14.383 4.233a2.75 2.75 0 00-3.605-1.091c-.419.208-.783.634-1.134 1.103-.372.495-.83 1.183-1.417 2.063l-.014.021c-.254.381-.326.482-.403.558a1.25 1.25 0 01-.63.338c-.107.022-.23.025-.688.025h-.608c-.818 0-1.376 0-1.855.128a3.75 3.75 0 00-2.651 2.652c-.128.478-.128 1.036-.128 1.854v.232c0 .818 0 1.376.128 1.855a3.75 3.75 0 002.651 2.651c.48.129 1.037.128 1.855.128h.608c.458 0 .581.004.687.025.24.049.458.166.631.338.077.076.149.177.403.558l.014.022c.587.88 1.045 1.567 1.417 2.062.351.469.715.896 1.134 1.103a2.75 2.75 0 003.605-1.091c.234-.405.3-.962.333-1.547.034-.619.034-1.445.034-2.502V8.282c0-1.057 0-1.883-.034-2.501-.033-.585-.1-1.142-.333-1.548zm-2.938.253a1.25 1.25 0 011.638.496c.034.058.1.272.135.882.032.572.032 1.356.032 2.444v7.384c0 1.088 0 1.872-.032 2.444-.034.61-.101.824-.135.882a1.25 1.25 0 01-1.638.496c-.06-.03-.235-.17-.602-.66-.343-.457-.778-1.11-1.382-2.015l-.036-.053c-.202-.303-.36-.54-.558-.738a2.75 2.75 0 00-1.388-.742c-.274-.056-.56-.056-.923-.056H6c-.978 0-1.32-.006-1.582-.076a2.25 2.25 0 01-1.591-1.591c-.07-.263-.077-.605-.077-1.583s.006-1.32.077-1.582a2.25 2.25 0 011.59-1.591c.263-.07.605-.077 1.583-.077h.556c.364 0 .65 0 .923-.055a2.75 2.75 0 001.388-.743c.198-.197.356-.435.558-.738l.036-.053c.604-.906 1.039-1.558 1.382-2.016.367-.488.542-.63.602-.66zm5.931 1.098a.75.75 0 011.04-.208C20.437 6.725 21.75 9.208 21.75 12c0 2.793-1.314 5.275-3.333 6.624a.75.75 0 11-.834-1.248c1.568-1.046 2.667-3.04 2.667-5.376 0-2.335-1.099-4.33-2.666-5.376a.75.75 0 01-.208-1.04zm-1 4a.75.75 0 011.04-.208c.824.55 1.334 1.54 1.334 2.624s-.51 2.074-1.333 2.624a.75.75 0 11-.834-1.248c.373-.248.667-.75.667-1.376 0-.626-.294-1.128-.666-1.376a.75.75 0 01-.208-1.04z"/>
</svg>
