<svg xmlns="http://www.w3.org/2000/svg" width="24" height="24" fill="currentColor" viewBox="0 0 24 24">
  <path fill="#0000ff" fill-rule="evenodd" d="M3.53 2.47a.75.75 0 00-1.06 1.06l3.72 3.72h-.306c-.818 0-1.376 0-1.855.128a3.75 3.75 0 00-2.651 2.651c-.128.48-.128 1.037-.128 1.855v.232c0 .818 0 1.376.128 1.855a3.75 3.75 0 002.651 2.651c.48.128 1.037.128 1.855.128h.608c.458 0 .581.004.687.025.24.049.458.166.631.338.077.076.149.177.403.558l.014.022c.586.88 1.045 1.567 1.417 2.062.351.469.715.895 1.134 1.103a2.75 2.75 0 003.605-1.091c.234-.406.3-.962.333-1.548.033-.6.034-1.396.034-2.408l5.72 5.72a.75.75 0 001.06-1.061l-7-7-6.2-6.2-4.8-4.8zm10.853 1.763a2.75 2.75 0 00-3.605-1.091c-.321.16-.595.437-.842.731-.257.307-.546.711-.882 1.204a.75.75 0 00.088.953l4.328 4.328a.75.75 0 001.28-.53V8.281c0-1.057 0-1.883-.034-2.501-.033-.585-.1-1.142-.333-1.548zm1.993 5.35a.75.75 0 011.04-.207c.824.55 1.334 1.54 1.334 2.624 0 .457-.09.894-.255 1.289a.75.75 0 01-1.384-.578c.088-.21.139-.452.139-.711 0-.626-.294-1.128-.666-1.376a.75.75 0 01-.208-1.04zm2.04-4.207a.75.75 0 00-.832 1.248C19.15 7.67 20.25 9.664 20.25 12c0 .976-.192 1.896-.533 2.711a6.487 6.487 0 01-.457.897.75.75 0 101.278.784c.214-.348.403-.717.564-1.103.416-1 .648-2.116.648-3.289 0-2.793-1.314-5.275-3.333-6.624z"/>
</svg>
