<svg xmlns="http://www.w3.org/2000/svg" width="24" height="24" fill="currentColor" viewBox="0 0 24 24">
  <path fill="#0000ff" fill-rule="evenodd" d="M10.8 2.75c1.217 0 1.679.007 2.092.125.388.11.752.292 1.072.536.343.26.626.626 1.356 1.599l.18.24H3.991A1.25 1.25 0 014 2.75h6.8zM1.25 4A2.75 2.75 0 014 1.25h6.913c1.065 0 1.75 0 2.391.183a4.75 4.75 0 011.567.783c.531.403.942.952 1.581 1.803l.068.091.864 1.153c.33.008.63.022.904.044.714.058 1.317.18 1.869.46a4.75 4.75 0 012.075 2.077c.281.55.403 1.154.461 1.868.014.169.024.348.032.538H21a3.75 3.75 0 100 7.5h1.725c-.008.19-.018.369-.032.538-.058.714-.18 1.317-.46 1.869a4.75 4.75 0 01-2.076 2.075c-.552.281-1.155.403-1.869.461-.697.057-1.563.057-2.655.057H8.367c-1.092 0-1.958 0-2.655-.057-.714-.058-1.317-.18-1.868-.46a4.75 4.75 0 01-2.076-2.076c-.281-.552-.403-1.155-.461-1.869-.057-.697-.057-1.563-.057-2.655V4zm21.5 12.25v-3.886-.614H21a2.25 2.25 0 000 4.5h1.75z"/>
</svg>
