<svg xmlns="http://www.w3.org/2000/svg" width="24" height="24" fill="currentColor" viewBox="0 0 24 24">
  <path fill="#0000ff" fill-rule="evenodd" d="M12.895 1.295a8.713 8.713 0 00-5.27 1.126.75.75 0 00.75 1.299A7.252 7.252 0 0118.68 7.178a7.228 7.228 0 01.566 3.069 7.197 7.197 0 01-.965 3.378.748.748 0 00.273 1.024.75.75 0 001.025-.273A8.7 8.7 0 0020.75 10a8.722 8.722 0 00-2.247-5.854 8.73 8.73 0 00-5.608-2.85zm4.204 14.743l.6.601 1.057 1.056 3.774 3.775a.75.75 0 11-1.06 1.06l-1.767-1.767a2.49 2.49 0 01-.65 1.144c-.484.504-1.17.68-1.905.762-.735.081-1.7.081-2.9.081H9.752c-1.2 0-2.166 0-2.901-.081-.736-.081-1.42-.258-1.906-.762-.584-.607-.825-1.273-.734-1.968.083-.631.43-1.178.744-1.608.13-.178.271-.356.404-.523A10.21 10.21 0 0012 20.25c2.047 0 3.954-.6 5.555-1.634l-1.09-1.09A8.71 8.71 0 0112 18.75a8.717 8.717 0 01-5.807-2.205A8.73 8.73 0 013.25 10c0-1.63.446-3.158 1.224-4.466L1.47 2.53a.75.75 0 011.06-1.06L5.962 4.9 17.1 16.038zM11.25 8a.75.75 0 01.75-.75A2.75 2.75 0 0114.75 10a.75.75 0 01-1.5 0c0-.69-.56-1.25-1.25-1.25a.75.75 0 01-.75-.75z"/>
</svg>
