<svg xmlns="http://www.w3.org/2000/svg" width="24" height="24" fill="currentColor" viewBox="0 0 24 24">
  <path fill="#0000ff" fill-rule="evenodd" d="M4.75 10a7.25 7.25 0 1112.842 4.615l-.012.014c-.233.282-.423.513-.562.697-.127.169-.28.384-.352.62-.037.123-.08.276-.085.454-.006.178.027.333.056.458.056.237.187.454.299.625.12.184.286.413.485.688l.011.016c.289.398.538.808.699 1.187.166.393.203.672.172.845a1.25 1.25 0 01-.33.648c-.105.109-.335.239-.99.31-.643.072-1.524.073-2.784.073H9.801c-1.26 0-2.141-.001-2.785-.072-.653-.072-.884-.202-.99-.311a1.25 1.25 0 01-.33-.648c-.024-.14-.006-.359.102-.664.106-.299.28-.63.498-.97.29-.453.637-.888.948-1.24A8.712 8.712 0 0012 18.75c.754 0 1.487-.096 2.187-.276a.75.75 0 10-.374-1.452A7.262 7.262 0 0112 17.25a7.215 7.215 0 01-4.401-1.488A7.237 7.237 0 014.75 10zm-1.5 0a8.728 8.728 0 002.808 6.423c-.337.386-.706.855-1.025 1.353a6.366 6.366 0 00-.648 1.278c-.155.436-.253.934-.165 1.427a2.75 2.75 0 00.726 1.426c.485.504 1.17.68 1.906.762.735.081 1.7.081 2.9.081h4.495c1.2 0 2.166 0 2.901-.081.736-.081 1.42-.258 1.906-.762.378-.393.63-.89.726-1.426.104-.587-.053-1.185-.268-1.692-.22-.52-.539-1.032-.864-1.482a18.95 18.95 0 01-.456-.644c-.064-.098-.089-.147-.097-.162l-.002-.004a1.56 1.56 0 01-.01-.049c.002-.01.006-.025.013-.046l.003-.006c.01-.017.042-.068.117-.167.116-.154.285-.36.532-.659A8.75 8.75 0 103.25 10zm7.5 0c0-.69.56-1.25 1.25-1.25a.75.75 0 000-1.5A2.75 2.75 0 1014.75 10a.75.75 0 00-1.5 0 1.25 1.25 0 11-2.5 0z"/>
</svg>
