<svg xmlns="http://www.w3.org/2000/svg" width="24" height="24" fill="currentColor" viewBox="0 0 24 24">
  <path fill="#0000ff" fill-rule="evenodd" d="M2.53 1.47a.75.75 0 00-1.06 1.06l3.004 3.004A8.713 8.713 0 003.25 10a8.73 8.73 0 002.943 6.545 2.537 2.537 0 01-.305.566c-.126.185-.272.373-.435.579l-.074.094c-.138.173-.286.36-.423.547-.314.43-.661.977-.744 1.608-.091.695.15 1.36.734 1.968.485.504 1.17.68 1.906.762.735.081 1.7.081 2.9.081h4.495c1.2 0 2.166 0 2.901-.081.736-.081 1.42-.258 1.906-.762a2.49 2.49 0 00.649-1.143l1.767 1.766a.75.75 0 101.06-1.06l-3.774-3.775-1.657-1.657L5.962 4.9 2.53 1.47zM4.75 10c0-1.215.298-2.359.826-3.364L16.038 17.1l1.604 1.604c.305.464.527.88.602 1.25.067.329.02.612-.27.914-.106.109-.337.239-.99.31-.644.072-1.525.073-2.785.073H9.801c-1.26 0-2.141-.001-2.785-.072-.653-.072-.884-.202-.99-.311-.324-.338-.349-.565-.327-.733.03-.232.176-.52.467-.917.119-.161.246-.322.384-.495l.08-.102c.164-.207.34-.432.498-.665.103-.151.206-.316.298-.494A8.713 8.713 0 0012 18.75c.37 0 .735-.023 1.093-.068a.75.75 0 10-.186-1.488c-.297.037-.6.056-.907.056a7.216 7.216 0 01-4.53-1.59A7.235 7.235 0 014.75 10zm3.626-6.28A7.213 7.213 0 0112 2.75c1.322 0 2.559.353 3.624.97a.75.75 0 10.751-1.299A8.713 8.713 0 0012 1.25a8.713 8.713 0 00-4.376 1.171.75.75 0 10.752 1.298zm11.203 1.904a.75.75 0 10-1.299.752A7.212 7.212 0 0119.25 10a7.213 7.213 0 01-.97 3.624.75.75 0 001.299.752A8.712 8.712 0 0020.75 10a8.713 8.713 0 00-1.171-4.376zM12 7.25a.75.75 0 000 1.5c.69 0 1.25.56 1.25 1.25a.75.75 0 001.5 0A2.75 2.75 0 0012 7.25z"/>
</svg>
