<svg xmlns="http://www.w3.org/2000/svg" width="24" height="24" fill="currentColor" viewBox="0 0 24 24">
  <path fill="#0000ff" fill-rule="evenodd" d="M10.75 10a1.25 1.25 0 112.5 0 1.25 1.25 0 01-2.5 0zM12 7.25a2.75 2.75 0 100 5.5 2.75 2.75 0 000-5.5zm-4.393 9.691a.75.75 0 10-1.214-.882l-.303.418-.023.031c-.577.793-1.041 1.431-1.354 1.956-.312.523-.552 1.055-.534 1.622a2.75 2.75 0 001.063 2.087c.447.347 1.019.466 1.625.521.609.056 1.397.056 2.378.056h5.51c.98 0 1.77 0 2.378-.056.606-.055 1.178-.174 1.625-.521a2.75 2.75 0 001.063-2.087c.018-.567-.222-1.099-.534-1.622-.313-.525-.777-1.163-1.354-1.956l-.023-.031-.303-.418a.75.75 0 10-1.213.882l.303.418c.605.832 1.028 1.414 1.302 1.873.279.468.327.688.323.807a1.25 1.25 0 01-.483.949c-.094.072-.3.163-.843.213-.532.048-1.251.049-2.28.049H9.284c-1.029 0-1.748 0-2.28-.05-.543-.049-.75-.14-.843-.212a1.25 1.25 0 01-.483-.95c-.004-.118.044-.338.323-.806.274-.459.697-1.041 1.302-1.873l.304-.418z" opacity=".4"/>
  <path fill="#0000ff" fill-rule="evenodd" d="M12 2.75a7.25 7.25 0 100 14.5 7.25 7.25 0 000-14.5zM3.25 10a8.75 8.75 0 1117.5 0 8.75 8.75 0 01-17.5 0z"/>
</svg>
