<svg xmlns="http://www.w3.org/2000/svg" width="24" height="24" fill="currentColor" viewBox="0 0 24 24">
  <path fill="#0000ff" fill-rule="evenodd" d="M4.493 4.305A5.992 5.992 0 004.25 6c0 3.832 3.582 6.75 7.75 6.75 3.564 0 6.25 2.455 6.25 5.25 0 1.518-.792 2.936-2.087 3.914-1.28.538-2.687.836-4.163.836-5.937 0-10.75-4.813-10.75-10.75 0-3.016 1.242-5.742 3.243-7.695zm3.344-2.22C6.542 3.066 5.75 4.483 5.75 6c0 2.795 2.686 5.25 6.25 5.25 4.168 0 7.75 2.918 7.75 6.75a5.99 5.99 0 01-.243 1.695c2-1.953 3.243-4.679 3.243-7.695 0-5.937-4.813-10.75-10.75-10.75-1.476 0-2.883.298-4.163.836zM11 7a1 1 0 100-2 1 1 0 000 2zm3 11a1 1 0 11-2 0 1 1 0 012 0z"/>
</svg>
