<?xml version="1.0" encoding="UTF-8" standalone="no"?>
<!-- Created with Inkscape (http://www.inkscape.org/) -->

<svg
   xml:space="preserve"
   id="svg13"
   version="1.1"
   viewBox="0 0 382 382"
   height="382"
   width="382"
   xmlns:xlink="http://www.w3.org/1999/xlink"
   xmlns="http://www.w3.org/2000/svg"
   xmlns:svg="http://www.w3.org/2000/svg"><defs
     id="defs10"><linearGradient
       id="linearGradient2215"><stop
         style="stop-color:#ff9e00;stop-opacity:1;"
         offset="0.39228296"
         id="stop2211" /><stop
         style="stop-color:#dcb430;stop-opacity:1"
         offset="1"
         id="stop2213" /></linearGradient><linearGradient
       xlink:href="#linearGradient2215"
       id="linearGradient3751"
       gradientUnits="userSpaceOnUse"
       x1="-264"
       y1="565"
       x2="479"
       y2="417" /><linearGradient
       xlink:href="#linearGradient2215"
       id="linearGradient3753"
       gradientUnits="userSpaceOnUse"
       x1="-264"
       y1="565"
       x2="479"
       y2="417" /><linearGradient
       xlink:href="#linearGradient2215"
       id="linearGradient3755"
       gradientUnits="userSpaceOnUse"
       x1="-264"
       y1="565"
       x2="479"
       y2="417" /><linearGradient
       xlink:href="#linearGradient2215"
       id="linearGradient3757"
       gradientUnits="userSpaceOnUse"
       x1="-264"
       y1="565"
       x2="479"
       y2="417" /><linearGradient
       xlink:href="#linearGradient2215"
       id="linearGradient3759"
       gradientUnits="userSpaceOnUse"
       x1="-264"
       y1="565"
       x2="479"
       y2="417" /><linearGradient
       xlink:href="#linearGradient2215"
       id="linearGradient3761"
       gradientUnits="userSpaceOnUse"
       x1="-264"
       y1="565"
       x2="479"
       y2="417" /><linearGradient
       xlink:href="#linearGradient2215"
       id="linearGradient3763"
       gradientUnits="userSpaceOnUse"
       x1="-264"
       y1="565"
       x2="479"
       y2="417" /><linearGradient
       xlink:href="#linearGradient2215"
       id="linearGradient3765"
       gradientUnits="userSpaceOnUse"
       x1="-264"
       y1="565"
       x2="479"
       y2="417" /><linearGradient
       xlink:href="#linearGradient2215"
       id="linearGradient3767"
       gradientUnits="userSpaceOnUse"
       x1="-264"
       y1="565"
       x2="479"
       y2="417" /><linearGradient
       xlink:href="#linearGradient2215"
       id="linearGradient3769"
       gradientUnits="userSpaceOnUse"
       x1="-264"
       y1="565"
       x2="479"
       y2="417" /><linearGradient
       xlink:href="#linearGradient2215"
       id="linearGradient3798"
       gradientUnits="userSpaceOnUse"
       x1="-264"
       y1="565"
       x2="479"
       y2="417" /></defs><g
     id="layer1"
     transform="translate(-65,-15)"><circle
       style="fill:#000000;fill-opacity:1;stroke:#000000;stroke-width:2;stroke-linecap:round;stroke-linejoin:round;stroke-opacity:1"
       id="path3020"
       cx="256"
       cy="206"
       r="190" /><ellipse
       style="fill:#945800;fill-opacity:1;stroke:#000000;stroke-width:1.47789;stroke-linecap:round;stroke-linejoin:round;stroke-opacity:1"
       id="circle3749"
       cx="256"
       cy="206"
       rx="142.1778"
       ry="138.64226" /><g
       id="g1168"
       style="fill:url(#linearGradient3798);fill-opacity:1;stroke:#000000;stroke-opacity:1"
       transform="translate(2.6938386,1.179713)"><path
         style="fill:url(#linearGradient3751);fill-opacity:1;stroke:#000000;stroke-width:1;stroke-linecap:round;stroke-linejoin:round;stroke-opacity:1"
         d="m 138.88435,311.37341 c -24.27727,-27.18893 -36.8221,-54.82683 -40.646891,-89.55039 l -0.322405,-2.92697 -11.891,0.36351 -11.891,0.36352 -0.353628,-8.43654 C 72.230062,174.22319 83.302616,134.67669 103.7904,104 c 2.29577,-3.4375 4.745,-6.881757 5.44274,-7.653902 l 1.26861,-1.403898 3.49912,2.87862 c 1.92452,1.583241 3.49913,2.94498 3.49913,3.0261 0,0.0811 -1.33602,1.94936 -2.96894,4.15168 -13.29515,17.93116 -24.495429,45.07682 -28.779382,69.7514 -1.827001,10.5231 -3.49721,34.27571 -2.450071,34.8433 0.246615,0.13368 5.623391,0.0737 11.94839,-0.13318 6.325003,-0.20692 11.567433,-0.30892 11.649853,-0.22666 0.0824,0.0823 0.35561,3.38214 0.60709,7.33305 0.73957,11.61921 2.26708,20.58876 5.26949,30.94263 5.64806,19.47744 17.71491,40.51317 32.74225,57.07845 1.91473,2.11069 3.48132,3.94376 3.48132,4.07351 0,0.12975 -1.54806,1.60837 -3.44014,3.28582 l -3.44013,3.0499 z"
         id="path1084" /><path
         style="fill:url(#linearGradient3753);fill-opacity:1;stroke:#000000;stroke-width:1;stroke-linecap:round;stroke-linejoin:round;stroke-opacity:1"
         d="M 245.99999,361.14977 C 223.85057,359.81886 201.45593,353.97706 183.5,344.8462 c -9.88518,-5.02676 -16.73904,-9.54735 -28.89209,-19.05631 l -1.22707,-0.9601 -4.31542,4.46529 c -2.37348,2.45591 -6.08406,6.31895 -8.24574,8.58453 l -3.93031,4.11923 -5.77376,-5.37442 C 115.56274,322.14724 102.484,304.85188 92.766682,285.9117 85.684607,272.10792 80.918506,259.38438 77.301035,244.62475 c -1.620827,-6.61313 -3.175228,-15.91723 -2.733097,-16.35936 0.117106,-0.11711 2.253972,-0.367 4.748591,-0.55532 l 4.535671,-0.3424 0.593838,4.6305 c 0.650543,5.07266 3.626113,17.17671 5.961891,24.25182 8.188579,24.80336 22.344201,48.22523 40.191031,66.5 l 5.85949,6 5.89244,-6.25 c 3.24084,-3.4375 6.93418,-7.35993 8.20744,-8.71651 l 2.315,-2.46651 4.18834,3.82251 c 20.89882,19.07346 45.60581,30.61044 74.64711,34.8566 5.34776,0.7819 17.93501,2.00391 20.64116,2.00391 0.70656,0 0.92022,5.02416 0.33755,7.9375 -0.34321,1.71604 0.16454,1.624 -6.6875,1.21228 z"
         id="path1086" /><path
         style="fill:url(#linearGradient3755);fill-opacity:1;stroke:#000000;stroke-width:1;stroke-linecap:round;stroke-linejoin:round;stroke-opacity:1"
         d="m 212.00043,29.231643 c 6.75575,-1.686742 17.80296,-3.612858 18.20889,-3.174778 0.0984,0.106241 0.33936,2.259952 0.53537,4.786027 l 0.35638,4.592862 -1.92554,0.297262 c -1.05904,0.163494 -3.56318,0.627955 -5.56475,1.032137 C 197.75202,41.734449 160.01247,61.077164 141,77.304192 c -2.8875,2.535384 -6.6,5.988998 -8.25,7.674699 l -3,3.064912 3,2.86194 c 1.65,1.574065 5.56126,5.253854 8.69168,8.177314 l 5.69169,5.315373 -4.40007,4.92578 c -22.20395,24.85687 -33.59239,53.32589 -36.02294,90.05078 l -0.33918,5.125 h -4.7626 -4.762602 l 0.323462,-6.375 c 1.706392,-33.63071 13.079,-64.39202 32.8128,-88.75404 l 3.54713,-4.37905 -4.88968,-4.61618 c -2.68933,-2.538893 -6.56375,-6.225857 -8.60982,-8.193252 l -3.72012,-3.57708 2.54063,-2.927696 c 4.41256,-5.084802 16.68556,-16.777955 22.39962,-21.341317 6.19604,-4.948289 18.68832,-13.383622 25.59609,-17.28359 5.22144,-2.947913 14.61906,-7.45342 20.24686,-9.831771 19.17504,-6.715532 19.19793,-6.563838 24.90748,-7.989371 z"
         id="path1090" /><path
         style="fill:url(#linearGradient3757);fill-opacity:1;stroke:#000000;stroke-width:1;stroke-linecap:round;stroke-linejoin:round;stroke-opacity:1"
         d="m 146.54992,97.300362 c -1.74416,-1.759795 -3.02385,-3.438044 -2.84376,-3.729439 0.562,-0.909325 10.32739,-9.232385 15.04384,-12.82188 22.22912,-16.917684 47.297,-27.369514 72.49999,-30.228218 2.75,-0.311925 5.72971,-0.679122 6.62157,-0.815994 l 1.62157,-0.248858 -0.26345,-9.852987 C 239.08478,34.183843 238.87023,28.82732 238.7529,27.6996 l -0.21333,-2.050399 7.85521,-0.29124 c 34.85372,-1.292239 69.3762,7.322188 99.90057,24.928287 5.69309,3.283708 10.80467,6.67067 14.59179,9.668609 l 2.63716,2.087606 -2.86188,3.478767 c -1.57403,1.913323 -3.04517,3.478768 -3.26921,3.478768 -0.22404,0 -1.59985,-0.971311 -3.05736,-2.158468 C 351.05703,64.170896 341.97793,58.536016 334.99999,54.84086 311.1691,42.221256 282.72752,35.022558 256.63121,35.005352 l -8.11879,-0.0054 0.27444,10.875 c 0.15095,5.98125 0.35233,11.269688 0.44753,11.752085 0.21984,1.114089 -0.45266,1.245669 -7.9844,1.562194 -20.66995,0.868668 -42.96962,7.764902 -62.30876,19.26916 -8.43374,5.016975 -19.12419,12.97285 -25.7097,19.133269 -1.70993,1.59956 -3.19929,2.90829 -3.30969,2.90829 -0.1104,0 -1.62777,-1.439835 -3.37192,-3.199635 z"
         id="path1092" /><path
         style="fill:url(#linearGradient3759);fill-opacity:1;stroke:#000000;stroke-width:1;stroke-linecap:round;stroke-linejoin:round;stroke-opacity:1"
         d="m 422.82158,181.94621 c -0.11092,-0.38292 -0.46105,-2.67158 -0.77808,-5.08592 -0.31702,-2.41435 -1.36752,-7.53751 -2.33444,-11.38483 -6.2898,-25.02683 -18.40018,-48.87193 -34.90409,-68.725463 -5.62222,-6.763311 -13.82327,-15.329263 -14.50243,-15.147709 -0.3039,0.08124 -4.12001,3.918605 -8.48025,8.527478 l -7.9277,8.379766 -3.50086,-3.129767 C 336.64576,83.089057 323.91146,75.022408 308.49999,68.841825 293.53961,62.842146 278.21357,59.561549 258.87499,58.219414 l -4.875,-0.338335 v -4.750265 -4.750266 l 5.375,0.339413 c 35.17912,2.221443 65.05297,13.174369 89.27104,32.730271 2.41782,1.952371 4.56078,3.549766 4.76212,3.549766 0.20135,0 3.92909,-3.825267 8.28387,-8.500593 l 7.91778,-8.500593 2.54476,2.125593 c 4.35609,3.638562 14.11314,13.642622 19.03023,19.511998 14.41229,17.203527 25.50271,36.614787 32.9169,57.613597 3.70644,10.49755 7.12143,24.31641 8.06246,32.625 0.22949,2.02617 0.17895,2.12516 -1.08674,2.12855 -0.73008,0.002 -2.84094,0.1465 -4.69079,0.32122 -2.64665,0.24997 -3.40634,0.1693 -3.56504,-0.37856 z"
         id="path1094" /><path
         style="fill:url(#linearGradient3761);fill-opacity:1;stroke:#000000;stroke-width:1;stroke-linecap:round;stroke-linejoin:round;stroke-opacity:1"
         d="m 392.87499,312.23686 c -1.85625,-1.54693 -3.375,-3.03895 -3.375,-3.31559 0,-0.27664 0.76701,-1.44085 1.70448,-2.58713 3.15888,-3.86253 9.29263,-13.95026 13.30054,-21.87445 12.02842,-23.78185 18.13504,-47.77977 18.85353,-74.09096 l 0.28348,-10.38126 -5.69602,0.24934 c -3.13281,0.13713 -8.53002,0.36666 -11.99381,0.51005 l -6.2978,0.26072 -0.33482,-6.62879 c -1.62976,-32.26613 -13.55171,-60.66384 -36.69321,-87.40208 l -4.87637,-5.63427 3.38352,-3.261473 3.38351,-3.261476 2.61649,2.928377 C 387.62015,120.67658 399.76087,143.43249 405.68144,170 c 1.31773,5.91311 2.81855,16.19459 2.81855,19.30876 v 1.75754 l 11.95051,-0.35602 11.95051,-0.35603 0.36519,3.89715 c 0.54157,5.77934 -0.0598,26.0982 -0.98108,33.14589 -3.21872,24.6241 -10.87619,47.86559 -22.52046,68.3527 -3.61361,6.35784 -9.22628,14.90269 -11.59321,17.64974 l -1.42146,1.64974 z"
         id="path1096" /><path
         style="fill:url(#linearGradient3763);fill-opacity:1;stroke:#000000;stroke-width:1;stroke-linecap:round;stroke-linejoin:round;stroke-opacity:1"
         d="m 276.27038,380.61018 c -0.16832,-1.8481 -0.40238,-3.96637 -0.52013,-4.70726 -0.20205,-1.27132 -0.0815,-1.36363 2.14283,-1.64145 11.28777,-1.40982 26.69557,-5.75858 39.95554,-11.27724 6.51093,-2.70977 18.67957,-9.02473 25.07058,-13.01047 5.28152,-3.29381 16.65859,-11.60258 20.30351,-14.82784 5.29312,-4.68368 13.77728,-12.77078 13.77728,-13.13249 0,-0.22261 -3.825,-3.96749 -8.5,-8.32197 -4.675,-4.35447 -8.493,-8.03518 -8.48445,-8.17934 0.009,-0.14417 1.82663,-2.28713 4.04017,-4.76213 19.38359,-21.67314 30.52936,-46.15008 34.66344,-76.12348 0.42659,-3.09292 0.9012,-7.93042 1.05468,-10.75 0.15349,-2.81958 0.38986,-5.85777 0.52527,-6.75152 l 0.2462,-1.625 h 4.74457 4.74456 l -0.25192,2.375 c -0.13856,1.30625 -0.38177,4.625 -0.54049,7.375 -0.36903,6.39431 -1.90088,17.05613 -3.46952,24.14823 -5.12021,23.1494 -15.00956,43.8684 -29.25959,61.30123 l -3.46993,4.24495 8.3535,7.86396 c 4.59443,4.32517 8.55485,8.03777 8.80094,8.25022 0.63175,0.5454 -18.44912,19.47289 -24.34908,24.15334 -17.55551,13.92685 -35.8051,23.97019 -56.42134,31.05048 -10.62566,3.64919 -22.09877,6.44409 -30.5138,7.43329 l -2.33678,0.27469 z"
         id="path1098" /><path
         style="fill:url(#linearGradient3765);fill-opacity:1;stroke:#000000;stroke-width:1;stroke-linecap:round;stroke-linejoin:round;stroke-opacity:1"
         d="m 238.49999,384.14961 c -10.73846,-0.83843 -27.49836,-4.00213 -37.93282,-7.16043 -18.82082,-5.69667 -40.02305,-15.97227 -52.93194,-25.65332 -2.26312,-1.69723 -4.11937,-3.23422 -4.125,-3.41554 -0.006,-0.18132 1.28803,-1.88354 2.87479,-3.78272 l 2.88503,-3.45305 3.44495,2.62688 c 8.62125,6.57395 25.01518,15.38361 37.32027,20.05491 19.43311,7.37726 37.13847,10.93341 57.17027,11.48273 l 10.95555,0.30043 -0.34722,-12.07475 -0.34723,-12.07476 h 3.7137 c 15.42108,0 36.13241,-4.70642 51.94885,-11.80479 13.10468,-5.88135 27.57614,-15.40031 39.3708,-25.89713 2.3375,-2.08028 4.40084,-3.78588 4.58521,-3.79021 0.18436,-0.004 1.68503,1.48773 3.33482,3.31568 l 2.99962,3.32354 -2.70607,2.4732 c -25.49944,23.30505 -56.21187,37.87251 -86.26828,40.9186 -3.13242,0.31745 -6.01134,0.66987 -6.39762,0.78313 -0.59005,0.17302 -0.64709,2.07259 -0.35684,11.8815 0.31059,10.49576 0.26375,11.70692 -0.46356,11.98601 -0.82126,0.31515 -24.60295,0.2821 -28.72728,-0.0399 z"
         id="path1100" /><path
         style="fill:url(#linearGradient3767);fill-opacity:1;stroke:#000000;stroke-width:1;stroke-linecap:round;stroke-linejoin:round;stroke-opacity:1"
         d="m 256.99589,332.40904 c -0.013,-13.23973 -3.03249,-23.85191 -9.00778,-31.65905 -1.602,-2.09312 -3.41222,-5.30883 -4.50342,-8 -2.35062,-5.79716 -3.61156,-8.22982 -5.31537,-10.25468 -1.81412,-2.15597 -5.80464,-3.98424 -8.70983,-3.99043 -2.18913,-0.005 -2.44602,0.15554 -5.80475,3.62011 -4.12501,4.25501 -6.4771,7.77812 -12.4065,18.58324 -5.66249,10.3187 -7.31582,12.86251 -9.56471,14.71624 -2.65705,2.19016 -7.24991,4.52782 -9.21057,4.68796 -2.43882,0.1992 -2.44968,-1.05992 -0.0411,-4.76358 2.72545,-4.19087 4.37135,-7.91955 5.57743,-12.63528 1.14754,-4.48683 1.93357,-14.5057 1.60968,-20.51729 -0.16509,-3.06424 -0.0242,-4.4293 0.57731,-5.59245 1.39116,-2.6902 2.0265,-7.97017 1.34677,-11.19228 -0.6921,-3.28074 -2.83803,-6.52128 -5.08947,-7.68555 -3.04187,-1.57301 -6.28508,-1.4945 -10.7036,0.25912 -5.54225,2.19961 -17.01362,8.18576 -23,12.00218 -8.274,5.27483 -8.24056,5.26269 -14.49998,5.26269 -5.93948,0 -8.91873,-0.75463 -8.64247,-2.1891 0.0846,-0.43924 2.01278,-1.81388 4.28487,-3.05476 9.965,-5.44228 16.53793,-12.12499 21.6446,-22.00614 0.9238,-1.7875 3.43531,-5.37524 5.58114,-7.97276 8.43573,-10.21141 9.06958,-15.77625 2.31422,-20.31729 -3.3265,-2.23612 -7.45991,-2.77313 -24.68236,-3.20672 -15.26035,-0.3842 -17.59053,-0.6697 -22.62113,-2.77161 -2.80715,-1.17291 -6.62887,-3.75143 -6.62887,-4.47252 0,-1.70468 1.53195,-2.00885 10.20367,-2.02592 l 8.54633,-0.0168 4.94682,-2.08636 c 2.72076,-1.14749 8.34576,-3.98454 12.5,-6.30454 8.16226,-4.55834 12.25378,-6.43154 16.0981,-7.37012 3.71772,-0.90768 4.11775,-1.25101 5.00215,-4.29324 2.47448,-8.51191 -1.97167,-13.72172 -19.54707,-22.90439 -8.51214,-4.44737 -12.95308,-7.55258 -17.20898,-12.03293 -3.82225,-4.02384 -4.985,-6.51589 -4.10862,-8.80578 l 0.5094,-1.33101 7.4041,3.72638 c 10.33147,5.19969 12.53566,5.68116 26.10908,5.70309 10.79983,0.0174 15.93932,0.55395 20.29501,2.11856 2.22056,0.79764 3.02998,0.51027 5.92079,-2.10207 2.63185,-2.37833 3.47408,-4.75102 3.22342,-9.0809 -0.2627,-4.5381 -2.02399,-8.60611 -8.04817,-18.58871 -8.16044,-13.52257 -10.387,-18.74307 -10.40486,-24.395756 -0.0136,-4.304511 0.92231,-7.704309 1.89798,-6.894575 0.37566,0.311765 2.97211,3.741407 5.76991,7.621431 7.98576,11.07478 11.89262,14.44705 19.6979,17.00257 1.64911,0.53994 4.04569,2.0678 6.75,4.30323 7.6114,6.29176 9.99405,7.97397 12.0957,8.53989 4.85526,1.30738 9.34278,-0.94085 11.20653,-5.61442 1.84994,-4.63895 2.29804,-9.22221 1.94822,-19.92669 -0.19753,-6.044671 -0.11843,-10.985113 0.20817,-13.000002 0.28973,-1.7875 0.73556,-4.764599 0.99073,-6.615775 0.54617,-3.962302 1.91371,-6.919029 4.39817,-9.509225 1.81012,-1.887157 3.23467,-2.36336 3.89136,-1.300815 0.19518,0.315801 0.31186,3.184551 0.25931,6.374999 -0.15943,9.677946 2.61039,18.16809 9.34287,28.638028 1.96922,3.06241 3.18669,5.56744 3.54717,7.29855 1.13073,5.43 4.70864,10.61758 8.76706,12.71128 2.70153,1.3937 6.57568,1.06927 9.15637,-0.76677 2.9602,-2.10605 7.17695,-7.7988 11.66972,-15.75453 8.00071,-14.167517 12.41951,-19.551453 18.86422,-22.984441 6.29499,-3.353233 6.86715,-1.282102 1.85259,6.706042 -1.81572,2.892435 -3.53089,5.862789 -3.81147,6.600779 -1.50507,3.95862 -2.07742,9.68661 -2.1585,21.60188 -0.0805,11.8325 -0.12813,12.3778 -1.39732,16 l -1.31397,3.75 1.16547,2 c 5.01312,8.60273 13.70779,7.6099 30.76063,-3.51254 6.08838,-3.97104 9.96021,-5.9116 15.38875,-7.71284 7.40882,-2.4583 12.21472,-2.357 13.95644,0.29418 0.67217,1.02316 0.53569,1.15819 -3.19652,3.16261 -10.13823,5.44483 -17.31151,12.89363 -22.6487,23.51859 -1.17418,2.3375 -3.15276,5.375 -4.39684,6.75 -5.06022,5.59272 -7.60758,11.15425 -6.88158,15.0242 0.18028,0.96095 1.02508,2.54136 1.87734,3.51203 3.61904,4.12186 7.09198,4.73771 28.34835,5.02694 l 16.69724,0.2272 3.64113,1.7755 c 3.8722,1.88817 7.71439,4.83404 7.71439,5.91477 0,0.98298 -1.76908,1.25586 -6.01774,0.92822 -9.37132,-0.72266 -20.05645,2.51951 -31.80231,9.64973 -1.97926,1.20149 -4.79819,2.43925 -6.2643,2.75059 -5.61594,1.19259 -11.10541,5.07918 -12.98124,9.19081 -1.34099,2.93932 -1.17953,5.55629 0.52628,8.53025 2.17501,3.79197 6.95606,7.18577 19.28197,13.68718 11.63892,6.13906 17.41222,10.9821 20.53672,17.22761 1.02049,2.03985 1.55778,3.6678 1.29669,3.92889 -0.86296,0.86296 -4.22948,-0.28633 -10.92973,-3.7313 -9.81525,-5.04657 -9.61396,-4.99329 -19.39634,-5.13377 -4.675,-0.0671 -13.13902,-0.41756 -18.80894,-0.77871 l -10.30894,-0.65665 -1.42274,1.11913 c -0.78251,0.61552 -1.99348,1.9221 -2.69106,2.90352 -1.12165,1.57804 -1.26832,2.28277 -1.26832,6.09412 0,4.01795 0.13848,4.59747 2.0453,8.55973 1.12491,2.3375 4.54521,8.26789 7.60067,13.17864 5.92806,9.52762 8.15163,14.20193 9.12035,19.17248 0.78535,4.02965 0.29748,7.06566 -1.5439,9.60761 -1.68774,2.32985 -2.47242,2.58693 -2.47242,0.81003 0,-1.93338 -1.84132,-6.3682 -4.08623,-9.84167 -2.13229,-3.29923 -9.90308,-11.26008 -11.97647,-12.2694 -0.65301,-0.31788 -2.50033,-1.15478 -4.10514,-1.85978 -2.59109,-1.13827 -5.88411,-3.52437 -13.74604,-9.9603 -3.75428,-3.07333 -7.84719,-4.83675 -11.22718,-4.83721 -5.28905,-5e-4 -7.11905,1.51191 -9.46559,7.82406 -1.02353,2.75328 -1.09092,3.8235 -1.14434,18.17554 -0.0464,12.45787 -0.21317,15.92675 -0.91099,18.94622 -1.40669,6.0867 -3.47716,10.01667 -6.3579,12.06794 l -1.48012,1.05394 -0.004,-4.15905 z m 4.57613,-58.43042 c 28.7921,-2.89911 53.41331,-23.94339 60.63941,-51.82981 1.50059,-5.79096 2.90342,-17.68549 2.59007,-21.96115 -0.63764,-8.70082 -2.95038,-16.51957 -7.82009,-26.43766 -9.30031,-18.94182 -27.63089,-32.97138 -49.15177,-37.61897 -6.38314,-1.37849 -23.27266,-1.21004 -30.29646,0.30216 -13.21931,2.84607 -24.69145,9.20526 -34.81735,19.29979 -10.80793,10.77446 -16.51047,21.62295 -19.5133,37.122 -1.19499,6.16789 -1.30215,7.61366 -1.04755,14.13288 0.84266,21.5773 10.89918,40.42907 28.73737,53.87055 13.67914,10.30754 31.86246,15.01493 50.67967,13.12021 z"
         id="path1102" /><path
         style="fill:url(#linearGradient3769);fill-opacity:1;stroke:#000000;stroke-width:1;stroke-linecap:round;stroke-linejoin:round;stroke-opacity:1"
         d="m 224.44894,258.35747 c -1.68521,-1.13328 -1.70097,-1.17949 -1.94895,-5.71455 l -0.25,-4.57202 -3.5,-2.62309 c -6.20244,-4.64844 -11.86897,-10.73178 -13.92365,-14.94782 -4.67745,-9.59776 -3.44677,-20.0147 3.58851,-30.37462 8.47527,-12.48039 11.45075,-26.60648 8.08406,-38.37915 -1.17473,-4.10783 -0.8098,-5.97501 1.55699,-7.96654 2.57498,-2.1667 4.95431,-2.58631 8.52872,-1.50406 5.71091,1.72912 10.3099,5.45998 13.01414,10.55751 L 240.74828,165 h 11.85183 11.85184 l 1.52774,-2.22049 c 5.92536,-8.61222 15.71803,-13.21101 21.07783,-9.89847 2.2157,1.36938 3.66807,3.95078 3.32561,5.91085 -0.14012,0.80196 -0.65674,2.92061 -1.14805,4.70811 -1.29088,4.69651 -1.2006,12.93461 0.20514,18.71997 1.25364,5.15936 4.35271,11.98246 8.26316,18.19269 4.72615,7.50565 6.19325,14.54246 4.60499,22.08733 -1.72602,8.19923 -6.41655,14.92515 -15.49322,22.2163 l -4.31516,3.46629 v 3.94158 c 0,7.80833 1.76796,7.37583 -30.15123,7.37583 h -26.20088 z m 48.55105,-12.10748 v -4.75 h -20.5 -20.5 v 4.75 4.75 h 20.5 20.5 z m -50.5,-10.27272 c 0,-0.2875 0.55228,-1.075 1.22728,-1.75 1.08616,-1.08617 1.66105,-1.22728 5,-1.22728 h 3.77272 l -0.005,-31.625 -0.005,-31.62499 -1.1733,-2.5 c -1.13809,-2.42502 -3.50085,-5.25 -4.39099,-5.25 -0.24139,0 -0.26687,0.95314 -0.0568,2.125 0.69279,3.86491 0.35879,15.35909 -0.55522,19.10711 -1.67344,6.86214 -4.55776,13.03826 -10.90709,23.35503 -2.53866,4.12498 -3.62494,7.93993 -3.61125,12.6825 0.0159,5.52137 1.82012,9.40378 6.48512,13.95538 3.27842,3.19873 4.21934,3.81249 4.21934,2.75225 z m 64.82777,-3.97728 c 2.46781,-2.56703 5.09013,-8.17732 5.60897,-12 0.80728,-5.94776 -0.36518,-10.54492 -4.21748,-16.53665 -7.87117,-12.24252 -11.51955,-26.21502 -9.76727,-37.40656 0.31804,-2.03127 0.46033,-3.81114 0.3162,-3.95527 -0.41502,-0.41501 -2.23756,1.40114 -4.59462,4.57849 l -2.17357,2.93 v 31.695 31.69499 h 3.77273 c 3.33894,0 3.91384,0.14111 5,1.22728 0.675,0.675 1.22727,1.50459 1.22727,1.84354 0,0.61826 1.68944,-0.80629 4.82777,-4.07082 z m -39.82777,-28.75 V 173.5 h -2.75 -2.75 v 29.74999 29.75 h 2.75 2.75 z m 15.37897,-0.125 0.12896,-29.62499 h -2.75396 -2.75397 v 29.77612 29.77613 l 2.625,-0.15113 2.625,-0.15113 z"
         id="path1104" /></g></g></svg>
