<?xml version="1.0" encoding="UTF-8" standalone="no"?>
<!-- Created with Inkscape (http://www.inkscape.org/) -->

<svg
   xml:space="preserve"
   id="svg13"
   version="1.1"
   viewBox="0 0 382 382"
   height="382"
   width="382"
   sodipodi:docname="Apollo_App_Icon_Small.svg"
   inkscape:version="1.2 (dc2aedaf03, 2022-05-15)"
   xmlns:inkscape="http://www.inkscape.org/namespaces/inkscape"
   xmlns:sodipodi="http://sodipodi.sourceforge.net/DTD/sodipodi-0.dtd"
   xmlns:xlink="http://www.w3.org/1999/xlink"
   xmlns="http://www.w3.org/2000/svg"
   xmlns:svg="http://www.w3.org/2000/svg"><sodipodi:namedview
     id="namedview48"
     pagecolor="#505050"
     bordercolor="#eeeeee"
     borderopacity="1"
     inkscape:showpageshadow="0"
     inkscape:pageopacity="0"
     inkscape:pagecheckerboard="0"
     inkscape:deskcolor="#505050"
     showgrid="false"
     inkscape:zoom="0.90509668"
     inkscape:cx="-140.3165"
     inkscape:cy="178.9864"
     inkscape:window-width="1366"
     inkscape:window-height="745"
     inkscape:window-x="-8"
     inkscape:window-y="-8"
     inkscape:window-maximized="1"
     inkscape:current-layer="layer1" /><defs
     id="defs10"><linearGradient
       id="linearGradient2215"><stop
         style="stop-color:#ff9e00;stop-opacity:1;"
         offset="0.39228296"
         id="stop2211" /><stop
         style="stop-color:#dcb430;stop-opacity:1"
         offset="1"
         id="stop2213" /></linearGradient><linearGradient
       xlink:href="#linearGradient2215"
       id="linearGradient3751"
       gradientUnits="userSpaceOnUse"
       x1="-264"
       y1="565"
       x2="479"
       y2="417" /><linearGradient
       xlink:href="#linearGradient2215"
       id="linearGradient3753"
       gradientUnits="userSpaceOnUse"
       x1="-264"
       y1="565"
       x2="479"
       y2="417" /><linearGradient
       xlink:href="#linearGradient2215"
       id="linearGradient3755"
       gradientUnits="userSpaceOnUse"
       x1="-264"
       y1="565"
       x2="479"
       y2="417" /><linearGradient
       xlink:href="#linearGradient2215"
       id="linearGradient3757"
       gradientUnits="userSpaceOnUse"
       x1="-264"
       y1="565"
       x2="479"
       y2="417" /><linearGradient
       xlink:href="#linearGradient2215"
       id="linearGradient3759"
       gradientUnits="userSpaceOnUse"
       x1="-264"
       y1="565"
       x2="479"
       y2="417" /><linearGradient
       xlink:href="#linearGradient2215"
       id="linearGradient3761"
       gradientUnits="userSpaceOnUse"
       x1="-264"
       y1="565"
       x2="479"
       y2="417" /><linearGradient
       xlink:href="#linearGradient2215"
       id="linearGradient3763"
       gradientUnits="userSpaceOnUse"
       x1="-264"
       y1="565"
       x2="479"
       y2="417" /><linearGradient
       xlink:href="#linearGradient2215"
       id="linearGradient3765"
       gradientUnits="userSpaceOnUse"
       x1="-264"
       y1="565"
       x2="479"
       y2="417" /><linearGradient
       xlink:href="#linearGradient2215"
       id="linearGradient3767"
       gradientUnits="userSpaceOnUse"
       x1="-264"
       y1="565"
       x2="479"
       y2="417" /><linearGradient
       xlink:href="#linearGradient2215"
       id="linearGradient3769"
       gradientUnits="userSpaceOnUse"
       x1="-264"
       y1="565"
       x2="479"
       y2="417"
       gradientTransform="matrix(2.4968692,1.4415681,-1.454902,2.5199642,-76.782475,-675.72164)" /><linearGradient
       xlink:href="#linearGradient2215"
       id="linearGradient3798"
       gradientUnits="userSpaceOnUse"
       x1="-264"
       y1="565"
       x2="479"
       y2="417" /></defs><g
     id="layer1"
     transform="translate(-65,-15)"><circle
       style="fill:#000000;fill-opacity:1;stroke:#000000;stroke-width:2;stroke-linecap:round;stroke-linejoin:round;stroke-opacity:1"
       id="path3020"
       cx="256"
       cy="206"
       r="190" /><ellipse
       style="fill:#945800;fill-opacity:1;stroke:#000000;stroke-width:1.9529;stroke-linecap:round;stroke-linejoin:round;stroke-opacity:1"
       id="circle3749"
       cx="324.70251"
       cy="50.401222"
       rx="186.00827"
       ry="185.04384"
       transform="rotate(30)" /><path
       style="fill:url(#linearGradient3769);fill-opacity:1;stroke:#000000;stroke-width:2.89644;stroke-linecap:round;stroke-linejoin:round;stroke-opacity:1"
       d="m 107.75235,298.88837 c -2.55894,-5.28517 -2.53106,-5.42432 3.44785,-17.21001 l 6.02761,-11.88171 -4.9227,-11.65558 c -8.72367,-20.65513 -14.02158,-44.15364 -13.01792,-57.73985 2.28482,-30.92889 20.5133,-55.4051 53.15214,-71.36989 39.31939,-19.23245 67.30085,-50.540355 76.02273,-85.060356 3.04335,-12.045043 6.67111,-16.224194 15.47814,-17.830895 9.58174,-1.747995 16.13311,0.624567 23.48337,8.504555 11.7437,12.589984 17.79873,28.621373 17.13446,45.365323 l -0.28239,7.117545 29.59246,17.085218 29.5925,17.08523 7.04517,-3.39321 c 27.32478,-13.16068 58.46659,-10.63267 67.02989,5.44132 3.54,6.64487 3.41068,15.2436 -0.2961,19.68922 -1.51664,1.81893 -5.889,6.4131 -9.71636,10.20929 -10.05612,9.97415 -21.81634,30.864 -26.72353,47.46938 -4.37618,14.8086 -6.56515,36.47009 -5.83654,57.75684 0.88057,25.72701 -5.69414,45.57447 -20.63685,62.29768 -16.23873,18.1736 -37.73592,28.36095 -71.00708,33.64975 l -15.8175,2.51434 -5.73462,9.93264 c -11.36035,19.67672 -6.31675,21.13546 -86.01479,-24.87823 l -65.42016,-37.77035 z m 138.84081,39.47922 6.91079,-11.96982 -51.18581,-29.55215 -51.18583,-29.55214 -6.91078,11.96983 -6.91079,11.96982 51.18583,29.55216 51.18581,29.55213 z M 135.44708,239.68153 c 0.41828,-0.72449 2.94299,-1.91282 5.61043,-2.64073 4.29227,-1.17133 5.93299,-0.69818 14.26992,4.11515 l 9.41999,5.43863 45.9982,-79.70142 45.99819,-79.701395 0.7077,-7.991314 c 0.6865,-7.75159 -1.10292,-18.276519 -3.3255,-19.559723 -0.60272,-0.347982 -2.05306,2.017186 -3.23349,5.273061 -3.89327,10.738132 -21.45013,39.221571 -29.18528,47.348841 -14.16212,14.87996 -30.34953,26.28562 -61.21286,43.13052 -12.34014,6.73517 -20.60282,14.78275 -27.46861,26.75358 -7.99339,13.93657 -9.13698,26.32101 -4.11122,44.51581 3.53194,12.78675 4.98832,15.6898 6.53086,13.01804 z m 167.653,83.43103 c 9.89658,-2.91131 24.60659,-13.26878 31.4637,-22.15386 10.66908,-13.8244 14.43002,-27.09925 13.52872,-47.75156 -1.84163,-42.19754 9.37747,-82.66711 30.03527,-108.34337 3.74939,-4.66026 6.69422,-8.94033 6.54404,-9.51131 -0.43245,-1.64408 -7.62542,0.30523 -18.13342,4.91418 l -9.68998,4.25015 -46.11312,79.87026 -46.11311,79.87025 9.42001,5.43864 c 8.3369,4.81331 9.56705,5.99766 10.69878,10.30054 0.70333,2.67403 0.8753,5.5607 0.38216,6.41485 -0.89951,1.55799 5.39138,0.40362 17.97695,-3.29877 z m -57.61628,-129.86341 43.28332,-74.96892 -6.86639,-3.96431 -6.86639,-3.9643 -43.28332,74.9689 -43.28335,74.96895 6.86639,3.96431 6.86639,3.96432 z m 38.58112,21.85483 43.42347,-74.46801 -6.87627,-3.97002 -6.87632,-3.97004 -43.32134,75.03477 -43.32135,75.03478 6.77416,3.40329 6.77416,3.40326 z"
       id="path1104" /></g></svg>
