<svg xmlns="http://www.w3.org/2000/svg" width="24" height="24" fill="currentColor" viewBox="0 0 24 24">
  <path fill="#0000ff" fill-rule="evenodd" d="M2.8 5.119a.316.316 0 01-.05-.12c0-.018.03-.216.524-.539.46-.301 1.165-.6 2.07-.86 1.8-.521 4.229-.85 6.656-.85 2.427 0 4.856.329 6.656.85.905.26 1.61.559 2.07.86.5.326.524.525.524.54 0 .04-.032.211-.31.489-.266.264-.686.553-1.259.822-1.14.535-2.78.939-4.681.939a.75.75 0 00-.75.75v14c0 .414.336.75.75.75 2.085 0 3.944-.39 5.308-1.004.68-.306 1.268-.681 1.697-1.12.427-.437.745-.99.745-1.626V5c0-.814-.604-1.404-1.203-1.796-.637-.416-1.501-.764-2.475-1.046-1.957-.565-4.529-.908-7.072-.908s-5.115.343-7.072.908c-.974.282-1.837.63-2.475 1.046C1.854 3.596 1.25 4.186 1.25 5v14c0 .713.464 1.28.942 1.678.502.418 1.171.781 1.899 1.079 1.457.595 3.303.993 4.909.993a.75.75 0 00.75-.75V8A.75.75 0 009 7.25c-1.64 0-3.286-.4-4.506-.945-.612-.273-1.085-.57-1.392-.844a1.565 1.565 0 01-.301-.342z"/>
</svg>
