<svg xmlns="http://www.w3.org/2000/svg" width="24" height="24" fill="currentColor" viewBox="0 0 24 24">
  <path fill="#0000ff" fill-rule="evenodd" d="M9 1.25h-.07c-.862 0-1.372 0-1.811.058a6.75 6.75 0 00-5.811 5.811c-.058.44-.058.949-.058 1.81v3.505c0 1.651 0 2.937.084 3.968.086 1.047.262 1.897.652 2.662a6.75 6.75 0 002.95 2.95c.765.39 1.615.566 2.662.652 1.031.084 2.317.084 3.968.084H12.434c1.652 0 2.937 0 3.968-.084 1.047-.086 1.897-.262 2.662-.652a6.75 6.75 0 002.95-2.95c.39-.765.566-1.615.652-2.662.084-1.031.084-2.317.084-3.968V8.93c0-.862 0-1.372-.058-1.811a6.75 6.75 0 00-5.81-5.811c-.44-.058-.95-.058-1.812-.058H14.5a.75.75 0 000 1.5h.5c.953 0 1.356.002 1.685.045a5.25 5.25 0 014.52 4.52c.043.329.045.732.045 1.685v3.4c0 1.692 0 2.917-.08 3.88-.077.954-.228 1.585-.492 2.104a5.25 5.25 0 01-2.294 2.294c-.519.264-1.15.415-2.104.493-.963.078-2.188.079-3.88.079h-.8c-1.693 0-2.917 0-3.88-.08-.954-.077-1.585-.228-2.103-.492a5.25 5.25 0 01-2.295-2.294c-.264-.519-.415-1.15-.493-2.104-.078-.963-.079-2.188-.079-3.88V9c0-.953.002-1.356.045-1.685a5.25 5.25 0 014.52-4.52c.329-.043.732-.045 1.685-.045h.5a.75.75 0 100-1.5H9zm5.624 7.334a.75.75 0 00-1.248 0L10 13.648l-1.376-2.064A.75.75 0 008 11.25H6a.75.75 0 000 1.5h1.599l1.777 2.666a.75.75 0 001.248 0L14 10.352l1.376 2.064a.75.75 0 00.624.334h2a.75.75 0 000-1.5h-1.599l-1.777-2.666z"/>
</svg>
