<svg xmlns="http://www.w3.org/2000/svg" width="24" height="24" fill="currentColor" viewBox="0 0 24 24">
  <path fill="#0000ff" fill-rule="evenodd" d="M13.578 3.287a4.25 4.25 0 00-3.156 0c-.612.245-1.223.803-2.015 1.941-.79 1.135-1.684 2.73-2.912 4.923-1.18 2.109-2.039 3.642-2.573 4.862-.536 1.222-.69 2.01-.59 2.65a4.25 4.25 0 001.569 2.676c.509.4 1.272.65 2.6.78 1.326.13 3.083.131 5.499.131 2.417 0 4.174 0 5.499-.13 1.328-.13 2.091-.38 2.6-.781a4.25 4.25 0 001.568-2.676c.081-.512-.001-1.125-.32-1.99-.322-.87-.857-1.928-1.614-3.313a.75.75 0 011.316-.72c.758 1.387 1.341 2.53 1.704 3.513.365.987.533 1.878.396 2.745a5.75 5.75 0 01-2.122 3.619c-.852.672-1.97.957-3.382 1.095-1.407.138-3.237.138-5.601.138h-.088c-2.363 0-4.194 0-5.6-.138-1.414-.138-2.531-.423-3.383-1.095l.464-.59-.464.59a5.75 5.75 0 01-2.122-3.62c-.17-1.071.127-2.186.697-3.486.568-1.295 1.462-2.892 2.617-4.954l.021-.039.022-.038C5.41 7.233 6.339 5.573 7.176 4.371c.838-1.204 1.658-2.064 2.689-2.476a5.75 5.75 0 014.27 0c.857.342 1.563.992 2.253 1.881.688.887 1.407 2.077 2.263 3.578a.75.75 0 01-1.302.743c-.858-1.503-1.53-2.608-2.146-3.402-.614-.79-1.121-1.207-1.625-1.408zM12 8.25a.75.75 0 01.75.75v4a.75.75 0 01-1.5 0V9a.75.75 0 01.75-.75zM12 17a1 1 0 100-2 1 1 0 000 2z"/>
</svg>
