<svg xmlns="http://www.w3.org/2000/svg" width="24" height="24" fill="currentColor" viewBox="0 0 24 24">
  <path fill="#0000ff" fill-rule="evenodd" d="M16.305 18.315a.75.75 0 01.38.99l-.25.563a4.853 4.853 0 01-8.87 0l-.25-.563a.75.75 0 111.37-.61l.25.564a3.353 3.353 0 006.13 0l.25-.564a.75.75 0 01.99-.38z" opacity=".4"/>
  <path fill="#0000ff" fill-rule="evenodd" d="M4.088 7.736a8.069 8.069 0 0115.824 0l1.254 6.27c.403 2.013-.666 4.037-2.534 4.867a16.43 16.43 0 01-13.264 0c-1.868-.83-2.937-2.854-2.534-4.868l1.254-6.269zM12 2.75a6.569 6.569 0 00-6.441 5.28L4.305 14.3a2.9 2.9 0 001.672 3.202 14.93 14.93 0 0012.046 0 2.9 2.9 0 001.672-3.202l-1.254-6.27A6.569 6.569 0 0012 2.75z"/>
</svg>
