<svg xmlns="http://www.w3.org/2000/svg" width="24" height="24" fill="currentColor" viewBox="0 0 24 24">
  <path fill="#0000ff" fill-rule="evenodd" d="M3.53 1.47a.75.75 0 00-1.06 1.06l3.052 3.053 12.83 12.829 3.118 3.118a.75.75 0 101.06-1.06l-3.118-3.119L6.582 4.522 3.53 1.47zM12 1.25c-1.473 0-2.87.399-4.072 1.103a.75.75 0 00.757 1.294 6.569 6.569 0 019.756 4.383l1.254 6.27c.045.224.062.449.053.67a.75.75 0 001.499.06 4.331 4.331 0 00-.081-1.025l-1.254-6.269A8.069 8.069 0 0012 1.25zM5.559 8.03a.75.75 0 10-1.471-.294l-.023.117-1.23 6.152c-.404 2.014.665 4.038 2.533 4.868.681.303 1.381.557 2.093.761l.104.234a4.853 4.853 0 008.87 0l.19-.427a.749.749 0 00-.615-1.191.75.75 0 00-.279.05 15.002 15.002 0 01-7.463 0 .75.75 0 00-.157-.042 14.616 14.616 0 01-2.134-.756A2.9 2.9 0 014.305 14.3l1.23-6.153.024-.116zm3.89 12.043a3.354 3.354 0 005.102 0 16.529 16.529 0 01-5.102 0z"/>
</svg>
