<svg xmlns="http://www.w3.org/2000/svg" width="24" height="24" fill="currentColor" viewBox="0 0 24 24">
  <path fill="#0000ff" fill-rule="evenodd" d="M12 1.25a8.069 8.069 0 00-7.912 6.486l-1.254 6.27c-.403 2.013.666 4.037 2.534 4.867a16.1 16.1 0 002.093.761l.104.234a4.853 4.853 0 008.87 0l.104-.234a16.104 16.104 0 002.093-.761c1.868-.83 2.937-2.854 2.534-4.868l-1.254-6.269A8.069 8.069 0 0012 1.25zm3.89 17.008a.751.751 0 00-.158.042c-2.44.628-5.023.628-7.464 0a.75.75 0 00-.157-.042 14.61 14.61 0 01-2.134-.756A2.9 2.9 0 014.305 14.3l1.254-6.27a6.569 6.569 0 0112.882 0l1.254 6.27a2.9 2.9 0 01-1.672 3.202c-.693.308-1.407.56-2.134.756zm-6.441 1.815a16.53 16.53 0 005.102 0 3.354 3.354 0 01-5.102 0z"/>
</svg>
