<svg xmlns="http://www.w3.org/2000/svg" width="24" height="24" fill="currentColor" viewBox="0 0 24 24">
  <path fill="#0000ff" fill-rule="evenodd" d="M11.966 1.25h.068c1.371 0 2.447 0 3.311.07.88.073 1.607.221 2.265.557a5.75 5.75 0 012.513 2.513c.336.658.485 1.385.556 2.265.071.864.071 1.94.071 3.311V13a.75.75 0 01-1.5 0v-3c0-1.413 0-2.427-.066-3.223-.064-.787-.188-1.295-.397-1.706a4.25 4.25 0 00-1.857-1.858c-.412-.21-.92-.333-1.707-.397-.796-.065-1.81-.066-3.223-.066-1.412 0-2.427 0-3.223.066-.787.064-1.295.188-1.706.397a4.25 4.25 0 00-1.858 1.858c-.21.411-.333.919-.397 1.706-.065.796-.066 1.81-.066 3.223v10.787l1.19-.596.118-.058c1.987-.994 3.124-1.563 4.329-1.789 1.066-.2 2.16-.2 3.226 0 1.205.226 2.342.795 4.33 1.789l.117.058 1.19.596V18a.75.75 0 011.5 0v4a.75.75 0 01-1.085.67l-2.276-1.137c-2.138-1.069-3.079-1.532-4.052-1.714a7.249 7.249 0 00-2.674 0c-.973.182-1.914.645-4.052 1.714l-2.276 1.138A.75.75 0 013.25 22V9.966c0-1.371 0-2.447.07-3.311.073-.88.221-1.607.557-2.265A5.75 5.75 0 016.39 1.877c.658-.336 1.385-.484 2.265-.556.864-.071 1.94-.071 3.311-.071z"/>
</svg>
