<svg xmlns="http://www.w3.org/2000/svg" width="24" height="24" fill="currentColor" viewBox="0 0 24 24">
  <path fill="#0000ff" d="M22 14.282v-7a.498.498 0 00-.757-.425L14.5 10.973c-.908.555-1.363.832-1.848.94-.43.096-.876.096-1.306 0-.485-.108-.94-.385-1.848-.94L2.757 6.857A.498.498 0 002 7.282v7c0 .991 0 1.487.142 1.932a3 3 0 00.605 1.068c.309.351.734.606 1.583 1.116l5.2 3.12c.898.539 1.347.808 1.827.914a3 3 0 001.287 0c.479-.106.928-.375 1.826-.914l5.2-3.12c.85-.51 1.274-.765 1.583-1.116a3 3 0 00.605-1.068c.142-.445.142-.94.142-1.932z" opacity=".12"/>
  <path fill="#0000ff" fill-rule="evenodd" d="M11.196.836a3.75 3.75 0 011.608 0c.601.132 1.15.462 1.945.939l.106.064 5.2 3.12.101.06c.753.451 1.273.763 1.66 1.203.342.389.599.843.756 1.336.179.558.178 1.165.178 2.042V14.4c0 .878 0 1.485-.178 2.043a3.75 3.75 0 01-.756 1.336c-.387.44-.907.752-1.66 1.203l-.1.06-5.2 3.12-.107.064c-.795.477-1.344.807-1.945.94a3.75 3.75 0 01-1.608 0c-.601-.133-1.15-.463-1.945-.94l-.106-.064-5.2-3.12-.1-.06c-.754-.451-1.274-.763-1.661-1.203a3.75 3.75 0 01-.756-1.336c-.179-.558-.178-1.165-.178-2.043V9.6c0-.877 0-1.484.178-2.042a3.75 3.75 0 01.756-1.336c.387-.44.907-.752 1.66-1.203l.1-.06 5.2-3.12.107-.064c.795-.477 1.344-.807 1.945-.94zM12.483 2.3a2.25 2.25 0 00-.966 0c-.33.073-.658.258-1.6.824l-5.2 3.12c-.322.193-.566.34-.758.462l3.336 2.039L15.3 3.854l-1.216-.73c-.943-.565-1.27-.75-1.601-.823zm-3.75 7.324L12 11.62l8.04-4.914c-.19-.122-.435-.27-.756-.462l-2.533-1.52-8.017 4.9zm12.344-1.793l-8.327 5.089v8.694c.275-.11.635-.32 1.334-.74l5.2-3.12c.892-.535 1.193-.725 1.406-.968.205-.233.359-.506.453-.801.099-.308.107-.663.107-1.704V9.718c0-1.04-.008-1.396-.107-1.704a2.268 2.268 0 00-.066-.182zM11.25 21.615v-8.694L2.924 7.832c-.025.06-.048.12-.067.182-.099.308-.107.663-.107 1.704v4.564c0 1.04.008 1.396.107 1.704.094.295.249.568.453.801.214.243.514.433 1.406.968l5.2 3.12c.699.42 1.06.63 1.334.74z"/>
</svg>
