<svg xmlns="http://www.w3.org/2000/svg" width="24" height="24" fill="currentColor" viewBox="0 0 24 24">
  <rect width="20" height="20" x="2" y="2" opacity=".12" rx="6"/>
  <path fill="#0000ff" fill-rule="evenodd" d="M8.75 1a.75.75 0 00-1.5 0v.367c-.89.095-1.636.273-2.314.619a6.75 6.75 0 00-2.95 2.95c-.39.765-.566 1.615-.652 2.662-.084 1.031-.084 2.317-.084 3.968V12.434c0 1.651 0 2.937.084 3.968.086 1.047.262 1.897.652 2.662a6.75 6.75 0 002.95 2.95c.765.39 1.615.566 2.662.652 1.031.084 2.316.084 3.968.084H12.434c1.652 0 2.937 0 3.968-.084 1.047-.086 1.897-.262 2.662-.652a6.75 6.75 0 002.95-2.95c.39-.765.566-1.615.652-2.662.084-1.031.084-2.316.084-3.968V11.566c0-1.652 0-2.937-.084-3.968-.086-1.047-.262-1.897-.652-2.662a6.75 6.75 0 00-2.95-2.95c-.678-.346-1.424-.524-2.314-.62V1a.75.75 0 00-1.5 0v.274c-.801-.024-1.73-.024-2.816-.024H11.566c-1.087 0-2.015 0-2.816.024V1zm6.5 3V2.775a97.711 97.711 0 00-2.85-.025h-.8c-1.142 0-2.07 0-2.85.025V4a.75.75 0 01-1.5 0V2.877c-.7.086-1.205.227-1.633.445a5.25 5.25 0 00-2.295 2.295c-.264.518-.415 1.15-.493 2.103-.078.963-.079 2.187-.079 3.88v.8c0 1.692 0 2.917.08 3.88.077.954.228 1.585.492 2.103a5.25 5.25 0 002.295 2.295c.518.264 1.15.415 2.103.493.963.078 2.187.079 3.88.079h.8c1.692 0 2.917 0 3.88-.08.954-.077 1.585-.228 2.103-.492a5.25 5.25 0 002.295-2.295c.264-.518.415-1.15.493-2.103.078-.963.079-2.188.079-3.88v-.8c0-1.693 0-2.917-.08-3.88-.077-.954-.228-1.585-.492-2.103a5.25 5.25 0 00-2.295-2.295c-.428-.218-.933-.359-1.633-.445V4a.75.75 0 01-1.5 0zM7 7.25a.75.75 0 000 1.5h10a.75.75 0 000-1.5H7zM9 13a1 1 0 11-2 0 1 1 0 012 0zm-1 5a1 1 0 100-2 1 1 0 000 2zm5-1a1 1 0 11-2 0 1 1 0 012 0zm3 1a1 1 0 100-2 1 1 0 000 2zm-3-5a1 1 0 11-2 0 1 1 0 012 0zm3 1a1 1 0 100-2 1 1 0 000 2z"/>
</svg>
