<svg xmlns="http://www.w3.org/2000/svg" width="24" height="24" fill="currentColor" viewBox="0 0 24 24">
  <path fill="#0000ff" fill-rule="evenodd" d="M8 .25a.75.75 0 01.75.75v.25H12.434c1.087 0 2.015 0 2.816.024V1a.75.75 0 011.5 0v.367c.89.095 1.636.273 2.314.619a6.75 6.75 0 012.95 2.95c.39.765.566 1.615.652 2.662.084 1.031.084 2.316.084 3.968V12.434c0 1.652 0 2.937-.084 3.968-.086 1.047-.262 1.897-.652 2.662a6.75 6.75 0 01-2.95 2.95c-.765.39-1.615.566-2.662.652-1.031.084-2.316.084-3.968.084h-2.11c-2.159 0-3.437 0-4.494-.358a6.75 6.75 0 01-4.222-4.222c-.358-1.057-.358-2.335-.358-4.494V13a.75.75 0 011.5 0v.5c0 2.388.01 3.396.279 4.188a5.25 5.25 0 003.283 3.283c.792.269 1.8.279 4.188.279h1.9c1.693 0 2.917 0 3.88-.08.954-.077 1.585-.228 2.104-.492a5.25 5.25 0 002.294-2.295c.264-.518.415-1.15.493-2.103.078-.963.079-2.188.079-3.88v-.8c0-1.693 0-2.917-.08-3.88-.077-.954-.228-1.585-.492-2.103a5.25 5.25 0 00-2.294-2.295c-.429-.218-.934-.359-1.634-.445V4a.75.75 0 01-1.5 0V2.775a97.711 97.711 0 00-2.85-.025H8.75V4a.75.75 0 01-1.5 0V2.75h-.42a4.08 4.08 0 00-4.08 4.08c0 .252.205.457.457.457H17a.75.75 0 010 1.5H3.207A1.957 1.957 0 011.25 6.83a5.58 5.58 0 015.58-5.58h.42V1A.75.75 0 018 .25zM9 13a1 1 0 11-2 0 1 1 0 012 0zm-1 5a1 1 0 100-2 1 1 0 000 2zm5-1a1 1 0 11-2 0 1 1 0 012 0zm3 1a1 1 0 100-2 1 1 0 000 2zm-3-5a1 1 0 11-2 0 1 1 0 012 0zm3 1a1 1 0 100-2 1 1 0 000 2z"/>
</svg>
