<svg xmlns="http://www.w3.org/2000/svg" width="24" height="24" fill="currentColor" viewBox="0 0 24 24">
  <path fill="#0000ff" fill-rule="evenodd" d="M5.089 2.75c.872 0 1.109.012 1.29.08.238.09.443.25.587.458.11.16.18.387.391 1.233l.123.49c.3 1.204.408 1.664.391 2.102a3.25 3.25 0 01-.275 1.189c-.177.4-.475.766-1.275 1.716l-.42.5a.75.75 0 101.149.965l.42-.499.074-.088c.7-.832 1.15-1.367 1.424-1.988A4.75 4.75 0 009.37 7.17c.026-.678-.143-1.357-.407-2.411l-.028-.112-.123-.49-.03-.12c-.166-.667-.295-1.188-.583-1.603a2.75 2.75 0 00-1.29-1.007C6.437 1.25 5.9 1.25 5.213 1.25h-.155c-.471 0-.871 0-1.205.029-.354.03-.685.097-1.009.258a2.895 2.895 0 00-1.371 1.55c-.216.61-.141 1.214-.048 1.964l.015.122c.375 3.06 1.3 5.823 2.707 8.208a18.2 18.2 0 006.115 6.256c2.464 1.53 5.352 2.53 8.565 2.923l.122.015c.75.093 1.353.168 1.965-.048a2.894 2.894 0 001.55-1.371c.16-.326.227-.66.257-1.018.029-.338.029-.745.029-1.227v-.15c0-.671.001-1.198-.177-1.67a2.75 2.75 0 00-1.007-1.29c-.415-.288-.936-.417-1.603-.583l-.12-.03-.709-.178-.104-.026c-.985-.246-1.619-.405-2.256-.391a4.75 4.75 0 00-1.645.331c-.593.235-1.116.627-1.928 1.235l-.087.065-.564.422a.75.75 0 10.9 1.2l.564-.422c.928-.694 1.283-.953 1.666-1.105.359-.141.74-.218 1.126-.226.411-.01.84.091 1.964.373l.709.177c.846.211 1.073.28 1.233.391.208.145.368.349.457.586.07.183.081.411.081 1.261 0 .52 0 .863-.023 1.13-.022.254-.06.384-.107.478a1.406 1.406 0 01-.705.623c-.24.085-.475.073-1.405-.04-3.016-.37-5.692-1.304-7.957-2.71A16.699 16.699 0 015.44 12.62c-1.295-2.194-2.158-4.757-2.51-7.63-.114-.93-.126-1.164-.041-1.404.095-.271.366-.577.623-.705.096-.047.224-.085.472-.107.26-.022.596-.023 1.106-.023zm15.38-.28a.75.75 0 111.061 1.06l-4.72 4.72H20a.75.75 0 010 1.5h-5a.75.75 0 01-.75-.75V4a.75.75 0 011.5 0v3.19l4.72-4.72z"/>
</svg>
