<svg xmlns="http://www.w3.org/2000/svg" width="24" height="24" fill="currentColor" viewBox="0 0 24 24">
  <path fill="#0000ff" d="M18.952 15.738l.708.177c.786.197 1.179.295 1.479.502a2 2 0 01.732.938c.129.342.129.737.129 1.526 0 1.014 0 1.521-.209 1.942a2.148 2.148 0 01-1.127.997c-.442.156-.876.102-1.745-.004-3.115-.382-5.897-1.349-8.261-2.816a17.45 17.45 0 01-5.865-6c-1.351-2.29-2.245-4.953-2.609-7.919-.106-.869-.16-1.303-.004-1.745.16-.455.565-.913.998-1.128C3.598 2 4.095 2 5.088 2c.81 0 1.215 0 1.556.129a2 2 0 01.939.732c.207.3.305.693.502 1.478l.122.49c.29 1.161.436 1.742.414 2.312a4 4 0 01-.338 1.464c-.231.522-.617.98-1.388 1.896L4.793 13a17.45 17.45 0 005.865 6l2.906-2.176c.895-.67 1.342-1.005 1.84-1.202a4 4 0 011.386-.28c.535-.01 1.078.125 2.162.396z" opacity=".12"/>
  <path fill="#0000ff" fill-rule="evenodd" d="M5.089 2.75c.872 0 1.109.012 1.29.08.238.09.443.25.587.458.11.16.18.387.391 1.233l.123.49c.3 1.204.408 1.664.391 2.102a3.25 3.25 0 01-.275 1.189c-.177.4-.475.766-1.275 1.716L4.923 11.68c-1.01-1.975-1.691-4.219-1.994-6.69-.114-.93-.126-1.165-.041-1.405.095-.271.366-.577.623-.705.096-.048.224-.085.472-.107.26-.022.596-.023 1.106-.023zm2.38 8.234L5.714 13.07a16.67 16.67 0 004.91 5.018l2.49-1.864.087-.065c.812-.608 1.335-1 1.928-1.235a4.752 4.752 0 011.645-.331c.637-.014 1.271.145 2.256.391l.104.026.708.177.121.03c.667.166 1.188.296 1.603.584.459.318.81.768 1.007 1.29.178.472.178.999.177 1.67v.15c0 .482 0 .889-.029 1.227-.03.358-.096.692-.258 1.018a2.894 2.894 0 01-1.55 1.371c-.61.215-1.214.14-1.964.048l-.122-.015c-3.213-.394-6.1-1.394-8.565-2.923a18.2 18.2 0 01-6.115-6.256C2.739 10.996 1.815 8.232 1.44 5.172l-.015-.12c-.093-.751-.168-1.354.048-1.966a2.895 2.895 0 011.371-1.55c.324-.16.655-.227 1.01-.257.333-.03.733-.03 1.204-.03h.155c.687 0 1.224 0 1.696.178A2.75 2.75 0 018.2 2.434c.288.415.417.936.583 1.603l.03.12.123.49.028.112c.264 1.054.433 1.733.407 2.411a4.75 4.75 0 01-.402 1.738c-.274.621-.725 1.156-1.424 1.988l-.075.088zm11.54 10.087c-2.597-.318-4.944-1.056-6.992-2.152l1.997-1.495c.928-.695 1.283-.953 1.666-1.105.359-.142.74-.218 1.126-.226.411-.01.84.091 1.964.373l.709.177c.846.211 1.073.28 1.233.39.208.145.368.35.457.587.07.183.081.411.081 1.261 0 .52 0 .863-.023 1.13-.022.254-.06.383-.107.478a1.406 1.406 0 01-.705.623c-.24.085-.475.073-1.405-.04zM20.47 2.47a.75.75 0 111.061 1.06l-4.72 4.72H20a.75.75 0 010 1.5h-5a.75.75 0 01-.75-.75V4a.75.75 0 011.5 0v3.19l4.72-4.72z"/>
</svg>
