<svg xmlns="http://www.w3.org/2000/svg" width="24" height="24" fill="currentColor" viewBox="0 0 24 24">
  <path fill="#0000ff" fill-rule="evenodd" d="M21.53 2.47a.75.75 0 00-1.06 0l-4.72 4.72V4a.75.75 0 00-1.5 0v5c0 .414.336.75.75.75h5a.75.75 0 000-1.5h-3.19l4.72-4.72a.75.75 0 000-1.06z" opacity=".4"/>
  <path fill="#0000ff" fill-rule="evenodd" d="M6.38 2.83c-.182-.068-.419-.08-1.291-.08-.51 0-.845 0-1.106.023-.248.022-.376.06-.472.107a1.405 1.405 0 00-.623.705c-.085.24-.073.475.04 1.405.304 2.471.985 4.715 1.995 6.69l1.398-1.662c.8-.95 1.098-1.315 1.276-1.716a3.25 3.25 0 00.274-1.19c.017-.437-.09-.897-.391-2.101l-.123-.49c-.211-.846-.28-1.073-.391-1.233a1.25 1.25 0 00-.586-.457zm-.666 10.24l1.755-2.086.075-.088c.7-.832 1.15-1.367 1.424-1.988A4.75 4.75 0 009.37 7.17c.026-.678-.143-1.357-.407-2.411l-.028-.112-.123-.49-.03-.12c-.166-.667-.295-1.188-.583-1.603a2.75 2.75 0 00-1.29-1.007C6.437 1.25 5.9 1.25 5.213 1.25h-.155c-.471 0-.871 0-1.205.029-.354.03-.685.097-1.009.258a2.895 2.895 0 00-1.371 1.55c-.216.61-.141 1.214-.048 1.964l.015.122c.375 3.06 1.3 5.823 2.707 8.208a18.2 18.2 0 006.115 6.256c2.464 1.53 5.352 2.53 8.565 2.923l.122.015c.75.093 1.353.168 1.965-.048a2.894 2.894 0 001.55-1.371c.16-.326.227-.66.257-1.018.029-.338.029-.745.029-1.227v-.03-.12c0-.671.001-1.198-.177-1.67a2.75 2.75 0 00-1.007-1.29c-.415-.288-.936-.417-1.603-.583l-.12-.03-.709-.178-.104-.026c-.985-.246-1.619-.405-2.256-.391a4.75 4.75 0 00-1.645.331c-.593.235-1.116.627-1.928 1.235l-.087.065-2.49 1.864a16.669 16.669 0 01-4.91-5.018zm6.303 5.849c2.048 1.097 4.395 1.834 6.993 2.152.93.114 1.165.126 1.405.041.271-.095.577-.366.705-.623.047-.095.085-.224.107-.478.022-.267.023-.61.023-1.13 0-.85-.012-1.078-.08-1.26a1.25 1.25 0 00-.458-.587c-.16-.11-.387-.18-1.233-.391l-.709-.177c-1.124-.282-1.553-.382-1.964-.373a3.248 3.248 0 00-1.126.226c-.383.152-.739.41-1.666 1.105l-1.997 1.495z"/>
</svg>
