<svg xmlns="http://www.w3.org/2000/svg" width="24" height="24" fill="currentColor" viewBox="0 0 24 24">
  <path fill="#0000ff" fill-rule="evenodd" d="M1.47 1.47a.75.75 0 011.06 0L5.56 4.5c.683-.225 1.32-.673 1.689-1.225a4.548 4.548 0 013.784-2.025h1.934c1.521 0 2.941.76 3.784 2.025.47.703 1.201 1.15 2.074 1.325a4.882 4.882 0 013.925 4.787v3.863c0 1.74 0 3.103-.112 4.188-.113 1.107-.35 2.008-.878 2.788-.064.094-.13.185-.199.275l1.47 1.468a.75.75 0 01-1.061 1.061l-1.965-1.964L4.803 5.863 1.47 2.53a.75.75 0 010-1.06zm14.195 13.134a4 4 0 00-5.27-5.27l5.27 5.27zM3.193 6.388a.75.75 0 01.179 1.045 3.372 3.372 0 00-.622 1.954v3.82c0 1.792 0 3.079.104 4.078.101.986.296 1.609.628 2.1a4.25 4.25 0 001.133 1.133c.491.332 1.113.527 2.1.628 1 .103 2.286.104 4.077.104h2.416c1.588 0 2.782 0 3.735-.073a.75.75 0 11.114 1.495c-1.016.078-2.267.078-3.82.078H10.75c-1.74 0-3.103 0-4.188-.112-1.106-.114-2.007-.35-2.787-.879a5.75 5.75 0 01-1.534-1.533c-.528-.78-.765-1.68-.878-2.788-.112-1.085-.112-2.448-.112-4.187V9.387c0-1.042.33-2.02.897-2.822a.75.75 0 011.046-.178zm5.12 4.886a.75.75 0 01.54.913 3.25 3.25 0 003.96 3.96.75.75 0 01.374 1.453A4.75 4.75 0 017.4 11.813a.75.75 0 01.913-.54z"/>
</svg>
