<svg xmlns="http://www.w3.org/2000/svg" width="24" height="24" fill="currentColor" viewBox="0 0 24 24">
  <path fill="#0000ff" fill-rule="evenodd" d="M8.497 4.107a3.048 3.048 0 012.536-1.357h1.934c1.02 0 1.971.51 2.536 1.357a4.547 4.547 0 002.892 1.937l.136.027a3.382 3.382 0 012.719 3.316V14c0 1.412 0 2.427-.066 3.223-.064.787-.188 1.295-.397 1.707a4.25 4.25 0 01-1.857 1.857c-.412.21-.92.333-1.707.397-.796.065-1.81.066-3.223.066h-4c-1.413 0-2.427 0-3.223-.066-.787-.064-1.295-.188-1.706-.397a4.25 4.25 0 01-1.858-1.857c-.21-.412-.333-.92-.397-1.707-.065-.796-.066-1.81-.066-3.223V9.387c0-1.612 1.138-3 2.719-3.316l.136-.027a4.548 4.548 0 002.892-1.937zm2.536-2.857c-1.521 0-2.941.76-3.784 2.025A3.048 3.048 0 015.31 4.573l-.135.027A4.882 4.882 0 001.25 9.387v4.647c0 1.371 0 2.447.07 3.311.073.88.221 1.607.557 2.265a5.75 5.75 0 002.513 2.513c.658.336 1.385.485 2.265.556.864.071 1.94.071 3.311.071h4.068c1.371 0 2.447 0 3.311-.07.88-.072 1.607-.221 2.265-.557a5.75 5.75 0 002.513-2.513c.336-.658.485-1.385.556-2.265.071-.864.071-1.94.071-3.311V9.387A4.882 4.882 0 0018.825 4.6l-.135-.027a3.047 3.047 0 01-1.939-1.298 4.548 4.548 0 00-3.784-2.025h-1.934zM8.75 13a3.25 3.25 0 116.5 0 3.25 3.25 0 01-6.5 0zM12 8.25a4.75 4.75 0 100 9.5 4.75 4.75 0 000-9.5z"/>
</svg>
