<svg xmlns="http://www.w3.org/2000/svg" width="24" height="24" fill="currentColor" viewBox="0 0 24 24">
  <path fill="#0000ff" fill-rule="evenodd" d="M2.53 1.47a.75.75 0 00-1.06 1.06l3.333 3.334 4.37 4.37a.718.718 0 00.026.025l5.542 5.542a.668.668 0 00.025.025l5.24 5.24 1.964 1.964a.75.75 0 101.06-1.06l-1.469-1.47c.07-.089.135-.18.199-.274.528-.78.765-1.68.878-2.787.112-1.085.112-2.45.112-4.188V9.388A4.882 4.882 0 0018.825 4.6c-.873-.175-1.605-.622-2.073-1.325a4.548 4.548 0 00-3.784-2.025h-1.935c-1.521 0-2.941.76-3.784 2.025-.369.552-1.006 1-1.689 1.224L2.53 1.47zm13.698 13.697l4.26 4.26.03-.043c.332-.49.527-1.112.628-2.099.103-1 .104-2.286.104-4.077v-3.82c0-1.613-1.138-3-2.719-3.317-1.204-.24-2.307-.883-3.028-1.964a3.048 3.048 0 00-2.536-1.357h-1.934c-1.02 0-1.971.51-2.536 1.357-.439.658-1.08 1.184-1.79 1.538l3.126 3.127a4.75 4.75 0 016.395 6.395zm-5.253-5.252l4.11 4.11a3.25 3.25 0 00-4.11-4.11zM3.372 7.433a.75.75 0 10-1.225-.867 4.872 4.872 0 00-.897 2.821v3.863c0 1.74 0 3.104.112 4.189.113 1.106.35 2.007.878 2.787a5.75 5.75 0 001.534 1.534c.78.528 1.68.764 2.787.878 1.085.112 2.449.112 4.188.112h2.489c1.552 0 2.803 0 3.82-.078a.75.75 0 10-.115-1.495c-.953.072-2.147.073-3.735.073h-2.416c-1.791 0-3.078-.001-4.077-.104-.987-.101-1.609-.296-2.1-.628a4.25 4.25 0 01-1.133-1.134c-.333-.49-.527-1.112-.628-2.099-.103-1-.104-2.286-.104-4.077v-3.82c0-.723.228-1.399.622-1.955zm5.48 4.754a.75.75 0 10-1.452-.374 4.75 4.75 0 005.787 5.787.75.75 0 10-.374-1.452 3.25 3.25 0 01-3.96-3.96z"/>
</svg>
