<svg xmlns="http://www.w3.org/2000/svg" width="24" height="24" fill="currentColor" viewBox="0 0 24 24">
  <path fill="#0000ff" fill-rule="evenodd" d="M13.628 1.372l.084.014a10.758 10.758 0 018.916 8.986c.062.38.132.804-.034 1.245a1.843 1.843 0 01-.77.903 1.724 1.724 0 01-.705.21c-.203.02-.441.02-.69.02H15.17c-.535 0-.98 0-1.345-.03-.38-.03-.736-.098-1.073-.27a2.751 2.751 0 01-1.202-1.201c-.172-.338-.24-.694-.27-1.074-.03-.365-.03-.81-.03-1.345V3.6v-.03c0-.248 0-.486.02-.689.023-.228.075-.467.21-.705.192-.335.542-.634.903-.77.44-.166.865-.096 1.245-.034zm-.715 1.438h-.001l-.02.011a.401.401 0 00-.095.08c-.01.011-.014.018-.014.02l-.001.001a.58.58 0 00-.019.107c-.012.12-.013.283-.013.571v5.2c0 .572 0 .957.025 1.252.023.288.065.425.111.516.12.235.311.426.546.546.091.046.228.088.515.111.296.024.68.025 1.253.025h5.2c.288 0 .45 0 .57-.013a.594.594 0 00.097-.015l.01-.004h.003l.019-.015a.404.404 0 00.08-.094l.011-.021v-.001c.003-.007.01-.024.007-.091a9.258 9.258 0 00-8.192-8.192c-.068-.004-.085.003-.092.006z" opacity=".4"/>
  <path fill="#0000ff" fill-rule="evenodd" d="M9.716 2.233a.75.75 0 01-.491.94A9.254 9.254 0 002.75 12 9.25 9.25 0 0012 21.25a9.255 9.255 0 008.827-6.475.75.75 0 111.43.45C20.889 19.585 16.816 22.75 12 22.75 6.063 22.75 1.25 17.937 1.25 12c0-4.814 3.165-8.888 7.525-10.258a.75.75 0 01.94.491z"/>
</svg>
