<svg xmlns="http://www.w3.org/2000/svg" width="24" height="24" fill="currentColor" viewBox="0 0 24 24">
  <path fill="#0000ff" fill-rule="evenodd" d="M13.712 1.386l-.084-.014c-.38-.062-.804-.132-1.245.034a1.843 1.843 0 00-.903.77 1.724 1.724 0 00-.21.705c-.02.203-.02.441-.02.69V8.83c0 .534 0 .98.03 1.345.03.38.098.736.27 1.073.263.518.684.939 1.201 1.202.338.172.694.24 1.074.27.365.03.81.03 1.345.03H20.43c.248 0 .486 0 .689-.02.229-.023.467-.075.705-.21.335-.192.634-.542.77-.903.166-.44.096-.865.034-1.245l-.014-.084a10.758 10.758 0 00-8.902-8.902zM9.75 2.458a.75.75 0 00-.975-.716C4.415 3.112 1.25 7.186 1.25 12c0 5.937 4.813 10.75 10.75 10.75 4.815 0 8.888-3.164 10.258-7.525a.75.75 0 00-.716-.975H16.2c-1.272 0-2.182 0-2.894-.059-.704-.057-1.15-.167-1.508-.35a3.75 3.75 0 01-1.64-1.638c-.182-.358-.292-.804-.35-1.508-.057-.713-.058-1.622-.058-2.895V2.458z"/>
</svg>
