<svg xmlns="http://www.w3.org/2000/svg" width="24" height="24" fill="currentColor" viewBox="0 0 24 24">
  <circle cx="12" cy="12" r="10" opacity=".12"/>
  <path fill="#0000ff" fill-rule="evenodd" d="M2.75 12A9.25 9.25 0 0112 2.75a9.21 9.21 0 014.11.961.75.75 0 00.668-1.343A10.709 10.709 0 0012 1.25C6.063 1.25 1.25 6.063 1.25 12S6.063 22.75 12 22.75 22.75 17.937 22.75 12c0-.403-.022-.801-.066-1.194a.75.75 0 10-1.49.165A9.25 9.25 0 112.75 12zm19.78-7.47a.75.75 0 00-1.06-1.06L12 12.94l-2.47-2.47a.75.75 0 00-1.06 1.06l3 3a.75.75 0 001.06 0l10-10z"/>
</svg>
