<svg xmlns="http://www.w3.org/2000/svg" width="24" height="24" fill="currentColor" viewBox="0 0 24 24">
  <path fill="#0000ff" fill-rule="evenodd" d="M22.53 3.47a.75.75 0 010 1.06l-10 10a.75.75 0 01-1.06 0l-3-3a.75.75 0 111.06-1.06L12 12.94l9.47-9.47a.75.75 0 011.06 0z" opacity=".4"/>
  <path fill="#0000ff" fill-rule="evenodd" d="M12 2.75a9.25 9.25 0 109.194 8.221.75.75 0 011.49-.165c.044.393.066.79.066 1.194 0 5.937-4.813 10.75-10.75 10.75S1.25 17.937 1.25 12 6.063 1.25 12 1.25c1.715 0 3.338.402 4.778 1.118a.75.75 0 11-.667 1.343A9.21 9.21 0 0012 2.75z"/>
</svg>
