<svg xmlns="http://www.w3.org/2000/svg" width="24" height="24" fill="currentColor" viewBox="0 0 24 24">
  <path fill="#0000ff" fill-rule="evenodd" d="M4.53.47a.75.75 0 010 1.06l-3 3A.75.75 0 01.47 3.47l3-3a.75.75 0 011.06 0zm7.47.78C6.063 1.25 1.25 6.063 1.25 12c0 .735.074 1.454.215 2.15a.75.75 0 001.47-.3A9.25 9.25 0 1112 21.25a9.22 9.22 0 01-6.606-2.775.75.75 0 00-1.071 1.05A10.72 10.72 0 0012 22.75c5.937 0 10.75-4.813 10.75-10.75S17.937 1.25 12 1.25zM12.75 8a.75.75 0 00-1.5 0v4c0 .25.125.485.334.624l3 2a.75.75 0 10.832-1.248l-2.666-1.777V8zm6.72-6.47A.75.75 0 0120.53.47l3 3a.75.75 0 01-1.06 1.06l-3-3z"/>
</svg>
