<svg xmlns="http://www.w3.org/2000/svg" width="24" height="24" fill="currentColor" viewBox="0 0 24 24">
  <path fill="#0000ff" fill-rule="evenodd" d="M4.53.47a.75.75 0 010 1.06l-3 3A.75.75 0 01.47 3.47l3-3a.75.75 0 011.06 0zM12 7.25a.75.75 0 01.75.75v3.599l2.666 1.777a.75.75 0 11-.832 1.248l-3-2A.75.75 0 0111.25 12V8a.75.75 0 01.75-.75zm7.47-5.72A.75.75 0 0120.53.47l3 3a.75.75 0 01-1.06 1.06l-3-3z" opacity=".4"/>
  <path fill="#0000ff" fill-rule="evenodd" d="M12 2.75a9.25 9.25 0 100 18.5 9.25 9.25 0 000-18.5zM1.25 12C1.25 6.063 6.063 1.25 12 1.25S22.75 6.063 22.75 12 17.937 22.75 12 22.75 1.25 17.937 1.25 12z"/>
</svg>
