<svg xmlns="http://www.w3.org/2000/svg" width="24" height="24" fill="currentColor" viewBox="0 0 24 24">
  <path fill="#0000ff" fill-rule="evenodd" d="M1.25 12C1.25 6.063 6.063 1.25 12 1.25S22.75 6.063 22.75 12 17.937 22.75 12 22.75 1.25 17.937 1.25 12zm8.971-1.779c-.256.257-.41.594-.717 1.27l-1.4 3.081c-.464 1.02-.696 1.53-.45 1.775.244.245.754.013 1.774-.45l3.081-1.401c.676-.307 1.013-.46 1.27-.717.256-.257.41-.594.717-1.27l1.4-3.081c.464-1.02.696-1.53.45-1.775-.244-.245-.754-.013-1.774.45l-3.081 1.401c-.676.307-1.013.46-1.27.717z"/>
</svg>
