<svg xmlns="http://www.w3.org/2000/svg" width="24" height="24" fill="currentColor" viewBox="0 0 24 24">
  <path fill="#0000ff" fill-rule="evenodd" d="M6.5 1.25h-.048c-.418 0-.685 0-.918.023a4.75 4.75 0 00-4.261 4.261c-.023.233-.023.5-.023.918V7a.75.75 0 101.5 0v-.5c0-.482 0-.669.016-.819A3.25 3.25 0 015.68 2.766c.15-.015.337-.016.819-.016h3.1c1.133 0 1.937 0 2.566.052.62.05 1.005.147 1.31.302a3.25 3.25 0 011.42 1.42c.155.305.251.69.302 1.31.051.63.052 1.434.052 2.566v1.2c0 1.133 0 1.937-.052 2.566-.05.62-.147 1.005-.302 1.31a3.25 3.25 0 01-1.42 1.42c-.305.155-.69.251-1.31.302-.63.051-1.434.052-2.566.052H6.5c-.482 0-.669 0-.819-.016a3.25 3.25 0 01-2.915-2.915c-.015-.15-.016-.337-.016-.819V11a.75.75 0 00-1.5 0v.548c0 .418 0 .685.023.918a4.75 4.75 0 004.261 4.261c.233.023.5.023.918.023h.798c.002.577.008 1.06.034 1.47.034.546.105 1.014.27 1.453a4.75 4.75 0 002.773 2.773c.44.165.907.236 1.454.27.535.034 1.195.034 2.027.034H15.633c1.092 0 1.958 0 2.655-.057.714-.058 1.317-.18 1.869-.46a4.75 4.75 0 002.075-2.076c.281-.552.403-1.155.461-1.869.057-.697.057-1.563.057-2.655V13.808c0-.832 0-1.492-.034-2.027-.034-.547-.105-1.015-.27-1.454a4.75 4.75 0 00-2.773-2.773c-.44-.165-.907-.236-1.453-.27-.41-.026-.894-.032-1.473-.034a21.648 21.648 0 00-.054-1.538c-.058-.714-.18-1.317-.46-1.868a4.75 4.75 0 00-2.077-2.076c-.55-.281-1.154-.403-1.868-.461-.697-.057-1.563-.057-2.655-.057H6.5zm10.25 7.5v.883c0 1.092 0 1.958-.057 2.655-.058.714-.18 1.317-.46 1.868a4.75 4.75 0 01-2.077 2.076c-.55.281-1.154.403-1.868.461-.697.057-1.563.057-2.655.057H8.75c.002.568.008 1.01.03 1.376.03.477.087.777.178 1.019a3.25 3.25 0 001.897 1.897c.242.09.542.148 1.02.177.482.03 1.095.031 1.958.031H15.6c1.133 0 1.937 0 2.566-.052.62-.05 1.005-.147 1.31-.302a3.25 3.25 0 001.42-1.42c.155-.305.251-.69.302-1.31.051-.63.052-1.433.052-2.566v-1.767c0-.863 0-1.476-.03-1.959-.03-.477-.087-.777-.178-1.019a3.25 3.25 0 00-1.897-1.897c-.242-.09-.542-.148-1.02-.177a24.063 24.063 0 00-1.375-.03z"/>
</svg>
