<svg xmlns="http://www.w3.org/2000/svg" width="24" height="24" fill="currentColor" viewBox="0 0 24 24">
  <path fill="#0000ff" fill-rule="evenodd" d="M12 22c5.523 0 10-4.477 10-10S17.523 2 12 2 2 6.477 2 12s4.477 10 10 10zm0-13s-2 1.482-2 3.556c0 3.259 4 3.259 4 0C14 10.482 12 9 12 9z" opacity=".12"/>
  <path fill="#0000ff" fill-rule="evenodd" d="M12.75 4V2.78a9.21 9.21 0 015.24 2.17l-.52.52a.75.75 0 101.06 1.06l.52-.519a9.21 9.21 0 012.17 5.239H20a.75.75 0 000 1.5h1.22a9.21 9.21 0 01-2.17 5.239l-.52-.52a.75.75 0 10-1.06 1.061l.52.52a9.214 9.214 0 01-5.99 2.2 9.213 9.213 0 01-5.989-2.2l.52-.52a.75.75 0 10-1.06-1.06l-.52.52a9.21 9.21 0 01-2.171-5.24H4a.75.75 0 000-1.5H2.78a9.21 9.21 0 012.17-5.239l.52.52A.75.75 0 006.53 5.47l-.519-.52a9.21 9.21 0 015.239-2.17V4a.75.75 0 001.5 0zM12 1.25c5.937 0 10.75 4.813 10.75 10.75S17.937 22.75 12 22.75 1.25 17.937 1.25 12 6.063 1.25 12 1.25zM12 9l.446-.603a.75.75 0 00-.893 0L12 9zm.413 1.466a5.587 5.587 0 00-.413-.463c-.128.129-.27.284-.413.463-.45.566-.837 1.293-.837 2.09 0 .658.2 1.078.427 1.325.23.25.529.369.823.369.294 0 .593-.119.823-.369.228-.248.427-.667.427-1.325 0-.797-.388-1.524-.837-2.09zm2.337 2.09c0-1.278-.612-2.33-1.163-3.022a7.15 7.15 0 00-1.105-1.11l-.023-.018-.008-.005-.003-.002v-.001h-.001L12 9a107.65 107.65 0 00-.447-.602h-.001l-.003.003-.008.005-.023.018-.078.062a7.15 7.15 0 00-1.028 1.047c-.55.694-1.162 1.745-1.162 3.022 0 .972.3 1.774.823 2.342.52.564 1.221.853 1.927.853s1.407-.289 1.927-.853c.522-.568.823-1.37.823-2.341z"/>
</svg>
