<svg xmlns="http://www.w3.org/2000/svg" width="24" height="24" fill="currentColor" viewBox="0 0 24 24">
  <path fill="#0000ff" fill-rule="evenodd" d="M12.446 8.397L12 9l-.447-.603a.75.75 0 01.893 0zM12 10.003c.128.129.27.284.413.463.45.566.837 1.293.837 2.09 0 .658-.2 1.078-.427 1.325-.23.25-.529.369-.823.369-.294 0-.593-.119-.823-.369-.228-.248-.427-.667-.427-1.325 0-.797.388-1.524.837-2.09.143-.179.285-.334.413-.463zm1.587-.47c.55.694 1.163 1.745 1.163 3.023 0 .971-.3 1.774-.823 2.34-.52.565-1.221.854-1.927.854a2.612 2.612 0 01-1.927-.853c-.522-.568-.823-1.37-.823-2.341 0-1.278.612-2.33 1.163-3.022a7.15 7.15 0 011.105-1.11l.023-.018.008-.005.003-.002v-.001h.001L12 9c.446-.603.447-.603.447-.602h.001l.003.003.008.005.023.018.078.062a7.15 7.15 0 011.028 1.047z" opacity=".4"/>
  <path fill="#0000ff" fill-rule="evenodd" d="M2.78 11.25a9.21 9.21 0 012.17-5.239l.52.52A.75.75 0 006.53 5.47l-.519-.52a9.21 9.21 0 015.239-2.17V4a.75.75 0 001.5 0V2.78a9.21 9.21 0 015.24 2.17l-.52.52a.75.75 0 101.06 1.06l.52-.519a9.21 9.21 0 012.17 5.239H20a.75.75 0 000 1.5h1.22a9.21 9.21 0 01-2.17 5.239l-.52-.52a.75.75 0 10-1.06 1.061l.52.52a9.214 9.214 0 01-5.99 2.2 9.213 9.213 0 01-5.989-2.2l.52-.52a.75.75 0 10-1.06-1.06l-.52.52a9.21 9.21 0 01-2.171-5.24H4a.75.75 0 000-1.5H2.78zm9.22-10c5.937 0 10.75 4.813 10.75 10.75S17.937 22.75 12 22.75 1.25 17.937 1.25 12 6.063 1.25 12 1.25z"/>
</svg>
