<svg xmlns="http://www.w3.org/2000/svg" width="24" height="24" fill="currentColor" viewBox="0 0 24 24">
  <path fill="#0000ff" fill-rule="evenodd" d="M17.17 1.25H18.83c.535 0 .98 0 1.345.03.38.03.736.098 1.073.27a2.75 2.75 0 011.202 1.202c.172.337.24.693.27 1.073.03.365.03.81.03 1.345V6.83c0 .535 0 .98-.03 1.345-.03.38-.098.736-.27 1.073a2.75 2.75 0 01-1.201 1.202c-.338.172-.694.24-1.074.27-.365.03-.81.03-1.345.03H17.17c-.535 0-.98 0-1.345-.03-.38-.03-.736-.098-1.073-.27a2.75 2.75 0 01-1.202-1.202c-.172-.337-.24-.693-.27-1.073-.03-.365-.03-.81-.03-1.345V5.17c0-.535 0-.98.03-1.345.03-.38.098-.736.27-1.073A2.75 2.75 0 0114.75 1.55c.338-.172.694-.24 1.074-.27.365-.03.81-.03 1.345-.03zm-1.223 1.525c-.287.023-.424.065-.514.111a1.25 1.25 0 00-.547.547c-.046.09-.088.227-.111.514-.024.296-.025.68-.025 1.253v1.6c0 .572 0 .957.025 1.253.023.287.065.424.111.514.12.236.311.427.546.547.091.046.228.088.515.111.296.024.68.025 1.253.025h1.6c.572 0 .957 0 1.252-.025.288-.023.425-.065.515-.111a1.25 1.25 0 00.547-.547c.046-.09.088-.227.111-.514.024-.296.025-.68.025-1.253V5.2c0-.572 0-.957-.025-1.253-.023-.287-.065-.424-.111-.514a1.25 1.25 0 00-.547-.547c-.09-.046-.227-.088-.515-.111-.295-.024-.68-.025-1.252-.025h-1.6c-.572 0-.957 0-1.252.025z" opacity=".4"/>
  <path fill="#0000ff" fill-rule="evenodd" d="M5.17 1.25H6.83c.535 0 .98 0 1.345.03.38.03.736.098 1.073.27a2.75 2.75 0 011.202 1.202c.172.337.24.693.27 1.073.03.365.03.81.03 1.345V6.83c0 .535 0 .98-.03 1.345-.03.38-.098.736-.27 1.073a2.75 2.75 0 01-1.202 1.202c-.337.172-.693.24-1.073.27-.365.03-.81.03-1.345.03H5.17c-.535 0-.98 0-1.345-.03-.38-.03-.736-.098-1.073-.27A2.75 2.75 0 011.55 9.248c-.172-.337-.24-.693-.27-1.073-.03-.365-.03-.81-.03-1.345V5.17c0-.535 0-.98.03-1.345.03-.38.098-.736.27-1.073A2.75 2.75 0 012.752 1.55c.337-.172.693-.24 1.073-.27.365-.03.81-.03 1.345-.03zM3.947 2.775c-.287.023-.424.065-.514.111a1.25 1.25 0 00-.547.547c-.046.09-.088.227-.111.514-.024.296-.025.68-.025 1.253v1.6c0 .572 0 .957.025 1.253.023.287.065.424.111.514.12.236.311.427.547.547.09.046.227.088.514.111.296.024.68.025 1.253.025h1.6c.572 0 .957 0 1.253-.025.287-.023.424-.065.514-.111a1.25 1.25 0 00.547-.547c.046-.09.088-.227.111-.514.024-.296.025-.68.025-1.253V5.2c0-.572 0-.957-.025-1.253-.023-.287-.065-.424-.111-.514a1.25 1.25 0 00-.547-.547c-.09-.046-.227-.088-.514-.111-.296-.024-.68-.025-1.253-.025H5.2c-.572 0-.957 0-1.253.025zM5.17 13.25H6.83c.535 0 .98 0 1.345.03.38.03.736.098 1.073.27a2.75 2.75 0 011.202 1.201c.172.338.24.694.27 1.074.03.365.03.81.03 1.345V18.83c0 .535 0 .98-.03 1.345-.03.38-.098.736-.27 1.073a2.75 2.75 0 01-1.202 1.202c-.337.172-.693.24-1.073.27-.365.03-.81.03-1.344.03H5.17c-.535 0-.98 0-1.345-.03-.38-.03-.736-.098-1.073-.27A2.75 2.75 0 011.55 21.25c-.172-.338-.24-.694-.27-1.074-.03-.365-.03-.81-.03-1.345V17.17c0-.535 0-.98.03-1.345.03-.38.098-.736.27-1.073a2.75 2.75 0 011.202-1.202c.337-.172.693-.24 1.073-.27.365-.03.81-.03 1.345-.03zm-1.223 1.525c-.287.023-.424.065-.514.111a1.25 1.25 0 00-.547.546c-.046.091-.088.228-.111.515-.024.296-.025.68-.025 1.253v1.6c0 .572 0 .957.025 1.252.023.288.065.425.111.515.12.236.311.427.547.547.09.046.227.088.514.111.296.024.68.025 1.253.025h1.6c.572 0 .957 0 1.253-.025.287-.023.424-.065.514-.111a1.25 1.25 0 00.547-.547c.046-.09.088-.227.111-.515.024-.295.025-.68.025-1.252v-1.6c0-.572 0-.957-.025-1.252-.023-.288-.065-.425-.111-.516a1.25 1.25 0 00-.547-.546c-.09-.046-.227-.088-.514-.111-.296-.024-.68-.025-1.253-.025H5.2c-.572 0-.957 0-1.253.025zM17.2 13.25h-.03c-.535 0-.98 0-1.345.03-.38.03-.736.098-1.073.27a2.751 2.751 0 00-1.202 1.201c-.172.338-.24.694-.27 1.074-.03.365-.03.81-.03 1.345V18.83c0 .535 0 .98.03 1.345.03.38.098.736.27 1.073.263.518.684.939 1.201 1.202.338.172.694.24 1.074.27.364.03.81.03 1.344.03h1.661c.535 0 .98 0 1.345-.03.38-.03.736-.098 1.073-.27a2.751 2.751 0 001.202-1.201c.172-.338.24-.694.27-1.074.03-.364.03-.81.03-1.344V17.17c0-.535 0-.98-.03-1.345-.03-.38-.098-.736-.27-1.073a2.751 2.751 0 00-1.201-1.202c-.338-.172-.694-.24-1.074-.27-.365-.03-.81-.03-1.345-.03H17.2zm-1.768 1.636c.091-.046.228-.088.515-.111.296-.024.68-.025 1.253-.025h1.6c.572 0 .957 0 1.252.025.288.023.425.065.515.111.236.12.427.311.547.546.046.091.088.228.111.515.024.296.025.68.025 1.253v1.6c0 .572 0 .957-.025 1.252-.023.288-.065.425-.111.515a1.25 1.25 0 01-.547.547c-.09.046-.227.088-.515.111-.295.024-.68.025-1.252.025h-1.6c-.572 0-.957 0-1.252-.025-.288-.023-.425-.065-.516-.111a1.25 1.25 0 01-.546-.547c-.046-.09-.088-.227-.111-.515-.024-.295-.025-.68-.025-1.252v-1.6c0-.572 0-.957.025-1.252.023-.288.065-.425.111-.516a1.25 1.25 0 01.546-.546z"/>
</svg>
