<svg xmlns="http://www.w3.org/2000/svg" width="24" height="24" fill="currentColor" viewBox="0 0 24 24">
  <path fill="#0000ff" fill-rule="evenodd" d="M5.17 1.25H6.83c.535 0 .98 0 1.345.03.38.03.736.098 1.073.27a2.75 2.75 0 011.202 1.202c.172.337.24.693.27 1.073.03.365.03.81.03 1.345V6.83c0 .535 0 .98-.03 1.345-.03.38-.098.736-.27 1.073a2.75 2.75 0 01-1.202 1.202c-.337.172-.693.24-1.073.27-.365.03-.81.03-1.345.03H5.17c-.535 0-.98 0-1.345-.03-.38-.03-.736-.098-1.073-.27A2.75 2.75 0 011.55 9.248c-.172-.337-.24-.693-.27-1.073-.03-.365-.03-.81-.03-1.345V5.17c0-.535 0-.98.03-1.345.03-.38.098-.736.27-1.073A2.75 2.75 0 012.752 1.55c.337-.172.693-.24 1.073-.27.365-.03.81-.03 1.345-.03zm12.03 0h-.03c-.535 0-.98 0-1.345.03-.38.03-.736.098-1.073.27a2.75 2.75 0 00-1.202 1.202c-.172.337-.24.693-.27 1.073-.03.365-.03.81-.03 1.345V6.83c0 .535 0 .98.03 1.345.03.38.098.736.27 1.073a2.75 2.75 0 001.201 1.202c.338.172.694.24 1.074.27.365.03.81.03 1.345.03H18.83c.535 0 .98 0 1.345-.03.38-.03.736-.098 1.073-.27a2.75 2.75 0 001.202-1.202c.172-.337.24-.693.27-1.073.03-.365.03-.81.03-1.344V5.17c0-.535 0-.98-.03-1.345-.03-.38-.098-.736-.27-1.073A2.75 2.75 0 0021.25 1.55c-.338-.172-.694-.24-1.074-.27-.365-.03-.81-.03-1.345-.03H17.2zm-12.03 12H6.83c.535 0 .98 0 1.345.03.38.03.736.098 1.073.27a2.75 2.75 0 011.202 1.201c.172.338.24.694.27 1.074.03.365.03.81.03 1.345V18.83c0 .535 0 .98-.03 1.345-.03.38-.098.736-.27 1.073a2.75 2.75 0 01-1.202 1.202c-.337.172-.693.24-1.073.27-.365.03-.81.03-1.344.03H5.17c-.535 0-.98 0-1.345-.03-.38-.03-.736-.098-1.073-.27A2.75 2.75 0 011.55 21.25c-.172-.338-.24-.694-.27-1.074-.03-.365-.03-.81-.03-1.345V17.17c0-.535 0-.98.03-1.345.03-.38.098-.736.27-1.073a2.75 2.75 0 011.202-1.202c.337-.172.693-.24 1.073-.27.365-.03.81-.03 1.345-.03zm12.03 0h-.03c-.535 0-.98 0-1.345.03-.38.03-.736.098-1.073.27a2.751 2.751 0 00-1.202 1.201c-.172.338-.24.694-.27 1.074-.03.365-.03.81-.03 1.345V18.83c0 .535 0 .98.03 1.345.03.38.098.736.27 1.073.263.518.684.939 1.201 1.202.338.172.694.24 1.074.27.364.03.81.03 1.345.03H18.83c.535 0 .98 0 1.345-.03.38-.03.736-.098 1.073-.27a2.751 2.751 0 001.202-1.201c.172-.338.24-.694.27-1.074.03-.364.03-.81.03-1.345V17.17c0-.535 0-.98-.03-1.345-.03-.38-.098-.736-.27-1.073a2.751 2.751 0 00-1.201-1.202c-.338-.172-.694-.24-1.074-.27-.365-.03-.81-.03-1.345-.03H17.2z"/>
</svg>
