<svg xmlns="http://www.w3.org/2000/svg" width="24" height="24" fill="currentColor" viewBox="0 0 24 24">
  <path fill="#0000ff" fill-rule="evenodd" d="M9.966 2.25h4.068c1.371 0 2.447 0 3.311.07.88.073 1.607.221 2.265.557a5.75 5.75 0 012.513 2.513c.336.658.485 1.385.556 2.265.071.864.071 1.94.071 3.311V13.034c0 1.371 0 2.447-.07 3.311-.072.88-.221 1.607-.557 2.265a5.75 5.75 0 01-2.513 2.513c-.658.336-1.385.485-2.265.556-.864.071-1.94.071-3.311.071H9.966c-1.371 0-2.447 0-3.311-.07-.88-.072-1.607-.221-2.265-.557a5.75 5.75 0 01-2.513-2.513c-.336-.658-.484-1.385-.556-2.265-.071-.864-.071-1.94-.071-3.311V10.966c0-1.371 0-2.447.07-3.311.073-.88.221-1.607.557-2.265A5.75 5.75 0 014.39 2.877c.658-.336 1.385-.484 2.265-.556.864-.071 1.94-.071 3.311-.071zm-3.55 5.126a.75.75 0 00-.832 1.248l1 .667.116.077c1.499 1 2.39 1.594 3.353 1.884a6.75 6.75 0 003.894 0c.963-.29 1.854-.885 3.353-1.884l.116-.077 1-.667a.75.75 0 10-.832-1.248l-1 .667c-1.65 1.1-2.347 1.555-3.07 1.773a5.25 5.25 0 01-3.028 0c-.723-.218-1.42-.673-3.07-1.773l-1-.667z"/>
</svg>
