<svg xmlns="http://www.w3.org/2000/svg" width="24" height="24" fill="currentColor" viewBox="0 0 24 24">
  <rect width="20" height="20" x="2" y="2" opacity=".12" rx="10"/>
  <path fill="#0000ff" fill-rule="evenodd" d="M12 1.25C6.063 1.25 1.25 6.063 1.25 12S6.063 22.75 12 22.75 22.75 17.937 22.75 12 17.937 1.25 12 1.25zM2.75 12a9.25 9.25 0 1118.5 0 9.25 9.25 0 01-18.5 0zm5.85 2.55a.75.75 0 00-1.2.9 5.742 5.742 0 004.6 2.3 5.742 5.742 0 004.6-2.3.75.75 0 10-1.2-.9 4.243 4.243 0 01-3.4 1.7 4.243 4.243 0 01-3.4-1.7zM10 10a1 1 0 11-2 0 1 1 0 012 0zm5 1a1 1 0 100-2 1 1 0 000 2z"/>
</svg>
