<svg xmlns="http://www.w3.org/2000/svg" width="24" height="24" fill="currentColor" viewBox="0 0 24 24">
  <path fill="#0000ff" fill-rule="evenodd" d="M12 9.75a2.25 2.25 0 100 4.5 2.25 2.25 0 000-4.5zM8.25 12a3.75 3.75 0 117.5 0 3.75 3.75 0 01-7.5 0z" opacity=".4"/>
  <path fill="#0000ff" fill-rule="evenodd" d="M4.915 7.583C3.393 9.163 2.75 10.985 2.75 12c0 1.015.643 2.837 2.165 4.417 1.492 1.55 3.8 2.833 7.085 2.833 3.284 0 5.593-1.283 7.085-2.833 1.521-1.58 2.165-3.402 2.165-4.417 0-1.015-.643-2.837-2.165-4.417-1.492-1.55-3.8-2.833-7.085-2.833-3.284 0-5.593 1.283-7.085 2.833zm-1.08-1.04C5.593 4.716 8.285 3.25 12 3.25c3.716 0 6.407 1.467 8.165 3.292C21.894 8.337 22.75 10.515 22.75 12c0 1.485-.857 3.663-2.585 5.458-1.758 1.825-4.45 3.292-8.165 3.292-3.716 0-6.407-1.467-8.165-3.292C2.107 15.663 1.25 13.485 1.25 12c0-1.485.857-3.663 2.585-5.458z"/>
</svg>
