<svg xmlns="http://www.w3.org/2000/svg" width="24" height="24" fill="currentColor" viewBox="0 0 24 24">
  <path fill="#0000ff" fill-rule="evenodd" d="M13.25 2.772c-.34-.02-.784-.022-1.472-.022H11.5c-1.175 0-2.019 0-2.685.046-.659.045-1.089.131-1.441.278a4.25 4.25 0 00-2.3 2.3c-.147.352-.233.782-.278 1.441-.046.666-.046 1.51-.046 2.685v.5a.75.75 0 01-1.5 0v-.528c0-1.141 0-2.036.05-2.759.05-.735.153-1.347.388-1.913A5.75 5.75 0 016.8 1.688c.566-.235 1.178-.338 1.913-.389.723-.049 1.618-.049 2.76-.049h.397c1.045 0 1.688 0 2.304.136a5.75 5.75 0 011.844.764c.532.34.987.794 1.726 1.533l.064.065.38.379.07.07c.797.797 1.289 1.289 1.645 1.87a5.75 5.75 0 01.688 1.662c.16.662.16 1.357.159 2.486v3.819c0 1.371 0 2.447-.07 3.311-.072.88-.221 1.607-.557 2.265a5.75 5.75 0 01-2.513 2.513c-.658.336-1.385.485-2.265.556-.864.071-1.94.071-3.311.071h-.562c-1.141 0-2.036 0-2.759-.05-.735-.05-1.347-.153-1.913-.388A5.75 5.75 0 013.688 19.2c-.235-.566-.339-1.178-.389-1.913-.049-.723-.049-1.618-.049-2.76V14a.75.75 0 011.5 0v.5c0 1.175 0 2.019.046 2.685.045.659.131 1.089.278 1.441a4.25 4.25 0 002.3 2.3c.352.147.782.233 1.441.278.666.046 1.51.046 2.685.046h.5c1.412 0 2.427 0 3.223-.066.787-.064 1.295-.188 1.707-.397a4.25 4.25 0 001.857-1.857c.21-.412.333-.92.397-1.707.065-.796.066-1.81.066-3.223v-3.686c0-1.259-.005-1.766-.117-2.235a4.25 4.25 0 00-.51-1.229c-.251-.41-.607-.773-1.497-1.663l-.378-.378c-.824-.824-1.16-1.154-1.536-1.393a4.246 4.246 0 00-.462-.256V6c0 .69.56 1.25 1.25 1.25h1a.75.75 0 010 1.5h-1A2.75 2.75 0 0113.25 6V2.772zM12 10.25a.75.75 0 01.75.75v4.19l1.22-1.22a.75.75 0 111.06 1.06l-2.5 2.5a.75.75 0 01-1.06 0l-2.5-2.5a.75.75 0 111.06-1.06l1.22 1.22V11a.75.75 0 01.75-.75z"/>
</svg>
