<svg xmlns="http://www.w3.org/2000/svg" width="24" height="24" fill="currentColor" viewBox="0 0 24 24">
  <path fill="#0000ff" fill-rule="evenodd" d="M7.764 2.75c.387 0 .52 0 .638.014a2.25 2.25 0 011.629 1.007c.064.1.125.218.298.564l.02.04c.146.292.246.493.364.673a3.75 3.75 0 002.714 1.677c.214.025.438.025.765.025H16c.978 0 1.32.006 1.582.076a2.25 2.25 0 011.591 1.591c.048.18.067.398.073.833h-7.209c-.698 0-1.263 0-1.726.035-.478.036-.901.113-1.305.294a3.75 3.75 0 00-1.587 1.345c-.245.367-.39.772-.504 1.238-.111.451-.204 1.009-.319 1.697l-.004.029-1.225 7.349a9.724 9.724 0 01-.476-.026c-.454-.037-.715-.106-.913-.206a2.25 2.25 0 01-.983-.984c-.1-.197-.17-.458-.207-.912-.038-.463-.038-1.057-.038-1.91V13a.75.75 0 00-1.5 0v4.232c0 .813 0 1.468.043 2 .045.546.14 1.026.366 1.47a3.75 3.75 0 001.638 1.639c.445.226.925.32 1.471.365A16.468 16.468 0 006 22.75h11.568c.839 0 1.414 0 1.921-.144a3.75 3.75 0 002.357-1.997c.226-.476.32-1.043.458-1.87l.019-.116.083-.5a.75.75 0 10-1.48-.246l-.083.5c-.164.986-.228 1.327-.352 1.589a2.25 2.25 0 01-1.414 1.197c-.278.08-.625.087-1.625.087H6.885l1.186-7.116c.12-.723.205-1.225.3-1.614.094-.38.186-.6.297-.766a2.25 2.25 0 01.952-.807c.183-.082.414-.137.804-.166.4-.03.909-.031 1.642-.031h7.386c.554 0 .93 0 1.219.021.283.021.415.058.496.096.331.155.578.446.676.798.024.087.04.223.013.506-.027.288-.088.659-.18 1.206l-.083.5a.75.75 0 101.48.246l.083-.5.005-.027c.085-.513.156-.938.189-1.287.033-.36.033-.705-.062-1.046a2.75 2.75 0 00-1.486-1.755c-.321-.15-.662-.206-1.023-.233l-.031-.002c-.007-.503-.032-.895-.126-1.244a3.75 3.75 0 00-2.651-2.651c-.48-.129-1.037-.129-1.855-.128H14.236c-.387 0-.52-.001-.638-.015a2.25 2.25 0 01-1.629-1.007c-.064-.099-.125-.218-.298-.564l-.02-.039a6.866 6.866 0 00-.364-.673 3.75 3.75 0 00-2.714-1.678 6.87 6.87 0 00-.765-.024h-1.04c-.813 0-1.469 0-2 .043-.546.045-1.026.14-1.47.365a3.75 3.75 0 00-1.64 1.64c-.226.444-.32.924-.365 1.47-.043.531-.043 1.187-.043 2V9a.75.75 0 001.5 0V6.8c0-.853 0-1.447.038-1.91.037-.453.106-.714.207-.912a2.25 2.25 0 01.983-.983c.198-.1.459-.17.913-.207.462-.038 1.056-.038 1.909-.038h.964z"/>
</svg>
