<svg xmlns="http://www.w3.org/2000/svg" width="24" height="24" fill="currentColor" viewBox="0 0 24 24">
  <path fill="#0000ff" fill-rule="evenodd" d="M8.402 2.765a6.232 6.232 0 00-.638-.015H6.8c-.852 0-1.447 0-1.91.038-.453.037-.714.107-.911.207a2.25 2.25 0 00-.984.984c-.1.197-.17.458-.207.912-.037.462-.038 1.057-.038 1.909V10a.75.75 0 01-1.5 0V6.768c0-.813 0-1.469.043-2 .045-.546.14-1.026.366-1.47a3.75 3.75 0 011.639-1.64c.444-.226.924-.32 1.47-.365.531-.043 1.187-.043 2-.043h1.04c.326 0 .551 0 .765.024a3.75 3.75 0 012.714 1.678c.118.18.218.381.364.673l.02.04c.173.346.234.465.298.564.366.561.963.93 1.63 1.006.117.014.25.015.637.015H15a.75.75 0 010 1.5h-.808c-.326 0-.551 0-.765-.024a3.75 3.75 0 01-2.714-1.678 6.865 6.865 0 01-.364-.673l-.02-.04a6.256 6.256 0 00-.298-.564A2.25 2.25 0 008.4 2.765z" opacity=".4"/>
  <path fill="#0000ff" fill-rule="evenodd" d="M16 6.75c.978 0 1.32.006 1.582.077a2.25 2.25 0 011.591 1.59c.048.18.067.398.073.833h-7.209c-.698 0-1.263 0-1.726.035-.478.036-.901.113-1.305.294a3.75 3.75 0 00-1.587 1.345c-.245.368-.39.772-.504 1.238-.111.451-.204 1.009-.319 1.697l-.004.029-1.225 7.35a9.842 9.842 0 01-.476-.027c-.454-.037-.715-.106-.913-.206a2.25 2.25 0 01-.983-.984c-.1-.197-.17-.458-.207-.912-.038-.463-.038-1.057-.038-1.91V10a.75.75 0 00-1.5 0v7.232c0 .813 0 1.468.043 2 .045.546.14 1.026.366 1.47a3.75 3.75 0 001.638 1.64c.445.225.925.32 1.471.364A16.411 16.411 0 006 22.75h10.963c.697 0 1.263 0 1.726-.035.478-.036.901-.113 1.304-.293a3.75 3.75 0 001.588-1.346c.245-.367.39-.772.504-1.238.11-.45.204-1.009.318-1.697l.005-.028.71-4.264.006-.032c.102-.614.187-1.121.22-1.537.034-.43.02-.84-.127-1.237a2.75 2.75 0 00-1.21-1.428c-.367-.211-.77-.292-1.2-.329a6.145 6.145 0 00-.06-.005c-.006-.507-.03-.901-.125-1.252a3.75 3.75 0 00-2.651-2.651c-.48-.129-1.037-.128-1.855-.128H15a.75.75 0 000 1.5h1zm-3.981 14.5h4.915c.733 0 1.242 0 1.642-.03.39-.03.62-.085.803-.167a2.25 2.25 0 00.953-.807c.11-.167.203-.386.296-.766.096-.389.18-.89.3-1.614l.711-4.263c.11-.654.182-1.098.21-1.44.026-.337 0-.496-.038-.598a1.25 1.25 0 00-.55-.65c-.095-.053-.248-.105-.584-.135-.342-.03-.791-.03-1.455-.03h-7.156c-.734 0-1.242 0-1.642.03-.39.03-.621.085-.804.167a2.25 2.25 0 00-.952.807c-.111.167-.203.386-.297.766-.095.389-.18.89-.3 1.614L6.885 21.25h5.134z"/>
</svg>
