<svg xmlns="http://www.w3.org/2000/svg" width="24" height="24" fill="currentColor" viewBox="0 0 24 24">
  <path fill="#0000ff" d="M2 6.8c0-1.68 0-2.52.327-3.162a3 3 0 011.311-1.311C4.28 2 5.12 2 6.8 2h1.517c.801 0 1.202 0 1.564.091a3 3 0 011.538.95c.243.284.422.642.781 1.359.239.478.359.717.52.906a2 2 0 001.026.633c.241.061.508.061 1.043.061h.811c2.24 0 3.36 0 4.216.436a4 4 0 011.748 1.748C22 9.04 22 10.16 22 12.4v3.2c0 2.24 0 3.36-.436 4.216a4 4 0 01-1.748 1.748C18.96 22 17.84 22 15.6 22H8.4c-2.24 0-3.36 0-4.216-.436a4 4 0 01-1.748-1.748C2 18.96 2 17.84 2 15.6V6.8z" opacity=".12"/>
  <path fill="#0000ff" fill-rule="evenodd" d="M9.697 2.819c-.25-.063-.539-.069-1.38-.069H6.8c-.852 0-1.447 0-1.91.038-.453.038-.714.107-.911.207a2.25 2.25 0 00-.984.984c-.1.197-.17.458-.207.912-.037.462-.038 1.057-.038 1.909v8.8c0 1.133 0 1.937.052 2.566.05.62.147 1.005.302 1.31a3.25 3.25 0 001.42 1.42c.305.155.69.251 1.31.302.63.052 1.434.052 2.566.052h7.2c1.133 0 1.937 0 2.566-.052.62-.05 1.005-.147 1.31-.302a3.25 3.25 0 001.42-1.42c.155-.305.251-.69.302-1.31.051-.63.052-1.433.052-2.566v-3.2c0-1.132 0-1.937-.052-2.566-.05-.62-.147-1.005-.302-1.31a3.25 3.25 0 00-1.42-1.42c-.305-.155-.69-.251-1.31-.302-.63-.051-1.433-.052-2.566-.052h-.891c-.456 0-.813 0-1.147-.084a2.75 2.75 0 01-1.41-.87c-.224-.262-.383-.58-.587-.988l-.036-.073c-.376-.752-.51-1.008-.679-1.204a2.25 2.25 0 00-1.153-.712zM8.412 1.25c.71 0 1.199 0 1.653.114a3.75 3.75 0 011.922 1.188c.305.355.524.793.841 1.427l.043.086c.257.513.331.65.418.751.168.195.392.333.64.396.13.033.285.038.86.038H15.633c1.092 0 1.958 0 2.655.057.714.058 1.317.18 1.869.46a4.75 4.75 0 012.075 2.077c.281.55.403 1.154.461 1.868.057.697.057 1.563.057 2.655v3.266c0 1.092 0 1.958-.057 2.655-.058.714-.18 1.317-.46 1.869a4.75 4.75 0 01-2.076 2.075c-.552.281-1.155.403-1.869.461-.697.057-1.563.057-2.655.057H8.367c-1.092 0-1.958 0-2.655-.057-.714-.058-1.317-.18-1.868-.46a4.75 4.75 0 01-2.076-2.076c-.281-.552-.403-1.155-.461-1.869-.057-.697-.057-1.563-.057-2.655V6.768c0-.813 0-1.469.043-2 .045-.546.14-1.026.366-1.47a3.75 3.75 0 011.639-1.64c.444-.226.924-.32 1.47-.365.531-.043 1.187-.043 2-.043h1.644z"/>
</svg>
