<svg xmlns="http://www.w3.org/2000/svg" width="24" height="24" fill="currentColor" viewBox="0 0 24 24">
  <path fill="#0000ff" fill-rule="evenodd" d="M20.552 7.8c-.655-.05-1.393-.05-2.143-.05H12.962c-1.11 0-2.142 0-2.995.106-.946.118-1.941.393-2.82 1.138-.88.745-1.314 1.681-1.586 2.595-.246.824-.415 1.841-.597 2.937l-.02.118L3.78 21.63a2.25 2.25 0 00.02.841c-.554-.156-1.04-.407-1.452-.82-.602-.602-.86-1.36-.982-2.26-.116-.866-.116-1.969-.116-3.336V6.909c0-.879 0-1.587.05-2.16.052-.59.162-1.105.425-1.577a3.75 3.75 0 011.447-1.447c.472-.263.988-.373 1.578-.425.572-.05 1.28-.05 2.16-.05h.898c.326 0 .551 0 .765.024a3.75 3.75 0 012.714 1.678c.117.18.218.38.364.673l.02.04c.173.345.234.464.298.563.366.562.963.93 1.629 1.007.117.014.251.015.638.015H16.116c.818 0 1.376 0 1.855.128a3.75 3.75 0 012.581 2.421zm2.185 2.423c-.469-.554-1.104-.777-1.813-.877-.675-.096-1.542-.096-2.589-.096H13.033c-1.172 0-2.12 0-2.88.095-.789.098-1.463.308-2.036.794-.572.485-.89 1.115-1.118 1.878-.218.732-.374 1.669-.566 2.825l-.009.048-1.164 6.987a.75.75 0 00.74.873h9.967c1.171 0 2.12 0 2.879-.095.79-.098 1.464-.308 2.036-.794.573-.485.891-1.115 1.118-1.878.218-.732.375-1.669.567-2.825l.008-.048.388-2.33.01-.055c.172-1.033.314-1.888.33-2.57.018-.716-.097-1.379-.566-1.932z"/>
</svg>
