<svg xmlns="http://www.w3.org/2000/svg" width="24" height="24" fill="currentColor" viewBox="0 0 24 24">
  <path fill="#0000ff" d="M7.331 14.01L6 22h10.934c1.444 0 2.167 0 2.752-.263a3 3 0 001.27-1.076c.356-.535.475-1.247.712-2.672l.71-4.263c.215-1.282.321-1.923.136-2.422a2 2 0 00-.88-1.039C21.172 10 20.522 10 19.222 10h-7.156c-1.445 0-2.167 0-2.753.263a3 3 0 00-1.27 1.076c-.355.534-.474 1.247-.712 2.672z" opacity=".12"/>
  <path fill="#0000ff" fill-rule="evenodd" d="M7.764 2.75c.387 0 .52 0 .638.014a2.25 2.25 0 011.629 1.007c.064.1.125.218.298.564l.02.04c.146.292.246.493.364.673a3.75 3.75 0 002.714 1.677c.214.025.438.025.765.025H16c.978 0 1.32.006 1.582.076a2.25 2.25 0 011.591 1.591c.048.18.067.398.073.833h-7.209c-.698 0-1.263 0-1.726.035-.478.036-.901.113-1.305.294a3.75 3.75 0 00-1.587 1.345c-.245.367-.39.772-.504 1.238-.111.451-.204 1.009-.319 1.697l-.004.029-1.225 7.349a9.724 9.724 0 01-.476-.026c-.454-.037-.715-.106-.913-.206a2.25 2.25 0 01-.983-.984c-.1-.197-.17-.458-.207-.912-.038-.463-.038-1.057-.038-1.91V6.8c0-.852 0-1.446.038-1.909.037-.453.106-.714.207-.912a2.25 2.25 0 01.983-.983c.198-.1.459-.17.913-.207.462-.038 1.056-.038 1.909-.038h.964zm7.255 18.5H6.885l1.186-7.116c.12-.723.205-1.225.3-1.614.094-.38.186-.6.297-.766a2.25 2.25 0 01.952-.807c.183-.082.414-.137.804-.166.4-.03.909-.031 1.642-.031h7.156c.664 0 1.113 0 1.455.03.336.03.49.082.584.136.253.145.448.375.55.649.038.102.064.261.037.598-.027.342-.1.786-.209 1.44l-.71 4.263c-.121.723-.205 1.225-.3 1.614-.094.38-.186.6-.297.766a2.25 2.25 0 01-.953.807c-.182.082-.413.137-.803.166-.4.03-.909.031-1.642.031h-1.915zm-9.078 1.498a16.468 16.468 0 01-1.173-.042c-.546-.044-1.026-.139-1.47-.365a3.75 3.75 0 01-1.64-1.639c-.226-.444-.32-.924-.365-1.47-.043-.532-.043-1.187-.043-2V6.768c0-.813 0-1.469.043-2 .045-.546.14-1.026.366-1.47a3.75 3.75 0 011.638-1.64c.445-.226.925-.32 1.471-.365.531-.043 1.187-.043 2-.043h1.04c.326 0 .551 0 .765.024a3.75 3.75 0 012.714 1.678c.117.18.218.38.364.673l.02.04c.173.345.234.464.298.563.366.562.963.93 1.629 1.007.117.014.251.015.638.015H16.116c.818 0 1.376 0 1.855.128a3.75 3.75 0 012.651 2.651c.094.35.12.745.126 1.252l.059.005c.43.037.833.118 1.2.329.558.32.986.825 1.21 1.428.148.397.16.808.127 1.238-.033.415-.118.922-.22 1.536l-.005.032-.71 4.263-.006.03c-.114.687-.207 1.245-.318 1.696-.114.466-.26.87-.504 1.238a3.75 3.75 0 01-1.588 1.346c-.403.18-.826.257-1.304.293-.463.035-1.029.035-1.726.035H6c-.02 0-.04 0-.06-.002z"/>
</svg>
