<svg xmlns="http://www.w3.org/2000/svg" width="24" height="24" fill="currentColor" viewBox="0 0 24 24">
  <path fill="#0000ff" fill-rule="evenodd" d="M6.068 1.264a2.75 2.75 0 00-.88.073c-.42.104-.764.322-1.096.595-.315.26-.665.61-1.082 1.027l-.026.025-.025.026c-.417.417-.768.767-1.027 1.082-.273.332-.49.677-.595 1.097a2.75 2.75 0 00-.073.88c.034.43.192.806.407 1.178.204.354.492.757.835 1.237l.02.03.611-.437-.61.436.62.87c.216.3.296.722.22 1.183a8.805 8.805 0 000 2.868c.076.462-.004.882-.22 1.184l-.62.869-.02.029c-.344.48-.632.883-.836 1.237-.215.372-.373.747-.407 1.179a2.75 2.75 0 00.073.88c.104.42.322.764.595 1.096.26.315.61.665 1.027 1.083l.025.025.026.025c.417.417.767.768 1.082 1.027.332.273.677.49 1.097.595.287.072.584.096.88.073.43-.034.806-.192 1.178-.407.354-.204.757-.492 1.237-.835l.03-.02.868-.622c.302-.215.723-.295 1.184-.22.467.078.946.118 1.434.118a.75.75 0 000-1.5c-.406 0-.803-.033-1.19-.097-.752-.124-1.6-.02-2.3.479l-.869.62c-.516.37-.861.615-1.144.778-.271.157-.425.201-.547.21-.134.011-.269 0-.4-.032l-.18.727.18-.727c-.118-.03-.262-.099-.504-.298-.252-.207-.552-.506-1.001-.955-.449-.449-.747-.748-.955-1-.2-.242-.268-.387-.297-.505a1.25 1.25 0 01-.034-.4c.01-.122.054-.276.21-.547.164-.283.41-.628.778-1.144l.621-.87c.5-.698.603-1.547.48-2.299a7.306 7.306 0 010-2.38c.123-.752.02-1.6-.48-2.3l-.62-.869c-.37-.516-.615-.86-.778-1.144-.157-.271-.2-.424-.21-.547-.011-.134 0-.269.033-.4.03-.118.098-.262.297-.504.208-.252.506-.552.955-1 .449-.45.749-.748 1-.956.243-.2.387-.268.506-.297a1.25 1.25 0 01.4-.033c.121.01.275.053.546.21.283.163.628.408 1.144.777l.87.621c.698.5 1.547.603 2.299.48a7.305 7.305 0 012.38 0c.752.123 1.6.02 2.3-.48l.869-.62c.516-.37.86-.615 1.144-.778.271-.157.424-.2.547-.21.134-.011.269 0 .4.033.118.03.262.098.504.297.252.208.552.506 1 .955.45.45.748.749.956 1 .2.243.268.387.297.506l.728-.181-.728.18c.033.131.044.266.034.4-.01.123-.054.276-.21.547-.164.283-.41.628-.778 1.144l-.621.87c-.5.699-.603 1.547-.48 2.299a7.307 7.307 0 010 2.38c-.123.752-.02 1.6.48 2.3l.62.869c.37.516.615.861.778 1.144.157.271.2.424.21.547.011.134 0 .269-.033.4-.03.118-.098.262-.297.504-.208.252-.506.552-.955 1.001-.45.449-.749.747-1 .955-.243.2-.387.268-.506.297-.13.033-.265.044-.4.034-.122-.01-.275-.054-.546-.21-.283-.164-.628-.41-1.144-.778a.75.75 0 00-.872 1.22l.029.02c.48.344.883.632 1.237.836.372.215.747.373 1.179.407.295.023.592-.001.88-.073.42-.104.764-.322 1.096-.595.315-.26.665-.61 1.082-1.027l.026-.025.025-.025c.417-.418.768-.768 1.027-1.083.273-.332.49-.677.595-1.097.072-.287.096-.584.073-.88-.034-.43-.192-.806-.407-1.178-.204-.354-.492-.757-.835-1.237l-.02-.03-.622-.868c-.215-.302-.295-.723-.22-1.184a8.806 8.806 0 000-2.868c-.075-.461.005-.882.22-1.184l.621-.869.02-.029c.344-.48.632-.883.836-1.237.215-.372.373-.747.407-1.179a2.753 2.753 0 00-.073-.88c-.104-.42-.322-.764-.595-1.096-.26-.315-.61-.665-1.027-1.082l-.025-.026-.025-.025c-.418-.417-.768-.768-1.083-1.027-.332-.273-.677-.49-1.097-.595a2.75 2.75 0 00-.88-.073c-.43.034-.806.192-1.178.407-.354.204-.757.492-1.237.835l-.03.02-.868.622c-.302.215-.723.295-1.184.22a8.806 8.806 0 00-2.868 0c-.462.075-.882-.005-1.184-.22l-.869-.621-.029-.02c-.48-.344-.883-.632-1.237-.836-.372-.215-.747-.373-1.179-.407zM12 8.25a.75.75 0 000 1.5 2.25 2.25 0 11-2.122 1.5.75.75 0 10-1.414-.5A3.75 3.75 0 1012 8.25z"/>
</svg>
