<svg xmlns="http://www.w3.org/2000/svg" width="24" height="24" fill="currentColor" viewBox="0 0 24 24">
  <path fill="#0000ff" fill-rule="evenodd" d="M12 9.75a2.25 2.25 0 100 4.5 2.25 2.25 0 000-4.5zM8.25 12a3.75 3.75 0 117.5 0 3.75 3.75 0 01-7.5 0z" opacity=".4"/>
  <path fill="#0000ff" fill-rule="evenodd" d="M12 .25a.75.75 0 01.75.75v1.278a9.752 9.752 0 018.972 8.972H23a.75.75 0 010 1.5h-1.278a9.752 9.752 0 01-8.972 8.972V23a.75.75 0 01-1.5 0v-1.278a9.752 9.752 0 01-8.972-8.972H1a.75.75 0 010-1.5h1.278a9.752 9.752 0 018.972-8.972V1A.75.75 0 0112 .25zm0 20a8.25 8.25 0 100-16.5 8.25 8.25 0 000 16.5z"/>
</svg>
