<svg xmlns="http://www.w3.org/2000/svg" width="24" height="24" fill="currentColor" viewBox="0 0 24 24">
  <path fill="#0000ff" fill-rule="evenodd" d="M12 .25a.75.75 0 01.75.75v1.278a9.754 9.754 0 017.986 5.388.75.75 0 11-1.343.668A8.25 8.25 0 1020.25 12a.75.75 0 01.75-.75h2a.75.75 0 010 1.5h-1.278a9.752 9.752 0 01-8.972 8.972V23a.75.75 0 01-1.5 0v-1.278a9.752 9.752 0 01-8.972-8.972H1a.75.75 0 010-1.5h1.278a9.752 9.752 0 018.972-8.972V1A.75.75 0 0112 .25zM9.75 12A2.25 2.25 0 1112 14.25a.75.75 0 000 1.5A3.75 3.75 0 108.25 12a.75.75 0 001.5 0z"/>
</svg>
