<svg xmlns="http://www.w3.org/2000/svg" width="24" height="24" fill="currentColor" viewBox="0 0 24 24">
  <path fill="#0000ff" fill-rule="evenodd" d="M15.99 3.75c-1.311-.018-2.54.427-3.366 1.667a.75.75 0 01-1.248 0C10.554 4.184 9.303 3.75 8 3.75 5.373 3.75 2.75 5.955 2.75 9c0 3.178 2.055 5.99 4.375 8.065a20.928 20.928 0 003.27 2.397c.474.278.881.486 1.19.622a3.788 3.788 0 00.415.157 4.645 4.645 0 00.526-.207c.372-.172.86-.432 1.418-.777.4-.247.835-.537 1.285-.864a.75.75 0 01.883 1.213c-.481.35-.947.66-1.38.928-.599.37-1.14.66-1.578.862-.218.1-.42.183-.595.242a1.83 1.83 0 01-.559.111 1.72 1.72 0 01-.504-.093 5.234 5.234 0 01-.515-.199 13.385 13.385 0 01-1.345-.702 22.421 22.421 0 01-3.511-2.572C3.695 16.01 1.25 12.822 1.25 9c0-3.953 3.377-6.75 6.75-6.75 1.375 0 2.86.397 3.998 1.56 1.13-1.165 2.6-1.58 4.013-1.56C19.366 2.3 22.75 5.039 22.75 9c0 2.936-1.445 5.495-3.196 7.494a.75.75 0 11-1.129-.988C20.05 13.652 21.25 11.432 21.25 9c0-3.037-2.616-5.211-5.26-5.25z"/>
</svg>
