<svg xmlns="http://www.w3.org/2000/svg" width="24" height="24" fill="currentColor" viewBox="0 0 24 24">
  <path fill="#0000ff" fill-rule="evenodd" d="M13.533.861a5.75 5.75 0 00-3.066 0c-.606.168-1.154.464-1.759.88-.592.406-1.279.955-2.151 1.653l-.023.018-2 1.6-.09.072c-1.017.813-1.643 1.314-2.1 1.944a5.75 5.75 0 00-.888 1.848c-.206.75-.206 1.552-.206 2.854V17A5.75 5.75 0 007 22.75 2.75 2.75 0 009.75 20v-4a2.25 2.25 0 014.5 0v4A2.75 2.75 0 0017 22.75 5.75 5.75 0 0022.75 17V11.73c0-1.302 0-2.103-.206-2.854a5.75 5.75 0 00-.889-1.848c-.457-.63-1.082-1.13-2.099-1.944l-.09-.072-2-1.6-.023-.018c-.872-.698-1.559-1.247-2.151-1.654-.605-.415-1.153-.711-1.759-.879z"/>
</svg>
