<svg xmlns="http://www.w3.org/2000/svg" width="24" height="24" fill="currentColor" viewBox="0 0 24 24">
  <path fill="#0000ff" fill-rule="evenodd" d="M12 1.25h-.038c-1.837 0-3.267 0-4.41.104-1.16.105-2.098.322-2.927.8a6.75 6.75 0 00-2.47 2.471c-.48.83-.696 1.767-.801 2.927-.104 1.143-.104 2.573-.104 4.41v.046c0 1.11 0 2.068.022 2.898v.043c.009.31.017.637.083.934.078.354.232.658.495.954.235.266.563.456.86.574.296.119.664.206 1.018.175.822-.07 1.307-.558 1.826-1.08l.084-.083 1.105-1.106c.673-.672 1.126-1.123 1.508-1.415.365-.279.578-.343.76-.344.183-.002.397.06.766.333.387.286.846.73 1.528 1.393l2.655 2.577 3.185 3.185c-.336.059-.716.102-1.155.132-1.02.072-2.296.072-3.99.072-1.883 0-3.245 0-4.312-.097-1.057-.096-1.75-.281-2.313-.606a.75.75 0 10-.75 1.299c.83.479 1.767.695 2.927.8 1.143.104 2.573.104 4.41.104h.065c1.662 0 2.988 0 4.067-.075 1.088-.076 1.987-.232 2.777-.575.174-.076.341-.16.504-.254a6.752 6.752 0 002.47-2.471c.239-.412.413-.852.54-1.336.365-1.383.365-3.22.365-5.904V11.962c0-1.837 0-3.267-.104-4.41-.105-1.16-.322-2.098-.8-2.927a6.75 6.75 0 00-2.471-2.47c-.83-.48-1.767-.696-2.927-.801-1.143-.104-2.573-.104-4.41-.104H12zm6.714 19.244l-3.167-3.168c.663-.663 1.114-1.11 1.495-1.401.37-.283.586-.347.77-.347.185 0 .4.064.77.347.388.295.847.752 1.529 1.434l.699.699a3.578 3.578 0 01-.263.567 5.25 5.25 0 01-1.833 1.869zM21.25 12c0 1.89-.003 3.244-.094 4.283l-.021-.022c-.636-.635-1.166-1.165-1.643-1.529-.503-.384-1.035-.654-1.68-.654-.644 0-1.176.27-1.68.654-.477.365-1.007.895-1.642 1.53l-.012.011-2.128-2.066-.037-.036c-.636-.617-1.166-1.132-1.643-1.485-.503-.373-1.032-.633-1.67-.628-.637.005-1.162.272-1.66.652-.471.36-.994.883-1.62 1.51l-.037.037-1.106 1.105c-.648.648-.755.71-.978.73a.865.865 0 01-.334-.074.866.866 0 01-.292-.176.569.569 0 01-.154-.284c-.03-.14-.038-.319-.048-.691-.021-.809-.021-1.748-.021-2.867 0-1.883 0-3.245.097-4.312.096-1.057.281-1.75.606-2.313a5.25 5.25 0 011.922-1.922c.563-.325 1.256-.51 2.313-.606C8.755 2.751 10.117 2.75 12 2.75c1.883 0 3.245 0 4.312.097 1.057.096 1.75.281 2.313.606a5.25 5.25 0 011.922 1.922c.325.563.51 1.256.606 2.313.096 1.067.097 2.429.097 4.312zm-6.5-4c0-.69.56-1.25 1.25-1.25a.75.75 0 000-1.5A2.75 2.75 0 1018.75 8a.75.75 0 00-1.5 0 1.25 1.25 0 11-2.5 0z"/>
</svg>
