<svg xmlns="http://www.w3.org/2000/svg" width="24" height="24" fill="currentColor" viewBox="0 0 24 24">
  <path fill="#0000ff" fill-rule="evenodd" d="M11.566 1.25H12.434c1.651 0 2.937 0 3.968.084 1.047.086 1.897.262 2.662.652a6.75 6.75 0 012.95 2.95c.39.765.566 1.615.652 2.662.084 1.031.084 2.317.084 3.968V12.434c0 1.651 0 2.937-.084 3.968-.086 1.047-.262 1.897-.652 2.662a6.75 6.75 0 01-2.95 2.95c-.765.39-1.615.566-2.662.652-1.031.084-2.317.084-3.968.084H11.566c-1.651 0-2.937 0-3.968-.084-1.047-.086-1.897-.262-2.662-.652a6.75 6.75 0 01-2.95-2.95c-.39-.765-.566-1.615-.652-2.662-.084-1.031-.084-2.317-.084-3.968V11.566c0-1.651 0-2.937.084-3.968.086-1.047.262-1.897.652-2.662a6.75 6.75 0 012.95-2.95c.765-.39 1.615-.566 2.662-.652 1.031-.084 2.317-.084 3.968-.084zM7.72 2.83c-.954.077-1.585.228-2.103.492a5.25 5.25 0 00-2.295 2.295c-.264.518-.415 1.15-.493 2.103-.078.963-.079 2.187-.079 3.88v.8c0 1.692 0 2.917.08 3.88.022.273.05.52.085.744L6.24 13.7l.021-.021c.373-.373.684-.684.96-.918.287-.244.583-.447.938-.564a2.75 2.75 0 011.684-.012c.358.112.657.31.948.55.278.23.594.536.972.903l.022.021 2.693 2.615.54-.54.022-.022c.378-.377.694-.693.972-.93.291-.246.59-.451.95-.568a2.75 2.75 0 011.7 0c.36.117.66.322.95.568.28.237.594.552.972.93l.022.021.563.564.002-.016c.078-.963.079-2.188.079-3.88v-.8c0-1.693 0-2.917-.08-3.88-.077-.954-.228-1.585-.492-2.103a5.25 5.25 0 00-2.295-2.295c-.518-.264-1.15-.415-2.103-.493-.963-.078-2.188-.079-3.88-.079h-.8c-1.693 0-2.917 0-3.88.08zM5.617 20.677a5.25 5.25 0 01-2.175-2.072.753.753 0 00.088-.076l3.77-3.77c.4-.4.669-.667.892-.857.216-.184.341-.25.437-.282a1.25 1.25 0 01.766-.006c.096.03.222.095.441.276.226.187.498.45.904.844l3.22 3.126 3.201 3.201a9.605 9.605 0 01-.881.109c-.963.078-2.188.079-3.88.079h-.8c-1.693 0-2.917 0-3.88-.08-.954-.077-1.585-.228-2.103-.492zm15.06-2.295a5.25 5.25 0 01-1.963 2.11l-3.167-3.167.533-.532c.405-.405.677-.677.903-.869.22-.187.347-.254.443-.285a1.25 1.25 0 01.773 0c.096.031.223.098.443.285.226.192.498.463.903.868l1.274 1.274a3.43 3.43 0 01-.141.316zM14.75 8a1.25 1.25 0 112.5 0 1.25 1.25 0 01-2.5 0zM16 5.25a2.75 2.75 0 100 5.5 2.75 2.75 0 000-5.5z"/>
</svg>
