<svg xmlns="http://www.w3.org/2000/svg" width="24" height="24" fill="currentColor" viewBox="0 0 24 24">
  <path fill="#0000ff" fill-rule="evenodd" d="M12.75 2a.75.75 0 00-1.5 0v13.19l-2.72-2.72a.75.75 0 00-1.06 1.06l4 4a.75.75 0 001.28-.53V2zm3.78 11.53a.75.75 0 10-1.06-1.06l-1.5 1.5a.75.75 0 101.06 1.06l1.5-1.5zM7.5 7.25h-.143c-1.258 0-2.06 0-2.736.205a4.75 4.75 0 00-3.166 3.166c-.205.676-.205 1.478-.205 2.736v2.276c0 1.092 0 1.958.057 2.655.058.714.18 1.317.46 1.869a4.75 4.75 0 002.077 2.075c.55.281 1.154.403 1.868.461.697.057 1.563.057 2.655.057H10a.75.75 0 100-1.5H8.4c-1.132 0-1.937 0-2.566-.052-.62-.05-1.005-.147-1.31-.302a3.25 3.25 0 01-1.42-1.42c-.155-.305-.251-.69-.302-1.31-.051-.63-.052-1.433-.052-2.566v-2.1c0-1.45.008-2.009.14-2.443A3.25 3.25 0 015.057 8.89c.434-.132.993-.14 2.443-.14H8a.75.75 0 000-1.5h-.5zm9 1.5c1.45 0 2.009.008 2.444.14a3.25 3.25 0 012.166 2.167c.132.434.14.993.14 2.443v2.1c0 1.133 0 1.937-.052 2.566-.05.62-.147 1.005-.302 1.31a3.25 3.25 0 01-1.42 1.42c-.305.155-.69.251-1.31.302-.63.051-1.433.052-2.566.052H14a.75.75 0 000 1.5h1.633c1.092 0 1.958 0 2.655-.057.714-.058 1.317-.18 1.869-.46a4.75 4.75 0 002.075-2.076c.281-.552.403-1.155.461-1.869.057-.697.057-1.563.057-2.655v-2.276c0-1.258 0-2.06-.204-2.736a4.75 4.75 0 00-3.167-3.166c-.676-.205-1.478-.205-2.736-.205H16a.75.75 0 000 1.5h.5z"/>
</svg>
