<svg xmlns="http://www.w3.org/2000/svg" width="24" height="24" fill="currentColor" viewBox="0 0 24 24">
  <path fill="#0000ff" fill-rule="evenodd" d="M11.057 1.25h1.886c2.05 0 3.31 0 4.38.449A5.75 5.75 0 0119.7 3.554c.695.929 1 2.15 1.498 4.14l.046.184.615 2.464.006.021c.135.542.21.84.27 1.137.115.579.19 1.164.224 1.75H18.62c-.535 0-.955 0-1.348.119a2.749 2.749 0 00-.947.507c-.317.26-.55.61-.846 1.055l-.052.078-.1.15c-.373.56-.48.705-.603.807a1.252 1.252 0 01-.43.23c-.153.046-.333.054-1.006.054h-2.575c-.672 0-.853-.008-1.005-.054a1.252 1.252 0 01-.43-.23c-.124-.101-.23-.247-.603-.807l-.1-.15-.052-.078c-.296-.445-.529-.795-.846-1.055a2.748 2.748 0 00-.947-.507c-.394-.12-.814-.12-1.348-.119H1.641c.035-.586.11-1.171.226-1.75.06-.298.134-.595.269-1.137l.005-.021.616-2.464.046-.183c.497-1.99.803-3.212 1.498-4.141a5.75 5.75 0 012.376-1.855c1.07-.45 2.329-.45 4.38-.449zm-9.416 13.5c.035.586.11 1.171.226 1.75.06.298.133.595.269 1.137l.005.021.015.06c.16.643.26 1.036.395 1.382a5.75 5.75 0 004.614 3.602c.368.048.774.048 1.436.048H15.399c.663 0 1.069 0 1.437-.048A5.75 5.75 0 0021.45 19.1c.135-.346.234-.74.394-1.383l.015-.059.006-.021c.135-.542.21-.84.27-1.137.115-.579.19-1.164.224-1.75h-3.646c-.672 0-.853.008-1.005.054a1.25 1.25 0 00-.43.23c-.124.101-.23.247-.603.807l-.1.15-.052.078c-.296.445-.529.795-.846 1.056-.28.23-.601.401-.947.506-.394.12-.814.12-1.348.119h-2.762c-.535 0-.955 0-1.348-.119a2.748 2.748 0 01-.947-.506c-.317-.261-.55-.611-.846-1.056l-.052-.078-.1-.15c-.373-.56-.48-.705-.603-.807a1.252 1.252 0 00-.43-.23c-.153-.046-.333-.054-1.006-.054H1.641zM8.25 6A.75.75 0 019 5.25h6a.75.75 0 010 1.5H9A.75.75 0 018.25 6zM10 9.25a.75.75 0 000 1.5h4a.75.75 0 000-1.5h-4z"/>
</svg>
