<svg xmlns="http://www.w3.org/2000/svg" width="24" height="24" fill="currentColor" viewBox="0 0 24 24">
  <path fill="#0000ff" fill-rule="evenodd" d="M11.961 1.25h.077c1.447 0 2.587 0 3.508.087.942.09 1.721.276 2.431.687a5.75 5.75 0 011.248.974c.57.59.94 1.3 1.255 2.191.308.871.584 1.975.935 3.377l.009.038.434 1.738.006.021c.135.542.21.84.27 1.137.329 1.65.329 3.35 0 5-.06.298-.135.595-.27 1.137l-.006.021-.014.06c-.161.643-.26 1.036-.395 1.382a5.75 5.75 0 01-4.614 3.602c-.369.048-.774.048-1.437.048H8.602c-.663 0-1.069 0-1.437-.048A5.75 5.75 0 012.55 19.1c-.136-.346-.234-.74-.395-1.383l-.015-.059-.119-.479c-.05-.203-.089-.367-.122-.52a.75.75 0 011.466-.318c.029.133.064.28.113.48.032.133.07.287.118.473.18.721.254 1.014.35 1.258a4.25 4.25 0 003.41 2.663c.26.034.563.035 1.306.035h6.674c.743 0 1.045-.002 1.305-.035a4.25 4.25 0 003.41-2.663c.096-.244.171-.537.351-1.258.142-.568.207-.83.26-1.088a11.251 11.251 0 000-4.412c-.053-.258-.118-.52-.26-1.088l-.434-1.738c-.362-1.448-.622-2.483-.903-3.279-.277-.783-.554-1.271-.918-1.647a4.25 4.25 0 00-.922-.72c-.453-.262-.995-.413-1.822-.491-.707-.067-1.572-.079-2.716-.08L12 2.75c-1.494 0-2.562 0-3.404.08-.827.08-1.37.23-1.822.492a4.25 4.25 0 00-.922.72c-.364.375-.641.864-.918 1.647-.281.796-.54 1.83-.903 3.278l-.434 1.739c-.07.282-.136.561-.195.84-.18.858.517 1.704 1.598 1.704h.015c.345 0 .679 0 .967.015.28.015.588.046.855.139.269.094.522.23.75.401.374.283.64.683.978 1.19l.059.089c.426.64.548.804.693.914.104.078.219.14.34.182.173.06.377.07 1.146.07h2.394c.768 0 .973-.01 1.145-.07.122-.043.237-.104.34-.182.146-.11.268-.275.694-.914l.06-.09c.337-.506.603-.906.977-1.189.228-.172.48-.307.75-.401.189-.066.425-.1.627-.12l.71 1.466H18.474a6.79 6.79 0 00-.658.04 1.653 1.653 0 00-.115.02c-.028.005-.041.01-.043.01a1.247 1.247 0 00-.34.182c-.146.11-.268.275-.694.914l-.06.09c-.337.506-.603.906-.978 1.189-.227.172-.48.307-.75.401-.443.155-.922.155-1.532.154H10.696c-.61 0-1.09.001-1.533-.154a2.749 2.749 0 01-.75-.401c-.374-.283-.64-.683-.978-1.19l-.06-.089c-.425-.64-.547-.804-.692-.914a1.247 1.247 0 00-.341-.182c-.054-.019-.183-.044-.439-.057-.244-.013-.54-.013-.903-.013-1.825 0-3.482-1.528-3.066-3.513.063-.3.133-.599.207-.895l.435-1.738.01-.038c.35-1.402.626-2.506.934-3.377.315-.892.684-1.602 1.255-2.19.369-.382.789-.71 1.248-.975.71-.411 1.489-.597 2.431-.687.921-.087 2.06-.087 3.507-.087zm5.829 12.034l-2.684-5.541A.758.758 0 0115 7.75H9a.75.75 0 010-1.5h5.383l-1.695-3.5 1.695 3.5H15a.75.75 0 01.106 1.493l2.684 5.54zm0 0a8.712 8.712 0 01.669-.034H18.499l.001.75v-.75a.75.75 0 010 1.5l-.71-1.466zM10 10.25a.75.75 0 000 1.5h4a.75.75 0 000-1.5h-4z"/>
</svg>
