<svg xmlns="http://www.w3.org/2000/svg" width="24" height="24" fill="currentColor" viewBox="0 0 24 24">
  <path fill="#0000ff" fill-rule="evenodd" d="M11.801 3.108c-.573.56-1.289 1.452-2.303 2.72a.75.75 0 01-1.17-.938l.035-.045c.97-1.212 1.743-2.178 2.39-2.81.616-.6 1.36-1.15 2.237-.955l-.163.732.163-.732c.173.039.34.097.5.175.806.395 1.044 1.29 1.15 2.143.11.898.11 2.135.11 3.687v.318c0 .529 0 .87.026 1.127.025.246.066.333.094.377l-.63.408.63-.408a.75.75 0 00.223.223l-.408.63.407-.63c.045.028.132.07.377.094.258.025.6.026 1.128.026h.046c.94 0 1.707 0 2.293.064.58.064 1.173.206 1.59.653.31.333.512.754.579 1.205.089.604-.17 1.156-.484 1.65-.316.497-.795 1.096-1.382 1.83l-.029.036-3.537 4.422-.037.045c-.969 1.212-1.742 2.178-2.39 2.81-.615.6-1.36 1.15-2.236.955l.163-.732-.163.732a2.252 2.252 0 01-.5-.175c-.806-.395-1.044-1.29-1.15-2.143-.11-.898-.11-2.136-.11-3.687v-.318c0-.529 0-.87-.026-1.128-.025-.245-.066-.332-.094-.377a.751.751 0 00-.223-.222l.408-.63-.408.63c-.044-.028-.131-.07-.377-.094-.257-.025-.598-.026-1.127-.026h-.046c-.94 0-1.707 0-2.293-.064-.58-.064-1.174-.206-1.59-.653a2.25 2.25 0 01-.58-1.205c-.088-.604.172-1.156.485-1.65.316-.497.795-1.096 1.382-1.83l.029-.036a.75.75 0 011.17.937c-.622.779-1.048 1.314-1.315 1.733-.274.432-.272.586-.266.627.022.15.09.29.193.402.029.03.147.128.656.184.494.054 1.178.055 2.175.055h.036c.483 0 .9 0 1.24.034.36.035.716.115 1.043.327.267.173.494.4.667.667.212.327.291.683.327 1.043.034.34.034.757.034 1.24v.296c0 1.623.001 2.767.1 3.561.104.85.286.963.32.98l-.33.673.33-.674a.748.748 0 00.167.059c.037.008.249.034.862-.564.573-.56 1.289-1.452 2.303-2.72l3.537-4.421c.623-.779 1.05-1.314 1.316-1.733.274-.432.272-.586.266-.627a.75.75 0 00-.193-.402c-.029-.03-.147-.128-.656-.184-.494-.054-1.178-.055-2.175-.055h-.036c-.483 0-.9 0-1.24-.034-.36-.036-.716-.115-1.043-.327a2.25 2.25 0 01-.667-.667c-.212-.327-.292-.683-.327-1.043-.034-.34-.034-.757-.034-1.24v-.296c0-1.623-.002-2.767-.1-3.561-.104-.85-.286-.963-.32-.98a.752.752 0 00-.167-.058c-.037-.008-.249-.034-.862.564z"/>
</svg>
