<svg xmlns="http://www.w3.org/2000/svg" width="24" height="24" fill="currentColor" viewBox="0 0 24 24">
  <path fill="#0000ff" fill-rule="evenodd" d="M14.07 1.665a2.25 2.25 0 00-1.79-.628c-.613.06-1.117.495-1.55.944-.456.475-1.004 1.16-1.69 2.018l-.026.032-.4.5a.75.75 0 101.172.937l.4-.5c.717-.897 1.223-1.528 1.626-1.947.2-.208.35-.337.464-.414a.444.444 0 01.15-.077.75.75 0 01.598.21v-.001s.03.033.07.155c.04.131.076.326.103.612.052.58.053 1.389.053 2.537V7.44c0 .483 0 .9.034 1.24.036.36.115.716.327 1.043.173.267.4.494.667.667.327.212.683.291 1.043.327.34.034.757.034 1.24.034h.636c.73 0 1.231 0 1.6.03.381.032.487.088.509.103a.75.75 0 01.321.67c-.002.025-.024.143-.238.46-.206.307-.519.698-.975 1.268l-.2.25a.75.75 0 001.172.938l.2-.25.02-.027c.43-.537.782-.976 1.027-1.34.242-.359.46-.754.49-1.195a2.25 2.25 0 00-.964-2.008c-.364-.251-.809-.328-1.24-.363-.437-.036-1-.036-1.687-.036h-.635c-.529 0-.87 0-1.127-.026-.246-.025-.333-.066-.377-.094a.75.75 0 01-.223-.223c-.028-.044-.07-.131-.094-.377-.025-.257-.026-.598-.026-1.127V6.003c0-1.1 0-1.977-.06-2.633-.056-.621-.178-1.275-.62-1.705zm-1.643.865zM3.53 2.47a.75.75 0 00-1.06 1.06L6.328 7.39 4.79 9.312l-.03.037c-.586.733-1.065 1.332-1.381 1.83-.313.493-.573 1.045-.484 1.649.066.451.268.872.58 1.205.416.447 1.009.59 1.59.653.585.064 1.353.064 2.292.064h.046c.529 0 .87 0 1.127.026.246.025.333.066.377.094a.75.75 0 01.223.223c.028.044.07.131.094.377.025.257.026.598.026 1.127v.318c0 1.552 0 2.79.11 3.687.106.854.344 1.748 1.15 2.143.16.078.327.136.5.175.877.195 1.621-.354 2.237-.955.647-.632 1.42-1.598 2.39-2.81l.036-.046 1.056-1.32 3.74 3.741a.75.75 0 101.061-1.06l-4.333-4.334-9.333-9.333L3.53 2.47z"/>
</svg>
