<svg xmlns="http://www.w3.org/2000/svg" width="24" height="24" fill="currentColor" viewBox="0 0 24 24">
  <path fill="#0000ff" fill-rule="evenodd" d="M11.768 1.25H15A2.75 2.75 0 0117.75 4v.5a.75.75 0 01-1.5 0V4c0-.69-.56-1.25-1.25-1.25h-3.2c-.853 0-1.447 0-1.91.038-.453.037-.714.107-.911.207a2.25 2.25 0 00-.984.984c-.1.197-.17.458-.207.912-.037.462-.038 1.057-.038 1.909v.46c.476-.01 1.012-.01 1.617-.01H14.633c1.092 0 1.958 0 2.655.057.714.058 1.317.18 1.869.46a4.75 4.75 0 012.075 2.077c.281.55.403 1.154.461 1.868.057.697.057 1.563.057 2.655V15.633c0 1.092 0 1.958-.057 2.655-.058.714-.18 1.317-.46 1.869a4.75 4.75 0 01-2.076 2.075c-.552.281-1.155.403-1.869.461-.697.057-1.563.057-2.655.057H9.367c-1.092 0-1.958 0-2.655-.057-.714-.058-1.317-.18-1.868-.46a4.75 4.75 0 01-2.076-2.076c-.281-.552-.403-1.155-.461-1.869-.057-.697-.057-1.563-.057-2.655V14.367c0-1.092 0-1.958.057-2.655.058-.714.18-1.317.46-1.868a4.75 4.75 0 012.077-2.076c.428-.218.888-.34 1.406-.411V6.768c0-.813 0-1.469.043-2 .045-.546.14-1.026.366-1.47a3.75 3.75 0 011.639-1.64c.444-.226.924-.32 1.47-.365.531-.043 1.187-.043 2-.043zM6.834 8.802c-.62.05-1.005.147-1.31.302a3.25 3.25 0 00-1.42 1.42c-.155.305-.251.69-.302 1.31-.051.63-.052 1.434-.052 2.566v1.2c0 1.133 0 1.937.052 2.566.05.62.147 1.005.302 1.31a3.25 3.25 0 001.42 1.42c.305.155.69.251 1.31.302.63.051 1.434.052 2.566.052h5.2c1.133 0 1.937 0 2.566-.052.62-.05 1.005-.147 1.31-.302a3.25 3.25 0 001.42-1.42c.155-.305.251-.69.302-1.31.051-.63.052-1.433.052-2.566v-1.2c0-1.133 0-1.937-.052-2.566-.05-.62-.147-1.005-.302-1.31a3.25 3.25 0 00-1.42-1.42c-.305-.155-.69-.251-1.31-.302-.63-.051-1.434-.052-2.566-.052H9.4c-1.132 0-1.937 0-2.566.052zM12.75 14a.75.75 0 00-1.5 0v2a.75.75 0 001.5 0v-2z"/>
</svg>
