<svg xmlns="http://www.w3.org/2000/svg" width="24" height="24" fill="currentColor" viewBox="0 0 24 24">
  <path fill="#0000ff" fill-rule="evenodd" d="M4.46 3.077c1.144-.625 1.978-1.08 2.79-1.284v18.286c-.468.174-1.068.494-2.073 1.042l-.045.025c-.556.303-1.04.567-1.442.72-.417.16-.924.272-1.432.034a1.744 1.744 0 01-.294-.174c-.452-.332-.596-.831-.656-1.274-.058-.427-.058-.978-.058-1.61V6.43c0-.264 0-.514.021-.726a1.73 1.73 0 01.224-.731 1.73 1.73 0 01.535-.547c.176-.12.395-.24.627-.366l.026-.014 1.619-.883.157-.086zm6.61 17.717c-1.168-.478-1.815-.736-2.32-.84V1.715c.822.118 1.695.475 2.888.964l.167.068 1.125.46c1.168.478 1.815.735 2.32.839v18.24c-.822-.117-1.695-.474-2.888-.963l-.167-.068-1.125-.46zm5.68 1.413c.812-.204 1.646-.66 2.79-1.284l.159-.086 1.618-.883.026-.014a7.69 7.69 0 00.627-.366 1.73 1.73 0 00.535-.547c.145-.245.2-.495.224-.732.021-.212.021-.462.021-.725V5.158c0-.633 0-1.183-.058-1.61-.06-.443-.204-.942-.656-1.274a1.751 1.751 0 00-.294-.174c-.508-.238-1.015-.126-1.432.033-.403.154-.886.418-1.442.72l-.045.026c-1.005.548-1.605.868-2.073 1.041v18.287z"/>
</svg>
