<svg xmlns="http://www.w3.org/2000/svg" width="24" height="24" fill="currentColor" viewBox="0 0 24 24">
  <path fill="#0000ff" fill-rule="evenodd" d="M16.166 3.63c.729-.473 1.257-.759 1.667-.89.385-.124.589-.088.744-.008.207.108.422.352.546 1.199.125.844.127 2.041.127 3.751v6.635c0 1.71-.002 2.907-.127 3.752-.124.846-.338 1.09-.546 1.198-.207.108-.53.144-1.295-.24-.763-.382-1.745-1.066-3.146-2.047l-3.386-2.37V10a.75.75 0 00-1.5 0v4.25H6a3.25 3.25 0 010-6.5h4c.166 0 .32-.054.444-.145l2.986-2.09a.75.75 0 10-.86-1.23L9.763 6.25H6a4.75 4.75 0 00-.75 9.441v3.81a2.25 2.25 0 104.5 0V17.5a.75.75 0 00-1.5 0v2a.75.75 0 01-1.5 0v-3.75h3.014l3.512 2.459.055.038c1.334.934 2.405 1.684 3.28 2.122.884.443 1.79.681 2.659.229.87-.453 1.193-1.331 1.337-2.31.134-.91.143-2.12.143-3.613a3.751 3.751 0 000-7.35c0-1.494-.009-2.704-.143-3.613-.144-.979-.468-1.858-1.337-2.31l-.346.665.346-.665c-.614-.32-1.257-.295-1.895-.09-.612.196-1.282.577-2.025 1.059a.75.75 0 10.816 1.258zm4.584 5.248v4.244a2.251 2.251 0 000-4.244z"/>
</svg>
