<svg xmlns="http://www.w3.org/2000/svg" width="24" height="24" fill="currentColor" viewBox="0 0 24 24">
  <path fill="#0000ff" fill-rule="evenodd" d="M7.4 3.549A5.742 5.742 0 0112 1.25c.816 0 1.595.17 2.3.479a.75.75 0 01-.6 1.374A4.233 4.233 0 0012 2.75c-1.39 0-2.624.666-3.4 1.7a.75.75 0 01-1.2-.901zm-4.93-1.08a.75.75 0 011.06 0l4 4v.001l8 8 2.063 2.063 3.937 3.937a.75.75 0 11-1.06 1.06l-3.474-3.474a9.496 9.496 0 01-3.237 1.478 17.6 17.6 0 00-.745.187c-.12.035-.167.056-.175.06a.448.448 0 00-.04.033.488.488 0 00-.026.053.918.918 0 00-.014.132c-.009.134-.009.314-.009.601V22a.75.75 0 01-1.5 0v-1.422c0-.258 0-.485.011-.67a1.725 1.725 0 01.36-1.024c.107-.135.225-.235.34-.32.198-.145.436-.225.632-.282.208-.061.476-.125.798-.202l.02-.005a7.96 7.96 0 002.505-1.098l-1.013-1.013A5.75 5.75 0 016.25 11V7.31L2.47 3.53a.75.75 0 010-1.06zm5.28 6.342V11a4.25 4.25 0 006.044 3.854L7.75 8.811zm8.534-4.498a.75.75 0 01.987.387c.308.705.479 1.484.479 2.3v4c0 .393-.04.777-.115 1.15a.75.75 0 01-1.47-.3c.056-.274.085-.558.085-.85V7c0-.606-.126-1.18-.353-1.7a.75.75 0 01.387-.987zM4 10.25a.75.75 0 01.75.75c0 3.242 2.136 5.58 4.551 6.64a.75.75 0 11-.602 1.373C5.882 17.777 3.25 14.98 3.25 11a.75.75 0 01.75-.75zm16 0a.75.75 0 01.75.75 8.3 8.3 0 01-1.232 4.393.75.75 0 11-1.278-.786A6.802 6.802 0 0019.25 11a.75.75 0 01.75-.75z"/>
</svg>
