<svg xmlns="http://www.w3.org/2000/svg" width="24" height="24" fill="currentColor" viewBox="0 0 24 24">
  <path fill="#0000ff" d="M7 7v4a5 5 0 008 4L7 7z" opacity=".12"/>
  <path fill="#0000ff" fill-rule="evenodd" d="M7.4 3.549A5.75 5.75 0 0117.75 7v4c0 .393-.04.777-.115 1.15a.75.75 0 01-1.47-.3c.056-.274.085-.558.085-.85V7A4.25 4.25 0 008.6 4.45a.75.75 0 01-1.2-.901zm-4.93-1.08a.75.75 0 011.06 0l4 4v.001l8 8 2.063 2.063 3.937 3.937a.75.75 0 11-1.06 1.06l-3.474-3.474c-1.315.928-2.823 1.501-4.246 1.653V22a.75.75 0 01-1.5 0v-2.29c-1.714-.184-3.553-.979-5.03-2.27-1.709-1.496-2.97-3.692-2.97-6.44a.75.75 0 011.5 0c0 2.252 1.024 4.056 2.458 5.31 1.448 1.268 3.277 1.94 4.792 1.94 1.222 0 2.649-.437 3.916-1.273l-1.013-1.013A5.75 5.75 0 016.25 11V7.31L2.47 3.53a.75.75 0 010-1.06zm5.28 6.342V11a4.25 4.25 0 006.044 3.854L7.75 8.811zM20 10.25a.75.75 0 01.75.75 8.3 8.3 0 01-1.232 4.393.75.75 0 11-1.278-.786A6.802 6.802 0 0019.25 11a.75.75 0 01.75-.75z"/>
</svg>
