<svg xmlns="http://www.w3.org/2000/svg" width="24" height="24" fill="currentColor" viewBox="0 0 24 24">
  <path fill="#0000ff" fill-rule="evenodd" d="M12 1.25a5.742 5.742 0 00-4.6 2.299.75.75 0 00.07.98l8.5 8.501a.75.75 0 001.116-.062 2.91 2.91 0 00.524-.927c.11-.338.14-.679.14-1.041V7A5.75 5.75 0 0012 1.25zM3.53 2.47a.75.75 0 00-1.06 1.06l3.78 3.78V11a5.75 5.75 0 008.653 4.964l1.013 1.013c-1.267.836-2.694 1.273-3.916 1.273-1.515 0-3.344-.672-4.792-1.94C5.774 15.057 4.75 13.253 4.75 11a.75.75 0 00-1.5 0c0 2.748 1.261 4.944 2.97 6.44 1.477 1.291 3.316 2.086 5.03 2.27V22a.75.75 0 001.5 0v-2.29c1.423-.153 2.931-.726 4.245-1.654l3.475 3.474a.75.75 0 101.06-1.06l-3.937-3.937-2.063-2.063-8-8-4-4zM7.75 11V8.81l6.044 6.044A4.25 4.25 0 017.75 11zm13 0a.75.75 0 00-1.5 0 6.802 6.802 0 01-1.01 3.607.75.75 0 001.278.786A8.3 8.3 0 0020.75 11z"/>
</svg>
