<svg xmlns="http://www.w3.org/2000/svg" width="24" height="24" fill="currentColor" viewBox="0 0 24 24">
  <path fill="#0000ff" fill-rule="evenodd" d="M1.25 5a3.75 3.75 0 017.425-.75H12a.75.75 0 010 1.5H8.675A3.751 3.751 0 011.25 5zM5 2.75a2.25 2.25 0 110 4.5 2.25 2.25 0 010-4.5zM5.75 12a.75.75 0 00-1.5 0v3.325c-1.712.348-3 1.86-3 3.675a.75.75 0 001.5 0 2.25 2.25 0 111.5 2.122.75.75 0 10-.5 1.414 3.75 3.75 0 102-7.211V12zm14-3.325a3.751 3.751 0 002.786-4.925.75.75 0 10-1.414.5A2.25 2.25 0 1119 2.75a.75.75 0 000-1.5 3.75 3.75 0 00-.75 7.425V12a.75.75 0 001.5 0V8.675zM12 18.25a.75.75 0 000 1.5h3.325A3.751 3.751 0 0022.75 19a3.75 3.75 0 00-7.425-.75H12zm4.75.75a2.25 2.25 0 104.5 0 2.25 2.25 0 00-4.5 0z"/>
</svg>
