<svg xmlns="http://www.w3.org/2000/svg" width="24" height="24" fill="currentColor" viewBox="0 0 24 24">
  <path fill="#0000ff" fill-rule="evenodd" d="M1.25 5a3.75 3.75 0 017.425-.75H12a.75.75 0 010 1.5H8.675A3.751 3.751 0 011.25 5zM5 2.75a2.25 2.25 0 110 4.5 2.25 2.25 0 010-4.5zM5.75 12a.75.75 0 00-1.5 0v3.325A3.751 3.751 0 005 22.75a3.75 3.75 0 00.75-7.425V12zm14-3.325A3.751 3.751 0 0019 1.25a3.75 3.75 0 00-.75 7.425V12a.75.75 0 001.5 0V8.675zM19 7.25a2.25 2.25 0 110-4.5 2.25 2.25 0 010 4.5zm-7 11a.75.75 0 000 1.5h3.325A3.751 3.751 0 0022.75 19a3.75 3.75 0 00-7.425-.75H12zm4.75.75a2.25 2.25 0 104.5 0 2.25 2.25 0 00-4.5 0zM5 16.75a2.25 2.25 0 100 4.5 2.25 2.25 0 000-4.5z"/>
</svg>
