<svg xmlns="http://www.w3.org/2000/svg" width="24" height="24" fill="currentColor" viewBox="0 0 24 24">
  <path fill="#0000ff" fill-rule="evenodd" d="M12.375 13.926a.75.75 0 011.04-.21 7.34 7.34 0 004.07 1.228c1.141 0 2.221-.26 3.19-.727a.75.75 0 011.027.94c-1.45 3.847-5.1 6.593-9.39 6.593a.75.75 0 010-1.5c3.015 0 5.676-1.604 7.203-4.04a8.857 8.857 0 01-2.03.234 8.84 8.84 0 01-4.9-1.478.75.75 0 01-.21-1.04z" opacity=".4"/>
  <path fill="#0000ff" fill-rule="evenodd" d="M11.59 1.617a.75.75 0 01-.047.836 7.843 7.843 0 00-1.585 4.751 7.802 7.802 0 003.001 6.185c.148.115.3.223.455.327a.75.75 0 11-.828 1.25 8.98 8.98 0 01-.545-.391 9.301 9.301 0 01-3.583-7.371c0-1.438.321-2.801.895-4.017C6.091 4.423 3.75 7.647 3.75 11.45c0 4.879 3.851 8.801 8.562 8.801a.75.75 0 010 1.5c-5.575 0-10.062-4.63-10.062-10.301 0-5.16 3.713-9.456 8.583-10.19a.75.75 0 01.756.358z"/>
</svg>
