<svg xmlns="http://www.w3.org/2000/svg" width="24" height="24" fill="currentColor" viewBox="0 0 24 24">
  <path fill="#0000ff" d="M3 11.449C3 16.724 7.169 21 12.312 21c3.959 0 7.34-2.534 8.688-6.107a8.074 8.074 0 01-3.515.8c-4.571 0-8.277-3.8-8.277-8.489 0-1.961.648-3.767 1.737-5.204C6.45 2.678 3 6.65 3 11.449z" opacity=".12"/>
  <path fill="#0000ff" fill-rule="evenodd" d="M11.59 1.617a.75.75 0 01-.047.836 7.843 7.843 0 00-1.585 4.751c0 4.293 3.388 7.74 7.527 7.74 1.141 0 2.221-.26 3.19-.727a.75.75 0 011.027.94c-1.45 3.847-5.1 6.593-9.39 6.593-5.575 0-10.062-4.63-10.062-10.301 0-5.16 3.713-9.456 8.583-10.19a.75.75 0 01.756.358zm-2.237 1.57C6.091 4.423 3.75 7.647 3.75 11.45c0 4.879 3.851 8.801 8.562 8.801 3.015 0 5.676-1.604 7.203-4.04a8.856 8.856 0 01-2.03.234c-5.003 0-9.027-4.155-9.027-9.24 0-1.438.321-2.801.895-4.017z"/>
</svg>
