<svg xmlns="http://www.w3.org/2000/svg" width="24" height="24" fill="currentColor" viewBox="0 0 24 24">
  <path fill="#0000ff" fill-rule="evenodd" d="M8.25 4.5c0-1.79 1.46-3.25 3.25-3.25s3.25 1.46 3.25 3.25-1.46 3.25-3.25 3.25S8.25 6.29 8.25 4.5zm3.25-1.75c-.96 0-1.75.79-1.75 1.75s.79 1.75 1.75 1.75 1.75-.79 1.75-1.75-.79-1.75-1.75-1.75zM8.25 12c0-1.79 1.46-3.25 3.25-3.25a.75.75 0 010 1.5c-.96 0-1.75.79-1.75 1.75s.79 1.75 1.75 1.75 1.75-.79 1.75-1.75a.75.75 0 011.5 0c0 1.79-1.46 3.25-3.25 3.25S8.25 13.79 8.25 12zm3.25 4.25c-1.79 0-3.25 1.46-3.25 3.25s1.46 3.25 3.25 3.25 3.25-1.46 3.25-3.25-1.46-3.25-3.25-3.25zM9.75 19.5c0-.96.79-1.75 1.75-1.75s1.75.79 1.75 1.75-.79 1.75-1.75 1.75-1.75-.79-1.75-1.75z"/>
</svg>
