<svg xmlns="http://www.w3.org/2000/svg" width="24" height="24" fill="currentColor" viewBox="0 0 24 24">
  <path fill="#0000ff" fill-rule="evenodd" d="M1.25 12c0-1.79 1.46-3.25 3.25-3.25S7.75 10.21 7.75 12s-1.46 3.25-3.25 3.25S1.25 13.79 1.25 12zm3.25-1.75c-.96 0-1.75.79-1.75 1.75s.79 1.75 1.75 1.75 1.75-.79 1.75-1.75-.79-1.75-1.75-1.75zM16.25 12c0-1.79 1.46-3.25 3.25-3.25s3.25 1.46 3.25 3.25-1.46 3.25-3.25 3.25-3.25-1.46-3.25-3.25zm3.25-1.75c-.96 0-1.75.79-1.75 1.75s.79 1.75 1.75 1.75 1.75-.79 1.75-1.75-.79-1.75-1.75-1.75zM12 8.75c-1.79 0-3.25 1.46-3.25 3.25s1.46 3.25 3.25 3.25 3.25-1.46 3.25-3.25S13.79 8.75 12 8.75zM10.25 12c0-.96.79-1.75 1.75-1.75s1.75.79 1.75 1.75-.79 1.75-1.75 1.75-1.75-.79-1.75-1.75z"/>
</svg>
