<svg xmlns="http://www.w3.org/2000/svg" width="24" height="24" fill="currentColor" viewBox="0 0 24 24">
  <path fill="#0000ff" fill-rule="evenodd" d="M11.37.815a2.25 2.25 0 011.26 0c.272.08.5.217.713.373.2.147.427.341.687.564l.02.017 1.264 1.084c.274.234.33.277.384.307a.75.75 0 00.199.073c.06.013.13.017.49.017h1.242c.395 0 .736 0 1.017.023.297.024.592.078.875.222.424.216.768.56.984.984.144.283.198.578.222.875.023.28.023.622.023 1.017V7.612c0 .36.004.431.017.491.015.07.04.137.073.2.03.053.073.11.307.383l1.084 1.264.017.02c.223.26.417.486.564.687.156.213.293.441.373.714.12.41.12.847 0 1.258-.08.273-.217.5-.373.714-.147.2-.341.427-.564.687l-.017.02-1.084 1.264c-.234.274-.277.33-.307.384a.752.752 0 00-.073.199c-.013.06-.017.13-.017.49v1.242c0 .395 0 .736-.023 1.017-.024.297-.078.592-.222.875a2.25 2.25 0 01-.984.984c-.283.144-.578.198-.875.222-.28.023-.622.023-1.017.023H16.388c-.36 0-.431.004-.491.017a.75.75 0 00-.2.073c-.053.03-.11.073-.383.307l-1.264 1.084-.02.017c-.26.223-.486.417-.687.564-.213.156-.441.293-.714.373-.41.12-.847.12-1.258 0-.273-.08-.5-.217-.714-.373-.2-.147-.427-.341-.687-.564l-.02-.017-1.264-1.084c-.274-.234-.33-.277-.384-.307a.75.75 0 00-.199-.073c-.06-.013-.13-.017-.49-.017H6.335c-.395 0-.736 0-1.017-.023-.296-.024-.591-.078-.875-.222a2.25 2.25 0 01-.983-.983c-.145-.284-.198-.58-.222-.876-.023-.28-.023-.622-.023-1.017V16.38c0-.357-.004-.427-.017-.487a.75.75 0 00-.072-.197c-.03-.054-.071-.11-.302-.383l-1.083-1.277-.016-.02c-.22-.258-.41-.483-.555-.683a2.274 2.274 0 01-.367-.709 2.25 2.25 0 010-1.248c.079-.27.213-.497.367-.71.145-.199.335-.424.555-.683l.016-.02 1.083-1.276c.23-.273.273-.329.302-.383a.75.75 0 00.072-.197c.013-.06.017-.13.017-.487V6.37c0-.395 0-.736.023-1.017.024-.297.077-.592.222-.875a2.25 2.25 0 01.983-.984c.284-.144.579-.198.875-.222.281-.023.622-.023 1.018-.023h1.275c.36 0 .431-.004.491-.017a.75.75 0 00.199-.073c.054-.03.11-.073.384-.307L9.95 1.769l.02-.017c.26-.223.486-.417.687-.564.213-.156.441-.293.714-.373zm.84 1.44a.75.75 0 00-.42 0 .829.829 0 00-.246.143c-.15.11-.332.265-.618.51L9.662 3.992l-.042.036c-.208.178-.391.336-.604.45a2.25 2.25 0 01-.596.221c-.237.051-.478.051-.752.051H6.366c-.433 0-.712 0-.924.018-.204.017-.28.045-.317.064a.75.75 0 00-.328.328c-.018.037-.047.112-.063.316-.018.212-.018.492-.018.924v1.275c0 .272 0 .511-.05.746a2.25 2.25 0 01-.217.592c-.114.212-.269.394-.444.601l-.036.042-1.082 1.277c-.24.284-.394.466-.502.614a.827.827 0 00-.14.245.75.75 0 000 .416.827.827 0 00.14.245c.108.148.261.33.502.614l1.082 1.277.036.042c.175.207.33.39.444.601.1.186.173.386.217.592.05.235.05.474.05.746V17.6c0 .432 0 .712.018.924.016.204.045.28.063.316a.75.75 0 00.328.328c.037.02.113.047.317.064.212.017.491.018.924.018h1.302c.274 0 .515 0 .752.05.208.046.409.12.596.221.213.116.396.273.604.451l.042.036 1.264 1.084c.286.245.469.4.618.51a.83.83 0 00.246.142.75.75 0 00.42 0 .832.832 0 00.246-.142c.149-.11.332-.265.618-.51l1.264-1.084.042-.036c.208-.178.39-.335.604-.45.187-.102.388-.176.596-.221.237-.051.478-.051.752-.051H17.6c.432 0 .712 0 .924-.018.204-.017.28-.045.316-.064a.75.75 0 00.328-.328c.02-.037.047-.112.064-.316.017-.212.018-.492.018-.924v-1.268c0-.274 0-.515.05-.752a2.25 2.25 0 01.221-.596c.115-.213.273-.396.451-.604l.036-.042 1.084-1.264c.245-.286.4-.469.51-.618a.83.83 0 00.142-.246.75.75 0 000-.42.83.83 0 00-.142-.246c-.11-.149-.265-.332-.51-.618l-1.084-1.264-.036-.042c-.178-.208-.336-.39-.45-.604a2.25 2.25 0 01-.221-.596c-.051-.237-.051-.478-.051-.752V6.4c0-.432 0-.712-.018-.924-.017-.204-.045-.28-.064-.316a.75.75 0 00-.328-.328c-.037-.02-.112-.047-.316-.064a12.747 12.747 0 00-.924-.018h-1.268c-.274 0-.515 0-.752-.05a2.25 2.25 0 01-.596-.221c-.213-.115-.396-.273-.604-.451l-.042-.036-1.264-1.084a11.85 11.85 0 00-.618-.51.83.83 0 00-.246-.142zM12 7.25a.75.75 0 01.75.75v5a.75.75 0 01-1.5 0V8a.75.75 0 01.75-.75zM12 17a1 1 0 100-2 1 1 0 000 2z"/>
</svg>
