<svg xmlns="http://www.w3.org/2000/svg" width="24" height="24" fill="currentColor" viewBox="0 0 24 24">
  <path fill="#0000ff" fill-rule="evenodd" d="M12 1.25h-.038c-1.837 0-3.267 0-4.41.104-1.16.105-2.098.322-2.927.8a6.75 6.75 0 00-2.47 2.471c-.48.83-.696 1.767-.801 2.927-.104 1.143-.104 2.573-.104 4.41v.076c0 1.837 0 3.267.104 4.41.105 1.16.322 2.098.8 2.927a6.75 6.75 0 002.471 2.47c.83.48 1.767.696 2.927.802 1.143.103 2.573.103 4.41.103H15.25v-2.802c0-.899 0-1.648.08-2.242.084-.628.27-1.195.725-1.65.456-.456 1.023-.642 1.65-.726.595-.08 1.345-.08 2.243-.08h2.802v-3.288c0-1.837 0-3.267-.104-4.41-.105-1.16-.322-2.098-.8-2.927a6.75 6.75 0 00-2.471-2.47c-.83-.48-1.767-.696-2.927-.801-1.143-.104-2.573-.104-4.41-.104H12zm8.022 19.775a6.75 6.75 0 01-3.272 1.611V20c0-.964.002-1.612.067-2.095.062-.461.169-.659.3-.789.13-.13.327-.237.788-.3.483-.064 1.131-.066 2.095-.066h2.636a6.75 6.75 0 01-1.611 3.272c-.123.136-.255.269-.478.492l-.017.016-.016.017c-.223.223-.356.355-.492.478zM8 7.25a.75.75 0 000 1.5h8a.75.75 0 000-1.5H8zM7.25 12a.75.75 0 01.75-.75h6a.75.75 0 010 1.5H8a.75.75 0 01-.75-.75zM8 15.25a.75.75 0 000 1.5h2a.75.75 0 000-1.5H8z"/>
</svg>
