<svg xmlns="http://www.w3.org/2000/svg" width="24" height="24" fill="currentColor" viewBox="0 0 24 24">
  <path fill="#0000ff" fill-rule="evenodd" d="M7 6.25a.75.75 0 000 1.5h8a.75.75 0 000-1.5H7zm9.75 15.25a.75.75 0 01-1.5 0V19.17c0-.535 0-.98.03-1.345.03-.38.098-.736.27-1.073a2.751 2.751 0 011.201-1.202c.338-.172.694-.24 1.074-.27.365-.03.81-.03 1.345-.03H21.5a.75.75 0 010 1.5h-2.3c-.572 0-.957 0-1.252.025-.288.023-.425.065-.515.111a1.25 1.25 0 00-.547.547c-.046.09-.088.227-.111.515-.024.295-.025.68-.025 1.252v2.3zM6.25 11a.75.75 0 01.75-.75h6a.75.75 0 010 1.5H7a.75.75 0 01-.75-.75zM7 14.25a.75.75 0 000 1.5h2a.75.75 0 000-1.5H7z" opacity=".4"/>
  <path fill="#0000ff" fill-rule="evenodd" d="M11.566 1.25H12.434c1.651 0 2.937 0 3.968.084 1.047.086 1.897.262 2.662.652a6.75 6.75 0 012.95 2.95c.39.765.566 1.615.652 2.662.084 1.031.084 2.317.084 3.968v3.629c0 .315 0 .503-.01.685a6.75 6.75 0 01-1.715 4.142c-.123.136-.255.269-.478.492l-.017.016-.016.017c-.223.223-.356.355-.492.478a6.75 6.75 0 01-4.141 1.715c-.183.01-.371.01-.686.01h-3.629c-1.651 0-2.937 0-3.968-.084-1.047-.086-1.897-.262-2.662-.652a6.75 6.75 0 01-2.95-2.95c-.39-.765-.566-1.615-.652-2.662-.084-1.031-.084-2.317-.084-3.968V11.566c0-1.651 0-2.937.084-3.968.086-1.047.262-1.897.652-2.662a6.75 6.75 0 012.95-2.95c.765-.39 1.615-.566 2.662-.652 1.031-.084 2.317-.084 3.968-.084zM7.72 2.83c-.954.077-1.585.228-2.103.492a5.25 5.25 0 00-2.295 2.295c-.264.518-.415 1.15-.493 2.103-.078.963-.079 2.187-.079 3.88v.8c0 1.692 0 2.917.08 3.88.077.954.228 1.585.492 2.103a5.25 5.25 0 002.295 2.295c.518.264 1.15.415 2.103.493.963.078 2.187.079 3.88.079h3.572c.345 0 .49 0 .627-.008a5.25 5.25 0 003.221-1.334c.103-.092.206-.194.45-.438.244-.244.346-.347.438-.45a5.25 5.25 0 001.334-3.22c.008-.138.008-.283.008-.628V11.6c0-1.693 0-2.917-.08-3.88-.077-.954-.228-1.585-.492-2.103a5.25 5.25 0 00-2.295-2.295c-.518-.264-1.15-.415-2.103-.493-.963-.078-2.188-.079-3.88-.079h-.8c-1.693 0-2.917 0-3.88.08z"/>
</svg>
