<svg xmlns="http://www.w3.org/2000/svg" width="24" height="24" fill="currentColor" viewBox="0 0 24 24">
  <path fill="#0000ff" fill-rule="evenodd" d="M6.631 2.056l-.035-.006c-.727-.129-1.323-.234-1.804-.275-.491-.041-.962-.027-1.401.16a2.75 2.75 0 00-1.457 1.457c-.187.44-.201.91-.16 1.401.041.481.146 1.077.275 1.804l.006.035 1.272 7.21.005.03c.162.915.29 1.643.44 2.229.153.6.34 1.104.645 1.556a4.75 4.75 0 002.006 1.682c.498.222 1.026.32 1.644.366.603.045 1.342.045 2.272.045h1.893a2.165 2.165 0 003.297 2.78l6.5-6.5a2.164 2.164 0 00-2.28-3.56v-2.13c0-.93 0-1.67-.045-2.272-.047-.618-.144-1.146-.366-1.644a4.75 4.75 0 00-1.682-2.006c-.452-.305-.955-.492-1.556-.645-.586-.15-1.314-.278-2.23-.44l-.028-.005-7.21-1.272zM19.53 14.53l-5 5-1 1a.664.664 0 00.94.94l6.5-6.5a.664.664 0 00-.94-.94l-.5.5zm-1.28-.84v-3.32c0-.966 0-1.65-.041-2.19-.04-.53-.116-.867-.24-1.146a3.25 3.25 0 00-1.151-1.372c-.253-.17-.573-.304-1.088-.436-.524-.134-1.197-.253-2.148-.42L6.37 3.532c-.772-.136-1.3-.229-1.705-.263a3.18 3.18 0 00-.349-.013L8.03 6.97a.75.75 0 11-1.06 1.06L3.256 4.318c-.002.093.001.208.013.35.034.405.127.933.263 1.705l1.272 7.21c.168.951.287 1.624.421 2.148.132.515.265.835.436 1.088.34.505.816.903 1.372 1.151.279.124.617.2 1.147.24.54.04 1.223.041 2.188.041h3.32l4.561-4.56zM11 9.75a1.25 1.25 0 100 2.5 1.25 1.25 0 000-2.5zM8.25 11a2.75 2.75 0 115.5 0 2.75 2.75 0 01-5.5 0z"/>
</svg>
