<svg xmlns="http://www.w3.org/2000/svg" width="24" height="24" fill="currentColor" viewBox="0 0 24 24">
  <path fill="#0000ff" fill-rule="evenodd" d="M2.064 3.125a2.752 2.752 0 00-.13.267c-.187.44-.201.91-.16 1.401.041.481.146 1.077.275 1.804l.006.035 1.45 8.212.016.094c.147.837.242 1.373.426 1.832a4.75 4.75 0 003.43 2.878c.485.102 1.029.102 1.88.102h.14c.44 0 .723 0 .998-.032a4.75 4.75 0 002.394-.992c.218-.172.417-.372.728-.683l.033-.032 4.46-4.462.033-.032c.31-.31.51-.51.683-.728a4.75 4.75 0 00.99-2.393c.033-.276.033-.559.033-.998V9.257c0-.85 0-1.394-.101-1.878a4.75 4.75 0 00-2.88-3.431c-.458-.184-.994-.279-1.831-.426l-.093-.017-8.213-1.45-.035-.005c-.727-.129-1.323-.234-1.804-.275-.491-.041-.962-.027-1.401.16a2.75 2.75 0 00-.266.13L8.03 6.97a.75.75 0 11-1.06 1.06L2.064 3.126zM13 11a2 2 0 11-4 0 2 2 0 014 0zm6.719 2.22a1.81 1.81 0 012.56 2.56l-7 7a1.81 1.81 0 11-2.56-2.56l7-7z"/>
</svg>
