<svg xmlns="http://www.w3.org/2000/svg" width="24" height="24" fill="currentColor" viewBox="0 0 24 24">
  <path fill="#0000ff" fill-rule="evenodd" d="M6.631 2.056l-.035-.006c-.727-.129-1.323-.234-1.804-.275-.491-.041-.962-.027-1.401.16a2.75 2.75 0 00-1.457 1.457c-.187.44-.201.91-.16 1.401.041.481.146 1.077.275 1.804l.006.035 1.272 7.21.005.03c.162.915.29 1.643.44 2.229.153.6.34 1.104.645 1.556a4.75 4.75 0 002.006 1.682c.498.222 1.026.32 1.644.366.603.045 1.342.045 2.272.045h1.103c.888 0 1.461 0 2.009-.131a4.746 4.746 0 001.373-.569c.48-.294.885-.7 1.514-1.328l.066-.066 3.625-3.626a.664.664 0 01.94.94l-5.5 5.5a.75.75 0 101.06 1.06l5.5-5.5a2.164 2.164 0 10-3.06-3.06l-3.626 3.625c-.717.717-.992.986-1.303 1.176-.29.178-.607.31-.94.39-.353.084-.738.089-1.752.089h-.98c-.965 0-1.648 0-2.188-.041-.53-.04-.868-.116-1.147-.24a3.25 3.25 0 01-1.372-1.151c-.17-.253-.304-.573-.436-1.088-.134-.524-.253-1.197-.42-2.148l-1.273-7.21c-.136-.772-.229-1.3-.263-1.705a3.174 3.174 0 01-.013-.35L6.97 8.031a.75.75 0 001.06-1.06L4.317 3.256a3.18 3.18 0 01.349.013c.405.034.933.127 1.705.263l8.066 1.424c1.106.195 1.53.275 1.865.422a3.25 3.25 0 011.855 2.21c.087.357.092.788.092 1.911h.75-.75l.001 1a.75.75 0 001.5 0l-.001-1V9.39c0-.977 0-1.602-.134-2.155a4.75 4.75 0 00-2.711-3.231c-.521-.229-1.137-.337-2.1-.507l-.106-.019L6.63 2.056zM11 9.75a1.25 1.25 0 100 2.5 1.25 1.25 0 000-2.5zM8.25 11a2.75 2.75 0 115.5 0 2.75 2.75 0 01-5.5 0z"/>
</svg>
