<svg xmlns="http://www.w3.org/2000/svg" width="24" height="24" fill="currentColor" viewBox="0 0 24 24">
  <path fill="#0000ff" fill-rule="evenodd" d="M19.03 14.984l.104.027.708.177.121.03c.667.166 1.188.295 1.603.583.459.318.81.768 1.007 1.29.178.472.178.999.177 1.67v.15c0 .482 0 .89-.029 1.227-.03.358-.096.692-.258 1.018a2.894 2.894 0 01-1.55 1.371c-.61.216-1.214.141-1.964.048l-.122-.015c-3.213-.394-6.1-1.394-8.565-2.923a18.326 18.326 0 01-2.749-2.085.75.75 0 111.016-1.104c.65.598 1.35 1.146 2.096 1.64l2.49-1.864.086-.065c.812-.608 1.335-1 1.928-1.235a4.75 4.75 0 011.645-.331c.637-.014 1.271.145 2.256.391zm-7.013 3.935c2.048 1.097 4.395 1.834 6.993 2.152.93.114 1.165.126 1.405.041.271-.095.577-.366.705-.623.047-.095.085-.224.107-.478.022-.267.023-.61.023-1.13 0-.85-.012-1.078-.08-1.26a1.25 1.25 0 00-.458-.587c-.16-.11-.387-.18-1.233-.391l-.709-.177c-1.124-.281-1.553-.382-1.964-.373a3.251 3.251 0 00-1.126.226c-.383.152-.739.41-1.666 1.105l-1.997 1.495z" opacity=".4"/>
  <path fill="#0000ff" fill-rule="evenodd" d="M6.38 2.83c-.182-.068-.419-.08-1.291-.08-.51 0-.845 0-1.106.023-.248.022-.376.06-.472.107a1.405 1.405 0 00-.623.705c-.085.24-.073.475.04 1.405.304 2.471.985 4.715 1.995 6.69l1.398-1.662c.8-.95 1.098-1.315 1.276-1.716a3.25 3.25 0 00.274-1.19c.017-.437-.09-.897-.391-2.101l-.123-.49c-.211-.846-.28-1.073-.391-1.233a1.25 1.25 0 00-.586-.457zm-.666 10.24l1.755-2.086.075-.088c.7-.832 1.15-1.367 1.424-1.988A4.75 4.75 0 009.37 7.17c.026-.678-.143-1.357-.407-2.411l-.028-.112-.123-.49-.03-.12c-.166-.667-.295-1.188-.583-1.603a2.75 2.75 0 00-1.29-1.007C6.437 1.25 5.9 1.25 5.213 1.25h-.155c-.471 0-.871 0-1.205.029-.354.03-.685.097-1.009.258a2.895 2.895 0 00-1.371 1.55c-.216.61-.141 1.214-.048 1.964l.015.122c.375 3.06 1.3 5.823 2.707 8.208a18.263 18.263 0 003.366 4.171.75.75 0 001.016-1.104 16.716 16.716 0 01-2.815-3.378z"/>
</svg>
