<svg xmlns="http://www.w3.org/2000/svg" width="24" height="24" fill="currentColor" viewBox="0 0 24 24">
  <path fill="#0000ff" fill-rule="evenodd" d="M7.47 10.984L5.713 13.07a16.67 16.67 0 004.91 5.018l2.49-1.864.087-.065c.812-.608 1.335-1 1.928-1.235a4.752 4.752 0 011.645-.331c.637-.014 1.271.145 2.256.391l.104.026.708.177.121.03c.667.166 1.188.296 1.603.584.459.318.81.768 1.007 1.29.178.472.178.999.177 1.67v.15c0 .482 0 .889-.029 1.227-.03.358-.096.692-.258 1.018a2.894 2.894 0 01-1.55 1.371c-.61.215-1.214.14-1.964.048l-.122-.015c-3.213-.394-6.1-1.394-8.565-2.923a18.2 18.2 0 01-6.115-6.256C2.739 10.996 1.815 8.232 1.44 5.172l-.015-.12c-.093-.751-.168-1.354.048-1.966a2.895 2.895 0 011.371-1.55c.324-.16.655-.227 1.01-.257.333-.03.733-.03 1.204-.03h.155c.687 0 1.224 0 1.696.178A2.75 2.75 0 018.2 2.434c.288.415.417.936.583 1.603l.03.12.123.49.028.112c.264 1.054.433 1.733.407 2.411a4.75 4.75 0 01-.402 1.738c-.274.621-.725 1.156-1.424 1.988l-.075.088z"/>
</svg>
