<svg xmlns="http://www.w3.org/2000/svg" width="24" height="24" fill="currentColor" viewBox="0 0 24 24">
  <path fill="#0000ff" fill-rule="evenodd" d="M6.38 2.83c-.182-.068-.419-.08-1.291-.08-.51 0-.845 0-1.106.023-.248.022-.376.06-.472.107a1.405 1.405 0 00-.623.705c-.085.24-.073.475.04 1.405.353 2.872 1.216 5.435 2.51 7.629a16.699 16.699 0 005.615 5.744c2.265 1.405 4.941 2.338 7.957 2.708.93.114 1.165.126 1.405.041.271-.095.577-.366.705-.623.047-.095.085-.224.107-.478.022-.267.023-.61.023-1.13 0-.85-.012-1.078-.08-1.26a1.25 1.25 0 00-.458-.587c-.16-.11-.387-.18-1.233-.391l-.709-.177c-1.124-.282-1.553-.382-1.964-.373a3.248 3.248 0 00-1.126.226c-.383.152-.739.41-1.666 1.105l-.564.423a.75.75 0 01-.9-1.201l.564-.422.087-.065c.812-.608 1.335-1 1.928-1.235a4.75 4.75 0 011.645-.331c.637-.014 1.271.145 2.256.391l.104.027.708.177.121.03c.667.166 1.188.295 1.603.583.459.318.81.768 1.007 1.29.178.472.178.999.177 1.67v.15c0 .482 0 .89-.029 1.227-.03.358-.096.692-.258 1.018a2.894 2.894 0 01-1.55 1.371c-.61.216-1.214.141-1.964.048l-.122-.015c-3.213-.394-6.1-1.394-8.565-2.923a18.2 18.2 0 01-6.115-6.256C2.739 10.996 1.815 8.232 1.44 5.172l-.015-.12c-.093-.751-.168-1.354.048-1.966a2.895 2.895 0 011.371-1.55c.324-.16.655-.226 1.01-.257.333-.029.733-.029 1.204-.029h.155c.687 0 1.224-.001 1.696.177A2.75 2.75 0 018.2 2.434c.288.415.417.936.583 1.603l.03.12.123.49.028.112c.264 1.054.433 1.733.407 2.411a4.75 4.75 0 01-.402 1.738c-.274.621-.725 1.157-1.424 1.988l-.075.088-.42.499a.75.75 0 01-1.147-.966l.42-.498c.8-.95 1.097-1.316 1.274-1.717a3.25 3.25 0 00.275-1.19c.017-.437-.09-.897-.391-2.101l-.123-.49c-.211-.846-.28-1.073-.391-1.233a1.25 1.25 0 00-.586-.457z"/>
</svg>
