<svg xmlns="http://www.w3.org/2000/svg" width="24" height="24" fill="currentColor" viewBox="0 0 24 24">
  <path fill="#0000ff" fill-rule="evenodd" d="M12 8.75a2.25 2.25 0 100 4.5 2.25 2.25 0 000-4.5zM8.25 11a3.75 3.75 0 117.5 0 3.75 3.75 0 01-7.5 0z" opacity=".4"/>
  <path fill="#0000ff" fill-rule="evenodd" d="M12 2.75c-4.643 0-8.25 3.22-8.25 7.75 0 3.68 1.634 6.369 3.516 8.15a11.795 11.795 0 002.817 1.985c.899.445 1.588.615 1.917.615.33 0 1.018-.17 1.917-.615a11.796 11.796 0 002.817-1.985c1.882-1.781 3.516-4.47 3.516-8.15 0-4.53-3.607-7.75-8.25-7.75zM2.25 10.5c0-5.47 4.393-9.25 9.75-9.25s9.75 3.78 9.75 9.25c0 4.17-1.866 7.233-3.984 9.239a13.29 13.29 0 01-3.183 2.24c-.976.484-1.912.77-2.583.77-.67 0-1.607-.286-2.583-.77a13.29 13.29 0 01-3.183-2.24C4.116 17.733 2.25 14.671 2.25 10.5z"/>
</svg>
