<svg xmlns="http://www.w3.org/2000/svg" width="24" height="24" fill="currentColor" viewBox="0 0 24 24">
  <path fill="#0000ff" fill-rule="evenodd" d="M12 6.25a.75.75 0 01.75.75v4a.75.75 0 01-1.5 0V7a.75.75 0 01.75-.75zm-4 2a.75.75 0 01.75.75v2a.75.75 0 01-1.5 0V9A.75.75 0 018 8.25zM16.75 8a.75.75 0 00-1.5 0v3a.75.75 0 001.5 0V8z" opacity=".4"/>
  <path fill="#0000ff" fill-rule="evenodd" d="M1.25 2A.75.75 0 012 1.25h20a.75.75 0 010 1.5h-.25v6.883c0 1.092 0 1.958-.057 2.655-.058.714-.18 1.317-.46 1.868a4.75 4.75 0 01-2.076 2.076c-.552.281-1.155.403-1.869.461-.697.057-1.563.057-2.655.057H12.75v1.825l4.636 2.782a.75.75 0 11-.772 1.286l-3.864-2.318V22a.75.75 0 01-1.5 0v-1.675l-3.864 2.318a.75.75 0 11-.772-1.286l4.636-2.782V16.75H9.367c-1.092 0-1.958 0-2.655-.057-.714-.058-1.317-.18-1.868-.46a4.75 4.75 0 01-2.076-2.077c-.281-.55-.403-1.154-.461-1.868-.057-.697-.057-1.563-.057-2.655V2.75H2A.75.75 0 011.25 2zM12 15.25h2.6c1.133 0 1.937 0 2.566-.052.62-.05 1.005-.147 1.31-.302a3.25 3.25 0 001.42-1.42c.155-.305.251-.69.302-1.31.051-.63.052-1.434.052-2.566V2.75H3.75V9.6c0 1.133 0 1.937.052 2.566.05.62.147 1.005.302 1.31a3.25 3.25 0 001.42 1.42c.305.155.69.251 1.31.302.63.051 1.434.052 2.566.052H12z"/>
</svg>
