<svg xmlns="http://www.w3.org/2000/svg" width="24" height="24" fill="currentColor" viewBox="0 0 24 24">
  <g clip-path="url(#clip0_2110:4678)">
    <path fill="#0000ff" d="M21.466 6.478c.502-1.791.752-2.687.52-3.302a2 2 0 00-1.162-1.162c-.615-.233-1.51.018-3.302.52L7.296 5.397C4.466 6.19 3.05 6.586 2.64 7.258a2 2 0 00-.09 1.917c.345.708 1.716 1.236 4.459 2.29l2.663 1.024c.488.188.733.282.938.429a2 2 0 01.471.47c.146.206.24.45.428.94l1.024 2.662c1.055 2.743 1.583 4.114 2.291 4.459a2 2 0 001.916-.09c.673-.41 1.07-1.825 1.862-4.655l2.863-10.226z" opacity=".12"/>
    <path fill="#0000ff" fill-rule="evenodd" d="M17.724 3.256c.91-.255 1.543-.43 2.025-.52.488-.09.698-.062.809-.02.335.127.6.391.726.726.042.11.07.32-.02.809-.089.482-.265 1.115-.52 2.025L17.88 16.502c-.4 1.428-.688 2.453-.957 3.175-.284.766-.48.985-.573 1.041a1.25 1.25 0 01-1.198.057c-.097-.048-.313-.247-.668-.983-.335-.694-.718-1.687-1.25-3.071l-1.024-2.663-.028-.072c-.115-.299-.212-.552-.332-.776l2.68-2.68a.75.75 0 10-1.061-1.06l-2.68 2.68c-.224-.12-.477-.218-.776-.333l-.072-.027-2.663-1.024c-1.385-.533-2.378-.916-3.071-1.251-.736-.355-.935-.57-.983-.668a1.25 1.25 0 01.057-1.198c.056-.093.275-.289 1.04-.573.723-.269 1.747-.556 3.176-.956l10.226-2.864zm3.365-1.943c-.504-.19-1.049-.155-1.61-.052-.56.103-1.258.298-2.123.54l-.037.01L7.095 4.676l-.038.01c-1.383.388-2.468.692-3.256.985-.752.28-1.446.618-1.8 1.198a2.75 2.75 0 00-.123 2.635c.297.611.956 1.013 1.678 1.363.757.365 1.809.77 3.15 1.286l.036.014 2.662 1.024c.525.201.663.26.774.339.114.081.213.18.294.294.079.11.138.25.34.774l1.024 2.662.013.037c.516 1.34.92 2.392 1.286 3.149.35.722.752 1.38 1.362 1.678A2.75 2.75 0 0017.133 22c.58-.353.918-1.047 1.198-1.799.293-.788.597-1.873.984-3.256l.01-.038 2.864-10.225.01-.037c.243-.865.438-1.564.54-2.123.104-.561.14-1.106-.05-1.61a2.75 2.75 0 00-1.599-1.598z"/>
  </g>
  <defs>
    <clipPath id="clip0_2110:4678">
      <path fill="#0000ff" d="M0 0h24v24H0z"/>
    </clipPath>
  </defs>
</svg>
