<svg xmlns="http://www.w3.org/2000/svg" width="24" height="24" fill="currentColor" viewBox="0 0 24 24">
  <path fill="#0000ff" fill-rule="evenodd" d="M4.171 4.421c-.37.292-.421.493-.421.579 0 .086.052.287.421.579.362.285.932.574 1.702.83 1.534.512 3.7.841 6.127.841 2.427 0 4.593-.329 6.127-.84.77-.257 1.34-.546 1.701-.831.37-.292.422-.493.422-.579 0-.086-.052-.287-.422-.579-.361-.285-.93-.574-1.701-.83-1.534-.512-3.7-.841-6.127-.841-2.427 0-4.593.329-6.127.84-.77.257-1.34.546-1.702.831zm16.586-1.178c.54.426.993 1.014.993 1.757v7.234c-.395.212-.86.424-1.393.628-2.033.777-4.941 1.388-8.357 1.388-3.416 0-6.324-.61-8.357-1.388a12.134 12.134 0 01-1.393-.628V5c0-.743.452-1.33.993-1.757.55-.433 1.298-.79 2.156-1.076C7.123 1.593 9.457 1.25 12 1.25s4.877.343 6.601.917c.858.286 1.607.643 2.156 1.076zM2.25 13.906V19c0 .742.452 1.33.993 1.757.55.433 1.298.79 2.156 1.076 1.724.575 4.058.917 6.601.917s4.877-.343 6.601-.917c.858-.286 1.607-.643 2.156-1.076.54-.427.993-1.015.993-1.757v-5.094c-.27.123-.557.242-.857.357-2.217.848-5.309 1.487-8.893 1.487-3.584 0-6.676-.64-8.893-1.487-.3-.115-.586-.234-.857-.357z"/>
</svg>
