<svg xmlns="http://www.w3.org/2000/svg" width="24" height="24" fill="currentColor" viewBox="0 0 24 24">
  <path fill="#0000ff" fill-rule="evenodd" d="M3.75 5c0-.086.052-.287.421-.579.362-.285.932-.574 1.702-.83 1.534-.512 3.7-.841 6.127-.841 2.427 0 4.593.329 6.127.84.77.257 1.34.546 1.701.831.37.292.422.493.422.579 0 .075-.036.232-.29.467-.254.235-.666.486-1.246.725a.75.75 0 00.572 1.387c.346-.143.671-.3.964-.476V12c0 .086-.052.287-.422.579-.361.285-.93.574-1.701.83-1.534.512-3.7.841-6.127.841-.329 0-.653-.006-.972-.018a.75.75 0 10-.056 1.5A28 28 0 0012 15.75c2.543 0 4.877-.342 6.601-.917a8.443 8.443 0 001.649-.73V19c0 .086-.052.287-.422.579-.361.285-.93.574-1.701.83-1.534.512-3.7.841-6.127.841-2.427 0-4.593-.329-6.127-.84-.77-.257-1.34-.546-1.702-.831-.37-.292-.421-.493-.421-.579v-4.897c.563.337 1.259.62 2.036.852a.75.75 0 00.428-1.438c-.877-.261-1.538-.568-1.962-.878-.44-.32-.502-.546-.502-.639V7.103c.47.281 1.031.524 1.649.73 1.724.574 4.058.917 6.601.917.706 0 1.394-.026 2.057-.076a.75.75 0 00-.114-1.496c-.624.047-1.274.072-1.943.072-2.427 0-4.593-.329-6.127-.84-.77-.257-1.34-.546-1.702-.831-.37-.292-.421-.493-.421-.579zm18 14c0 .742-.452 1.33-.993 1.757-.55.433-1.298.79-2.156 1.076-1.724.575-4.057.917-6.601.917-2.543 0-4.877-.343-6.601-.917-.858-.286-1.607-.643-2.156-1.076-.54-.427-.993-1.015-.993-1.757V5c0-.743.452-1.33.993-1.757.55-.433 1.298-.79 2.156-1.076C7.123 1.593 9.457 1.25 12 1.25s4.877.343 6.601.917c.858.286 1.607.643 2.156 1.076.54.426.993 1.014.993 1.757v14z"/>
</svg>
