<svg xmlns="http://www.w3.org/2000/svg" width="24" height="24" fill="currentColor" viewBox="0 0 24 24">
  <path fill="#0000ff" fill-rule="evenodd" d="M11.826 1.25h.348c2.165 0 3.45 0 4.533.378a6.75 6.75 0 013.872 3.483c.491 1.037.627 2.314.855 4.468l.019.173.236 2.225.003.03c.16 1.5.284 2.666.317 3.607.033.952-.023 1.736-.257 2.46a6.75 6.75 0 01-3.681 4.094c-.697.31-1.47.448-2.42.515-.94.067-2.112.067-3.621.067h-.06c-1.509 0-2.681 0-3.62-.067-.951-.067-1.724-.206-2.42-.515a6.75 6.75 0 01-3.682-4.093c-.234-.725-.29-1.509-.257-2.461.033-.941.157-2.107.317-3.608l.003-.03.236-2.224.019-.173c.228-2.154.364-3.43.855-4.468a6.75 6.75 0 013.872-3.483c1.083-.378 2.368-.378 4.533-.378zM9.75 9a2.25 2.25 0 104.5 0V7a.75.75 0 111.5 0v2a3.75 3.75 0 01-7.5 0V7a.75.75 0 111.5 0v2z"/>
</svg>
