<svg xmlns="http://www.w3.org/2000/svg" width="24" height="24" fill="currentColor" viewBox="0 0 24 24">
  <path fill="#0000ff" fill-rule="evenodd" d="M12 1.25h-.174c-2.165 0-3.45 0-4.533.378A6.75 6.75 0 003.42 5.111c-.491 1.037-.627 2.314-.855 4.468l-.019.173-.236 2.225-.003.03c-.16 1.5-.284 2.666-.317 3.607-.033.952.023 1.736.257 2.46a6.75 6.75 0 003.681 4.094c.697.31 1.47.448 2.42.515.94.067 2.112.067 3.621.067h2.549c.742 0 1.18 0 1.547-.04a6.75 6.75 0 006.013-6.686c.001-.37-.045-.805-.124-1.542l-.006-.061-.053-.5a.75.75 0 10-1.492.158l.053.5c.087.816.123 1.163.122 1.44a5.25 5.25 0 01-4.677 5.2c-.275.03-.624.031-1.444.031H12c-1.545 0-2.664 0-3.544-.063-.874-.062-1.45-.182-1.917-.39a5.25 5.25 0 01-2.864-3.183c-.157-.487-.215-1.072-.185-1.948.031-.881.15-1.995.312-3.53L4.04 9.91c.253-2.379.37-3.38.738-4.157a5.25 5.25 0 013.011-2.709C8.6 2.76 9.608 2.75 12 2.75h.333c2.07 0 2.942.008 3.653.221A5.25 5.25 0 0119.32 5.97c.287.685.387 1.552.606 3.61l.053.5a.75.75 0 001.492-.158l-.053-.5-.016-.15c-.198-1.863-.315-2.968-.699-3.882a6.75 6.75 0 00-4.286-3.855c-.95-.284-2.06-.284-3.934-.284H12zM9.75 9a2.25 2.25 0 004.5 0V7a.75.75 0 011.5 0v2a3.75 3.75 0 11-7.5 0V7a.75.75 0 111.5 0v2z"/>
</svg>
