<svg xmlns="http://www.w3.org/2000/svg" width="24" height="24" fill="currentColor" viewBox="0 0 24 24">
  <path fill="#0000ff" fill-rule="evenodd" d="M12 11.25A2.25 2.25 0 019.75 9V7a.75.75 0 10-1.5 0v2a3.75 3.75 0 107.5 0V7a.75.75 0 00-1.5 0v2A2.25 2.25 0 0112 11.25z" opacity=".4"/>
  <path fill="#0000ff" fill-rule="evenodd" d="M11.826 1.25a991.99 991.99 0 00.348 0c2.165 0 3.45 0 4.533.378a6.75 6.75 0 013.872 3.483c.491 1.037.627 2.314.855 4.468l.019.173.236 2.225.003.03c.16 1.5.284 2.666.317 3.607.033.952-.023 1.736-.257 2.46a6.75 6.75 0 01-3.681 4.094c-.697.31-1.47.448-2.42.515-.94.067-2.112.067-3.621.067h-.06c-1.509 0-2.681 0-3.62-.067-.951-.067-1.724-.206-2.42-.515a6.75 6.75 0 01-3.682-4.093c-.234-.725-.29-1.509-.257-2.461.033-.941.157-2.107.317-3.608l.003-.03.236-2.224.019-.173c.228-2.154.364-3.43.855-4.468a6.75 6.75 0 013.872-3.483c1.083-.378 2.368-.378 4.533-.378zM12 2.75c-2.392 0-3.4.01-4.212.294a5.25 5.25 0 00-3.011 2.709c-.369.777-.485 1.778-.738 4.157l-.237 2.225c-.163 1.536-.28 2.65-.312 3.531-.03.876.028 1.46.185 1.948a5.25 5.25 0 002.864 3.183c.467.208 1.043.328 1.917.39.88.063 2 .063 3.544.063 1.545 0 2.664 0 3.544-.063.874-.062 1.45-.182 1.917-.39a5.25 5.25 0 002.864-3.183c.157-.487.216-1.072.185-1.948-.031-.881-.15-1.995-.312-3.53L19.96 9.91c-.252-2.379-.37-3.38-.737-4.157a5.25 5.25 0 00-3.012-2.709C15.4 2.76 14.392 2.75 12 2.75z"/>
</svg>
