<svg xmlns="http://www.w3.org/2000/svg" width="24" height="24" fill="currentColor" viewBox="0 0 24 24">
  <path fill="#0000ff" d="M3.293 9.83c.246-2.318.37-3.477.806-4.398A6 6 0 017.54 2.336C8.502 2 9.668 2 12 2s3.498 0 4.46.336A6 6 0 0119.9 5.432c.436.92.56 2.08.806 4.399l.236 2.225c.325 3.051.487 4.576.095 5.788a6 6 0 01-3.272 3.639C16.602 22 15.068 22 12 22s-4.602 0-5.766-.517a6 6 0 01-3.272-3.639c-.392-1.212-.23-2.737.095-5.788l.236-2.225z" opacity=".12"/>
  <path fill="#0000ff" fill-rule="evenodd" d="M12 1.25h-.174c-2.165 0-3.45 0-4.533.378A6.75 6.75 0 003.42 5.111c-.491 1.037-.627 2.314-.855 4.468l-.019.173-.236 2.225-.003.03c-.16 1.5-.284 2.666-.317 3.607-.033.952.023 1.736.257 2.46a6.75 6.75 0 003.681 4.094c.697.31 1.47.448 2.42.515.94.067 2.112.067 3.621.067h.06c1.509 0 2.681 0 3.62-.067.951-.067 1.724-.206 2.42-.515a6.75 6.75 0 003.682-4.093c.234-.725.29-1.509.257-2.461-.033-.941-.157-2.107-.317-3.608l-.003-.03-.236-2.224-.018-.173c-.229-2.154-.365-3.43-.856-4.468a6.75 6.75 0 00-3.872-3.483c-1.083-.378-2.368-.378-4.533-.378H12zM7.788 3.044C8.6 2.76 9.608 2.75 12 2.75c2.393 0 3.4.01 4.212.294a5.25 5.25 0 013.012 2.709c.368.777.485 1.778.737 4.157l.237 2.225c.163 1.536.28 2.65.312 3.531.03.876-.028 1.46-.185 1.948a5.25 5.25 0 01-2.864 3.183c-.467.208-1.043.328-1.917.39-.88.063-2 .063-3.544.063-1.545 0-2.664 0-3.544-.063-.874-.062-1.45-.182-1.917-.39a5.25 5.25 0 01-2.864-3.183c-.157-.487-.215-1.072-.185-1.948.031-.881.15-1.995.312-3.53L4.04 9.91c.253-2.379.37-3.38.738-4.157a5.25 5.25 0 013.011-2.709zM9.75 9a2.25 2.25 0 104.5 0V7a.75.75 0 111.5 0v2a3.75 3.75 0 01-7.5 0V7a.75.75 0 111.5 0v2z"/>
</svg>
