<svg xmlns="http://www.w3.org/2000/svg" width="24" height="24" fill="currentColor" viewBox="0 0 24 24">
  <path fill="#0000ff" fill-rule="evenodd" d="M8.834 5.262A3.251 3.251 0 0115.25 6v2a.75.75 0 001.5 0V6.96a5.25 5.25 0 013.515 3.387c.131.395.206.876.278 1.717a.75.75 0 001.495-.128c-.074-.856-.159-1.487-.35-2.061a6.75 6.75 0 00-4.975-4.47 4.75 4.75 0 00-9.426 0 6.75 6.75 0 00-4.976 4.47c-.267.806-.334 1.764-.448 3.381l-.01.13-.01.15c-.129 1.833-.205 2.916-.017 3.827a6.75 6.75 0 004.787 5.136c.896.251 1.981.251 3.818.251H13.568c1.838 0 2.923 0 3.819-.25a6.75 6.75 0 004.787-5.137 6.52 6.52 0 00.113-1.367.75.75 0 10-1.5.008c.003.45-.024.777-.082 1.056a5.25 5.25 0 01-3.724 3.995c-.67.188-1.53.195-3.563.195h-2.836c-2.032 0-2.893-.007-3.563-.195a5.25 5.25 0 01-3.724-3.995c-.14-.682-.087-1.54.055-3.568.126-1.787.185-2.54.385-3.145A5.25 5.25 0 017.25 6.959V8a.75.75 0 001.5 0V6.766a63.925 63.925 0 011.832-.016H13a.75.75 0 000-1.5h-2.548c-.629 0-1.158 0-1.618.012z"/>
</svg>
