<svg xmlns="http://www.w3.org/2000/svg" width="24" height="24" fill="currentColor" viewBox="0 0 24 24">
  <path fill="#0000ff" fill-rule="evenodd" d="M2 5.25a.75.75 0 000 1.5h6a.75.75 0 000-1.5H2zm14 12a.75.75 0 000 1.5h6a.75.75 0 000-1.5h-6z" opacity=".4"/>
  <path fill="#0000ff" fill-rule="evenodd" d="M14.17 1.25H15.83c.535 0 .98 0 1.345.03.38.03.736.098 1.073.27a2.75 2.75 0 011.202 1.202c.172.337.24.693.27 1.073.03.365.03.81.03 1.345v.08H22a.75.75 0 010 1.5h-2.25v.08c0 .535 0 .98-.03 1.345-.03.38-.098.736-.27 1.073a2.75 2.75 0 01-1.201 1.202c-.338.172-.694.24-1.074.27-.365.03-.81.03-1.345.03H14.17c-.535 0-.98 0-1.345-.03-.38-.03-.736-.098-1.073-.27a2.75 2.75 0 01-1.202-1.202c-.172-.337-.24-.693-.27-1.073-.03-.365-.03-.81-.03-1.345V5.17c0-.535 0-.98.03-1.345.03-.38.098-.736.27-1.073A2.75 2.75 0 0111.75 1.55c.338-.172.694-.24 1.074-.27.365-.03.81-.03 1.345-.03zm4.08 3.95v1.6c0 .572 0 .957-.025 1.253-.023.287-.065.424-.111.514a1.25 1.25 0 01-.547.547c-.09.046-.227.088-.515.111-.295.024-.68.025-1.252.025h-1.6c-.572 0-.957 0-1.252-.025-.288-.023-.425-.065-.516-.111a1.25 1.25 0 01-.546-.547c-.046-.09-.088-.227-.111-.514-.024-.296-.025-.68-.025-1.253V5.2c0-.572 0-.957.025-1.253.023-.287.065-.424.111-.514a1.25 1.25 0 01.546-.547c.091-.046.228-.088.515-.111.296-.024.68-.025 1.253-.025h1.6c.572 0 .957 0 1.252.025.288.023.425.065.515.111.236.12.427.311.547.547.046.09.088.227.111.514.024.296.025.68.025 1.253zM2 17.25a.75.75 0 000 1.5h2.25v.08c0 .535 0 .98.03 1.345.03.38.098.736.27 1.073a2.75 2.75 0 001.202 1.202c.337.172.693.24 1.073.27.365.03.81.03 1.344.03H9.83c.535 0 .98 0 1.345-.03.38-.03.736-.098 1.073-.27a2.751 2.751 0 001.202-1.201c.172-.338.24-.694.27-1.074.03-.364.03-.81.03-1.345V17.17c0-.535 0-.98-.03-1.345-.03-.38-.098-.736-.27-1.073a2.751 2.751 0 00-1.201-1.202c-.338-.172-.694-.24-1.074-.27-.365-.03-.81-.03-1.345-.03H8.17c-.535 0-.98 0-1.345.03-.38.03-.736.098-1.073.27A2.75 2.75 0 004.55 14.75c-.172.338-.24.694-.27 1.074-.03.365-.03.81-.03 1.345v.08H2zm3.75.75v.8c0 .572 0 .957.025 1.252.023.288.065.425.111.515.12.236.311.427.547.547.09.046.227.088.514.111.296.024.68.025 1.253.025h1.6c.572 0 .957 0 1.252-.025.288-.023.425-.065.516-.111a1.25 1.25 0 00.546-.547c.046-.09.088-.227.111-.515.024-.295.025-.68.025-1.252v-1.6c0-.572 0-.957-.025-1.252-.023-.288-.065-.425-.111-.516a1.25 1.25 0 00-.546-.546c-.091-.046-.228-.088-.515-.111-.296-.024-.68-.025-1.253-.025H8.2c-.572 0-.957 0-1.253.025-.287.023-.424.065-.514.111a1.25 1.25 0 00-.547.546c-.046.091-.088.228-.111.515-.024.296-.025.68-.025 1.253v.8z"/>
</svg>
