<svg xmlns="http://www.w3.org/2000/svg" width="24" height="24" fill="currentColor" viewBox="0 0 24 24">
  <path fill="#0000ff" fill-rule="evenodd" d="M11.272.82c.476-.13.98-.13 1.456 0 .708.195 1.199.75 1.622 1.398.423.65.877 1.56 1.443 2.691l.022.045-.67.335.67-.335.048.095c.337.673.435.849.562.974.1.099.217.18.345.24.161.076.36.108 1.108.191l.043.005c1.18.131 2.124.236 2.833.386.7.149 1.349.374 1.777.875a2.75 2.75 0 01.652 1.975c-.046.658-.433 1.224-.907 1.76-.48.544-1.175 1.19-2.046 1.998l-.032.03-.14.13c-.61.566-.766.726-.853.897a1.25 1.25 0 00-.134.543c-.003.191.06.406.336 1.19l.013.039c.406 1.156.727 2.073.908 2.787.176.696.271 1.38.03 1.973a2.75 2.75 0 01-1.836 1.617c-.62.166-1.285-.014-1.954-.277-.686-.27-1.555-.704-2.65-1.252l-.037-.017-.645-.323c-.713-.356-.907-.441-1.096-.463a1.243 1.243 0 00-.28 0c-.19.022-.384.107-1.096.463l-.645.323-.036.018c-1.096.547-1.965.982-2.651 1.251-.669.263-1.335.443-1.954.277a2.75 2.75 0 01-1.835-1.617c-.188-.46-.17-.965-.082-1.466.09-.506.27-1.107.507-1.814a.75.75 0 111.422.476c-.234.701-.383 1.212-.452 1.6-.07.393-.037.563-.007.637.148.362.457.634.835.735.113.03.377.028 1.018-.224.615-.242 1.424-.645 2.564-1.215l.645-.323.098-.05c.566-.283 1.012-.506 1.5-.561.205-.023.412-.023.618 0 .487.055.934.278 1.5.562l.098.05.645.322c1.14.57 1.949.973 2.564 1.215.641.252.905.255 1.018.224a1.25 1.25 0 00.834-.735c.045-.109.075-.37-.094-1.038-.162-.641-.46-1.494-.883-2.697l-.039-.11c-.218-.62-.39-1.107-.38-1.603a2.75 2.75 0 01.294-1.193c.224-.443.603-.794 1.085-1.24l.086-.08.14-.131c.91-.844 1.55-1.44 1.975-1.92.437-.495.525-.74.534-.871a1.25 1.25 0 00-.296-.898c-.086-.1-.302-.244-.948-.381-.628-.134-1.496-.231-2.73-.368l-.104-.012c-.593-.065-1.06-.117-1.476-.312a2.75 2.75 0 01-.76-.53c-.327-.323-.537-.743-.804-1.277-.015-.031-.03-.063-.047-.094l.62-.31-.62.31-.047-.095c-.594-1.187-1.01-2.018-1.382-2.588-.377-.58-.608-.728-.761-.77a1.25 1.25 0 00-.662 0c-.153.042-.384.19-.762.77-.37.57-.787 1.4-1.38 2.588l-.048.095-.047.094c-.267.534-.477.954-.804 1.277a2.75 2.75 0 01-.76.53c-.416.195-.883.247-1.476.312l-.105.012c-1.233.137-2.102.234-2.73.368-.645.137-.861.28-.947.38a1.25 1.25 0 00-.296.899c.009.131.097.376.534.87.425.481 1.065 1.077 1.974 1.921l.141.13-.51.55.51-.55c.412.383.759.786.943 1.011a.75.75 0 11-1.16.952 9.162 9.162 0 00-.803-.863l-.141-.13.51-.55-.51.55-.032-.03c-.87-.809-1.566-1.454-2.046-1.997-.474-.537-.861-1.103-.907-1.76A2.75 2.75 0 011.47 7.72c.428-.501 1.077-.726 1.777-.875.71-.15 1.652-.255 2.833-.386l.043-.005c.748-.083.947-.115 1.108-.19a1.25 1.25 0 00.345-.241c.127-.125.225-.3.562-.974l.047-.095.023-.045c.566-1.132 1.02-2.04 1.443-2.69.423-.65.914-1.204 1.622-1.399z"/>
</svg>
