<svg xmlns="http://www.w3.org/2000/svg" width="24" height="24" fill="currentColor" viewBox="0 0 24 24">
  <path fill="#0000ff" fill-rule="evenodd" d="M12.75 2a.75.75 0 00-1.5 0v2a.75.75 0 001.5 0V2zm0 18a.75.75 0 00-1.5 0v2a.75.75 0 001.5 0v-2zM2 11.25a.75.75 0 000 1.5h2a.75.75 0 000-1.5H2zm18 0a.75.75 0 000 1.5h2a.75.75 0 000-1.5h-2zM3.97 3.97a.75.75 0 011.06 0l1.5 1.5a.75.75 0 01-1.06 1.06l-1.5-1.5a.75.75 0 010-1.06zm13.5 13.5a.75.75 0 011.06 0l1.5 1.5a.75.75 0 11-1.06 1.06l-1.5-1.5a.75.75 0 010-1.06zm-13.5 1.5a.75.75 0 101.06 1.06l1.5-1.5a.75.75 0 10-1.06-1.06l-1.5 1.5zm13.5-13.5a.75.75 0 001.06 1.06l1.5-1.5a.75.75 0 00-1.06-1.06l-1.5 1.5z" opacity=".4"/>
  <path fill="#0000ff" fill-rule="evenodd" d="M12 7.75a4.25 4.25 0 100 8.5 4.25 4.25 0 000-8.5zM6.25 12a5.75 5.75 0 1111.5 0 5.75 5.75 0 01-11.5 0z"/>
</svg>
