<svg xmlns="http://www.w3.org/2000/svg" width="24" height="24" fill="currentColor" viewBox="0 0 24 24">
  <path fill="#0000ff" fill-rule="evenodd" d="M12 1.25a.75.75 0 01.75.75v2a.75.75 0 01-1.5 0V2a.75.75 0 01.75-.75zm0 18a.75.75 0 01.75.75v2a.75.75 0 01-1.5 0v-2a.75.75 0 01.75-.75zm0-11.5a4.25 4.25 0 103.4 1.7.75.75 0 111.2-.901A5.75 5.75 0 1112 6.25a.75.75 0 010 1.5zm-10 3.5a.75.75 0 000 1.5h2a.75.75 0 000-1.5H2zm18 0a.75.75 0 000 1.5h2a.75.75 0 000-1.5h-2zM3.97 3.97a.75.75 0 011.06 0l1.5 1.5a.75.75 0 01-1.06 1.06l-1.5-1.5a.75.75 0 010-1.06zm13.5 13.5a.75.75 0 011.06 0l1.5 1.5a.75.75 0 11-1.06 1.06l-1.5-1.5a.75.75 0 010-1.06zm-13.5 1.5a.75.75 0 101.06 1.06l1.5-1.5a.75.75 0 10-1.06-1.06l-1.5 1.5zm13.5-13.5a.75.75 0 001.06 1.06l1.5-1.5a.75.75 0 00-1.06-1.06l-1.5 1.5z"/>
</svg>
