<svg xmlns="http://www.w3.org/2000/svg" width="24" height="24" fill="currentColor" viewBox="0 0 24 24">
  <path fill="#0000ff" fill-rule="evenodd" d="M6.8 1.25h-.032c-.813 0-1.469 0-2 .043-.546.045-1.026.14-1.47.366a3.75 3.75 0 00-1.64 1.639c-.226.444-.32.924-.365 1.47-.043.531-.043 1.187-.043 2v10.464c0 .813 0 1.469.043 2 .045.546.14 1.026.366 1.47a3.75 3.75 0 001.639 1.64c.444.226.924.32 1.47.365.531.043 1.187.043 2 .043h5.982V5.189l-.018.017c-.006-.154-.014-.3-.025-.437-.045-.547-.14-1.027-.366-1.471a3.75 3.75 0 00-1.638-1.64c-.445-.226-.925-.32-1.472-.365-.53-.043-1.186-.043-1.999-.043H6.8zm7.45 2.676V18.55l5.111-6.272-.009-.001.367-.444.072-.087c.514-.623.866-1.049 1.073-1.504a3.75 3.75 0 00-.162-3.418c-.25-.434-.64-.824-1.212-1.395l-.08-.08-.087-.088c-.622-.621-1.046-1.045-1.512-1.303a3.75 3.75 0 00-3.561-.033zm6.649 8.84l-6.649 8.16v1.824h3.277c.676 0 1.221 0 1.665-.03.457-.031.86-.097 1.243-.255a3.751 3.751 0 002.03-2.03c.158-.382.224-.786.255-1.242.03-.445.03-.99.03-1.666v-.643c0-.818 0-1.376-.128-1.855a3.75 3.75 0 00-1.723-2.263zM8 17a1 1 0 11-2 0 1 1 0 012 0z"/>
</svg>
