<svg xmlns="http://www.w3.org/2000/svg" width="24" height="24" fill="currentColor" viewBox="0 0 24 24">
  <path fill="#0000ff" fill-rule="evenodd" d="M13.075 1.985a.804.804 0 011.307.885l-.786 1.835-.01.023c-.164.383-.302.705-.396.971-.095.271-.172.556-.165.856a2.25 2.25 0 001.313 1.99c.273.126.565.167.852.186.281.019.631.019 1.049.019h1.166c.977 0 1.662 0 2.19.046.521.045.811.13 1.02.248.454.258.804.666.99 1.154.086.225.125.524.09 1.046-.035.53-.139 1.206-.287 2.172l-.523 3.4c-.113.733-.192 1.242-.284 1.637-.09.385-.18.608-.29.777a2.25 2.25 0 01-.956.82c-.184.083-.417.139-.812.169-.404.03-.919.031-1.661.031H8A2.25 2.25 0 015.75 18v-1a.75.75 0 00-1.5 0v1c0 .438.075.858.213 1.248a8.807 8.807 0 01-.506-.015c-.241-.017-.358-.046-.435-.078a1.25 1.25 0 01-.677-.677c-.032-.077-.061-.194-.078-.435A17.091 17.091 0 012.75 17V9a.75.75 0 00-1.5 0v8.025c0 .445 0 .816.02 1.12.022.317.07.617.19.907a2.75 2.75 0 001.488 1.489c.29.12.59.167.907.188.304.021.675.021 1.12.021H5.45c.67.62 1.565 1 2.55 1H16.912c.705 0 1.277 0 1.745-.036.483-.036.91-.114 1.317-.298a3.75 3.75 0 001.593-1.367c.244-.374.386-.784.495-1.256.107-.457.194-1.022.301-1.72l.005-.03.523-3.4.005-.033c.142-.924.256-1.665.296-2.266.041-.616.012-1.164-.185-1.68a3.75 3.75 0 00-1.65-1.924c-.48-.273-1.018-.385-1.633-.438-.6-.052-1.35-.052-2.284-.052h-1.176c-.45 0-.749 0-.975-.015-.226-.015-.302-.042-.326-.053a.75.75 0 01-.438-.664c0-.027.005-.107.08-.32.075-.214.193-.49.37-.903l.786-1.834A2.304 2.304 0 0012.015.925L6.59 6.348l-.025.025c-.334.334-.533.533-.71.743a6.75 6.75 0 00-1.584 3.82c-.022.275-.022.556-.022 1.028V13a.75.75 0 001.5 0v-1c0-.518 0-.735.017-.941a5.25 5.25 0 011.231-2.972c.134-.158.287-.312.654-.678l5.423-5.424z"/>
</svg>
