<svg xmlns="http://www.w3.org/2000/svg" width="24" height="24" fill="currentColor" viewBox="0 0 24 24">
  <path fill="#0000ff" fill-rule="evenodd" d="M8.25 6V2.25H5A3.75 3.75 0 001.25 6v2.743c0 .556.45 1.007 1.007 1.007 1.1 0 1.993.892 1.993 1.993v.514c0 1.1-.892 1.993-1.993 1.993-.556 0-1.007.45-1.007 1.007V18A3.75 3.75 0 005 21.75h3.25V18a.75.75 0 011.5 0v3.75H19A3.75 3.75 0 0022.75 18v-2.743c0-.556-.45-1.007-1.007-1.007-1.1 0-1.993-.892-1.993-1.993v-.514c0-1.1.892-1.993 1.993-1.993.556 0 1.007-.45 1.007-1.007V6A3.75 3.75 0 0019 2.25H9.75V6a.75.75 0 01-1.5 0zm1.5 4a.75.75 0 00-1.5 0v4a.75.75 0 001.5 0v-4z"/>
</svg>
