<svg xmlns="http://www.w3.org/2000/svg" width="24" height="24" fill="currentColor" viewBox="0 0 24 24">
  <path fill="#0000ff" fill-rule="evenodd" d="M10.73 1.25h-.109c-.513 0-.962-.002-1.363.156a2.25 2.25 0 00-.903.65c-.276.331-.418.758-.58 1.245l-.034.103-.282.846H2a.75.75 0 000 1.5h1.293l.604 10.27.002.032c.06 1.033.109 1.853.2 2.513.095.676.242 1.246.533 1.764a4.75 4.75 0 002.058 1.94c.534.26 1.111.374 1.792.428.664.053 1.486.053 2.52.053H12.998c1.035 0 1.857 0 2.521-.053.68-.054 1.258-.167 1.792-.427a4.75 4.75 0 002.058-1.941c.291-.518.438-1.088.532-1.764.092-.66.14-1.48.201-2.513l.002-.032.604-10.27H22a.75.75 0 000-1.5h-5.46l-.281-.846-.035-.103c-.161-.487-.303-.914-.58-1.244a2.25 2.25 0 00-.902-.65c-.4-.159-.85-.158-1.363-.157H10.73zm4.23 3l-.125-.372c-.216-.65-.272-.777-.34-.86a.75.75 0 00-.302-.216c-.1-.04-.237-.052-.923-.052h-2.54c-.686 0-.823.013-.923.052a.75.75 0 00-.301.217c-.07.082-.125.208-.342.86l-.123.371h5.918zm-4.96 5a.75.75 0 01.75.75v7a.75.75 0 01-1.5 0v-7a.75.75 0 01.75-.75zm4.75.75a.75.75 0 00-1.5 0v4a.75.75 0 001.5 0v-4z"/>
</svg>
