<svg xmlns="http://www.w3.org/2000/svg" width="24" height="24" fill="currentColor" viewBox="0 0 24 24">
  <path fill="#0000ff" fill-rule="evenodd" d="M12 2.75a3.25 3.25 0 100 6.5 3.25 3.25 0 000-6.5zM7.25 6a4.75 4.75 0 119.5 0 4.75 4.75 0 01-9.5 0z" opacity=".4"/>
  <path fill="#0000ff" fill-rule="evenodd" d="M3.25 18.8a5.55 5.55 0 015.55-5.55h6.4a5.55 5.55 0 015.55 5.55 3.95 3.95 0 01-3.95 3.95H7.2a3.95 3.95 0 01-3.95-3.95zm5.55-4.05a4.05 4.05 0 00-4.05 4.05 2.45 2.45 0 002.45 2.45h9.6a2.45 2.45 0 002.45-2.45 4.05 4.05 0 00-4.05-4.05H8.8z"/>
</svg>
