<svg xmlns="http://www.w3.org/2000/svg" width="24" height="24" fill="currentColor" viewBox="0 0 24 24">
  <path fill="#0000ff" fill-rule="evenodd" d="M1.53.47A.75.75 0 10.47 1.53L2.43 3.492A5.75 5.75 0 001.348 4.62C.762 5.427.5 6.37.374 7.536.25 8.68.25 10.118.25 11.955v.09c0 1.837 0 3.276.124 4.418.126 1.166.388 2.11.974 2.917.355.488.784.917 1.272 1.272.807.586 1.75.848 2.916.974 1.143.124 2.582.124 4.419.124h.09c1.837 0 3.276 0 4.418-.124 1.166-.126 2.11-.388 2.917-.974a5.752 5.752 0 001.128-1.083l2.462 2.461a.75.75 0 101.06-1.06l-3.12-3.121L4.15 3.09 1.531.47zM10 3.75c1.892 0 3.25.001 4.302.115 1.038.112 1.688.328 2.196.697.36.262.678.58.94.94.513.705.72 1.669.784 3.524.028.828.028 1.8.028 2.974V13.207c0 .169 0 .318.02.465.05.392.204.763.445 1.076.09.119.196.224.316.344l.024.024.015.015c.343.342.62.62.845.824.219.197.458.392.724.502a2.25 2.25 0 002.94-1.217c.11-.267.141-.574.156-.867.015-.305.015-.696.015-1.18V10.742c0-.738 0-1.343-.043-1.813-.042-.467-.136-.946-.434-1.327a2.25 2.25 0 00-1.72-.864c-.485-.012-.925.2-1.324.444-.182.111-.38.245-.598.4-.125-1.194-.39-2.151-.98-2.962a5.752 5.752 0 00-1.271-1.272c-.807-.586-1.75-.848-2.916-.974-1.143-.124-2.582-.124-4.419-.124H9.99c-1.16 0-2.157 0-3.015.03a.75.75 0 00.052 1.498A92.378 92.378 0 0110 3.75z"/>
</svg>
