<svg xmlns="http://www.w3.org/2000/svg" width="24" height="24" fill="currentColor" viewBox="0 0 24 24">
  <path fill="#0000ff" fill-rule="evenodd" d="M14.383 4.233a2.75 2.75 0 00-3.605-1.091c-.321.16-.595.437-.842.731-.257.307-.546.711-.882 1.204a.75.75 0 001.238.846c.334-.488.588-.84.795-1.087.217-.26.327-.335.358-.35a1.25 1.25 0 011.638.496c.034.058.1.272.135.882.032.572.032 1.356.032 2.444V10a.75.75 0 101.5 0V8.282c0-1.057 0-1.883-.034-2.502-.033-.585-.1-1.141-.333-1.547zm2.993 1.35a.75.75 0 011.04-.207C20.436 6.725 21.75 9.207 21.75 12c0 1.173-.232 2.29-.648 3.289-.161.386-.35.755-.564 1.103a.75.75 0 01-1.278-.784c.172-.282.326-.581.457-.897.34-.816.533-1.735.533-2.711 0-2.335-1.099-4.33-2.666-5.376a.75.75 0 01-.208-1.04zm-1 4a.75.75 0 011.04-.207c.824.55 1.334 1.54 1.334 2.624 0 .457-.09.894-.255 1.289a.75.75 0 11-1.384-.578A1.85 1.85 0 0017.25 12c0-.626-.295-1.128-.666-1.376a.75.75 0 01-.208-1.04z" opacity=".4"/>
  <path fill="#0000ff" fill-rule="evenodd" d="M2.47 2.47a.75.75 0 011.06 0l4.8 4.8 6.2 6.2 7 7a.75.75 0 11-1.06 1.06l-5.72-5.72c0 1.013-.001 1.81-.034 2.41-.033.585-.1 1.141-.333 1.547a2.75 2.75 0 01-3.605 1.091c-.419-.208-.783-.634-1.134-1.103-.372-.495-.83-1.183-1.417-2.062l-.014-.022c-.254-.381-.326-.482-.403-.558a1.25 1.25 0 00-.63-.338c-.107-.021-.23-.025-.688-.025h-.608c-.818 0-1.376 0-1.855-.128a3.75 3.75 0 01-2.651-2.651c-.128-.48-.128-1.037-.128-1.855V12v-.116c0-.818 0-1.376.128-1.855a3.75 3.75 0 012.651-2.651c.48-.128 1.037-.128 1.855-.128h.306L2.47 3.53a.75.75 0 010-1.06zm5.135 6.196l-.126.029c-.274.055-.56.055-.923.055H6c-.978 0-1.32.006-1.582.077a2.25 2.25 0 00-1.591 1.59l-.725-.194.725.195c-.07.262-.077.604-.077 1.582 0 .978.006 1.32.077 1.582a2.25 2.25 0 001.59 1.591c.263.07.605.077 1.583.077h.556c.364 0 .65 0 .923.055a2.75 2.75 0 011.388.743c.198.197.356.435.558.738l.036.053c.604.906 1.039 1.558 1.382 2.016.367.488.542.63.602.66a1.25 1.25 0 001.638-.497c.034-.058.1-.272.135-.882.032-.572.032-1.356.032-2.444V14.31L7.605 8.666z"/>
</svg>
