<svg xmlns="http://www.w3.org/2000/svg" width="24" height="24" fill="currentColor" viewBox="0 0 24 24">
  <path fill="#0000ff" fill-rule="evenodd" d="M14.383 4.233a2.75 2.75 0 00-3.605-1.091c-.419.208-.783.634-1.134 1.103-.372.495-.83 1.183-1.417 2.062l-.014.022c-.254.381-.326.482-.403.558a1.25 1.25 0 01-.63.338c-.107.021-.23.025-.688.025h-.608c-.818 0-1.376 0-1.855.128a3.75 3.75 0 00-2.651 2.651c-.128.48-.128 1.037-.128 1.855v.232c0 .818 0 1.376.128 1.855a3.75 3.75 0 002.651 2.651c.48.128 1.037.128 1.855.128h.608c.458 0 .581.004.687.025.24.049.458.166.631.338.077.076.149.177.403.558l.014.022c.587.88 1.045 1.567 1.417 2.062.351.469.715.895 1.134 1.103a2.75 2.75 0 003.605-1.091c.234-.406.3-.962.333-1.548.034-.618.034-1.444.034-2.501V8.282c0-1.057 0-1.883-.034-2.501-.033-.585-.1-1.142-.333-1.548zm-2.938.253a1.25 1.25 0 011.638.496c.034.058.1.272.135.882.032.572.032 1.356.032 2.444v7.384c0 1.088 0 1.872-.032 2.444-.034.61-.101.824-.135.882a1.25 1.25 0 01-1.638.496c-.06-.03-.235-.17-.602-.66-.343-.457-.778-1.11-1.382-2.015l-.036-.053c-.202-.303-.36-.541-.558-.738a2.75 2.75 0 00-1.388-.743c-.274-.055-.56-.055-.923-.055H6c-.978 0-1.32-.006-1.582-.077a2.25 2.25 0 01-1.591-1.59c-.07-.263-.077-.605-.077-1.583s.006-1.32.077-1.582a2.25 2.25 0 011.59-1.591c.263-.07.605-.077 1.583-.077h.556c.364 0 .65 0 .923-.055a2.75 2.75 0 001.388-.743c.198-.197.356-.435.558-.738l.036-.053c.604-.906 1.039-1.558 1.382-2.016.367-.488.542-.63.602-.66zm5.931 1.097a.75.75 0 011.04-.207C20.437 6.725 21.75 9.207 21.75 12c0 2.793-1.314 5.275-3.333 6.624a.75.75 0 01-.834-1.248c1.568-1.047 2.667-3.04 2.667-5.376 0-2.335-1.099-4.33-2.666-5.376a.75.75 0 01-.208-1.04zm-1 4a.75.75 0 011.04-.207c.824.55 1.334 1.54 1.334 2.624 0 1.083-.51 2.074-1.333 2.624a.75.75 0 01-.834-1.248c.373-.248.667-.75.667-1.376 0-.626-.294-1.128-.666-1.376a.75.75 0 01-.208-1.04z"/>
</svg>
