<svg xmlns="http://www.w3.org/2000/svg" width="24" height="24" fill="currentColor" viewBox="0 0 24 24">
  <path fill="#0000ff" fill-rule="evenodd" d="M18.416 5.376a.75.75 0 00-.833 1.248C19.151 7.67 20.25 9.665 20.25 12c0 2.335-1.099 4.33-2.667 5.376a.75.75 0 00.834 1.248c2.019-1.349 3.333-3.831 3.333-6.624 0-2.793-1.314-5.275-3.334-6.624zm-1 4a.75.75 0 00-.833 1.248c.372.248.667.75.667 1.376 0 .626-.295 1.128-.667 1.376a.75.75 0 00.834 1.248c.823-.55 1.333-1.54 1.333-2.624 0-1.083-.51-2.074-1.334-2.624z" opacity=".4"/>
  <path fill="#0000ff" fill-rule="evenodd" d="M10.778 3.142a2.75 2.75 0 013.605 1.091c.234.406.3.963.333 1.548.034.618.034 1.444.034 2.501v7.436c0 1.057 0 1.883-.034 2.501-.033.585-.1 1.142-.333 1.548a2.75 2.75 0 01-3.605 1.091c-.419-.208-.783-.634-1.134-1.103-.372-.495-.83-1.183-1.417-2.062l-.014-.022c-.254-.381-.326-.482-.403-.558a1.25 1.25 0 00-.63-.338c-.107-.021-.23-.025-.688-.025h-.608c-.818 0-1.376 0-1.855-.128a3.75 3.75 0 01-2.651-2.651c-.128-.48-.128-1.037-.128-1.855a220.06 220.06 0 000-.232c0-.818 0-1.376.128-1.855a3.75 3.75 0 012.651-2.651c.48-.128 1.037-.128 1.855-.128h.608c.458 0 .581-.004.687-.025a1.25 1.25 0 00.631-.338c.077-.076.149-.177.403-.558l.014-.022c.587-.88 1.045-1.567 1.417-2.062.351-.469.715-.895 1.134-1.103zm2.305 1.84a1.25 1.25 0 00-1.638-.496c-.06.03-.235.17-.602.66-.343.457-.778 1.11-1.382 2.015l-.036.053c-.202.303-.36.541-.558.738a2.75 2.75 0 01-1.388.743c-.274.055-.56.055-.923.055H6c-.978 0-1.32.006-1.582.077a2.25 2.25 0 00-1.591 1.59c-.07.263-.077.605-.077 1.583s.006 1.32.077 1.582a2.25 2.25 0 001.59 1.591c.263.07.605.077 1.583.077h.556c.364 0 .65 0 .923.055a2.75 2.75 0 011.388.743c.198.197.356.435.558.738l.036.053c.604.906 1.039 1.558 1.382 2.016.367.488.542.63.602.66a1.25 1.25 0 001.638-.497c.034-.058.1-.272.135-.882.032-.572.032-1.356.032-2.444V8.308c0-1.088 0-1.872-.032-2.444-.034-.61-.101-.824-.135-.882z"/>
</svg>
