<svg xmlns="http://www.w3.org/2000/svg" width="24" height="24" fill="currentColor" viewBox="0 0 24 24">
  <path fill="#0000ff" fill-rule="evenodd" d="M12.893 2.875c-.414-.118-.876-.125-2.093-.125H4a1.25 1.25 0 100 2.5h11.5l-.18-.24c-.73-.974-1.013-1.339-1.356-1.6a3.25 3.25 0 00-1.072-.535zM4 6.75h11.6c1.133 0 1.937 0 2.566.052.62.05 1.005.147 1.31.302a3.25 3.25 0 011.42 1.42c.155.305.251.69.302 1.31.01.13.02.269.026.416H21a3.75 3.75 0 100 7.5h.224c-.007.147-.015.285-.026.416-.05.62-.147 1.005-.302 1.31a3.25 3.25 0 01-1.42 1.42c-.305.155-.69.251-1.31.302-.63.051-1.433.052-2.566.052H8.4c-1.132 0-1.937 0-2.566-.052-.62-.05-1.005-.147-1.31-.302a3.25 3.25 0 01-1.42-1.42c-.155-.305-.251-.69-.302-1.31-.051-.63-.052-1.434-.052-2.566V9a.75.75 0 10-1.5 0v6.633c0 1.092 0 1.958.057 2.655.058.714.18 1.317.46 1.868a4.75 4.75 0 002.077 2.076c.55.281 1.154.403 1.868.46.697.058 1.563.058 2.655.058H15.633c1.092 0 1.958 0 2.655-.057.714-.058 1.317-.18 1.869-.46a4.75 4.75 0 002.075-2.077c.281-.55.403-1.154.461-1.868.057-.697.057-1.563.057-2.655v-3.266c0-1.092 0-1.958-.057-2.655-.058-.714-.18-1.317-.46-1.869a4.75 4.75 0 00-2.076-2.075c-.552-.281-1.155-.403-1.869-.461a16.176 16.176 0 00-.903-.044L16.52 4.11l-.068-.09c-.639-.853-1.05-1.401-1.58-1.804a4.75 4.75 0 00-1.568-.783c-.64-.183-1.326-.183-2.39-.183H4a2.75 2.75 0 000 5.5zm17.25 9.5V12.4v-.65H21a2.25 2.25 0 000 4.5h.25z"/>
</svg>
