<svg xmlns="http://www.w3.org/2000/svg" width="24" height="24" fill="currentColor" viewBox="0 0 24 24">
  <path fill="#0000ff" fill-rule="evenodd" d="M12.893 2.875c-.414-.118-.876-.125-2.093-.125H4a1.25 1.25 0 100 2.5h11.5l-.18-.24c-.73-.973-1.013-1.339-1.356-1.599a3.25 3.25 0 00-1.072-.536zM4 1.25A2.75 2.75 0 001.25 4v11.633c0 1.092 0 1.958.057 2.655.058.714.18 1.317.46 1.869a4.75 4.75 0 002.077 2.075c.55.281 1.154.403 1.868.461.697.057 1.563.057 2.655.057H15.633c1.092 0 1.958 0 2.655-.057.714-.058 1.317-.18 1.869-.46a4.75 4.75 0 002.075-2.076c.281-.552.403-1.155.461-1.869.057-.697.057-1.563.057-2.655v-3.266c0-1.092 0-1.958-.057-2.655-.058-.714-.18-1.317-.46-1.868a4.75 4.75 0 00-2.076-2.076c-.552-.281-1.155-.403-1.869-.461a16.186 16.186 0 00-.903-.044L16.52 4.11l-.068-.09c-.639-.852-1.05-1.401-1.58-1.804a4.75 4.75 0 00-1.568-.783c-.64-.183-1.326-.183-2.39-.183H4zm14.166 5.552c-.63-.051-1.433-.052-2.566-.052H4c-.45 0-.875-.108-1.25-.3v9.15c0 1.133 0 1.937.052 2.566.05.62.147 1.005.302 1.31a3.25 3.25 0 001.42 1.42c.305.155.69.251 1.31.302.63.051 1.434.052 2.566.052h7.2c1.133 0 1.937 0 2.566-.052.62-.05 1.005-.147 1.31-.302a3.25 3.25 0 001.42-1.42c.155-.305.251-.69.302-1.31.01-.13.02-.269.026-.416H21a3.75 3.75 0 110-7.5h.224a11.541 11.541 0 00-.026-.416c-.05-.62-.147-1.005-.302-1.31a3.25 3.25 0 00-1.42-1.42c-.305-.155-.69-.251-1.31-.302zm3.084 4.948H21a2.25 2.25 0 000 4.5h.25V12.4v-.65z"/>
</svg>
