<svg xmlns="http://www.w3.org/2000/svg" width="24" height="24" fill="currentColor" viewBox="0 0 24 24">
  <path fill="#0000ff" fill-rule="evenodd" d="M12 2.75a7.25 7.25 0 100 14.5 7.25 7.25 0 000-14.5zM3.25 10a8.75 8.75 0 1114.65 6.462l.01.015.023.031c.577.793 1.041 1.431 1.354 1.956.312.523.552 1.055.534 1.622a2.75 2.75 0 01-1.063 2.087c-.447.347-1.019.466-1.625.521-.609.056-1.397.056-2.378.056h-5.51c-.98 0-1.77 0-2.378-.056-.606-.055-1.178-.174-1.625-.521a2.75 2.75 0 01-1.063-2.087c-.018-.567.222-1.099.534-1.622.313-.525.777-1.163 1.354-1.956l.023-.031.01-.015A8.727 8.727 0 013.25 10zm4.04 7.376c-.598.823-1.017 1.4-1.289 1.856-.279.468-.327.688-.323.807.012.372.189.72.483.949.094.072.3.163.843.213.532.048 1.251.049 2.28.049h5.432c1.029 0 1.748 0 2.28-.05.543-.049.75-.14.843-.212a1.25 1.25 0 00.483-.95c.004-.118-.044-.338-.323-.806-.272-.456-.69-1.033-1.29-1.856A8.71 8.71 0 0112 18.75a8.71 8.71 0 01-4.71-1.374zM12 8.75a1.25 1.25 0 100 2.5 1.25 1.25 0 000-2.5zM9.25 10a2.75 2.75 0 115.5 0 2.75 2.75 0 01-5.5 0z"/>
</svg>
