<svg xmlns="http://www.w3.org/2000/svg" width="24" height="24" fill="currentColor" viewBox="0 0 24 24">
  <path fill="#0000ff" fill-rule="evenodd" d="M8.376 3.72a7.25 7.25 0 019.905 9.905.75.75 0 001.298.75A8.75 8.75 0 007.625 2.421a.75.75 0 10.75 1.298zM12 7.25a.75.75 0 000 1.5c.69 0 1.25.56 1.25 1.25a.75.75 0 001.5 0A2.75 2.75 0 0012 7.25z" opacity=".4"/>
  <path fill="#0000ff" fill-rule="evenodd" d="M1.47 1.47a.75.75 0 011.06 0L5.962 4.9l11.137 11.137 1.657 1.657 3.774 3.775a.75.75 0 01-1.06 1.06l-1.767-1.767a2.491 2.491 0 01-.65 1.144c-.484.504-1.17.68-1.905.762-.735.081-1.7.081-2.901.081H9.753c-1.2 0-2.166 0-2.901-.081-.736-.081-1.42-.258-1.906-.762-.584-.607-.825-1.273-.734-1.968.083-.631.43-1.178.744-1.608.137-.187.285-.374.423-.547l.074-.094c.163-.206.31-.394.434-.579.152-.223.25-.408.306-.566A8.73 8.73 0 013.25 10c0-1.63.446-3.158 1.224-4.465L1.47 2.53a.75.75 0 010-1.06zm4.106 5.166A7.216 7.216 0 004.75 10c0 2.29 1.06 4.33 2.72 5.66A7.216 7.216 0 0012 17.25a7.216 7.216 0 003.364-.826L5.576 6.636zm10.89 10.89A8.713 8.713 0 0112 18.75a8.712 8.712 0 01-4.574-1.29 4.831 4.831 0 01-.298.495 11.595 11.595 0 01-.578.766c-.138.174-.265.335-.384.496-.29.398-.436.685-.467.917-.022.168.003.395.328.733.105.109.335.239.99.31.643.072 1.524.073 2.784.073h4.398c1.26 0 2.141-.001 2.785-.072.653-.072.884-.202.99-.311.29-.302.337-.585.27-.914-.075-.37-.297-.786-.602-1.25l-1.177-1.177z"/>
</svg>
