<svg xmlns="http://www.w3.org/2000/svg" width="24" height="24" fill="currentColor" viewBox="0 0 24 24">
  <path fill="#0000ff" fill-rule="evenodd" d="M12 1.25C8.406 1.25 5.25 3.702 5.25 7s3.156 5.75 6.75 5.75c3.033 0 5.25 2.025 5.25 4.25s-2.217 4.25-5.25 4.25a.75.75 0 000 1.5c3.594 0 6.75-2.452 6.75-5.75s-3.156-5.75-6.75-5.75c-3.033 0-5.25-2.025-5.25-4.25S8.967 2.75 12 2.75a.75.75 0 000-1.5zM12 7a1 1 0 11-2 0 1 1 0 012 0zm2 10a1 1 0 11-2 0 1 1 0 012 0z" opacity=".4"/>
  <path fill="#0000ff" fill-rule="evenodd" d="M12 2.75a9.25 9.25 0 100 18.5 9.25 9.25 0 000-18.5zM1.25 12C1.25 6.063 6.063 1.25 12 1.25S22.75 6.063 22.75 12 17.937 22.75 12 22.75 1.25 17.937 1.25 12z"/>
</svg>
