<svg xmlns="http://www.w3.org/2000/svg" width="24" height="24" fill="currentColor" viewBox="0 0 24 24">
  <path fill="#0000ff" fill-rule="evenodd" d="M12 2.75C8.967 2.75 6.75 4.775 6.75 7c0 1.761 1.363 3.378 3.462 3.996a.75.75 0 11-.424 1.439C7.226 11.68 5.25 9.593 5.25 7c0-.555.09-1.087.256-1.587A9.25 9.25 0 0012 21.25c3.033 0 5.25-2.025 5.25-4.25 0-1.761-1.363-3.378-3.462-3.996a.75.75 0 01.424-1.439c2.562.755 4.538 2.842 4.538 5.435 0 .555-.09 1.087-.256 1.587A9.25 9.25 0 0012 2.75zm0 20C6.063 22.75 1.25 17.937 1.25 12S6.063 1.25 12 1.25 22.75 6.063 22.75 12 17.937 22.75 12 22.75zM11 8a1 1 0 100-2 1 1 0 000 2zm3 9a1 1 0 11-2 0 1 1 0 012 0z"/>
</svg>
