<svg xmlns="http://www.w3.org/2000/svg" width="24" height="24" fill="currentColor" viewBox="0 0 24 24">
  <path fill="#0000ff" fill-rule="evenodd" d="M12 2.75C8.967 2.75 6.75 4.775 6.75 7s2.217 4.25 5.25 4.25c3.594 0 6.75 2.452 6.75 5.75 0 .555-.09 1.087-.256 1.587A9.25 9.25 0 0012 2.75zm0 20c5.937 0 10.75-4.813 10.75-10.75S17.937 1.25 12 1.25 1.25 6.063 1.25 12 6.063 22.75 12 22.75zM2.75 12a9.222 9.222 0 012.756-6.587A5.014 5.014 0 005.25 7c0 3.298 3.156 5.75 6.75 5.75 3.033 0 5.25 2.025 5.25 4.25s-2.217 4.25-5.25 4.25A9.25 9.25 0 012.75 12zM11 8a1 1 0 100-2 1 1 0 000 2zm3 9a1 1 0 11-2 0 1 1 0 012 0z"/>
</svg>
